ISO-10303-21;
HEADER;
/* Generated by software containing ST-Developer
 * from STEP Tools, Inc. (www.steptools.com) 
 */

FILE_DESCRIPTION(
/* description */ ('STEP AP214'),
/* implementation_level */ '2;1');

FILE_NAME(
/* name */ 'dc6bbc99-9342-4bba-bac6-5cf06858c8b8.stp',
/* time_stamp */ '2026-06-09T12:26:12Z',
/* author */ (''),
/* organization */ (''),
/* preprocessor_version */ 'ST-DEVELOPER v20.1',
/* originating_system */ 'Autodesk Translation Framework v15.8.0.0',
/* authorisation */ '');

FILE_SCHEMA (('AUTOMOTIVE_DESIGN { 1 0 10303 214 3 1 1 }'));
ENDSEC;

DATA;
#10=MECHANICAL_DESIGN_GEOMETRIC_PRESENTATION_REPRESENTATION('',(#19,#20,
#21,#22,#23),#1688);
#11=SHAPE_REPRESENTATION_RELATIONSHIP('SRR','None',#1695,#12);
#12=ADVANCED_BREP_SHAPE_REPRESENTATION('',(#24,#25,#26,#27,#28),#1687);
#13=CONICAL_SURFACE('',#1083,1.,0.0872664625997167);
#14=CONICAL_SURFACE('',#1086,0.999999999999999,0.0872664625997167);
#15=(
BOUNDED_CURVE()
B_SPLINE_CURVE(2,(#1475,#1476,#1477),.UNSPECIFIED.,.F.,.F.)
B_SPLINE_CURVE_WITH_KNOTS((3,3),(0.0836127533739884,0.388925998869796),
 .UNSPECIFIED.)
CURVE()
GEOMETRIC_REPRESENTATION_ITEM()
RATIONAL_B_SPLINE_CURVE((1.,1.,1.))
REPRESENTATION_ITEM('')
);
#16=(
BOUNDED_CURVE()
B_SPLINE_CURVE(2,(#1479,#1480,#1481),.UNSPECIFIED.,.F.,.F.)
B_SPLINE_CURVE_WITH_KNOTS((3,3),(0.265390644225823,0.570703889716063),
 .UNSPECIFIED.)
CURVE()
GEOMETRIC_REPRESENTATION_ITEM()
RATIONAL_B_SPLINE_CURVE((1.,1.,1.))
REPRESENTATION_ITEM('')
);
#17=(
BOUNDED_CURVE()
B_SPLINE_CURVE(2,(#1485,#1486,#1487),.UNSPECIFIED.,.F.,.F.)
B_SPLINE_CURVE_WITH_KNOTS((3,3),(0.0836127533739893,0.388925998869798),
 .UNSPECIFIED.)
CURVE()
GEOMETRIC_REPRESENTATION_ITEM()
RATIONAL_B_SPLINE_CURVE((1.,1.,1.))
REPRESENTATION_ITEM('')
);
#18=(
BOUNDED_CURVE()
B_SPLINE_CURVE(2,(#1489,#1490,#1491),.UNSPECIFIED.,.F.,.F.)
B_SPLINE_CURVE_WITH_KNOTS((3,3),(0.265390644225806,0.570703889716057),
 .UNSPECIFIED.)
CURVE()
GEOMETRIC_REPRESENTATION_ITEM()
RATIONAL_B_SPLINE_CURVE((1.,1.,1.))
REPRESENTATION_ITEM('')
);
#19=STYLED_ITEM('',(#1705),#24);
#20=STYLED_ITEM('',(#1706),#25);
#21=STYLED_ITEM('',(#1705),#26);
#22=STYLED_ITEM('',(#1705),#27);
#23=STYLED_ITEM('',(#1705),#28);
#24=MANIFOLD_SOLID_BREP('Body1',#1044);
#25=MANIFOLD_SOLID_BREP('Body2',#1045);
#26=MANIFOLD_SOLID_BREP('Body3',#1046);
#27=MANIFOLD_SOLID_BREP('Body4',#1047);
#28=MANIFOLD_SOLID_BREP('Body5',#1048);
#29=FACE_BOUND('',#145,.T.);
#30=FACE_BOUND('',#148,.T.);
#31=PLANE('',#1065);
#32=PLANE('',#1066);
#33=PLANE('',#1067);
#34=PLANE('',#1068);
#35=PLANE('',#1069);
#36=PLANE('',#1070);
#37=PLANE('',#1071);
#38=PLANE('',#1072);
#39=PLANE('',#1073);
#40=PLANE('',#1074);
#41=PLANE('',#1075);
#42=PLANE('',#1078);
#43=PLANE('',#1079);
#44=PLANE('',#1080);
#45=PLANE('',#1081);
#46=PLANE('',#1082);
#47=PLANE('',#1085);
#48=PLANE('',#1088);
#49=PLANE('',#1089);
#50=PLANE('',#1090);
#51=PLANE('',#1091);
#52=PLANE('',#1092);
#53=PLANE('',#1093);
#54=PLANE('',#1094);
#55=PLANE('',#1095);
#56=PLANE('',#1096);
#57=PLANE('',#1097);
#58=PLANE('',#1098);
#59=PLANE('',#1099);
#60=PLANE('',#1100);
#61=PLANE('',#1101);
#62=PLANE('',#1102);
#63=PLANE('',#1103);
#64=PLANE('',#1104);
#65=PLANE('',#1105);
#66=PLANE('',#1106);
#67=PLANE('',#1107);
#68=PLANE('',#1108);
#69=PLANE('',#1109);
#70=PLANE('',#1110);
#71=PLANE('',#1111);
#72=PLANE('',#1112);
#73=PLANE('',#1113);
#74=PLANE('',#1114);
#75=PLANE('',#1115);
#76=PLANE('',#1116);
#77=PLANE('',#1117);
#78=PLANE('',#1118);
#79=PLANE('',#1119);
#80=PLANE('',#1120);
#81=PLANE('',#1121);
#82=PLANE('',#1122);
#83=PLANE('',#1123);
#84=PLANE('',#1124);
#85=FACE_OUTER_BOUND('',#142,.T.);
#86=FACE_OUTER_BOUND('',#143,.T.);
#87=FACE_OUTER_BOUND('',#144,.T.);
#88=FACE_OUTER_BOUND('',#146,.T.);
#89=FACE_OUTER_BOUND('',#147,.T.);
#90=FACE_OUTER_BOUND('',#149,.T.);
#91=FACE_OUTER_BOUND('',#150,.T.);
#92=FACE_OUTER_BOUND('',#151,.T.);
#93=FACE_OUTER_BOUND('',#152,.T.);
#94=FACE_OUTER_BOUND('',#153,.T.);
#95=FACE_OUTER_BOUND('',#154,.T.);
#96=FACE_OUTER_BOUND('',#155,.T.);
#97=FACE_OUTER_BOUND('',#156,.T.);
#98=FACE_OUTER_BOUND('',#157,.T.);
#99=FACE_OUTER_BOUND('',#158,.T.);
#100=FACE_OUTER_BOUND('',#159,.T.);
#101=FACE_OUTER_BOUND('',#160,.T.);
#102=FACE_OUTER_BOUND('',#161,.T.);
#103=FACE_OUTER_BOUND('',#162,.T.);
#104=FACE_OUTER_BOUND('',#163,.T.);
#105=FACE_OUTER_BOUND('',#164,.T.);
#106=FACE_OUTER_BOUND('',#165,.T.);
#107=FACE_OUTER_BOUND('',#166,.T.);
#108=FACE_OUTER_BOUND('',#167,.T.);
#109=FACE_OUTER_BOUND('',#168,.T.);
#110=FACE_OUTER_BOUND('',#169,.T.);
#111=FACE_OUTER_BOUND('',#170,.T.);
#112=FACE_OUTER_BOUND('',#171,.T.);
#113=FACE_OUTER_BOUND('',#172,.T.);
#114=FACE_OUTER_BOUND('',#173,.T.);
#115=FACE_OUTER_BOUND('',#174,.T.);
#116=FACE_OUTER_BOUND('',#175,.T.);
#117=FACE_OUTER_BOUND('',#176,.T.);
#118=FACE_OUTER_BOUND('',#177,.T.);
#119=FACE_OUTER_BOUND('',#178,.T.);
#120=FACE_OUTER_BOUND('',#179,.T.);
#121=FACE_OUTER_BOUND('',#180,.T.);
#122=FACE_OUTER_BOUND('',#181,.T.);
#123=FACE_OUTER_BOUND('',#182,.T.);
#124=FACE_OUTER_BOUND('',#183,.T.);
#125=FACE_OUTER_BOUND('',#184,.T.);
#126=FACE_OUTER_BOUND('',#185,.T.);
#127=FACE_OUTER_BOUND('',#186,.T.);
#128=FACE_OUTER_BOUND('',#187,.T.);
#129=FACE_OUTER_BOUND('',#188,.T.);
#130=FACE_OUTER_BOUND('',#189,.T.);
#131=FACE_OUTER_BOUND('',#190,.T.);
#132=FACE_OUTER_BOUND('',#191,.T.);
#133=FACE_OUTER_BOUND('',#192,.T.);
#134=FACE_OUTER_BOUND('',#193,.T.);
#135=FACE_OUTER_BOUND('',#194,.T.);
#136=FACE_OUTER_BOUND('',#195,.T.);
#137=FACE_OUTER_BOUND('',#196,.T.);
#138=FACE_OUTER_BOUND('',#197,.T.);
#139=FACE_OUTER_BOUND('',#198,.T.);
#140=FACE_OUTER_BOUND('',#199,.T.);
#141=FACE_OUTER_BOUND('',#200,.T.);
#142=EDGE_LOOP('',(#704,#705,#706,#707));
#143=EDGE_LOOP('',(#708,#709,#710,#711));
#144=EDGE_LOOP('',(#712,#713,#714,#715,#716,#717));
#145=EDGE_LOOP('',(#718));
#146=EDGE_LOOP('',(#719,#720,#721,#722));
#147=EDGE_LOOP('',(#723,#724,#725,#726,#727,#728));
#148=EDGE_LOOP('',(#729));
#149=EDGE_LOOP('',(#730,#731,#732,#733));
#150=EDGE_LOOP('',(#734,#735,#736,#737));
#151=EDGE_LOOP('',(#738,#739,#740,#741));
#152=EDGE_LOOP('',(#742,#743,#744,#745));
#153=EDGE_LOOP('',(#746,#747,#748,#749));
#154=EDGE_LOOP('',(#750,#751,#752,#753));
#155=EDGE_LOOP('',(#754,#755,#756,#757,#758,#759,#760,#761));
#156=EDGE_LOOP('',(#762,#763,#764,#765));
#157=EDGE_LOOP('',(#766,#767,#768,#769));
#158=EDGE_LOOP('',(#770,#771,#772,#773));
#159=EDGE_LOOP('',(#774,#775,#776,#777,#778,#779,#780,#781,#782,#783));
#160=EDGE_LOOP('',(#784,#785,#786,#787,#788,#789,#790,#791,#792,#793));
#161=EDGE_LOOP('',(#794,#795,#796,#797));
#162=EDGE_LOOP('',(#798,#799));
#163=EDGE_LOOP('',(#800,#801,#802,#803));
#164=EDGE_LOOP('',(#804,#805));
#165=EDGE_LOOP('',(#806,#807,#808,#809));
#166=EDGE_LOOP('',(#810,#811,#812,#813));
#167=EDGE_LOOP('',(#814,#815,#816,#817));
#168=EDGE_LOOP('',(#818,#819,#820,#821,#822,#823,#824,#825,#826,#827));
#169=EDGE_LOOP('',(#828,#829,#830,#831));
#170=EDGE_LOOP('',(#832,#833,#834,#835,#836,#837,#838,#839,#840,#841));
#171=EDGE_LOOP('',(#842,#843,#844,#845));
#172=EDGE_LOOP('',(#846,#847,#848,#849));
#173=EDGE_LOOP('',(#850,#851,#852,#853));
#174=EDGE_LOOP('',(#854,#855,#856,#857));
#175=EDGE_LOOP('',(#858,#859,#860,#861));
#176=EDGE_LOOP('',(#862,#863,#864,#865));
#177=EDGE_LOOP('',(#866,#867,#868,#869));
#178=EDGE_LOOP('',(#870,#871,#872,#873));
#179=EDGE_LOOP('',(#874,#875,#876,#877));
#180=EDGE_LOOP('',(#878,#879,#880,#881,#882,#883,#884,#885,#886,#887));
#181=EDGE_LOOP('',(#888,#889,#890,#891));
#182=EDGE_LOOP('',(#892,#893,#894,#895,#896,#897,#898,#899,#900,#901));
#183=EDGE_LOOP('',(#902,#903,#904,#905));
#184=EDGE_LOOP('',(#906,#907,#908,#909));
#185=EDGE_LOOP('',(#910,#911,#912,#913));
#186=EDGE_LOOP('',(#914,#915,#916,#917));
#187=EDGE_LOOP('',(#918,#919,#920,#921));
#188=EDGE_LOOP('',(#922,#923,#924,#925));
#189=EDGE_LOOP('',(#926,#927,#928,#929));
#190=EDGE_LOOP('',(#930,#931,#932,#933));
#191=EDGE_LOOP('',(#934,#935,#936,#937));
#192=EDGE_LOOP('',(#938,#939,#940,#941,#942,#943,#944,#945,#946,#947));
#193=EDGE_LOOP('',(#948,#949,#950,#951));
#194=EDGE_LOOP('',(#952,#953,#954,#955,#956,#957,#958,#959,#960,#961));
#195=EDGE_LOOP('',(#962,#963,#964,#965));
#196=EDGE_LOOP('',(#966,#967,#968,#969));
#197=EDGE_LOOP('',(#970,#971,#972,#973));
#198=EDGE_LOOP('',(#974,#975,#976,#977));
#199=EDGE_LOOP('',(#978,#979,#980,#981));
#200=EDGE_LOOP('',(#982,#983,#984,#985));
#201=LINE('',#1389,#332);
#202=LINE('',#1394,#333);
#203=LINE('',#1396,#334);
#204=LINE('',#1398,#335);
#205=LINE('',#1399,#336);
#206=LINE('',#1403,#337);
#207=LINE('',#1405,#338);
#208=LINE('',#1407,#339);
#209=LINE('',#1408,#340);
#210=LINE('',#1409,#341);
#211=LINE('',#1412,#342);
#212=LINE('',#1414,#343);
#213=LINE('',#1415,#344);
#214=LINE('',#1418,#345);
#215=LINE('',#1419,#346);
#216=LINE('',#1421,#347);
#217=LINE('',#1422,#348);
#218=LINE('',#1424,#349);
#219=LINE('',#1426,#350);
#220=LINE('',#1432,#351);
#221=LINE('',#1434,#352);
#222=LINE('',#1436,#353);
#223=LINE('',#1437,#354);
#224=LINE('',#1440,#355);
#225=LINE('',#1442,#356);
#226=LINE('',#1443,#357);
#227=LINE('',#1446,#358);
#228=LINE('',#1450,#359);
#229=LINE('',#1452,#360);
#230=LINE('',#1454,#361);
#231=LINE('',#1457,#362);
#232=LINE('',#1460,#363);
#233=LINE('',#1462,#364);
#234=LINE('',#1463,#365);
#235=LINE('',#1466,#366);
#236=LINE('',#1468,#367);
#237=LINE('',#1469,#368);
#238=LINE('',#1471,#369);
#239=LINE('',#1472,#370);
#240=LINE('',#1482,#371);
#241=LINE('',#1492,#372);
#242=LINE('',#1502,#373);
#243=LINE('',#1504,#374);
#244=LINE('',#1506,#375);
#245=LINE('',#1507,#376);
#246=LINE('',#1511,#377);
#247=LINE('',#1513,#378);
#248=LINE('',#1515,#379);
#249=LINE('',#1516,#380);
#250=LINE('',#1520,#381);
#251=LINE('',#1522,#382);
#252=LINE('',#1524,#383);
#253=LINE('',#1525,#384);
#254=LINE('',#1528,#385);
#255=LINE('',#1529,#386);
#256=LINE('',#1531,#387);
#257=LINE('',#1533,#388);
#258=LINE('',#1534,#389);
#259=LINE('',#1536,#390);
#260=LINE('',#1537,#391);
#261=LINE('',#1541,#392);
#262=LINE('',#1542,#393);
#263=LINE('',#1543,#394);
#264=LINE('',#1546,#395);
#265=LINE('',#1547,#396);
#266=LINE('',#1548,#397);
#267=LINE('',#1549,#398);
#268=LINE('',#1551,#399);
#269=LINE('',#1552,#400);
#270=LINE('',#1556,#401);
#271=LINE('',#1559,#402);
#272=LINE('',#1564,#403);
#273=LINE('',#1566,#404);
#274=LINE('',#1568,#405);
#275=LINE('',#1569,#406);
#276=LINE('',#1573,#407);
#277=LINE('',#1575,#408);
#278=LINE('',#1577,#409);
#279=LINE('',#1578,#410);
#280=LINE('',#1582,#411);
#281=LINE('',#1584,#412);
#282=LINE('',#1586,#413);
#283=LINE('',#1587,#414);
#284=LINE('',#1590,#415);
#285=LINE('',#1591,#416);
#286=LINE('',#1593,#417);
#287=LINE('',#1595,#418);
#288=LINE('',#1596,#419);
#289=LINE('',#1598,#420);
#290=LINE('',#1599,#421);
#291=LINE('',#1603,#422);
#292=LINE('',#1604,#423);
#293=LINE('',#1605,#424);
#294=LINE('',#1608,#425);
#295=LINE('',#1609,#426);
#296=LINE('',#1610,#427);
#297=LINE('',#1611,#428);
#298=LINE('',#1613,#429);
#299=LINE('',#1614,#430);
#300=LINE('',#1618,#431);
#301=LINE('',#1621,#432);
#302=LINE('',#1626,#433);
#303=LINE('',#1628,#434);
#304=LINE('',#1630,#435);
#305=LINE('',#1631,#436);
#306=LINE('',#1635,#437);
#307=LINE('',#1637,#438);
#308=LINE('',#1639,#439);
#309=LINE('',#1640,#440);
#310=LINE('',#1644,#441);
#311=LINE('',#1646,#442);
#312=LINE('',#1648,#443);
#313=LINE('',#1649,#444);
#314=LINE('',#1652,#445);
#315=LINE('',#1653,#446);
#316=LINE('',#1655,#447);
#317=LINE('',#1657,#448);
#318=LINE('',#1658,#449);
#319=LINE('',#1660,#450);
#320=LINE('',#1661,#451);
#321=LINE('',#1665,#452);
#322=LINE('',#1666,#453);
#323=LINE('',#1667,#454);
#324=LINE('',#1670,#455);
#325=LINE('',#1671,#456);
#326=LINE('',#1672,#457);
#327=LINE('',#1673,#458);
#328=LINE('',#1675,#459);
#329=LINE('',#1676,#460);
#330=LINE('',#1680,#461);
#331=LINE('',#1683,#462);
#332=VECTOR('',#1131,1.9);
#333=VECTOR('',#1136,1000.);
#334=VECTOR('',#1137,1000.);
#335=VECTOR('',#1138,1000.);
#336=VECTOR('',#1139,1000.);
#337=VECTOR('',#1142,1000.);
#338=VECTOR('',#1143,1000.);
#339=VECTOR('',#1144,1000.);
#340=VECTOR('',#1145,1000.);
#341=VECTOR('',#1146,1000.);
#342=VECTOR('',#1149,1000.);
#343=VECTOR('',#1150,1000.);
#344=VECTOR('',#1151,1000.);
#345=VECTOR('',#1154,1000.);
#346=VECTOR('',#1155,1000.);
#347=VECTOR('',#1156,1000.);
#348=VECTOR('',#1157,1000.);
#349=VECTOR('',#1160,1000.);
#350=VECTOR('',#1163,1000.);
#351=VECTOR('',#1170,1000.);
#352=VECTOR('',#1171,1000.);
#353=VECTOR('',#1172,1000.);
#354=VECTOR('',#1173,1000.);
#355=VECTOR('',#1176,1000.);
#356=VECTOR('',#1177,1000.);
#357=VECTOR('',#1178,1000.);
#358=VECTOR('',#1181,1000.);
#359=VECTOR('',#1184,1000.);
#360=VECTOR('',#1185,1000.);
#361=VECTOR('',#1186,1000.);
#362=VECTOR('',#1189,1000.);
#363=VECTOR('',#1192,1000.);
#364=VECTOR('',#1193,1000.);
#365=VECTOR('',#1194,1000.);
#366=VECTOR('',#1197,1000.);
#367=VECTOR('',#1198,1000.);
#368=VECTOR('',#1199,1000.);
#369=VECTOR('',#1202,1000.);
#370=VECTOR('',#1203,1000.);
#371=VECTOR('',#1206,1000.);
#372=VECTOR('',#1209,1000.);
#373=VECTOR('',#1224,1000.);
#374=VECTOR('',#1225,1000.);
#375=VECTOR('',#1226,1000.);
#376=VECTOR('',#1227,1000.);
#377=VECTOR('',#1230,1000.);
#378=VECTOR('',#1231,1000.);
#379=VECTOR('',#1232,1000.);
#380=VECTOR('',#1233,1000.);
#381=VECTOR('',#1236,1000.);
#382=VECTOR('',#1237,1000.);
#383=VECTOR('',#1238,1000.);
#384=VECTOR('',#1239,1000.);
#385=VECTOR('',#1242,1000.);
#386=VECTOR('',#1243,1000.);
#387=VECTOR('',#1244,1000.);
#388=VECTOR('',#1245,1000.);
#389=VECTOR('',#1246,1000.);
#390=VECTOR('',#1247,1000.);
#391=VECTOR('',#1248,1000.);
#392=VECTOR('',#1251,1000.);
#393=VECTOR('',#1252,1000.);
#394=VECTOR('',#1253,1000.);
#395=VECTOR('',#1256,1000.);
#396=VECTOR('',#1257,1000.);
#397=VECTOR('',#1258,1000.);
#398=VECTOR('',#1259,1000.);
#399=VECTOR('',#1260,1000.);
#400=VECTOR('',#1261,1000.);
#401=VECTOR('',#1268,1000.);
#402=VECTOR('',#1273,1000.);
#403=VECTOR('',#1278,1000.);
#404=VECTOR('',#1279,1000.);
#405=VECTOR('',#1280,1000.);
#406=VECTOR('',#1281,1000.);
#407=VECTOR('',#1284,1000.);
#408=VECTOR('',#1285,1000.);
#409=VECTOR('',#1286,1000.);
#410=VECTOR('',#1287,1000.);
#411=VECTOR('',#1290,1000.);
#412=VECTOR('',#1291,1000.);
#413=VECTOR('',#1292,1000.);
#414=VECTOR('',#1293,1000.);
#415=VECTOR('',#1296,1000.);
#416=VECTOR('',#1297,1000.);
#417=VECTOR('',#1298,1000.);
#418=VECTOR('',#1299,1000.);
#419=VECTOR('',#1300,1000.);
#420=VECTOR('',#1301,1000.);
#421=VECTOR('',#1302,1000.);
#422=VECTOR('',#1305,1000.);
#423=VECTOR('',#1306,1000.);
#424=VECTOR('',#1307,1000.);
#425=VECTOR('',#1310,1000.);
#426=VECTOR('',#1311,1000.);
#427=VECTOR('',#1312,1000.);
#428=VECTOR('',#1313,1000.);
#429=VECTOR('',#1314,1000.);
#430=VECTOR('',#1315,1000.);
#431=VECTOR('',#1322,1000.);
#432=VECTOR('',#1327,1000.);
#433=VECTOR('',#1332,1000.);
#434=VECTOR('',#1333,1000.);
#435=VECTOR('',#1334,1000.);
#436=VECTOR('',#1335,1000.);
#437=VECTOR('',#1338,1000.);
#438=VECTOR('',#1339,1000.);
#439=VECTOR('',#1340,1000.);
#440=VECTOR('',#1341,1000.);
#441=VECTOR('',#1344,1000.);
#442=VECTOR('',#1345,1000.);
#443=VECTOR('',#1346,1000.);
#444=VECTOR('',#1347,1000.);
#445=VECTOR('',#1350,1000.);
#446=VECTOR('',#1351,1000.);
#447=VECTOR('',#1352,1000.);
#448=VECTOR('',#1353,1000.);
#449=VECTOR('',#1354,1000.);
#450=VECTOR('',#1355,1000.);
#451=VECTOR('',#1356,1000.);
#452=VECTOR('',#1359,1000.);
#453=VECTOR('',#1360,1000.);
#454=VECTOR('',#1361,1000.);
#455=VECTOR('',#1364,1000.);
#456=VECTOR('',#1365,1000.);
#457=VECTOR('',#1366,1000.);
#458=VECTOR('',#1367,1000.);
#459=VECTOR('',#1368,1000.);
#460=VECTOR('',#1369,1000.);
#461=VECTOR('',#1376,1000.);
#462=VECTOR('',#1381,1000.);
#463=CIRCLE('',#1063,1.9);
#464=CIRCLE('',#1064,1.9);
#465=CIRCLE('',#1076,1.28258838318873);
#466=CIRCLE('',#1077,1.28258838318873);
#467=CIRCLE('',#1084,1.);
#468=CIRCLE('',#1087,0.999999999999999);
#469=VERTEX_POINT('',#1386);
#470=VERTEX_POINT('',#1388);
#471=VERTEX_POINT('',#1392);
#472=VERTEX_POINT('',#1393);
#473=VERTEX_POINT('',#1395);
#474=VERTEX_POINT('',#1397);
#475=VERTEX_POINT('',#1401);
#476=VERTEX_POINT('',#1402);
#477=VERTEX_POINT('',#1404);
#478=VERTEX_POINT('',#1406);
#479=VERTEX_POINT('',#1411);
#480=VERTEX_POINT('',#1413);
#481=VERTEX_POINT('',#1417);
#482=VERTEX_POINT('',#1420);
#483=VERTEX_POINT('',#1430);
#484=VERTEX_POINT('',#1431);
#485=VERTEX_POINT('',#1433);
#486=VERTEX_POINT('',#1435);
#487=VERTEX_POINT('',#1439);
#488=VERTEX_POINT('',#1441);
#489=VERTEX_POINT('',#1445);
#490=VERTEX_POINT('',#1447);
#491=VERTEX_POINT('',#1449);
#492=VERTEX_POINT('',#1451);
#493=VERTEX_POINT('',#1453);
#494=VERTEX_POINT('',#1455);
#495=VERTEX_POINT('',#1459);
#496=VERTEX_POINT('',#1461);
#497=VERTEX_POINT('',#1465);
#498=VERTEX_POINT('',#1467);
#499=VERTEX_POINT('',#1474);
#500=VERTEX_POINT('',#1478);
#501=VERTEX_POINT('',#1484);
#502=VERTEX_POINT('',#1488);
#503=VERTEX_POINT('',#1500);
#504=VERTEX_POINT('',#1501);
#505=VERTEX_POINT('',#1503);
#506=VERTEX_POINT('',#1505);
#507=VERTEX_POINT('',#1509);
#508=VERTEX_POINT('',#1510);
#509=VERTEX_POINT('',#1512);
#510=VERTEX_POINT('',#1514);
#511=VERTEX_POINT('',#1518);
#512=VERTEX_POINT('',#1519);
#513=VERTEX_POINT('',#1521);
#514=VERTEX_POINT('',#1523);
#515=VERTEX_POINT('',#1527);
#516=VERTEX_POINT('',#1530);
#517=VERTEX_POINT('',#1532);
#518=VERTEX_POINT('',#1535);
#519=VERTEX_POINT('',#1539);
#520=VERTEX_POINT('',#1540);
#521=VERTEX_POINT('',#1545);
#522=VERTEX_POINT('',#1550);
#523=VERTEX_POINT('',#1562);
#524=VERTEX_POINT('',#1563);
#525=VERTEX_POINT('',#1565);
#526=VERTEX_POINT('',#1567);
#527=VERTEX_POINT('',#1571);
#528=VERTEX_POINT('',#1572);
#529=VERTEX_POINT('',#1574);
#530=VERTEX_POINT('',#1576);
#531=VERTEX_POINT('',#1580);
#532=VERTEX_POINT('',#1581);
#533=VERTEX_POINT('',#1583);
#534=VERTEX_POINT('',#1585);
#535=VERTEX_POINT('',#1589);
#536=VERTEX_POINT('',#1592);
#537=VERTEX_POINT('',#1594);
#538=VERTEX_POINT('',#1597);
#539=VERTEX_POINT('',#1601);
#540=VERTEX_POINT('',#1602);
#541=VERTEX_POINT('',#1607);
#542=VERTEX_POINT('',#1612);
#543=VERTEX_POINT('',#1624);
#544=VERTEX_POINT('',#1625);
#545=VERTEX_POINT('',#1627);
#546=VERTEX_POINT('',#1629);
#547=VERTEX_POINT('',#1633);
#548=VERTEX_POINT('',#1634);
#549=VERTEX_POINT('',#1636);
#550=VERTEX_POINT('',#1638);
#551=VERTEX_POINT('',#1642);
#552=VERTEX_POINT('',#1643);
#553=VERTEX_POINT('',#1645);
#554=VERTEX_POINT('',#1647);
#555=VERTEX_POINT('',#1651);
#556=VERTEX_POINT('',#1654);
#557=VERTEX_POINT('',#1656);
#558=VERTEX_POINT('',#1659);
#559=VERTEX_POINT('',#1663);
#560=VERTEX_POINT('',#1664);
#561=VERTEX_POINT('',#1669);
#562=VERTEX_POINT('',#1674);
#563=EDGE_CURVE('',#469,#469,#463,.T.);
#564=EDGE_CURVE('',#469,#470,#201,.T.);
#565=EDGE_CURVE('',#470,#470,#464,.T.);
#566=EDGE_CURVE('',#471,#472,#202,.T.);
#567=EDGE_CURVE('',#471,#473,#203,.T.);
#568=EDGE_CURVE('',#474,#473,#204,.T.);
#569=EDGE_CURVE('',#472,#474,#205,.T.);
#570=EDGE_CURVE('',#475,#476,#206,.T.);
#571=EDGE_CURVE('',#477,#475,#207,.T.);
#572=EDGE_CURVE('',#478,#477,#208,.T.);
#573=EDGE_CURVE('',#472,#478,#209,.T.);
#574=EDGE_CURVE('',#476,#474,#210,.T.);
#575=EDGE_CURVE('',#479,#475,#211,.T.);
#576=EDGE_CURVE('',#480,#479,#212,.T.);
#577=EDGE_CURVE('',#480,#477,#213,.T.);
#578=EDGE_CURVE('',#479,#481,#214,.T.);
#579=EDGE_CURVE('',#473,#481,#215,.T.);
#580=EDGE_CURVE('',#482,#471,#216,.T.);
#581=EDGE_CURVE('',#482,#480,#217,.T.);
#582=EDGE_CURVE('',#482,#478,#218,.T.);
#583=EDGE_CURVE('',#481,#476,#219,.T.);
#584=EDGE_CURVE('',#483,#484,#220,.T.);
#585=EDGE_CURVE('',#485,#483,#221,.T.);
#586=EDGE_CURVE('',#486,#485,#222,.T.);
#587=EDGE_CURVE('',#486,#484,#223,.T.);
#588=EDGE_CURVE('',#487,#483,#224,.T.);
#589=EDGE_CURVE('',#488,#487,#225,.T.);
#590=EDGE_CURVE('',#485,#488,#226,.T.);
#591=EDGE_CURVE('',#487,#489,#227,.T.);
#592=EDGE_CURVE('',#489,#490,#465,.T.);
#593=EDGE_CURVE('',#490,#491,#228,.T.);
#594=EDGE_CURVE('',#492,#491,#229,.T.);
#595=EDGE_CURVE('',#493,#492,#230,.T.);
#596=EDGE_CURVE('',#493,#494,#466,.T.);
#597=EDGE_CURVE('',#488,#494,#231,.T.);
#598=EDGE_CURVE('',#495,#491,#232,.T.);
#599=EDGE_CURVE('',#496,#495,#233,.T.);
#600=EDGE_CURVE('',#492,#496,#234,.T.);
#601=EDGE_CURVE('',#497,#495,#235,.T.);
#602=EDGE_CURVE('',#498,#497,#236,.T.);
#603=EDGE_CURVE('',#496,#498,#237,.T.);
#604=EDGE_CURVE('',#497,#484,#238,.T.);
#605=EDGE_CURVE('',#498,#486,#239,.T.);
#606=EDGE_CURVE('',#489,#499,#15,.T.);
#607=EDGE_CURVE('',#500,#490,#16,.T.);
#608=EDGE_CURVE('',#499,#500,#240,.T.);
#609=EDGE_CURVE('',#493,#501,#17,.T.);
#610=EDGE_CURVE('',#502,#494,#18,.T.);
#611=EDGE_CURVE('',#502,#501,#241,.T.);
#612=EDGE_CURVE('',#501,#502,#467,.T.);
#613=EDGE_CURVE('',#499,#500,#468,.T.);
#614=EDGE_CURVE('',#503,#504,#242,.T.);
#615=EDGE_CURVE('',#503,#505,#243,.T.);
#616=EDGE_CURVE('',#505,#506,#244,.T.);
#617=EDGE_CURVE('',#506,#504,#245,.T.);
#618=EDGE_CURVE('',#507,#508,#246,.T.);
#619=EDGE_CURVE('',#507,#509,#247,.T.);
#620=EDGE_CURVE('',#510,#509,#248,.T.);
#621=EDGE_CURVE('',#510,#508,#249,.T.);
#622=EDGE_CURVE('',#511,#512,#250,.T.);
#623=EDGE_CURVE('',#512,#513,#251,.T.);
#624=EDGE_CURVE('',#514,#513,#252,.T.);
#625=EDGE_CURVE('',#511,#514,#253,.T.);
#626=EDGE_CURVE('',#513,#515,#254,.T.);
#627=EDGE_CURVE('',#507,#515,#255,.T.);
#628=EDGE_CURVE('',#508,#516,#256,.T.);
#629=EDGE_CURVE('',#517,#516,#257,.T.);
#630=EDGE_CURVE('',#517,#505,#258,.T.);
#631=EDGE_CURVE('',#518,#503,#259,.T.);
#632=EDGE_CURVE('',#514,#518,#260,.T.);
#633=EDGE_CURVE('',#519,#520,#261,.T.);
#634=EDGE_CURVE('',#519,#517,#262,.T.);
#635=EDGE_CURVE('',#516,#520,#263,.T.);
#636=EDGE_CURVE('',#521,#511,#264,.T.);
#637=EDGE_CURVE('',#521,#504,#265,.T.);
#638=EDGE_CURVE('',#506,#519,#266,.T.);
#639=EDGE_CURVE('',#520,#510,#267,.T.);
#640=EDGE_CURVE('',#509,#522,#268,.T.);
#641=EDGE_CURVE('',#522,#512,#269,.T.);
#642=EDGE_CURVE('',#515,#522,#270,.T.);
#643=EDGE_CURVE('',#518,#521,#271,.T.);
#644=EDGE_CURVE('',#523,#524,#272,.T.);
#645=EDGE_CURVE('',#523,#525,#273,.T.);
#646=EDGE_CURVE('',#525,#526,#274,.T.);
#647=EDGE_CURVE('',#526,#524,#275,.T.);
#648=EDGE_CURVE('',#527,#528,#276,.T.);
#649=EDGE_CURVE('',#527,#529,#277,.T.);
#650=EDGE_CURVE('',#530,#529,#278,.T.);
#651=EDGE_CURVE('',#530,#528,#279,.T.);
#652=EDGE_CURVE('',#531,#532,#280,.T.);
#653=EDGE_CURVE('',#532,#533,#281,.T.);
#654=EDGE_CURVE('',#534,#533,#282,.T.);
#655=EDGE_CURVE('',#531,#534,#283,.T.);
#656=EDGE_CURVE('',#533,#535,#284,.T.);
#657=EDGE_CURVE('',#527,#535,#285,.T.);
#658=EDGE_CURVE('',#528,#536,#286,.T.);
#659=EDGE_CURVE('',#537,#536,#287,.T.);
#660=EDGE_CURVE('',#537,#525,#288,.T.);
#661=EDGE_CURVE('',#538,#523,#289,.T.);
#662=EDGE_CURVE('',#534,#538,#290,.T.);
#663=EDGE_CURVE('',#539,#540,#291,.T.);
#664=EDGE_CURVE('',#539,#537,#292,.T.);
#665=EDGE_CURVE('',#536,#540,#293,.T.);
#666=EDGE_CURVE('',#541,#531,#294,.T.);
#667=EDGE_CURVE('',#541,#524,#295,.T.);
#668=EDGE_CURVE('',#526,#539,#296,.T.);
#669=EDGE_CURVE('',#540,#530,#297,.T.);
#670=EDGE_CURVE('',#529,#542,#298,.T.);
#671=EDGE_CURVE('',#542,#532,#299,.T.);
#672=EDGE_CURVE('',#535,#542,#300,.T.);
#673=EDGE_CURVE('',#538,#541,#301,.T.);
#674=EDGE_CURVE('',#543,#544,#302,.T.);
#675=EDGE_CURVE('',#545,#544,#303,.T.);
#676=EDGE_CURVE('',#546,#545,#304,.T.);
#677=EDGE_CURVE('',#543,#546,#305,.T.);
#678=EDGE_CURVE('',#547,#548,#306,.T.);
#679=EDGE_CURVE('',#549,#548,#307,.T.);
#680=EDGE_CURVE('',#549,#550,#308,.T.);
#681=EDGE_CURVE('',#547,#550,#309,.T.);
#682=EDGE_CURVE('',#551,#552,#310,.T.);
#683=EDGE_CURVE('',#551,#553,#311,.T.);
#684=EDGE_CURVE('',#553,#554,#312,.T.);
#685=EDGE_CURVE('',#552,#554,#313,.T.);
#686=EDGE_CURVE('',#553,#555,#314,.T.);
#687=EDGE_CURVE('',#555,#543,#315,.T.);
#688=EDGE_CURVE('',#556,#546,#316,.T.);
#689=EDGE_CURVE('',#556,#557,#317,.T.);
#690=EDGE_CURVE('',#548,#557,#318,.T.);
#691=EDGE_CURVE('',#547,#558,#319,.T.);
#692=EDGE_CURVE('',#554,#558,#320,.T.);
#693=EDGE_CURVE('',#559,#560,#321,.T.);
#694=EDGE_CURVE('',#557,#560,#322,.T.);
#695=EDGE_CURVE('',#559,#556,#323,.T.);
#696=EDGE_CURVE('',#561,#552,#324,.T.);
#697=EDGE_CURVE('',#550,#561,#325,.T.);
#698=EDGE_CURVE('',#560,#549,#326,.T.);
#699=EDGE_CURVE('',#545,#559,#327,.T.);
#700=EDGE_CURVE('',#562,#544,#328,.T.);
#701=EDGE_CURVE('',#562,#551,#329,.T.);
#702=EDGE_CURVE('',#558,#561,#330,.T.);
#703=EDGE_CURVE('',#555,#562,#331,.T.);
#704=ORIENTED_EDGE('',*,*,#563,.F.);
#705=ORIENTED_EDGE('',*,*,#564,.T.);
#706=ORIENTED_EDGE('',*,*,#565,.T.);
#707=ORIENTED_EDGE('',*,*,#564,.F.);
#708=ORIENTED_EDGE('',*,*,#566,.F.);
#709=ORIENTED_EDGE('',*,*,#567,.T.);
#710=ORIENTED_EDGE('',*,*,#568,.F.);
#711=ORIENTED_EDGE('',*,*,#569,.F.);
#712=ORIENTED_EDGE('',*,*,#570,.F.);
#713=ORIENTED_EDGE('',*,*,#571,.F.);
#714=ORIENTED_EDGE('',*,*,#572,.F.);
#715=ORIENTED_EDGE('',*,*,#573,.F.);
#716=ORIENTED_EDGE('',*,*,#569,.T.);
#717=ORIENTED_EDGE('',*,*,#574,.F.);
#718=ORIENTED_EDGE('',*,*,#565,.F.);
#719=ORIENTED_EDGE('',*,*,#575,.F.);
#720=ORIENTED_EDGE('',*,*,#576,.F.);
#721=ORIENTED_EDGE('',*,*,#577,.T.);
#722=ORIENTED_EDGE('',*,*,#571,.T.);
#723=ORIENTED_EDGE('',*,*,#578,.T.);
#724=ORIENTED_EDGE('',*,*,#579,.F.);
#725=ORIENTED_EDGE('',*,*,#567,.F.);
#726=ORIENTED_EDGE('',*,*,#580,.F.);
#727=ORIENTED_EDGE('',*,*,#581,.T.);
#728=ORIENTED_EDGE('',*,*,#576,.T.);
#729=ORIENTED_EDGE('',*,*,#563,.T.);
#730=ORIENTED_EDGE('',*,*,#573,.T.);
#731=ORIENTED_EDGE('',*,*,#582,.F.);
#732=ORIENTED_EDGE('',*,*,#580,.T.);
#733=ORIENTED_EDGE('',*,*,#566,.T.);
#734=ORIENTED_EDGE('',*,*,#583,.T.);
#735=ORIENTED_EDGE('',*,*,#574,.T.);
#736=ORIENTED_EDGE('',*,*,#568,.T.);
#737=ORIENTED_EDGE('',*,*,#579,.T.);
#738=ORIENTED_EDGE('',*,*,#570,.T.);
#739=ORIENTED_EDGE('',*,*,#583,.F.);
#740=ORIENTED_EDGE('',*,*,#578,.F.);
#741=ORIENTED_EDGE('',*,*,#575,.T.);
#742=ORIENTED_EDGE('',*,*,#572,.T.);
#743=ORIENTED_EDGE('',*,*,#577,.F.);
#744=ORIENTED_EDGE('',*,*,#581,.F.);
#745=ORIENTED_EDGE('',*,*,#582,.T.);
#746=ORIENTED_EDGE('',*,*,#584,.F.);
#747=ORIENTED_EDGE('',*,*,#585,.F.);
#748=ORIENTED_EDGE('',*,*,#586,.F.);
#749=ORIENTED_EDGE('',*,*,#587,.T.);
#750=ORIENTED_EDGE('',*,*,#588,.F.);
#751=ORIENTED_EDGE('',*,*,#589,.F.);
#752=ORIENTED_EDGE('',*,*,#590,.F.);
#753=ORIENTED_EDGE('',*,*,#585,.T.);
#754=ORIENTED_EDGE('',*,*,#591,.T.);
#755=ORIENTED_EDGE('',*,*,#592,.T.);
#756=ORIENTED_EDGE('',*,*,#593,.T.);
#757=ORIENTED_EDGE('',*,*,#594,.F.);
#758=ORIENTED_EDGE('',*,*,#595,.F.);
#759=ORIENTED_EDGE('',*,*,#596,.T.);
#760=ORIENTED_EDGE('',*,*,#597,.F.);
#761=ORIENTED_EDGE('',*,*,#589,.T.);
#762=ORIENTED_EDGE('',*,*,#598,.F.);
#763=ORIENTED_EDGE('',*,*,#599,.F.);
#764=ORIENTED_EDGE('',*,*,#600,.F.);
#765=ORIENTED_EDGE('',*,*,#594,.T.);
#766=ORIENTED_EDGE('',*,*,#601,.F.);
#767=ORIENTED_EDGE('',*,*,#602,.F.);
#768=ORIENTED_EDGE('',*,*,#603,.F.);
#769=ORIENTED_EDGE('',*,*,#599,.T.);
#770=ORIENTED_EDGE('',*,*,#604,.T.);
#771=ORIENTED_EDGE('',*,*,#587,.F.);
#772=ORIENTED_EDGE('',*,*,#605,.F.);
#773=ORIENTED_EDGE('',*,*,#602,.T.);
#774=ORIENTED_EDGE('',*,*,#606,.F.);
#775=ORIENTED_EDGE('',*,*,#591,.F.);
#776=ORIENTED_EDGE('',*,*,#588,.T.);
#777=ORIENTED_EDGE('',*,*,#584,.T.);
#778=ORIENTED_EDGE('',*,*,#604,.F.);
#779=ORIENTED_EDGE('',*,*,#601,.T.);
#780=ORIENTED_EDGE('',*,*,#598,.T.);
#781=ORIENTED_EDGE('',*,*,#593,.F.);
#782=ORIENTED_EDGE('',*,*,#607,.F.);
#783=ORIENTED_EDGE('',*,*,#608,.F.);
#784=ORIENTED_EDGE('',*,*,#609,.F.);
#785=ORIENTED_EDGE('',*,*,#595,.T.);
#786=ORIENTED_EDGE('',*,*,#600,.T.);
#787=ORIENTED_EDGE('',*,*,#603,.T.);
#788=ORIENTED_EDGE('',*,*,#605,.T.);
#789=ORIENTED_EDGE('',*,*,#586,.T.);
#790=ORIENTED_EDGE('',*,*,#590,.T.);
#791=ORIENTED_EDGE('',*,*,#597,.T.);
#792=ORIENTED_EDGE('',*,*,#610,.F.);
#793=ORIENTED_EDGE('',*,*,#611,.T.);
#794=ORIENTED_EDGE('',*,*,#609,.T.);
#795=ORIENTED_EDGE('',*,*,#612,.T.);
#796=ORIENTED_EDGE('',*,*,#610,.T.);
#797=ORIENTED_EDGE('',*,*,#596,.F.);
#798=ORIENTED_EDGE('',*,*,#612,.F.);
#799=ORIENTED_EDGE('',*,*,#611,.F.);
#800=ORIENTED_EDGE('',*,*,#606,.T.);
#801=ORIENTED_EDGE('',*,*,#613,.T.);
#802=ORIENTED_EDGE('',*,*,#607,.T.);
#803=ORIENTED_EDGE('',*,*,#592,.F.);
#804=ORIENTED_EDGE('',*,*,#608,.T.);
#805=ORIENTED_EDGE('',*,*,#613,.F.);
#806=ORIENTED_EDGE('',*,*,#614,.F.);
#807=ORIENTED_EDGE('',*,*,#615,.T.);
#808=ORIENTED_EDGE('',*,*,#616,.T.);
#809=ORIENTED_EDGE('',*,*,#617,.T.);
#810=ORIENTED_EDGE('',*,*,#618,.F.);
#811=ORIENTED_EDGE('',*,*,#619,.T.);
#812=ORIENTED_EDGE('',*,*,#620,.F.);
#813=ORIENTED_EDGE('',*,*,#621,.T.);
#814=ORIENTED_EDGE('',*,*,#622,.T.);
#815=ORIENTED_EDGE('',*,*,#623,.T.);
#816=ORIENTED_EDGE('',*,*,#624,.F.);
#817=ORIENTED_EDGE('',*,*,#625,.F.);
#818=ORIENTED_EDGE('',*,*,#624,.T.);
#819=ORIENTED_EDGE('',*,*,#626,.T.);
#820=ORIENTED_EDGE('',*,*,#627,.F.);
#821=ORIENTED_EDGE('',*,*,#618,.T.);
#822=ORIENTED_EDGE('',*,*,#628,.T.);
#823=ORIENTED_EDGE('',*,*,#629,.F.);
#824=ORIENTED_EDGE('',*,*,#630,.T.);
#825=ORIENTED_EDGE('',*,*,#615,.F.);
#826=ORIENTED_EDGE('',*,*,#631,.F.);
#827=ORIENTED_EDGE('',*,*,#632,.F.);
#828=ORIENTED_EDGE('',*,*,#633,.F.);
#829=ORIENTED_EDGE('',*,*,#634,.T.);
#830=ORIENTED_EDGE('',*,*,#629,.T.);
#831=ORIENTED_EDGE('',*,*,#635,.T.);
#832=ORIENTED_EDGE('',*,*,#622,.F.);
#833=ORIENTED_EDGE('',*,*,#636,.F.);
#834=ORIENTED_EDGE('',*,*,#637,.T.);
#835=ORIENTED_EDGE('',*,*,#617,.F.);
#836=ORIENTED_EDGE('',*,*,#638,.T.);
#837=ORIENTED_EDGE('',*,*,#633,.T.);
#838=ORIENTED_EDGE('',*,*,#639,.T.);
#839=ORIENTED_EDGE('',*,*,#620,.T.);
#840=ORIENTED_EDGE('',*,*,#640,.T.);
#841=ORIENTED_EDGE('',*,*,#641,.T.);
#842=ORIENTED_EDGE('',*,*,#630,.F.);
#843=ORIENTED_EDGE('',*,*,#634,.F.);
#844=ORIENTED_EDGE('',*,*,#638,.F.);
#845=ORIENTED_EDGE('',*,*,#616,.F.);
#846=ORIENTED_EDGE('',*,*,#628,.F.);
#847=ORIENTED_EDGE('',*,*,#621,.F.);
#848=ORIENTED_EDGE('',*,*,#639,.F.);
#849=ORIENTED_EDGE('',*,*,#635,.F.);
#850=ORIENTED_EDGE('',*,*,#623,.F.);
#851=ORIENTED_EDGE('',*,*,#641,.F.);
#852=ORIENTED_EDGE('',*,*,#642,.F.);
#853=ORIENTED_EDGE('',*,*,#626,.F.);
#854=ORIENTED_EDGE('',*,*,#619,.F.);
#855=ORIENTED_EDGE('',*,*,#627,.T.);
#856=ORIENTED_EDGE('',*,*,#642,.T.);
#857=ORIENTED_EDGE('',*,*,#640,.F.);
#858=ORIENTED_EDGE('',*,*,#631,.T.);
#859=ORIENTED_EDGE('',*,*,#614,.T.);
#860=ORIENTED_EDGE('',*,*,#637,.F.);
#861=ORIENTED_EDGE('',*,*,#643,.F.);
#862=ORIENTED_EDGE('',*,*,#625,.T.);
#863=ORIENTED_EDGE('',*,*,#632,.T.);
#864=ORIENTED_EDGE('',*,*,#643,.T.);
#865=ORIENTED_EDGE('',*,*,#636,.T.);
#866=ORIENTED_EDGE('',*,*,#644,.F.);
#867=ORIENTED_EDGE('',*,*,#645,.T.);
#868=ORIENTED_EDGE('',*,*,#646,.T.);
#869=ORIENTED_EDGE('',*,*,#647,.T.);
#870=ORIENTED_EDGE('',*,*,#648,.F.);
#871=ORIENTED_EDGE('',*,*,#649,.T.);
#872=ORIENTED_EDGE('',*,*,#650,.F.);
#873=ORIENTED_EDGE('',*,*,#651,.T.);
#874=ORIENTED_EDGE('',*,*,#652,.T.);
#875=ORIENTED_EDGE('',*,*,#653,.T.);
#876=ORIENTED_EDGE('',*,*,#654,.F.);
#877=ORIENTED_EDGE('',*,*,#655,.F.);
#878=ORIENTED_EDGE('',*,*,#654,.T.);
#879=ORIENTED_EDGE('',*,*,#656,.T.);
#880=ORIENTED_EDGE('',*,*,#657,.F.);
#881=ORIENTED_EDGE('',*,*,#648,.T.);
#882=ORIENTED_EDGE('',*,*,#658,.T.);
#883=ORIENTED_EDGE('',*,*,#659,.F.);
#884=ORIENTED_EDGE('',*,*,#660,.T.);
#885=ORIENTED_EDGE('',*,*,#645,.F.);
#886=ORIENTED_EDGE('',*,*,#661,.F.);
#887=ORIENTED_EDGE('',*,*,#662,.F.);
#888=ORIENTED_EDGE('',*,*,#663,.F.);
#889=ORIENTED_EDGE('',*,*,#664,.T.);
#890=ORIENTED_EDGE('',*,*,#659,.T.);
#891=ORIENTED_EDGE('',*,*,#665,.T.);
#892=ORIENTED_EDGE('',*,*,#652,.F.);
#893=ORIENTED_EDGE('',*,*,#666,.F.);
#894=ORIENTED_EDGE('',*,*,#667,.T.);
#895=ORIENTED_EDGE('',*,*,#647,.F.);
#896=ORIENTED_EDGE('',*,*,#668,.T.);
#897=ORIENTED_EDGE('',*,*,#663,.T.);
#898=ORIENTED_EDGE('',*,*,#669,.T.);
#899=ORIENTED_EDGE('',*,*,#650,.T.);
#900=ORIENTED_EDGE('',*,*,#670,.T.);
#901=ORIENTED_EDGE('',*,*,#671,.T.);
#902=ORIENTED_EDGE('',*,*,#660,.F.);
#903=ORIENTED_EDGE('',*,*,#664,.F.);
#904=ORIENTED_EDGE('',*,*,#668,.F.);
#905=ORIENTED_EDGE('',*,*,#646,.F.);
#906=ORIENTED_EDGE('',*,*,#658,.F.);
#907=ORIENTED_EDGE('',*,*,#651,.F.);
#908=ORIENTED_EDGE('',*,*,#669,.F.);
#909=ORIENTED_EDGE('',*,*,#665,.F.);
#910=ORIENTED_EDGE('',*,*,#653,.F.);
#911=ORIENTED_EDGE('',*,*,#671,.F.);
#912=ORIENTED_EDGE('',*,*,#672,.F.);
#913=ORIENTED_EDGE('',*,*,#656,.F.);
#914=ORIENTED_EDGE('',*,*,#649,.F.);
#915=ORIENTED_EDGE('',*,*,#657,.T.);
#916=ORIENTED_EDGE('',*,*,#672,.T.);
#917=ORIENTED_EDGE('',*,*,#670,.F.);
#918=ORIENTED_EDGE('',*,*,#661,.T.);
#919=ORIENTED_EDGE('',*,*,#644,.T.);
#920=ORIENTED_EDGE('',*,*,#667,.F.);
#921=ORIENTED_EDGE('',*,*,#673,.F.);
#922=ORIENTED_EDGE('',*,*,#655,.T.);
#923=ORIENTED_EDGE('',*,*,#662,.T.);
#924=ORIENTED_EDGE('',*,*,#673,.T.);
#925=ORIENTED_EDGE('',*,*,#666,.T.);
#926=ORIENTED_EDGE('',*,*,#674,.T.);
#927=ORIENTED_EDGE('',*,*,#675,.F.);
#928=ORIENTED_EDGE('',*,*,#676,.F.);
#929=ORIENTED_EDGE('',*,*,#677,.F.);
#930=ORIENTED_EDGE('',*,*,#678,.T.);
#931=ORIENTED_EDGE('',*,*,#679,.F.);
#932=ORIENTED_EDGE('',*,*,#680,.T.);
#933=ORIENTED_EDGE('',*,*,#681,.F.);
#934=ORIENTED_EDGE('',*,*,#682,.F.);
#935=ORIENTED_EDGE('',*,*,#683,.T.);
#936=ORIENTED_EDGE('',*,*,#684,.T.);
#937=ORIENTED_EDGE('',*,*,#685,.F.);
#938=ORIENTED_EDGE('',*,*,#684,.F.);
#939=ORIENTED_EDGE('',*,*,#686,.T.);
#940=ORIENTED_EDGE('',*,*,#687,.T.);
#941=ORIENTED_EDGE('',*,*,#677,.T.);
#942=ORIENTED_EDGE('',*,*,#688,.F.);
#943=ORIENTED_EDGE('',*,*,#689,.T.);
#944=ORIENTED_EDGE('',*,*,#690,.F.);
#945=ORIENTED_EDGE('',*,*,#678,.F.);
#946=ORIENTED_EDGE('',*,*,#691,.T.);
#947=ORIENTED_EDGE('',*,*,#692,.F.);
#948=ORIENTED_EDGE('',*,*,#693,.T.);
#949=ORIENTED_EDGE('',*,*,#694,.F.);
#950=ORIENTED_EDGE('',*,*,#689,.F.);
#951=ORIENTED_EDGE('',*,*,#695,.F.);
#952=ORIENTED_EDGE('',*,*,#682,.T.);
#953=ORIENTED_EDGE('',*,*,#696,.F.);
#954=ORIENTED_EDGE('',*,*,#697,.F.);
#955=ORIENTED_EDGE('',*,*,#680,.F.);
#956=ORIENTED_EDGE('',*,*,#698,.F.);
#957=ORIENTED_EDGE('',*,*,#693,.F.);
#958=ORIENTED_EDGE('',*,*,#699,.F.);
#959=ORIENTED_EDGE('',*,*,#675,.T.);
#960=ORIENTED_EDGE('',*,*,#700,.F.);
#961=ORIENTED_EDGE('',*,*,#701,.T.);
#962=ORIENTED_EDGE('',*,*,#688,.T.);
#963=ORIENTED_EDGE('',*,*,#676,.T.);
#964=ORIENTED_EDGE('',*,*,#699,.T.);
#965=ORIENTED_EDGE('',*,*,#695,.T.);
#966=ORIENTED_EDGE('',*,*,#690,.T.);
#967=ORIENTED_EDGE('',*,*,#694,.T.);
#968=ORIENTED_EDGE('',*,*,#698,.T.);
#969=ORIENTED_EDGE('',*,*,#679,.T.);
#970=ORIENTED_EDGE('',*,*,#685,.T.);
#971=ORIENTED_EDGE('',*,*,#692,.T.);
#972=ORIENTED_EDGE('',*,*,#702,.T.);
#973=ORIENTED_EDGE('',*,*,#696,.T.);
#974=ORIENTED_EDGE('',*,*,#681,.T.);
#975=ORIENTED_EDGE('',*,*,#697,.T.);
#976=ORIENTED_EDGE('',*,*,#702,.F.);
#977=ORIENTED_EDGE('',*,*,#691,.F.);
#978=ORIENTED_EDGE('',*,*,#687,.F.);
#979=ORIENTED_EDGE('',*,*,#703,.T.);
#980=ORIENTED_EDGE('',*,*,#700,.T.);
#981=ORIENTED_EDGE('',*,*,#674,.F.);
#982=ORIENTED_EDGE('',*,*,#683,.F.);
#983=ORIENTED_EDGE('',*,*,#701,.F.);
#984=ORIENTED_EDGE('',*,*,#703,.F.);
#985=ORIENTED_EDGE('',*,*,#686,.F.);
#986=CYLINDRICAL_SURFACE('',#1062,1.9);
#987=ADVANCED_FACE('',(#85),#986,.F.);
#988=ADVANCED_FACE('',(#86),#31,.T.);
#989=ADVANCED_FACE('',(#87,#29),#32,.T.);
#990=ADVANCED_FACE('',(#88),#33,.T.);
#991=ADVANCED_FACE('',(#89,#30),#34,.T.);
#992=ADVANCED_FACE('',(#90),#35,.F.);
#993=ADVANCED_FACE('',(#91),#36,.T.);
#994=ADVANCED_FACE('',(#92),#37,.F.);
#995=ADVANCED_FACE('',(#93),#38,.F.);
#996=ADVANCED_FACE('',(#94),#39,.F.);
#997=ADVANCED_FACE('',(#95),#40,.F.);
#998=ADVANCED_FACE('',(#96),#41,.F.);
#999=ADVANCED_FACE('',(#97),#42,.F.);
#1000=ADVANCED_FACE('',(#98),#43,.F.);
#1001=ADVANCED_FACE('',(#99),#44,.F.);
#1002=ADVANCED_FACE('',(#100),#45,.T.);
#1003=ADVANCED_FACE('',(#101),#46,.T.);
#1004=ADVANCED_FACE('',(#102),#13,.F.);
#1005=ADVANCED_FACE('',(#103),#47,.T.);
#1006=ADVANCED_FACE('',(#104),#14,.F.);
#1007=ADVANCED_FACE('',(#105),#48,.F.);
#1008=ADVANCED_FACE('',(#106),#49,.F.);
#1009=ADVANCED_FACE('',(#107),#50,.T.);
#1010=ADVANCED_FACE('',(#108),#51,.F.);
#1011=ADVANCED_FACE('',(#109),#52,.F.);
#1012=ADVANCED_FACE('',(#110),#53,.F.);
#1013=ADVANCED_FACE('',(#111),#54,.F.);
#1014=ADVANCED_FACE('',(#112),#55,.F.);
#1015=ADVANCED_FACE('',(#113),#56,.T.);
#1016=ADVANCED_FACE('',(#114),#57,.F.);
#1017=ADVANCED_FACE('',(#115),#58,.F.);
#1018=ADVANCED_FACE('',(#116),#59,.F.);
#1019=ADVANCED_FACE('',(#117),#60,.T.);
#1020=ADVANCED_FACE('',(#118),#61,.F.);
#1021=ADVANCED_FACE('',(#119),#62,.T.);
#1022=ADVANCED_FACE('',(#120),#63,.F.);
#1023=ADVANCED_FACE('',(#121),#64,.F.);
#1024=ADVANCED_FACE('',(#122),#65,.F.);
#1025=ADVANCED_FACE('',(#123),#66,.F.);
#1026=ADVANCED_FACE('',(#124),#67,.F.);
#1027=ADVANCED_FACE('',(#125),#68,.T.);
#1028=ADVANCED_FACE('',(#126),#69,.F.);
#1029=ADVANCED_FACE('',(#127),#70,.F.);
#1030=ADVANCED_FACE('',(#128),#71,.F.);
#1031=ADVANCED_FACE('',(#129),#72,.T.);
#1032=ADVANCED_FACE('',(#130),#73,.F.);
#1033=ADVANCED_FACE('',(#131),#74,.T.);
#1034=ADVANCED_FACE('',(#132),#75,.F.);
#1035=ADVANCED_FACE('',(#133),#76,.F.);
#1036=ADVANCED_FACE('',(#134),#77,.F.);
#1037=ADVANCED_FACE('',(#135),#78,.F.);
#1038=ADVANCED_FACE('',(#136),#79,.F.);
#1039=ADVANCED_FACE('',(#137),#80,.T.);
#1040=ADVANCED_FACE('',(#138),#81,.F.);
#1041=ADVANCED_FACE('',(#139),#82,.F.);
#1042=ADVANCED_FACE('',(#140),#83,.F.);
#1043=ADVANCED_FACE('',(#141),#84,.T.);
#1044=CLOSED_SHELL('',(#987,#988,#989,#990,#991,#992,#993,#994,#995));
#1045=CLOSED_SHELL('',(#996,#997,#998,#999,#1000,#1001,#1002,#1003,#1004,
#1005,#1006,#1007));
#1046=CLOSED_SHELL('',(#1008,#1009,#1010,#1011,#1012,#1013,#1014,#1015,
#1016,#1017,#1018,#1019));
#1047=CLOSED_SHELL('',(#1020,#1021,#1022,#1023,#1024,#1025,#1026,#1027,
#1028,#1029,#1030,#1031));
#1048=CLOSED_SHELL('',(#1032,#1033,#1034,#1035,#1036,#1037,#1038,#1039,
#1040,#1041,#1042,#1043));
#1049=DERIVED_UNIT_ELEMENT(#1051,1.);
#1050=DERIVED_UNIT_ELEMENT(#1690,-3.);
#1051=(
MASS_UNIT()
NAMED_UNIT(*)
SI_UNIT(.KILO.,.GRAM.)
);
#1052=DERIVED_UNIT((#1049,#1050));
#1053=MEASURE_REPRESENTATION_ITEM('density measure',
POSITIVE_RATIO_MEASURE(7850.),#1052);
#1054=PROPERTY_DEFINITION_REPRESENTATION(#1059,#1056);
#1055=PROPERTY_DEFINITION_REPRESENTATION(#1060,#1057);
#1056=REPRESENTATION('material name',(#1058),#1687);
#1057=REPRESENTATION('density',(#1053),#1687);
#1058=DESCRIPTIVE_REPRESENTATION_ITEM('Steel','Steel');
#1059=PROPERTY_DEFINITION('material property','material name',#1697);
#1060=PROPERTY_DEFINITION('material property','density of part',#1697);
#1061=AXIS2_PLACEMENT_3D('',#1384,#1125,#1126);
#1062=AXIS2_PLACEMENT_3D('',#1385,#1127,#1128);
#1063=AXIS2_PLACEMENT_3D('',#1387,#1129,#1130);
#1064=AXIS2_PLACEMENT_3D('',#1390,#1132,#1133);
#1065=AXIS2_PLACEMENT_3D('',#1391,#1134,#1135);
#1066=AXIS2_PLACEMENT_3D('',#1400,#1140,#1141);
#1067=AXIS2_PLACEMENT_3D('',#1410,#1147,#1148);
#1068=AXIS2_PLACEMENT_3D('',#1416,#1152,#1153);
#1069=AXIS2_PLACEMENT_3D('',#1423,#1158,#1159);
#1070=AXIS2_PLACEMENT_3D('',#1425,#1161,#1162);
#1071=AXIS2_PLACEMENT_3D('',#1427,#1164,#1165);
#1072=AXIS2_PLACEMENT_3D('',#1428,#1166,#1167);
#1073=AXIS2_PLACEMENT_3D('',#1429,#1168,#1169);
#1074=AXIS2_PLACEMENT_3D('',#1438,#1174,#1175);
#1075=AXIS2_PLACEMENT_3D('',#1444,#1179,#1180);
#1076=AXIS2_PLACEMENT_3D('',#1448,#1182,#1183);
#1077=AXIS2_PLACEMENT_3D('',#1456,#1187,#1188);
#1078=AXIS2_PLACEMENT_3D('',#1458,#1190,#1191);
#1079=AXIS2_PLACEMENT_3D('',#1464,#1195,#1196);
#1080=AXIS2_PLACEMENT_3D('',#1470,#1200,#1201);
#1081=AXIS2_PLACEMENT_3D('',#1473,#1204,#1205);
#1082=AXIS2_PLACEMENT_3D('',#1483,#1207,#1208);
#1083=AXIS2_PLACEMENT_3D('',#1493,#1210,#1211);
#1084=AXIS2_PLACEMENT_3D('',#1494,#1212,#1213);
#1085=AXIS2_PLACEMENT_3D('',#1495,#1214,#1215);
#1086=AXIS2_PLACEMENT_3D('',#1496,#1216,#1217);
#1087=AXIS2_PLACEMENT_3D('',#1497,#1218,#1219);
#1088=AXIS2_PLACEMENT_3D('',#1498,#1220,#1221);
#1089=AXIS2_PLACEMENT_3D('',#1499,#1222,#1223);
#1090=AXIS2_PLACEMENT_3D('',#1508,#1228,#1229);
#1091=AXIS2_PLACEMENT_3D('',#1517,#1234,#1235);
#1092=AXIS2_PLACEMENT_3D('',#1526,#1240,#1241);
#1093=AXIS2_PLACEMENT_3D('',#1538,#1249,#1250);
#1094=AXIS2_PLACEMENT_3D('',#1544,#1254,#1255);
#1095=AXIS2_PLACEMENT_3D('',#1553,#1262,#1263);
#1096=AXIS2_PLACEMENT_3D('',#1554,#1264,#1265);
#1097=AXIS2_PLACEMENT_3D('',#1555,#1266,#1267);
#1098=AXIS2_PLACEMENT_3D('',#1557,#1269,#1270);
#1099=AXIS2_PLACEMENT_3D('',#1558,#1271,#1272);
#1100=AXIS2_PLACEMENT_3D('',#1560,#1274,#1275);
#1101=AXIS2_PLACEMENT_3D('',#1561,#1276,#1277);
#1102=AXIS2_PLACEMENT_3D('',#1570,#1282,#1283);
#1103=AXIS2_PLACEMENT_3D('',#1579,#1288,#1289);
#1104=AXIS2_PLACEMENT_3D('',#1588,#1294,#1295);
#1105=AXIS2_PLACEMENT_3D('',#1600,#1303,#1304);
#1106=AXIS2_PLACEMENT_3D('',#1606,#1308,#1309);
#1107=AXIS2_PLACEMENT_3D('',#1615,#1316,#1317);
#1108=AXIS2_PLACEMENT_3D('',#1616,#1318,#1319);
#1109=AXIS2_PLACEMENT_3D('',#1617,#1320,#1321);
#1110=AXIS2_PLACEMENT_3D('',#1619,#1323,#1324);
#1111=AXIS2_PLACEMENT_3D('',#1620,#1325,#1326);
#1112=AXIS2_PLACEMENT_3D('',#1622,#1328,#1329);
#1113=AXIS2_PLACEMENT_3D('',#1623,#1330,#1331);
#1114=AXIS2_PLACEMENT_3D('',#1632,#1336,#1337);
#1115=AXIS2_PLACEMENT_3D('',#1641,#1342,#1343);
#1116=AXIS2_PLACEMENT_3D('',#1650,#1348,#1349);
#1117=AXIS2_PLACEMENT_3D('',#1662,#1357,#1358);
#1118=AXIS2_PLACEMENT_3D('',#1668,#1362,#1363);
#1119=AXIS2_PLACEMENT_3D('',#1677,#1370,#1371);
#1120=AXIS2_PLACEMENT_3D('',#1678,#1372,#1373);
#1121=AXIS2_PLACEMENT_3D('',#1679,#1374,#1375);
#1122=AXIS2_PLACEMENT_3D('',#1681,#1377,#1378);
#1123=AXIS2_PLACEMENT_3D('',#1682,#1379,#1380);
#1124=AXIS2_PLACEMENT_3D('',#1684,#1382,#1383);
#1125=DIRECTION('axis',(0.,0.,1.));
#1126=DIRECTION('refdir',(1.,0.,0.));
#1127=DIRECTION('center_axis',(0.,-1.,2.22044604925031E-16));
#1128=DIRECTION('ref_axis',(1.,0.,0.));
#1129=DIRECTION('center_axis',(0.,-1.,2.22044604925031E-16));
#1130=DIRECTION('ref_axis',(1.,0.,0.));
#1131=DIRECTION('',(0.,-1.,2.22044604925031E-16));
#1132=DIRECTION('center_axis',(0.,-1.,2.22044604925031E-16));
#1133=DIRECTION('ref_axis',(1.,0.,0.));
#1134=DIRECTION('center_axis',(0.,0.0871557427476542,-0.996194698091746));
#1135=DIRECTION('ref_axis',(0.,0.996194698091746,0.0871557427476542));
#1136=DIRECTION('',(0.,-0.996194698091746,-0.0871557427476542));
#1137=DIRECTION('',(1.,0.,0.));
#1138=DIRECTION('',(0.,0.996194698091746,0.0871557427476542));
#1139=DIRECTION('',(1.,0.,0.));
#1140=DIRECTION('center_axis',(0.,-1.,8.75398088161267E-17));
#1141=DIRECTION('ref_axis',(0.,-8.75398088161267E-17,-1.));
#1142=DIRECTION('',(0.422618261740694,-2.01240754513033E-16,-0.906307787036653));
#1143=DIRECTION('',(1.,0.,0.));
#1144=DIRECTION('',(0.422618261740694,2.01240754513033E-16,0.906307787036653));
#1145=DIRECTION('',(0.,8.75398088161266E-17,1.));
#1146=DIRECTION('',(0.,-8.75398088161266E-17,-1.));
#1147=DIRECTION('center_axis',(0.,2.22044604925031E-16,1.));
#1148=DIRECTION('ref_axis',(0.,-1.,2.22044604925031E-16));
#1149=DIRECTION('',(0.,-1.,2.22044604925031E-16));
#1150=DIRECTION('',(1.,0.,0.));
#1151=DIRECTION('',(0.,-1.,2.22044604925031E-16));
#1152=DIRECTION('center_axis',(0.,1.,-2.22044604925031E-16));
#1153=DIRECTION('ref_axis',(-1.,0.,0.));
#1154=DIRECTION('',(0.422618261740694,-2.01240754513033E-16,-0.906307787036653));
#1155=DIRECTION('',(0.,2.22044604925031E-16,1.));
#1156=DIRECTION('',(0.,-2.22044604925031E-16,-1.));
#1157=DIRECTION('',(0.422618261740694,2.01240754513033E-16,0.906307787036653));
#1158=DIRECTION('center_axis',(1.,0.,0.));
#1159=DIRECTION('ref_axis',(0.,1.,-2.22044604925031E-16));
#1160=DIRECTION('',(0.,-1.,2.22044604925031E-16));
#1161=DIRECTION('center_axis',(1.,0.,0.));
#1162=DIRECTION('ref_axis',(0.,1.,-2.22044604925031E-16));
#1163=DIRECTION('',(0.,-1.,2.22044604925031E-16));
#1164=DIRECTION('center_axis',(-0.906307787036653,-9.38401049623158E-17,
-0.422618261740694));
#1165=DIRECTION('ref_axis',(0.422618261740694,-2.01240754513033E-16,-0.906307787036653));
#1166=DIRECTION('center_axis',(0.906307787036653,-9.38401049623158E-17,
-0.422618261740694));
#1167=DIRECTION('ref_axis',(0.422618261740694,2.01240754513033E-16,0.906307787036653));
#1168=DIRECTION('center_axis',(0.,0.0871557427476548,-0.996194698091746));
#1169=DIRECTION('ref_axis',(0.,0.996194698091746,0.0871557427476548));
#1170=DIRECTION('',(-0.0868265938642409,0.992432509138968,0.0868265938642443));
#1171=DIRECTION('',(-1.,0.,0.));
#1172=DIRECTION('',(-0.0868265938642409,-0.992432509138968,-0.0868265938642443));
#1173=DIRECTION('',(-1.,0.,0.));
#1174=DIRECTION('center_axis',(0.,0.707106781186546,-0.707106781186549));
#1175=DIRECTION('ref_axis',(0.,0.707106781186549,0.707106781186546));
#1176=DIRECTION('',(-0.0617457854184444,0.705757556807953,0.705757556807951));
#1177=DIRECTION('',(-1.,0.,0.));
#1178=DIRECTION('',(-0.0617457854184444,-0.705757556807953,-0.705757556807951));
#1179=DIRECTION('center_axis',(0.,1.,-5.68131574917051E-17));
#1180=DIRECTION('ref_axis',(0.,5.68131574917051E-17,1.));
#1181=DIRECTION('',(0.,-2.22044604925031E-16,-1.));
#1182=DIRECTION('center_axis',(0.,1.,-7.94806700596595E-17));
#1183=DIRECTION('ref_axis',(0.,7.94806700596595E-17,1.));
#1184=DIRECTION('',(0.,-2.22044604925031E-16,-1.));
#1185=DIRECTION('',(-1.,0.,0.));
#1186=DIRECTION('',(0.,-2.22044604925031E-16,-1.));
#1187=DIRECTION('center_axis',(0.,1.,-7.94806700596595E-17));
#1188=DIRECTION('ref_axis',(0.,-7.94806700596595E-17,-1.));
#1189=DIRECTION('',(0.,-2.22044604925031E-16,-1.));
#1190=DIRECTION('center_axis',(0.,0.0871557427476544,0.996194698091746));
#1191=DIRECTION('ref_axis',(0.,-0.996194698091746,0.0871557427476544));
#1192=DIRECTION('',(0.0868265938642409,-0.992432509138968,0.0868265938642439));
#1193=DIRECTION('',(-1.,0.,0.));
#1194=DIRECTION('',(0.0868265938642409,0.992432509138968,-0.0868265938642439));
#1195=DIRECTION('center_axis',(0.,-0.0871557427476549,0.996194698091746));
#1196=DIRECTION('ref_axis',(0.,-0.996194698091746,-0.0871557427476549));
#1197=DIRECTION('',(0.0868265938642409,-0.992432509138968,-0.0868265938642444));
#1198=DIRECTION('',(-1.,0.,0.));
#1199=DIRECTION('',(0.0868265938642409,0.992432509138968,0.0868265938642444));
#1200=DIRECTION('center_axis',(0.,-1.,7.94806700596595E-17));
#1201=DIRECTION('ref_axis',(0.,-7.94806700596595E-17,-1.));
#1202=DIRECTION('',(0.,7.94806700596595E-17,1.));
#1203=DIRECTION('',(0.,7.94806700596595E-17,1.));
#1204=DIRECTION('center_axis',(-0.996194698091746,-0.0871557427476515,1.93524624653499E-17));
#1205=DIRECTION('ref_axis',(0.0871557427476515,-0.996194698091746,2.21199658166193E-16));
#1206=DIRECTION('',(-1.24727281283673E-17,-7.94806700596594E-17,-1.));
#1207=DIRECTION('center_axis',(0.996194698091746,-0.0871557427476514,1.93524624653499E-17));
#1208=DIRECTION('ref_axis',(0.0871557427476514,0.996194698091746,-2.21199658166193E-16));
#1209=DIRECTION('',(1.24727281283673E-17,-7.94806700596594E-17,-1.));
#1210=DIRECTION('center_axis',(0.,-1.,7.94806700596595E-17));
#1211=DIRECTION('ref_axis',(0.,-7.94806700596595E-17,-1.));
#1212=DIRECTION('center_axis',(0.,1.,-7.94806700596595E-17));
#1213=DIRECTION('ref_axis',(0.,-7.94806700596595E-17,-1.));
#1214=DIRECTION('center_axis',(0.,-1.,7.94806700596595E-17));
#1215=DIRECTION('ref_axis',(0.,-7.94806700596595E-17,-1.));
#1216=DIRECTION('center_axis',(0.,-1.,7.94806700596595E-17));
#1217=DIRECTION('ref_axis',(0.,7.94806700596595E-17,1.));
#1218=DIRECTION('center_axis',(0.,1.,-7.94806700596595E-17));
#1219=DIRECTION('ref_axis',(0.,7.94806700596595E-17,1.));
#1220=DIRECTION('center_axis',(0.,1.,-7.94806700596595E-17));
#1221=DIRECTION('ref_axis',(0.,7.94806700596595E-17,1.));
#1222=DIRECTION('center_axis',(-1.,0.,0.));
#1223=DIRECTION('ref_axis',(0.,-1.,2.22044604925031E-16));
#1224=DIRECTION('',(0.,1.,-3.77071386251413E-15));
#1225=DIRECTION('',(0.,-2.22044604925031E-16,-1.));
#1226=DIRECTION('',(0.,1.,-2.22044604925031E-16));
#1227=DIRECTION('',(0.,9.83713533107152E-17,1.));
#1228=DIRECTION('center_axis',(-1.,0.,0.));
#1229=DIRECTION('ref_axis',(0.,-1.,2.22044604925031E-16));
#1230=DIRECTION('',(0.,-2.22044604925031E-16,-1.));
#1231=DIRECTION('',(0.,1.,-3.77071386251413E-15));
#1232=DIRECTION('',(0.,9.83713533107152E-17,1.));
#1233=DIRECTION('',(0.,-1.,2.22044604925031E-16));
#1234=DIRECTION('center_axis',(0.,-0.0871557427476546,-0.996194698091746));
#1235=DIRECTION('ref_axis',(0.,0.996194698091746,-0.0871557427476546));
#1236=DIRECTION('',(-1.,0.,0.));
#1237=DIRECTION('',(0.,-0.996194698091746,0.0871557427476546));
#1238=DIRECTION('',(-1.,0.,0.));
#1239=DIRECTION('',(0.,-0.996194698091746,0.0871557427476546));
#1240=DIRECTION('center_axis',(0.,1.,-2.22044604925031E-16));
#1241=DIRECTION('ref_axis',(-1.,0.,0.));
#1242=DIRECTION('',(0.,-4.3988611310966E-16,-1.));
#1243=DIRECTION('',(-1.,0.,0.));
#1244=DIRECTION('',(0.707106781186544,-1.57009245868378E-16,-0.707106781186551));
#1245=DIRECTION('',(-1.,0.,0.));
#1246=DIRECTION('',(0.707106781186548,1.57009245868378E-16,0.707106781186548));
#1247=DIRECTION('',(-1.,0.,0.));
#1248=DIRECTION('',(0.,-4.3988611310966E-16,-1.));
#1249=DIRECTION('center_axis',(0.,2.22044604925031E-16,1.));
#1250=DIRECTION('ref_axis',(0.,-1.,2.22044604925031E-16));
#1251=DIRECTION('',(-1.,0.,0.));
#1252=DIRECTION('',(0.,-1.,2.22044604925031E-16));
#1253=DIRECTION('',(0.,1.,-2.22044604925031E-16));
#1254=DIRECTION('center_axis',(0.,-1.,9.83713533107152E-17));
#1255=DIRECTION('ref_axis',(0.,-9.83713533107152E-17,-1.));
#1256=DIRECTION('',(0.,2.35838525694567E-16,1.));
#1257=DIRECTION('',(-1.,0.,0.));
#1258=DIRECTION('',(-0.707106781186548,-6.95590510005044E-17,-0.707106781186548));
#1259=DIRECTION('',(-0.707106781186544,6.95590510005047E-17,0.707106781186551));
#1260=DIRECTION('',(-1.,0.,0.));
#1261=DIRECTION('',(0.,2.35838525694567E-16,1.));
#1262=DIRECTION('center_axis',(-0.707106781186548,1.57009245868378E-16,
0.707106781186548));
#1263=DIRECTION('ref_axis',(0.,1.,-2.22044604925031E-16));
#1264=DIRECTION('center_axis',(-0.707106781186551,-1.57009245868377E-16,
-0.707106781186544));
#1265=DIRECTION('ref_axis',(0.,-1.,2.22044604925031E-16));
#1266=DIRECTION('center_axis',(1.,0.,0.));
#1267=DIRECTION('ref_axis',(0.,1.,-2.22044604925031E-16));
#1268=DIRECTION('',(0.,1.,-3.77071386251413E-15));
#1269=DIRECTION('center_axis',(0.,3.77071386251413E-15,1.));
#1270=DIRECTION('ref_axis',(0.,-1.,3.77071386251413E-15));
#1271=DIRECTION('center_axis',(0.,3.77071386251413E-15,1.));
#1272=DIRECTION('ref_axis',(0.,-1.,3.77071386251413E-15));
#1273=DIRECTION('',(0.,1.,-3.77071386251413E-15));
#1274=DIRECTION('center_axis',(1.,0.,0.));
#1275=DIRECTION('ref_axis',(0.,1.,-2.22044604925031E-16));
#1276=DIRECTION('center_axis',(-1.,0.,0.));
#1277=DIRECTION('ref_axis',(0.,-1.,2.22044604925031E-16));
#1278=DIRECTION('',(0.,1.,-3.77071386251413E-15));
#1279=DIRECTION('',(0.,-2.22044604925031E-16,-1.));
#1280=DIRECTION('',(0.,1.,-2.22044604925031E-16));
#1281=DIRECTION('',(0.,9.83713533107152E-17,1.));
#1282=DIRECTION('center_axis',(-1.,0.,0.));
#1283=DIRECTION('ref_axis',(0.,-1.,2.22044604925031E-16));
#1284=DIRECTION('',(0.,-2.22044604925031E-16,-1.));
#1285=DIRECTION('',(0.,1.,-3.77071386251413E-15));
#1286=DIRECTION('',(0.,9.83713533107152E-17,1.));
#1287=DIRECTION('',(0.,-1.,2.22044604925031E-16));
#1288=DIRECTION('center_axis',(0.,-0.0871557427476546,-0.996194698091746));
#1289=DIRECTION('ref_axis',(0.,0.996194698091746,-0.0871557427476546));
#1290=DIRECTION('',(-1.,0.,0.));
#1291=DIRECTION('',(0.,-0.996194698091746,0.0871557427476546));
#1292=DIRECTION('',(-1.,0.,0.));
#1293=DIRECTION('',(0.,-0.996194698091746,0.0871557427476546));
#1294=DIRECTION('center_axis',(0.,1.,-2.22044604925031E-16));
#1295=DIRECTION('ref_axis',(-1.,0.,0.));
#1296=DIRECTION('',(0.,-4.3988611310966E-16,-1.));
#1297=DIRECTION('',(-1.,0.,0.));
#1298=DIRECTION('',(0.707106781186544,-1.57009245868378E-16,-0.707106781186551));
#1299=DIRECTION('',(-1.,0.,0.));
#1300=DIRECTION('',(0.707106781186548,1.57009245868378E-16,0.707106781186548));
#1301=DIRECTION('',(-1.,0.,0.));
#1302=DIRECTION('',(0.,-4.3988611310966E-16,-1.));
#1303=DIRECTION('center_axis',(0.,2.22044604925031E-16,1.));
#1304=DIRECTION('ref_axis',(0.,-1.,2.22044604925031E-16));
#1305=DIRECTION('',(-1.,0.,0.));
#1306=DIRECTION('',(0.,-1.,2.22044604925031E-16));
#1307=DIRECTION('',(0.,1.,-2.22044604925031E-16));
#1308=DIRECTION('center_axis',(0.,-1.,9.83713533107152E-17));
#1309=DIRECTION('ref_axis',(0.,-9.83713533107152E-17,-1.));
#1310=DIRECTION('',(0.,2.35838525694567E-16,1.));
#1311=DIRECTION('',(-1.,0.,0.));
#1312=DIRECTION('',(-0.707106781186548,-6.95590510005044E-17,-0.707106781186548));
#1313=DIRECTION('',(-0.707106781186544,6.95590510005047E-17,0.707106781186551));
#1314=DIRECTION('',(-1.,0.,0.));
#1315=DIRECTION('',(0.,2.35838525694567E-16,1.));
#1316=DIRECTION('center_axis',(-0.707106781186548,1.57009245868378E-16,
0.707106781186548));
#1317=DIRECTION('ref_axis',(0.,1.,-2.22044604925031E-16));
#1318=DIRECTION('center_axis',(-0.707106781186551,-1.57009245868377E-16,
-0.707106781186544));
#1319=DIRECTION('ref_axis',(0.,-1.,2.22044604925031E-16));
#1320=DIRECTION('center_axis',(1.,0.,0.));
#1321=DIRECTION('ref_axis',(0.,1.,-2.22044604925031E-16));
#1322=DIRECTION('',(0.,1.,-3.77071386251413E-15));
#1323=DIRECTION('center_axis',(0.,3.77071386251413E-15,1.));
#1324=DIRECTION('ref_axis',(0.,-1.,3.77071386251413E-15));
#1325=DIRECTION('center_axis',(0.,3.77071386251413E-15,1.));
#1326=DIRECTION('ref_axis',(0.,-1.,3.77071386251413E-15));
#1327=DIRECTION('',(0.,1.,-3.77071386251413E-15));
#1328=DIRECTION('center_axis',(1.,0.,0.));
#1329=DIRECTION('ref_axis',(0.,1.,-2.22044604925031E-16));
#1330=DIRECTION('center_axis',(1.,0.,0.));
#1331=DIRECTION('ref_axis',(0.,-1.,2.22044604925031E-16));
#1332=DIRECTION('',(0.,1.,-3.77071386251413E-15));
#1333=DIRECTION('',(0.,9.83713533107152E-17,1.));
#1334=DIRECTION('',(0.,1.,-2.22044604925031E-16));
#1335=DIRECTION('',(0.,-2.22044604925031E-16,-1.));
#1336=DIRECTION('center_axis',(1.,0.,0.));
#1337=DIRECTION('ref_axis',(0.,-1.,2.22044604925031E-16));
#1338=DIRECTION('',(0.,-2.22044604925031E-16,-1.));
#1339=DIRECTION('',(0.,-1.,2.22044604925031E-16));
#1340=DIRECTION('',(0.,9.83713533107152E-17,1.));
#1341=DIRECTION('',(0.,1.,-3.77071386251413E-15));
#1342=DIRECTION('center_axis',(0.,-0.0871557427476546,-0.996194698091746));
#1343=DIRECTION('ref_axis',(0.,0.996194698091746,-0.0871557427476546));
#1344=DIRECTION('',(1.,0.,0.));
#1345=DIRECTION('',(0.,-0.996194698091746,0.0871557427476546));
#1346=DIRECTION('',(1.,0.,0.));
#1347=DIRECTION('',(0.,-0.996194698091746,0.0871557427476546));
#1348=DIRECTION('center_axis',(0.,1.,-2.22044604925031E-16));
#1349=DIRECTION('ref_axis',(1.,0.,0.));
#1350=DIRECTION('',(0.,-4.3988611310966E-16,-1.));
#1351=DIRECTION('',(1.,0.,0.));
#1352=DIRECTION('',(-0.707106781186548,1.57009245868378E-16,0.707106781186548));
#1353=DIRECTION('',(1.,0.,0.));
#1354=DIRECTION('',(-0.707106781186544,-1.57009245868378E-16,-0.707106781186551));
#1355=DIRECTION('',(1.,0.,0.));
#1356=DIRECTION('',(0.,-4.3988611310966E-16,-1.));
#1357=DIRECTION('center_axis',(0.,2.22044604925031E-16,1.));
#1358=DIRECTION('ref_axis',(0.,-1.,2.22044604925031E-16));
#1359=DIRECTION('',(1.,0.,0.));
#1360=DIRECTION('',(0.,1.,-2.22044604925031E-16));
#1361=DIRECTION('',(0.,-1.,2.22044604925031E-16));
#1362=DIRECTION('center_axis',(0.,-1.,9.83713533107152E-17));
#1363=DIRECTION('ref_axis',(0.,-9.83713533107152E-17,-1.));
#1364=DIRECTION('',(0.,2.35838525694567E-16,1.));
#1365=DIRECTION('',(1.,0.,0.));
#1366=DIRECTION('',(0.707106781186544,6.95590510005047E-17,0.707106781186551));
#1367=DIRECTION('',(0.707106781186548,-6.95590510005044E-17,-0.707106781186548));
#1368=DIRECTION('',(1.,0.,0.));
#1369=DIRECTION('',(0.,2.35838525694567E-16,1.));
#1370=DIRECTION('center_axis',(0.707106781186548,1.57009245868378E-16,0.707106781186548));
#1371=DIRECTION('ref_axis',(0.,1.,-2.22044604925031E-16));
#1372=DIRECTION('center_axis',(0.707106781186551,-1.57009245868377E-16,
-0.707106781186544));
#1373=DIRECTION('ref_axis',(0.,-1.,2.22044604925031E-16));
#1374=DIRECTION('center_axis',(-1.,0.,0.));
#1375=DIRECTION('ref_axis',(0.,1.,-2.22044604925031E-16));
#1376=DIRECTION('',(0.,1.,-3.77071386251413E-15));
#1377=DIRECTION('center_axis',(0.,3.77071386251413E-15,1.));
#1378=DIRECTION('ref_axis',(0.,-1.,3.77071386251413E-15));
#1379=DIRECTION('center_axis',(0.,3.77071386251413E-15,1.));
#1380=DIRECTION('ref_axis',(0.,-1.,3.77071386251413E-15));
#1381=DIRECTION('',(0.,1.,-3.77071386251413E-15));
#1382=DIRECTION('center_axis',(-1.,0.,0.));
#1383=DIRECTION('ref_axis',(0.,1.,-2.22044604925031E-16));
#1384=CARTESIAN_POINT('',(0.,0.,0.));
#1385=CARTESIAN_POINT('Origin',(0.,2.23018930130027,16.4157377933951));
#1386=CARTESIAN_POINT('',(-1.9,2.23018930130027,16.4157377933951));
#1387=CARTESIAN_POINT('Origin',(0.,2.23018930130027,16.4157377933951));
#1388=CARTESIAN_POINT('',(-1.9,1.67518930130027,16.4157377933951));
#1389=CARTESIAN_POINT('',(-1.9,2.23018930130027,16.4157377933951));
#1390=CARTESIAN_POINT('Origin',(0.,1.67518930130027,16.4157377933951));
#1391=CARTESIAN_POINT('Origin',(-11.5723953966865,2.23018930130027,13.2957377933951));
#1392=CARTESIAN_POINT('',(-5.1,2.23018930130027,13.2957377933951));
#1393=CARTESIAN_POINT('',(-5.1,1.67518930130027,13.2471815851383));
#1394=CARTESIAN_POINT('',(-5.1,2.23018930130027,13.2957377933951));
#1395=CARTESIAN_POINT('',(5.1,2.23018930130027,13.2957377933951));
#1396=CARTESIAN_POINT('',(-11.5723953966865,2.23018930130027,13.2957377933951));
#1397=CARTESIAN_POINT('',(5.1,1.67518930130027,13.2471815851383));
#1398=CARTESIAN_POINT('',(5.1,2.23018930130027,13.2957377933951));
#1399=CARTESIAN_POINT('',(-11.5723953966865,1.67518930130027,13.2471815851383));
#1400=CARTESIAN_POINT('Origin',(-11.5723953966865,1.67518930130027,13.2471815851383));
#1401=CARTESIAN_POINT('',(3.93423085461252,1.67518930130028,19.6957377933951));
#1402=CARTESIAN_POINT('',(5.1,1.67518930130027,17.1957377933951));
#1403=CARTESIAN_POINT('',(3.93423085461252,1.67518930130028,19.6957377933951));
#1404=CARTESIAN_POINT('',(-3.93423085461252,1.67518930130028,19.6957377933951));
#1405=CARTESIAN_POINT('',(-11.5723953966865,1.67518930130027,19.6957377933951));
#1406=CARTESIAN_POINT('',(-5.1,1.67518930130027,17.1957377933951));
#1407=CARTESIAN_POINT('',(-5.1,1.67518930130027,17.1957377933951));
#1408=CARTESIAN_POINT('',(-5.1,1.67518930130027,13.2471815851383));
#1409=CARTESIAN_POINT('',(5.1,1.67518930130027,13.2471815851383));
#1410=CARTESIAN_POINT('Origin',(-11.5723953966865,1.67518930130027,19.6957377933951));
#1411=CARTESIAN_POINT('',(3.93423085461252,2.23018930130027,19.6957377933951));
#1412=CARTESIAN_POINT('',(3.93423085461252,2.23018930130027,19.6957377933951));
#1413=CARTESIAN_POINT('',(-3.93423085461252,2.23018930130027,19.6957377933951));
#1414=CARTESIAN_POINT('',(-11.5723953966865,2.23018930130027,19.6957377933951));
#1415=CARTESIAN_POINT('',(-3.93423085461252,2.23018930130027,19.6957377933951));
#1416=CARTESIAN_POINT('Origin',(-11.5723953966865,2.23018930130027,19.6957377933951));
#1417=CARTESIAN_POINT('',(5.1,2.23018930130027,17.1957377933951));
#1418=CARTESIAN_POINT('',(3.93423085461252,2.23018930130027,19.6957377933951));
#1419=CARTESIAN_POINT('',(5.1,2.23018930130027,19.6957377933951));
#1420=CARTESIAN_POINT('',(-5.1,2.23018930130027,17.1957377933951));
#1421=CARTESIAN_POINT('',(-5.1,2.23018930130027,19.6957377933951));
#1422=CARTESIAN_POINT('',(-5.1,2.23018930130027,17.1957377933951));
#1423=CARTESIAN_POINT('Origin',(-5.1,-0.0198106986997315,0.0157377933951452));
#1424=CARTESIAN_POINT('',(-5.1,2.23018930130027,17.1957377933951));
#1425=CARTESIAN_POINT('Origin',(5.1,-0.0198106986997315,0.0157377933951452));
#1426=CARTESIAN_POINT('',(5.1,2.23018930130027,17.1957377933951));
#1427=CARTESIAN_POINT('Origin',(3.93423085461252,2.23018930130027,19.6957377933951));
#1428=CARTESIAN_POINT('Origin',(-5.1,2.23018930130027,17.1957377933951));
#1429=CARTESIAN_POINT('Origin',(5.1,2.23018930130027,13.2957377933951));
#1430=CARTESIAN_POINT('',(-4.79378967765929,-1.26981069869973,12.9895274710544));
#1431=CARTESIAN_POINT('',(-5.1,2.23018930130027,13.2957377933951));
#1432=CARTESIAN_POINT('',(-5.02310365449893,1.35126005033175,13.2188414478941));
#1433=CARTESIAN_POINT('',(4.79378967765929,-1.26981069869973,12.9895274710544));
#1434=CARTESIAN_POINT('',(5.1,-1.26981069869973,12.9895274710544));
#1435=CARTESIAN_POINT('',(5.1,2.23018930130027,13.2957377933951));
#1436=CARTESIAN_POINT('',(5.1,2.23018930130027,13.2957377933951));
#1437=CARTESIAN_POINT('',(5.1,2.23018930130027,13.2957377933951));
#1438=CARTESIAN_POINT('Origin',(5.1,-1.26981069869973,12.9895274710544));
#1439=CARTESIAN_POINT('',(-4.70630101413337,-2.26981069869973,11.9895274710544));
#1440=CARTESIAN_POINT('',(-4.75606918880644,-1.70095785917356,12.5583803105806));
#1441=CARTESIAN_POINT('',(4.70630101413337,-2.26981069869973,11.9895274710544));
#1442=CARTESIAN_POINT('',(5.1,-2.26981069869973,11.9895274710544));
#1443=CARTESIAN_POINT('',(4.79495711737923,-1.25646680164044,13.0028713681137));
#1444=CARTESIAN_POINT('Origin',(5.1,-2.26981069869973,11.9895274710544));
#1445=CARTESIAN_POINT('',(-4.70630101413337,-2.26981069869973,8.1664073101843));
#1446=CARTESIAN_POINT('',(-4.70630101413337,-2.26981069869973,19.6957377933951));
#1447=CARTESIAN_POINT('',(-4.70630101413337,-2.26981069869973,5.72506827660599));
#1448=CARTESIAN_POINT('Origin',(-5.1,-2.26981069869973,6.94573779339515));
#1449=CARTESIAN_POINT('',(-4.70630101413337,-2.26981069869973,4.11546580063543));
#1450=CARTESIAN_POINT('',(-4.70630101413337,-2.26981069869973,19.6957377933951));
#1451=CARTESIAN_POINT('',(4.70630101413337,-2.26981069869973,4.11546580063543));
#1452=CARTESIAN_POINT('',(5.1,-2.26981069869973,4.11546580063543));
#1453=CARTESIAN_POINT('',(4.70630101413337,-2.26981069869973,5.72506827660599));
#1454=CARTESIAN_POINT('',(4.70630101413337,-2.26981069869973,19.6957377933951));
#1455=CARTESIAN_POINT('',(4.70630101413337,-2.26981069869973,8.1664073101843));
#1456=CARTESIAN_POINT('Origin',(5.1,-2.26981069869973,6.94573779339515));
#1457=CARTESIAN_POINT('',(4.70630101413337,-2.26981069869973,19.6957377933951));
#1458=CARTESIAN_POINT('Origin',(5.1,-2.26981069869973,4.11546580063543));
#1459=CARTESIAN_POINT('',(-4.87602902137365,-0.329810698699731,3.94573779339515));
#1460=CARTESIAN_POINT('',(-4.63237270914609,-3.11481509135896,4.18939410562272));
#1461=CARTESIAN_POINT('',(4.87602902137365,-0.329810698699731,3.94573779339515));
#1462=CARTESIAN_POINT('',(5.1,-0.329810698699731,3.94573779339515));
#1463=CARTESIAN_POINT('',(4.70926905464716,-2.23588584039043,4.11249776012165));
#1464=CARTESIAN_POINT('Origin',(5.1,-0.329810698699731,3.94573779339515));
#1465=CARTESIAN_POINT('',(-5.1,2.23018930130027,4.1697087720215));
#1466=CARTESIAN_POINT('',(-4.80082116114265,-1.18944047471897,3.87052993316414));
#1467=CARTESIAN_POINT('',(5.1,2.23018930130027,4.1697087720215));
#1468=CARTESIAN_POINT('',(5.1,2.23018930130027,4.1697087720215));
#1469=CARTESIAN_POINT('',(4.87771750664372,-0.310511223750443,3.94742627866521));
#1470=CARTESIAN_POINT('Origin',(5.1,2.23018930130027,4.1697087720215));
#1471=CARTESIAN_POINT('',(-5.1,2.23018930130027,4.1697087720215));
#1472=CARTESIAN_POINT('',(5.1,2.23018930130027,4.1697087720215));
#1473=CARTESIAN_POINT('Origin',(-5.1,2.23018930130027,19.6957377933951));
#1474=CARTESIAN_POINT('',(-4.98888939732208,0.960189301300269,7.93954584023948));
#1475=CARTESIAN_POINT('Ctrl Pts',(-4.70630101413337,-2.26981069869973,8.1664073101843));
#1476=CARTESIAN_POINT('Ctrl Pts',(-4.86207004553975,-0.489362522574208,
8.05297657521151));
#1477=CARTESIAN_POINT('Ctrl Pts',(-4.98888939732292,0.960189301309786,7.93954584023873));
#1478=CARTESIAN_POINT('',(-4.98888939732208,0.960189301300269,5.95192974655081));
#1479=CARTESIAN_POINT('Ctrl Pts',(-4.98888939732292,0.960189301309784,5.95192974655156));
#1480=CARTESIAN_POINT('Ctrl Pts',(-4.86207004554206,-0.489362522547781,
5.83849901158085));
#1481=CARTESIAN_POINT('Ctrl Pts',(-4.70630101413905,-2.26981069863478,5.72506827661013));
#1482=CARTESIAN_POINT('',(-4.98888939732208,0.960189301300269,19.6957377933951));
#1483=CARTESIAN_POINT('Origin',(5.1,2.23018930130027,19.6957377933951));
#1484=CARTESIAN_POINT('',(4.98888939732208,0.960189301300269,5.95192974655081));
#1485=CARTESIAN_POINT('Ctrl Pts',(4.70630101413337,-2.26981069869973,5.72506827660599));
#1486=CARTESIAN_POINT('Ctrl Pts',(4.86207004553975,-0.489362522574219,5.83849901157878));
#1487=CARTESIAN_POINT('Ctrl Pts',(4.98888939732292,0.960189301309785,5.95192974655156));
#1488=CARTESIAN_POINT('',(4.98888939732208,0.960189301300269,7.93954584023948));
#1489=CARTESIAN_POINT('Ctrl Pts',(4.98888939732292,0.960189301309784,7.93954584023873));
#1490=CARTESIAN_POINT('Ctrl Pts',(4.86207004554206,-0.489362522547842,8.05297657520945));
#1491=CARTESIAN_POINT('Ctrl Pts',(4.70630101413906,-2.26981069863478,8.16640731018017));
#1492=CARTESIAN_POINT('',(4.98888939732208,0.960189301300269,19.6957377933951));
#1493=CARTESIAN_POINT('Origin',(5.1,0.960189301300269,6.94573779339515));
#1494=CARTESIAN_POINT('Origin',(5.1,0.960189301300269,6.94573779339515));
#1495=CARTESIAN_POINT('Origin',(5.1,0.960189301300269,6.94573779339515));
#1496=CARTESIAN_POINT('Origin',(-5.1,0.960189301300269,6.94573779339515));
#1497=CARTESIAN_POINT('Origin',(-5.1,0.960189301300269,6.94573779339515));
#1498=CARTESIAN_POINT('Origin',(-5.1,0.960189301300269,6.94573779339515));
#1499=CARTESIAN_POINT('Origin',(0.3725,-0.0198106986997315,0.0157377933951452));
#1500=CARTESIAN_POINT('',(0.3725,-0.91981069869973,0.0157377933951477));
#1501=CARTESIAN_POINT('',(0.3725,-0.329810698699731,0.0157377933951431));
#1502=CARTESIAN_POINT('',(0.3725,-0.0198106986997315,0.0157377933951452));
#1503=CARTESIAN_POINT('',(0.3725,-0.919810698699732,-9.00426220660485));
#1504=CARTESIAN_POINT('',(0.3725,-0.919810698699732,-9.20426220660485));
#1505=CARTESIAN_POINT('',(0.3725,-0.329810698699733,-9.00426220660485));
#1506=CARTESIAN_POINT('',(0.3725,-0.0198106986997337,-9.00426220660485));
#1507=CARTESIAN_POINT('',(0.3725,-0.329810698699731,3.94573779339515));
#1508=CARTESIAN_POINT('Origin',(-0.3725,-0.0198106986997315,0.0157377933951452));
#1509=CARTESIAN_POINT('',(-0.3725,-0.91981069869973,0.0157377933951455));
#1510=CARTESIAN_POINT('',(-0.3725,-0.919810698699732,-9.00426220660485));
#1511=CARTESIAN_POINT('',(-0.3725,-0.919810698699732,-9.20426220660485));
#1512=CARTESIAN_POINT('',(-0.3725,-0.329810698699733,0.0157377933951431));
#1513=CARTESIAN_POINT('',(-0.3725,-0.0198106986997315,0.0157377933951452));
#1514=CARTESIAN_POINT('',(-0.3725,-0.329810698699733,-9.00426220660485));
#1515=CARTESIAN_POINT('',(-0.3725,-0.329810698699731,3.94573779339515));
#1516=CARTESIAN_POINT('',(-0.3725,-0.919810698699732,-9.00426220660485));
#1517=CARTESIAN_POINT('Origin',(0.3725,-0.91981069869973,3.99735610487544));
#1518=CARTESIAN_POINT('',(0.71,-0.329810698699731,3.94573779339515));
#1519=CARTESIAN_POINT('',(-0.71,-0.329810698699731,3.94573779339515));
#1520=CARTESIAN_POINT('',(0.3725,-0.329810698699731,3.94573779339515));
#1521=CARTESIAN_POINT('',(-0.71,-0.91981069869973,3.99735610487544));
#1522=CARTESIAN_POINT('',(-0.71,-0.329810698699731,3.94573779339515));
#1523=CARTESIAN_POINT('',(0.71,-0.91981069869973,3.99735610487544));
#1524=CARTESIAN_POINT('',(0.3725,-0.91981069869973,3.99735610487544));
#1525=CARTESIAN_POINT('',(0.71,-0.329810698699731,3.94573779339515));
#1526=CARTESIAN_POINT('Origin',(0.3725,-0.919810698699732,-9.20426220660485));
#1527=CARTESIAN_POINT('',(-0.71,-0.91981069869973,0.0157377933951455));
#1528=CARTESIAN_POINT('',(-0.71,-0.91981069869973,3.99735610487544));
#1529=CARTESIAN_POINT('',(0.71,-0.91981069869973,0.0157377933951455));
#1530=CARTESIAN_POINT('',(-0.172499999999999,-0.919810698699732,-9.20426220660485));
#1531=CARTESIAN_POINT('',(-0.172499999999999,-0.919810698699732,-9.20426220660485));
#1532=CARTESIAN_POINT('',(0.172500000000001,-0.919810698699732,-9.20426220660485));
#1533=CARTESIAN_POINT('',(0.3725,-0.919810698699732,-9.20426220660485));
#1534=CARTESIAN_POINT('',(0.3725,-0.919810698699732,-9.00426220660485));
#1535=CARTESIAN_POINT('',(0.71,-0.91981069869973,0.0157377933951455));
#1536=CARTESIAN_POINT('',(0.71,-0.91981069869973,0.0157377933951455));
#1537=CARTESIAN_POINT('',(0.71,-0.91981069869973,3.99735610487544));
#1538=CARTESIAN_POINT('Origin',(0.3725,-0.329810698699733,-9.20426220660485));
#1539=CARTESIAN_POINT('',(0.172500000000001,-0.329810698699733,-9.20426220660485));
#1540=CARTESIAN_POINT('',(-0.172499999999999,-0.329810698699733,-9.20426220660485));
#1541=CARTESIAN_POINT('',(0.3725,-0.329810698699733,-9.20426220660485));
#1542=CARTESIAN_POINT('',(0.172500000000001,-0.329810698699733,-9.20426220660485));
#1543=CARTESIAN_POINT('',(-0.172499999999999,-0.329810698699733,-9.20426220660485));
#1544=CARTESIAN_POINT('Origin',(0.3725,-0.329810698699731,3.94573779339515));
#1545=CARTESIAN_POINT('',(0.71,-0.329810698699733,0.0157377933951431));
#1546=CARTESIAN_POINT('',(0.71,-0.329810698699733,0.0157377933951431));
#1547=CARTESIAN_POINT('',(0.71,-0.329810698699733,0.0157377933951431));
#1548=CARTESIAN_POINT('',(0.3725,-0.329810698699733,-9.00426220660485));
#1549=CARTESIAN_POINT('',(-0.172499999999999,-0.329810698699733,-9.20426220660485));
#1550=CARTESIAN_POINT('',(-0.71,-0.329810698699733,0.0157377933951431));
#1551=CARTESIAN_POINT('',(0.71,-0.329810698699733,0.0157377933951431));
#1552=CARTESIAN_POINT('',(-0.71,-0.329810698699733,0.0157377933951431));
#1553=CARTESIAN_POINT('Origin',(0.3725,-0.0198106986997337,-9.00426220660485));
#1554=CARTESIAN_POINT('Origin',(-0.172499999999999,-0.329810698699733,-9.20426220660485));
#1555=CARTESIAN_POINT('Origin',(-0.71,-0.0198106986997315,0.0157377933951452));
#1556=CARTESIAN_POINT('',(-0.71,-0.329810698699733,0.0157377933951431));
#1557=CARTESIAN_POINT('Origin',(0.71,-0.329810698699733,0.0157377933951431));
#1558=CARTESIAN_POINT('Origin',(0.71,-0.329810698699733,0.0157377933951431));
#1559=CARTESIAN_POINT('',(0.71,-0.329810698699733,0.0157377933951431));
#1560=CARTESIAN_POINT('Origin',(0.71,-0.0198106986997315,0.0157377933951452));
#1561=CARTESIAN_POINT('Origin',(-2.1775,-0.0198106986997315,0.0157377933951452));
#1562=CARTESIAN_POINT('',(-2.1775,-0.91981069869973,0.0157377933951477));
#1563=CARTESIAN_POINT('',(-2.1775,-0.329810698699731,0.0157377933951431));
#1564=CARTESIAN_POINT('',(-2.1775,-0.0198106986997315,0.0157377933951452));
#1565=CARTESIAN_POINT('',(-2.1775,-0.919810698699732,-9.00426220660485));
#1566=CARTESIAN_POINT('',(-2.1775,-0.919810698699732,-9.20426220660485));
#1567=CARTESIAN_POINT('',(-2.1775,-0.329810698699733,-9.00426220660485));
#1568=CARTESIAN_POINT('',(-2.1775,-0.0198106986997337,-9.00426220660485));
#1569=CARTESIAN_POINT('',(-2.1775,-0.329810698699731,3.94573779339515));
#1570=CARTESIAN_POINT('Origin',(-2.9225,-0.0198106986997315,0.0157377933951452));
#1571=CARTESIAN_POINT('',(-2.9225,-0.91981069869973,0.0157377933951455));
#1572=CARTESIAN_POINT('',(-2.9225,-0.919810698699732,-9.00426220660485));
#1573=CARTESIAN_POINT('',(-2.9225,-0.919810698699732,-9.20426220660485));
#1574=CARTESIAN_POINT('',(-2.9225,-0.329810698699731,0.0157377933951431));
#1575=CARTESIAN_POINT('',(-2.9225,-0.0198106986997315,0.0157377933951452));
#1576=CARTESIAN_POINT('',(-2.9225,-0.329810698699733,-9.00426220660485));
#1577=CARTESIAN_POINT('',(-2.9225,-0.329810698699731,3.94573779339515));
#1578=CARTESIAN_POINT('',(-2.9225,-0.919810698699732,-9.00426220660485));
#1579=CARTESIAN_POINT('Origin',(-2.1775,-0.91981069869973,3.99735610487544));
#1580=CARTESIAN_POINT('',(-1.84,-0.329810698699731,3.94573779339515));
#1581=CARTESIAN_POINT('',(-3.26,-0.329810698699731,3.94573779339515));
#1582=CARTESIAN_POINT('',(-2.1775,-0.329810698699731,3.94573779339515));
#1583=CARTESIAN_POINT('',(-3.26,-0.91981069869973,3.99735610487544));
#1584=CARTESIAN_POINT('',(-3.26,-0.329810698699731,3.94573779339515));
#1585=CARTESIAN_POINT('',(-1.84,-0.91981069869973,3.99735610487544));
#1586=CARTESIAN_POINT('',(-2.1775,-0.91981069869973,3.99735610487544));
#1587=CARTESIAN_POINT('',(-1.84,-0.329810698699731,3.94573779339515));
#1588=CARTESIAN_POINT('Origin',(-2.1775,-0.919810698699732,-9.20426220660485));
#1589=CARTESIAN_POINT('',(-3.26,-0.91981069869973,0.0157377933951455));
#1590=CARTESIAN_POINT('',(-3.26,-0.91981069869973,3.99735610487544));
#1591=CARTESIAN_POINT('',(-1.84,-0.91981069869973,0.0157377933951455));
#1592=CARTESIAN_POINT('',(-2.7225,-0.919810698699732,-9.20426220660485));
#1593=CARTESIAN_POINT('',(-2.7225,-0.919810698699732,-9.20426220660485));
#1594=CARTESIAN_POINT('',(-2.3775,-0.919810698699732,-9.20426220660485));
#1595=CARTESIAN_POINT('',(-2.1775,-0.919810698699732,-9.20426220660485));
#1596=CARTESIAN_POINT('',(-2.1775,-0.919810698699732,-9.00426220660485));
#1597=CARTESIAN_POINT('',(-1.84,-0.91981069869973,0.0157377933951455));
#1598=CARTESIAN_POINT('',(-1.84,-0.91981069869973,0.0157377933951455));
#1599=CARTESIAN_POINT('',(-1.84,-0.91981069869973,3.99735610487544));
#1600=CARTESIAN_POINT('Origin',(-2.1775,-0.329810698699733,-9.20426220660485));
#1601=CARTESIAN_POINT('',(-2.3775,-0.329810698699733,-9.20426220660485));
#1602=CARTESIAN_POINT('',(-2.7225,-0.329810698699733,-9.20426220660485));
#1603=CARTESIAN_POINT('',(-2.1775,-0.329810698699733,-9.20426220660485));
#1604=CARTESIAN_POINT('',(-2.3775,-0.329810698699733,-9.20426220660485));
#1605=CARTESIAN_POINT('',(-2.7225,-0.329810698699733,-9.20426220660485));
#1606=CARTESIAN_POINT('Origin',(-2.1775,-0.329810698699731,3.94573779339515));
#1607=CARTESIAN_POINT('',(-1.84,-0.329810698699731,0.0157377933951431));
#1608=CARTESIAN_POINT('',(-1.84,-0.329810698699731,0.0157377933951431));
#1609=CARTESIAN_POINT('',(-1.84,-0.329810698699731,0.0157377933951431));
#1610=CARTESIAN_POINT('',(-2.1775,-0.329810698699733,-9.00426220660485));
#1611=CARTESIAN_POINT('',(-2.7225,-0.329810698699733,-9.20426220660485));
#1612=CARTESIAN_POINT('',(-3.26,-0.329810698699731,0.0157377933951431));
#1613=CARTESIAN_POINT('',(-1.84,-0.329810698699731,0.0157377933951431));
#1614=CARTESIAN_POINT('',(-3.26,-0.329810698699731,0.0157377933951431));
#1615=CARTESIAN_POINT('Origin',(-2.1775,-0.0198106986997337,-9.00426220660485));
#1616=CARTESIAN_POINT('Origin',(-2.7225,-0.329810698699733,-9.20426220660485));
#1617=CARTESIAN_POINT('Origin',(-3.26,-0.0198106986997315,0.0157377933951452));
#1618=CARTESIAN_POINT('',(-3.26,-0.329810698699731,0.0157377933951431));
#1619=CARTESIAN_POINT('Origin',(-1.84,-0.329810698699731,0.0157377933951431));
#1620=CARTESIAN_POINT('Origin',(-1.84,-0.329810698699731,0.0157377933951431));
#1621=CARTESIAN_POINT('',(-1.84,-0.329810698699731,0.0157377933951431));
#1622=CARTESIAN_POINT('Origin',(-1.84,-0.0198106986997315,0.0157377933951452));
#1623=CARTESIAN_POINT('Origin',(2.1775,-0.0198106986997315,0.0157377933951452));
#1624=CARTESIAN_POINT('',(2.1775,-0.91981069869973,0.0157377933951477));
#1625=CARTESIAN_POINT('',(2.1775,-0.329810698699731,0.0157377933951431));
#1626=CARTESIAN_POINT('',(2.1775,-0.0198106986997315,0.0157377933951452));
#1627=CARTESIAN_POINT('',(2.1775,-0.329810698699733,-9.00426220660485));
#1628=CARTESIAN_POINT('',(2.1775,-0.329810698699731,3.94573779339515));
#1629=CARTESIAN_POINT('',(2.1775,-0.919810698699732,-9.00426220660485));
#1630=CARTESIAN_POINT('',(2.1775,-0.0198106986997337,-9.00426220660485));
#1631=CARTESIAN_POINT('',(2.1775,-0.919810698699732,-9.20426220660485));
#1632=CARTESIAN_POINT('Origin',(2.9225,-0.0198106986997315,0.0157377933951452));
#1633=CARTESIAN_POINT('',(2.9225,-0.91981069869973,0.0157377933951455));
#1634=CARTESIAN_POINT('',(2.9225,-0.919810698699732,-9.00426220660485));
#1635=CARTESIAN_POINT('',(2.9225,-0.919810698699732,-9.20426220660485));
#1636=CARTESIAN_POINT('',(2.9225,-0.329810698699733,-9.00426220660485));
#1637=CARTESIAN_POINT('',(2.9225,-0.919810698699732,-9.00426220660485));
#1638=CARTESIAN_POINT('',(2.9225,-0.329810698699731,0.0157377933951431));
#1639=CARTESIAN_POINT('',(2.9225,-0.329810698699731,3.94573779339515));
#1640=CARTESIAN_POINT('',(2.9225,-0.0198106986997315,0.0157377933951452));
#1641=CARTESIAN_POINT('Origin',(2.1775,-0.91981069869973,3.99735610487544));
#1642=CARTESIAN_POINT('',(1.84,-0.329810698699731,3.94573779339515));
#1643=CARTESIAN_POINT('',(3.26,-0.329810698699731,3.94573779339515));
#1644=CARTESIAN_POINT('',(2.1775,-0.329810698699731,3.94573779339515));
#1645=CARTESIAN_POINT('',(1.84,-0.91981069869973,3.99735610487544));
#1646=CARTESIAN_POINT('',(1.84,-0.329810698699731,3.94573779339515));
#1647=CARTESIAN_POINT('',(3.26,-0.91981069869973,3.99735610487544));
#1648=CARTESIAN_POINT('',(2.1775,-0.91981069869973,3.99735610487544));
#1649=CARTESIAN_POINT('',(3.26,-0.329810698699731,3.94573779339515));
#1650=CARTESIAN_POINT('Origin',(2.1775,-0.919810698699732,-9.20426220660485));
#1651=CARTESIAN_POINT('',(1.84,-0.91981069869973,0.0157377933951455));
#1652=CARTESIAN_POINT('',(1.84,-0.91981069869973,3.99735610487544));
#1653=CARTESIAN_POINT('',(1.84,-0.91981069869973,0.0157377933951455));
#1654=CARTESIAN_POINT('',(2.3775,-0.919810698699732,-9.20426220660485));
#1655=CARTESIAN_POINT('',(2.1775,-0.919810698699732,-9.00426220660485));
#1656=CARTESIAN_POINT('',(2.7225,-0.919810698699732,-9.20426220660485));
#1657=CARTESIAN_POINT('',(2.1775,-0.919810698699732,-9.20426220660485));
#1658=CARTESIAN_POINT('',(2.7225,-0.919810698699732,-9.20426220660485));
#1659=CARTESIAN_POINT('',(3.26,-0.91981069869973,0.0157377933951455));
#1660=CARTESIAN_POINT('',(1.84,-0.91981069869973,0.0157377933951455));
#1661=CARTESIAN_POINT('',(3.26,-0.91981069869973,3.99735610487544));
#1662=CARTESIAN_POINT('Origin',(2.1775,-0.329810698699733,-9.20426220660485));
#1663=CARTESIAN_POINT('',(2.3775,-0.329810698699733,-9.20426220660485));
#1664=CARTESIAN_POINT('',(2.7225,-0.329810698699733,-9.20426220660485));
#1665=CARTESIAN_POINT('',(2.1775,-0.329810698699733,-9.20426220660485));
#1666=CARTESIAN_POINT('',(2.7225,-0.329810698699733,-9.20426220660485));
#1667=CARTESIAN_POINT('',(2.3775,-0.329810698699733,-9.20426220660485));
#1668=CARTESIAN_POINT('Origin',(2.1775,-0.329810698699731,3.94573779339515));
#1669=CARTESIAN_POINT('',(3.26,-0.329810698699731,0.0157377933951431));
#1670=CARTESIAN_POINT('',(3.26,-0.329810698699731,0.0157377933951431));
#1671=CARTESIAN_POINT('',(1.84,-0.329810698699731,0.0157377933951431));
#1672=CARTESIAN_POINT('',(2.7225,-0.329810698699733,-9.20426220660485));
#1673=CARTESIAN_POINT('',(2.1775,-0.329810698699733,-9.00426220660485));
#1674=CARTESIAN_POINT('',(1.84,-0.329810698699731,0.0157377933951431));
#1675=CARTESIAN_POINT('',(1.84,-0.329810698699731,0.0157377933951431));
#1676=CARTESIAN_POINT('',(1.84,-0.329810698699731,0.0157377933951431));
#1677=CARTESIAN_POINT('Origin',(2.1775,-0.0198106986997337,-9.00426220660485));
#1678=CARTESIAN_POINT('Origin',(2.7225,-0.329810698699733,-9.20426220660485));
#1679=CARTESIAN_POINT('Origin',(3.26,-0.0198106986997315,0.0157377933951452));
#1680=CARTESIAN_POINT('',(3.26,-0.329810698699731,0.0157377933951431));
#1681=CARTESIAN_POINT('Origin',(1.84,-0.329810698699731,0.0157377933951431));
#1682=CARTESIAN_POINT('Origin',(1.84,-0.329810698699731,0.0157377933951431));
#1683=CARTESIAN_POINT('',(1.84,-0.329810698699731,0.0157377933951431));
#1684=CARTESIAN_POINT('Origin',(1.84,-0.0198106986997315,0.0157377933951452));
#1685=UNCERTAINTY_MEASURE_WITH_UNIT(LENGTH_MEASURE(0.01),#1689,
'DISTANCE_ACCURACY_VALUE',
'Maximum model space distance between geometric entities at asserted c
onnectivities');
#1686=UNCERTAINTY_MEASURE_WITH_UNIT(LENGTH_MEASURE(0.01),#1689,
'DISTANCE_ACCURACY_VALUE',
'Maximum model space distance between geometric entities at asserted c
onnectivities');
#1687=(
GEOMETRIC_REPRESENTATION_CONTEXT(3)
GLOBAL_UNCERTAINTY_ASSIGNED_CONTEXT((#1685))
GLOBAL_UNIT_ASSIGNED_CONTEXT((#1689,#1691,#1692))
REPRESENTATION_CONTEXT('','3D')
);
#1688=(
GEOMETRIC_REPRESENTATION_CONTEXT(3)
GLOBAL_UNCERTAINTY_ASSIGNED_CONTEXT((#1686))
GLOBAL_UNIT_ASSIGNED_CONTEXT((#1689,#1691,#1692))
REPRESENTATION_CONTEXT('','3D')
);
#1689=(
LENGTH_UNIT()
NAMED_UNIT(*)
SI_UNIT(.MILLI.,.METRE.)
);
#1690=(
LENGTH_UNIT()
NAMED_UNIT(*)
SI_UNIT($,.METRE.)
);
#1691=(
NAMED_UNIT(*)
PLANE_ANGLE_UNIT()
SI_UNIT($,.RADIAN.)
);
#1692=(
NAMED_UNIT(*)
SI_UNIT($,.STERADIAN.)
SOLID_ANGLE_UNIT()
);
#1693=SHAPE_DEFINITION_REPRESENTATION(#1694,#1695);
#1694=PRODUCT_DEFINITION_SHAPE('',$,#1697);
#1695=SHAPE_REPRESENTATION('',(#1061),#1687);
#1696=PRODUCT_DEFINITION_CONTEXT('part definition',#1701,'design');
#1697=PRODUCT_DEFINITION('LD1117V33','L7812CV v2',#1698,#1696);
#1698=PRODUCT_DEFINITION_FORMATION('',$,#1703);
#1699=PRODUCT_RELATED_PRODUCT_CATEGORY('L7812CV v2','L7812CV v2',(#1703));
#1700=APPLICATION_PROTOCOL_DEFINITION('international standard',
'automotive_design',2009,#1701);
#1701=APPLICATION_CONTEXT(
'Core Data for Automotive Mechanical Design Process');
#1702=PRODUCT_CONTEXT('part definition',#1701,'mechanical');
#1703=PRODUCT('LD1117V33','L7812CV v2','STEP AP214',(#1702));
#1704=PRESENTATION_STYLE_ASSIGNMENT((#1707));
#1705=PRESENTATION_STYLE_ASSIGNMENT((#1708));
#1706=PRESENTATION_STYLE_ASSIGNMENT((#1709));
#1707=SURFACE_STYLE_USAGE(.BOTH.,#1710);
#1708=SURFACE_STYLE_USAGE(.BOTH.,#1711);
#1709=SURFACE_STYLE_USAGE(.BOTH.,#1712);
#1710=SURFACE_SIDE_STYLE('',(#1713));
#1711=SURFACE_SIDE_STYLE('',(#1714));
#1712=SURFACE_SIDE_STYLE('',(#1715));
#1713=SURFACE_STYLE_FILL_AREA(#1716);
#1714=SURFACE_STYLE_FILL_AREA(#1717);
#1715=SURFACE_STYLE_FILL_AREA(#1718);
#1716=FILL_AREA_STYLE('Steel - Satin',(#1719));
#1717=FILL_AREA_STYLE('Opaque(203,210,239)',(#1720));
#1718=FILL_AREA_STYLE('Opaque(64,64,64)',(#1721));
#1719=FILL_AREA_STYLE_COLOUR('Steel - Satin',#1722);
#1720=FILL_AREA_STYLE_COLOUR('Opaque(203,210,239)',#1723);
#1721=FILL_AREA_STYLE_COLOUR('Opaque(64,64,64)',#1724);
#1722=COLOUR_RGB('Steel - Satin',0.627450980392157,0.627450980392157,0.627450980392157);
#1723=COLOUR_RGB('Opaque(203,210,239)',0.796078431372549,0.823529411764706,
0.937254901960784);
#1724=COLOUR_RGB('Opaque(64,64,64)',0.250980392156863,0.250980392156863,
0.250980392156863);
ENDSEC;
END-ISO-10303-21;
