ISO-10303-21;
HEADER;
/* Generated by software containing ST-Developer
 * from STEP Tools, Inc. (www.steptools.com) 
 */

FILE_DESCRIPTION(
/* description */ ('STEP AP214'),
/* implementation_level */ '2;1');

FILE_NAME(
/* name */ 'cba26998-5b55-4b41-9619-baf43ef7eddd.stp',
/* time_stamp */ '2026-06-09T12:26:05Z',
/* author */ (''),
/* organization */ (''),
/* preprocessor_version */ 'ST-DEVELOPER v20.1',
/* originating_system */ 'Autodesk Translation Framework v15.8.0.0',
/* authorisation */ '');

FILE_SCHEMA (('AUTOMOTIVE_DESIGN { 1 0 10303 214 3 1 1 }'));
ENDSEC;

DATA;
#10=MECHANICAL_DESIGN_GEOMETRIC_PRESENTATION_REPRESENTATION('',(#673,#674,
#675,#676,#677,#678,#679,#680,#681,#682,#683,#684,#685,#686,#687,#688,#689,
#690,#691,#692,#693,#694,#695,#696,#697,#698,#699,#700,#701,#702,#703,#704,
#705,#706,#707,#708,#709,#710,#711,#712,#713,#714,#715,#716,#717,#718),
#1200);
#11=SHAPE_REPRESENTATION_RELATIONSHIP('SRR','None',#1207,#12);
#12=ADVANCED_BREP_SHAPE_REPRESENTATION('',(#13,#14,#15,#16),#1199);
#13=MANIFOLD_SOLID_BREP('Body1',#761);
#14=MANIFOLD_SOLID_BREP('Body2',#762);
#15=MANIFOLD_SOLID_BREP('Body3',#763);
#16=MANIFOLD_SOLID_BREP('Body4',#764);
#17=FACE_OUTER_BOUND('',#59,.T.);
#18=FACE_OUTER_BOUND('',#60,.T.);
#19=FACE_OUTER_BOUND('',#61,.T.);
#20=FACE_OUTER_BOUND('',#62,.T.);
#21=FACE_OUTER_BOUND('',#63,.T.);
#22=FACE_OUTER_BOUND('',#64,.T.);
#23=FACE_OUTER_BOUND('',#65,.T.);
#24=FACE_OUTER_BOUND('',#66,.T.);
#25=FACE_OUTER_BOUND('',#67,.T.);
#26=FACE_OUTER_BOUND('',#68,.T.);
#27=FACE_OUTER_BOUND('',#69,.T.);
#28=FACE_OUTER_BOUND('',#70,.T.);
#29=FACE_OUTER_BOUND('',#71,.T.);
#30=FACE_OUTER_BOUND('',#72,.T.);
#31=FACE_OUTER_BOUND('',#73,.T.);
#32=FACE_OUTER_BOUND('',#74,.T.);
#33=FACE_OUTER_BOUND('',#75,.T.);
#34=FACE_OUTER_BOUND('',#76,.T.);
#35=FACE_OUTER_BOUND('',#77,.T.);
#36=FACE_OUTER_BOUND('',#78,.T.);
#37=FACE_OUTER_BOUND('',#79,.T.);
#38=FACE_OUTER_BOUND('',#80,.T.);
#39=FACE_OUTER_BOUND('',#81,.T.);
#40=FACE_OUTER_BOUND('',#82,.T.);
#41=FACE_OUTER_BOUND('',#83,.T.);
#42=FACE_OUTER_BOUND('',#84,.T.);
#43=FACE_OUTER_BOUND('',#85,.T.);
#44=FACE_OUTER_BOUND('',#86,.T.);
#45=FACE_OUTER_BOUND('',#87,.T.);
#46=FACE_OUTER_BOUND('',#88,.T.);
#47=FACE_OUTER_BOUND('',#89,.T.);
#48=FACE_OUTER_BOUND('',#90,.T.);
#49=FACE_OUTER_BOUND('',#91,.T.);
#50=FACE_OUTER_BOUND('',#92,.T.);
#51=FACE_OUTER_BOUND('',#93,.T.);
#52=FACE_OUTER_BOUND('',#94,.T.);
#53=FACE_OUTER_BOUND('',#95,.T.);
#54=FACE_OUTER_BOUND('',#96,.T.);
#55=FACE_OUTER_BOUND('',#97,.T.);
#56=FACE_OUTER_BOUND('',#98,.T.);
#57=FACE_OUTER_BOUND('',#99,.T.);
#58=FACE_OUTER_BOUND('',#100,.T.);
#59=EDGE_LOOP('',(#443,#444,#445,#446));
#60=EDGE_LOOP('',(#447,#448,#449,#450));
#61=EDGE_LOOP('',(#451,#452,#453,#454));
#62=EDGE_LOOP('',(#455,#456,#457,#458));
#63=EDGE_LOOP('',(#459,#460,#461,#462));
#64=EDGE_LOOP('',(#463,#464,#465,#466));
#65=EDGE_LOOP('',(#467,#468,#469,#470));
#66=EDGE_LOOP('',(#471,#472,#473,#474));
#67=EDGE_LOOP('',(#475,#476,#477,#478));
#68=EDGE_LOOP('',(#479,#480,#481,#482));
#69=EDGE_LOOP('',(#483,#484,#485,#486));
#70=EDGE_LOOP('',(#487,#488,#489,#490));
#71=EDGE_LOOP('',(#491,#492,#493,#494,#495,#496));
#72=EDGE_LOOP('',(#497,#498,#499,#500));
#73=EDGE_LOOP('',(#501,#502,#503,#504,#505,#506));
#74=EDGE_LOOP('',(#507,#508,#509,#510));
#75=EDGE_LOOP('',(#511,#512,#513,#514));
#76=EDGE_LOOP('',(#515,#516,#517,#518));
#77=EDGE_LOOP('',(#519,#520,#521,#522));
#78=EDGE_LOOP('',(#523,#524,#525,#526));
#79=EDGE_LOOP('',(#527,#528,#529,#530));
#80=EDGE_LOOP('',(#531,#532,#533,#534));
#81=EDGE_LOOP('',(#535,#536,#537,#538));
#82=EDGE_LOOP('',(#539,#540,#541,#542));
#83=EDGE_LOOP('',(#543,#544,#545,#546));
#84=EDGE_LOOP('',(#547,#548,#549,#550));
#85=EDGE_LOOP('',(#551,#552,#553,#554));
#86=EDGE_LOOP('',(#555,#556,#557,#558));
#87=EDGE_LOOP('',(#559,#560,#561,#562));
#88=EDGE_LOOP('',(#563,#564,#565,#566));
#89=EDGE_LOOP('',(#567,#568,#569,#570,#571,#572,#573,#574));
#90=EDGE_LOOP('',(#575,#576,#577,#578,#579,#580,#581,#582));
#91=EDGE_LOOP('',(#583,#584,#585,#586));
#92=EDGE_LOOP('',(#587,#588,#589,#590));
#93=EDGE_LOOP('',(#591,#592,#593,#594));
#94=EDGE_LOOP('',(#595,#596,#597,#598));
#95=EDGE_LOOP('',(#599,#600,#601,#602));
#96=EDGE_LOOP('',(#603,#604,#605,#606));
#97=EDGE_LOOP('',(#607,#608,#609,#610));
#98=EDGE_LOOP('',(#611,#612,#613,#614));
#99=EDGE_LOOP('',(#615,#616,#617,#618,#619,#620,#621,#622));
#100=EDGE_LOOP('',(#623,#624,#625,#626,#627,#628,#629,#630));
#101=LINE('',#1004,#195);
#102=LINE('',#1006,#196);
#103=LINE('',#1008,#197);
#104=LINE('',#1009,#198);
#105=LINE('',#1012,#199);
#106=LINE('',#1014,#200);
#107=LINE('',#1015,#201);
#108=LINE('',#1018,#202);
#109=LINE('',#1020,#203);
#110=LINE('',#1021,#204);
#111=LINE('',#1023,#205);
#112=LINE('',#1024,#206);
#113=LINE('',#1030,#207);
#114=LINE('',#1032,#208);
#115=LINE('',#1034,#209);
#116=LINE('',#1035,#210);
#117=LINE('',#1039,#211);
#118=LINE('',#1040,#212);
#119=LINE('',#1041,#213);
#120=LINE('',#1044,#214);
#121=LINE('',#1045,#215);
#122=LINE('',#1048,#216);
#123=LINE('',#1049,#217);
#124=LINE('',#1051,#218);
#125=LINE('',#1055,#219);
#126=LINE('',#1056,#220);
#127=LINE('',#1057,#221);
#128=LINE('',#1060,#222);
#129=LINE('',#1062,#223);
#130=LINE('',#1064,#224);
#131=LINE('',#1065,#225);
#132=LINE('',#1068,#226);
#133=LINE('',#1069,#227);
#134=LINE('',#1072,#228);
#135=LINE('',#1074,#229);
#136=LINE('',#1075,#230);
#137=LINE('',#1079,#231);
#138=LINE('',#1080,#232);
#139=LINE('',#1081,#233);
#140=LINE('',#1082,#234);
#141=LINE('',#1086,#235);
#142=LINE('',#1087,#236);
#143=LINE('',#1088,#237);
#144=LINE('',#1089,#238);
#145=LINE('',#1091,#239);
#146=LINE('',#1092,#240);
#147=LINE('',#1100,#241);
#148=LINE('',#1102,#242);
#149=LINE('',#1104,#243);
#150=LINE('',#1105,#244);
#151=LINE('',#1109,#245);
#152=LINE('',#1111,#246);
#153=LINE('',#1113,#247);
#154=LINE('',#1114,#248);
#155=LINE('',#1118,#249);
#156=LINE('',#1119,#250);
#157=LINE('',#1120,#251);
#158=LINE('',#1124,#252);
#159=LINE('',#1125,#253);
#160=LINE('',#1126,#254);
#161=LINE('',#1130,#255);
#162=LINE('',#1131,#256);
#163=LINE('',#1132,#257);
#164=LINE('',#1135,#258);
#165=LINE('',#1137,#259);
#166=LINE('',#1138,#260);
#167=LINE('',#1140,#261);
#168=LINE('',#1141,#262);
#169=LINE('',#1143,#263);
#170=LINE('',#1144,#264);
#171=LINE('',#1150,#265);
#172=LINE('',#1152,#266);
#173=LINE('',#1154,#267);
#174=LINE('',#1155,#268);
#175=LINE('',#1159,#269);
#176=LINE('',#1161,#270);
#177=LINE('',#1163,#271);
#178=LINE('',#1164,#272);
#179=LINE('',#1168,#273);
#180=LINE('',#1169,#274);
#181=LINE('',#1170,#275);
#182=LINE('',#1174,#276);
#183=LINE('',#1175,#277);
#184=LINE('',#1176,#278);
#185=LINE('',#1180,#279);
#186=LINE('',#1181,#280);
#187=LINE('',#1182,#281);
#188=LINE('',#1185,#282);
#189=LINE('',#1187,#283);
#190=LINE('',#1188,#284);
#191=LINE('',#1190,#285);
#192=LINE('',#1191,#286);
#193=LINE('',#1193,#287);
#194=LINE('',#1194,#288);
#195=VECTOR('',#824,0.8509);
#196=VECTOR('',#825,0.0508);
#197=VECTOR('',#826,0.8509);
#198=VECTOR('',#827,0.0508);
#199=VECTOR('',#830,3.63982);
#200=VECTOR('',#831,0.0508);
#201=VECTOR('',#832,3.63982);
#202=VECTOR('',#835,0.8509);
#203=VECTOR('',#836,0.0508);
#204=VECTOR('',#837,0.8509);
#205=VECTOR('',#840,3.63982);
#206=VECTOR('',#841,3.63982);
#207=VECTOR('',#848,4.2545);
#208=VECTOR('',#849,3.81);
#209=VECTOR('',#850,4.2545);
#210=VECTOR('',#851,3.81);
#211=VECTOR('',#854,3.81);
#212=VECTOR('',#855,1.3462);
#213=VECTOR('',#856,1.3462);
#214=VECTOR('',#859,4.2545);
#215=VECTOR('',#860,1.3462);
#216=VECTOR('',#863,3.81);
#217=VECTOR('',#864,1.3462);
#218=VECTOR('',#867,4.2545);
#219=VECTOR('',#870,3.5315093162795);
#220=VECTOR('',#871,10.);
#221=VECTOR('',#872,10.);
#222=VECTOR('',#875,1.87370465813975);
#223=VECTOR('',#876,0.2286);
#224=VECTOR('',#877,1.87370465813975);
#225=VECTOR('',#878,10.);
#226=VECTOR('',#881,3.5315093162795);
#227=VECTOR('',#882,10.);
#228=VECTOR('',#885,1.87370465813975);
#229=VECTOR('',#886,0.2286);
#230=VECTOR('',#887,1.87370465813975);
#231=VECTOR('',#890,3.5315093162795);
#232=VECTOR('',#891,0.1778);
#233=VECTOR('',#892,3.5315093162795);
#234=VECTOR('',#893,0.1778);
#235=VECTOR('',#896,3.5315093162795);
#236=VECTOR('',#897,0.1778);
#237=VECTOR('',#898,3.5315093162795);
#238=VECTOR('',#899,0.1778);
#239=VECTOR('',#902,0.2286);
#240=VECTOR('',#903,0.2286);
#241=VECTOR('',#914,0.15875);
#242=VECTOR('',#915,2.7432);
#243=VECTOR('',#916,0.15875);
#244=VECTOR('',#917,2.7432);
#245=VECTOR('',#920,2.032);
#246=VECTOR('',#921,2.7432);
#247=VECTOR('',#922,2.032);
#248=VECTOR('',#923,2.7432);
#249=VECTOR('',#926,2.7432);
#250=VECTOR('',#927,1.2065);
#251=VECTOR('',#928,1.2065);
#252=VECTOR('',#931,2.7432);
#253=VECTOR('',#932,0.127);
#254=VECTOR('',#933,0.127);
#255=VECTOR('',#936,2.7432);
#256=VECTOR('',#937,0.127);
#257=VECTOR('',#938,0.127);
#258=VECTOR('',#941,0.9525);
#259=VECTOR('',#942,2.7432);
#260=VECTOR('',#943,0.9525);
#261=VECTOR('',#946,0.03175);
#262=VECTOR('',#947,0.03175);
#263=VECTOR('',#950,2.159);
#264=VECTOR('',#951,2.159);
#265=VECTOR('',#958,0.15875);
#266=VECTOR('',#959,2.7432);
#267=VECTOR('',#960,0.15875);
#268=VECTOR('',#961,2.7432);
#269=VECTOR('',#964,2.032);
#270=VECTOR('',#965,2.7432);
#271=VECTOR('',#966,2.032);
#272=VECTOR('',#967,2.7432);
#273=VECTOR('',#970,2.7432);
#274=VECTOR('',#971,1.2065);
#275=VECTOR('',#972,1.2065);
#276=VECTOR('',#975,2.7432);
#277=VECTOR('',#976,0.127);
#278=VECTOR('',#977,0.127);
#279=VECTOR('',#980,2.7432);
#280=VECTOR('',#981,0.127);
#281=VECTOR('',#982,0.127);
#282=VECTOR('',#985,0.9525);
#283=VECTOR('',#986,2.7432);
#284=VECTOR('',#987,0.9525);
#285=VECTOR('',#990,0.03175);
#286=VECTOR('',#991,0.03175);
#287=VECTOR('',#994,2.159);
#288=VECTOR('',#995,2.159);
#289=VERTEX_POINT('',#1002);
#290=VERTEX_POINT('',#1003);
#291=VERTEX_POINT('',#1005);
#292=VERTEX_POINT('',#1007);
#293=VERTEX_POINT('',#1011);
#294=VERTEX_POINT('',#1013);
#295=VERTEX_POINT('',#1017);
#296=VERTEX_POINT('',#1019);
#297=VERTEX_POINT('',#1028);
#298=VERTEX_POINT('',#1029);
#299=VERTEX_POINT('',#1031);
#300=VERTEX_POINT('',#1033);
#301=VERTEX_POINT('',#1037);
#302=VERTEX_POINT('',#1038);
#303=VERTEX_POINT('',#1043);
#304=VERTEX_POINT('',#1047);
#305=VERTEX_POINT('',#1053);
#306=VERTEX_POINT('',#1054);
#307=VERTEX_POINT('',#1059);
#308=VERTEX_POINT('',#1061);
#309=VERTEX_POINT('',#1063);
#310=VERTEX_POINT('',#1067);
#311=VERTEX_POINT('',#1071);
#312=VERTEX_POINT('',#1073);
#313=VERTEX_POINT('',#1077);
#314=VERTEX_POINT('',#1078);
#315=VERTEX_POINT('',#1084);
#316=VERTEX_POINT('',#1085);
#317=VERTEX_POINT('',#1098);
#318=VERTEX_POINT('',#1099);
#319=VERTEX_POINT('',#1101);
#320=VERTEX_POINT('',#1103);
#321=VERTEX_POINT('',#1107);
#322=VERTEX_POINT('',#1108);
#323=VERTEX_POINT('',#1110);
#324=VERTEX_POINT('',#1112);
#325=VERTEX_POINT('',#1116);
#326=VERTEX_POINT('',#1117);
#327=VERTEX_POINT('',#1122);
#328=VERTEX_POINT('',#1123);
#329=VERTEX_POINT('',#1128);
#330=VERTEX_POINT('',#1129);
#331=VERTEX_POINT('',#1134);
#332=VERTEX_POINT('',#1136);
#333=VERTEX_POINT('',#1148);
#334=VERTEX_POINT('',#1149);
#335=VERTEX_POINT('',#1151);
#336=VERTEX_POINT('',#1153);
#337=VERTEX_POINT('',#1157);
#338=VERTEX_POINT('',#1158);
#339=VERTEX_POINT('',#1160);
#340=VERTEX_POINT('',#1162);
#341=VERTEX_POINT('',#1166);
#342=VERTEX_POINT('',#1167);
#343=VERTEX_POINT('',#1172);
#344=VERTEX_POINT('',#1173);
#345=VERTEX_POINT('',#1178);
#346=VERTEX_POINT('',#1179);
#347=VERTEX_POINT('',#1184);
#348=VERTEX_POINT('',#1186);
#349=EDGE_CURVE('',#289,#290,#101,.T.);
#350=EDGE_CURVE('',#291,#289,#102,.T.);
#351=EDGE_CURVE('',#292,#291,#103,.T.);
#352=EDGE_CURVE('',#290,#292,#104,.T.);
#353=EDGE_CURVE('',#293,#289,#105,.T.);
#354=EDGE_CURVE('',#294,#293,#106,.T.);
#355=EDGE_CURVE('',#291,#294,#107,.T.);
#356=EDGE_CURVE('',#295,#293,#108,.T.);
#357=EDGE_CURVE('',#296,#295,#109,.T.);
#358=EDGE_CURVE('',#294,#296,#110,.T.);
#359=EDGE_CURVE('',#290,#295,#111,.T.);
#360=EDGE_CURVE('',#296,#292,#112,.T.);
#361=EDGE_CURVE('',#297,#298,#113,.T.);
#362=EDGE_CURVE('',#299,#297,#114,.T.);
#363=EDGE_CURVE('',#300,#299,#115,.T.);
#364=EDGE_CURVE('',#298,#300,#116,.T.);
#365=EDGE_CURVE('',#301,#302,#117,.T.);
#366=EDGE_CURVE('',#299,#301,#118,.T.);
#367=EDGE_CURVE('',#302,#297,#119,.T.);
#368=EDGE_CURVE('',#303,#301,#120,.T.);
#369=EDGE_CURVE('',#300,#303,#121,.T.);
#370=EDGE_CURVE('',#304,#303,#122,.T.);
#371=EDGE_CURVE('',#298,#304,#123,.T.);
#372=EDGE_CURVE('',#302,#304,#124,.T.);
#373=EDGE_CURVE('',#305,#306,#125,.T.);
#374=EDGE_CURVE('',#301,#305,#126,.T.);
#375=EDGE_CURVE('',#306,#302,#127,.T.);
#376=EDGE_CURVE('',#307,#305,#128,.T.);
#377=EDGE_CURVE('',#308,#307,#129,.T.);
#378=EDGE_CURVE('',#309,#308,#130,.T.);
#379=EDGE_CURVE('',#303,#309,#131,.T.);
#380=EDGE_CURVE('',#310,#309,#132,.T.);
#381=EDGE_CURVE('',#304,#310,#133,.T.);
#382=EDGE_CURVE('',#311,#310,#134,.T.);
#383=EDGE_CURVE('',#312,#311,#135,.T.);
#384=EDGE_CURVE('',#306,#312,#136,.T.);
#385=EDGE_CURVE('',#313,#314,#137,.T.);
#386=EDGE_CURVE('',#307,#313,#138,.T.);
#387=EDGE_CURVE('',#312,#307,#139,.T.);
#388=EDGE_CURVE('',#314,#312,#140,.T.);
#389=EDGE_CURVE('',#315,#316,#141,.T.);
#390=EDGE_CURVE('',#311,#315,#142,.T.);
#391=EDGE_CURVE('',#308,#311,#143,.T.);
#392=EDGE_CURVE('',#316,#308,#144,.T.);
#393=EDGE_CURVE('',#313,#316,#145,.T.);
#394=EDGE_CURVE('',#315,#314,#146,.T.);
#395=EDGE_CURVE('',#317,#318,#147,.T.);
#396=EDGE_CURVE('',#319,#317,#148,.T.);
#397=EDGE_CURVE('',#320,#319,#149,.T.);
#398=EDGE_CURVE('',#318,#320,#150,.T.);
#399=EDGE_CURVE('',#321,#322,#151,.T.);
#400=EDGE_CURVE('',#323,#321,#152,.T.);
#401=EDGE_CURVE('',#324,#323,#153,.T.);
#402=EDGE_CURVE('',#322,#324,#154,.T.);
#403=EDGE_CURVE('',#325,#326,#155,.T.);
#404=EDGE_CURVE('',#318,#325,#156,.T.);
#405=EDGE_CURVE('',#326,#320,#157,.T.);
#406=EDGE_CURVE('',#327,#328,#158,.T.);
#407=EDGE_CURVE('',#319,#327,#159,.T.);
#408=EDGE_CURVE('',#328,#317,#160,.T.);
#409=EDGE_CURVE('',#329,#330,#161,.T.);
#410=EDGE_CURVE('',#323,#329,#162,.T.);
#411=EDGE_CURVE('',#330,#321,#163,.T.);
#412=EDGE_CURVE('',#331,#324,#164,.T.);
#413=EDGE_CURVE('',#332,#331,#165,.T.);
#414=EDGE_CURVE('',#322,#332,#166,.T.);
#415=EDGE_CURVE('',#327,#331,#167,.T.);
#416=EDGE_CURVE('',#332,#328,#168,.T.);
#417=EDGE_CURVE('',#329,#326,#169,.T.);
#418=EDGE_CURVE('',#325,#330,#170,.T.);
#419=EDGE_CURVE('',#333,#334,#171,.T.);
#420=EDGE_CURVE('',#335,#333,#172,.T.);
#421=EDGE_CURVE('',#336,#335,#173,.T.);
#422=EDGE_CURVE('',#334,#336,#174,.T.);
#423=EDGE_CURVE('',#337,#338,#175,.T.);
#424=EDGE_CURVE('',#339,#337,#176,.T.);
#425=EDGE_CURVE('',#340,#339,#177,.T.);
#426=EDGE_CURVE('',#338,#340,#178,.T.);
#427=EDGE_CURVE('',#341,#342,#179,.T.);
#428=EDGE_CURVE('',#334,#341,#180,.T.);
#429=EDGE_CURVE('',#342,#336,#181,.T.);
#430=EDGE_CURVE('',#343,#344,#182,.T.);
#431=EDGE_CURVE('',#335,#343,#183,.T.);
#432=EDGE_CURVE('',#344,#333,#184,.T.);
#433=EDGE_CURVE('',#345,#346,#185,.T.);
#434=EDGE_CURVE('',#339,#345,#186,.T.);
#435=EDGE_CURVE('',#346,#337,#187,.T.);
#436=EDGE_CURVE('',#347,#340,#188,.T.);
#437=EDGE_CURVE('',#348,#347,#189,.T.);
#438=EDGE_CURVE('',#338,#348,#190,.T.);
#439=EDGE_CURVE('',#343,#347,#191,.T.);
#440=EDGE_CURVE('',#348,#344,#192,.T.);
#441=EDGE_CURVE('',#345,#342,#193,.T.);
#442=EDGE_CURVE('',#341,#346,#194,.T.);
#443=ORIENTED_EDGE('',*,*,#349,.F.);
#444=ORIENTED_EDGE('',*,*,#350,.F.);
#445=ORIENTED_EDGE('',*,*,#351,.F.);
#446=ORIENTED_EDGE('',*,*,#352,.F.);
#447=ORIENTED_EDGE('',*,*,#353,.F.);
#448=ORIENTED_EDGE('',*,*,#354,.F.);
#449=ORIENTED_EDGE('',*,*,#355,.F.);
#450=ORIENTED_EDGE('',*,*,#350,.T.);
#451=ORIENTED_EDGE('',*,*,#356,.F.);
#452=ORIENTED_EDGE('',*,*,#357,.F.);
#453=ORIENTED_EDGE('',*,*,#358,.F.);
#454=ORIENTED_EDGE('',*,*,#354,.T.);
#455=ORIENTED_EDGE('',*,*,#359,.F.);
#456=ORIENTED_EDGE('',*,*,#352,.T.);
#457=ORIENTED_EDGE('',*,*,#360,.F.);
#458=ORIENTED_EDGE('',*,*,#357,.T.);
#459=ORIENTED_EDGE('',*,*,#356,.T.);
#460=ORIENTED_EDGE('',*,*,#353,.T.);
#461=ORIENTED_EDGE('',*,*,#349,.T.);
#462=ORIENTED_EDGE('',*,*,#359,.T.);
#463=ORIENTED_EDGE('',*,*,#351,.T.);
#464=ORIENTED_EDGE('',*,*,#355,.T.);
#465=ORIENTED_EDGE('',*,*,#358,.T.);
#466=ORIENTED_EDGE('',*,*,#360,.T.);
#467=ORIENTED_EDGE('',*,*,#361,.F.);
#468=ORIENTED_EDGE('',*,*,#362,.F.);
#469=ORIENTED_EDGE('',*,*,#363,.F.);
#470=ORIENTED_EDGE('',*,*,#364,.F.);
#471=ORIENTED_EDGE('',*,*,#365,.F.);
#472=ORIENTED_EDGE('',*,*,#366,.F.);
#473=ORIENTED_EDGE('',*,*,#362,.T.);
#474=ORIENTED_EDGE('',*,*,#367,.F.);
#475=ORIENTED_EDGE('',*,*,#368,.F.);
#476=ORIENTED_EDGE('',*,*,#369,.F.);
#477=ORIENTED_EDGE('',*,*,#363,.T.);
#478=ORIENTED_EDGE('',*,*,#366,.T.);
#479=ORIENTED_EDGE('',*,*,#370,.F.);
#480=ORIENTED_EDGE('',*,*,#371,.F.);
#481=ORIENTED_EDGE('',*,*,#364,.T.);
#482=ORIENTED_EDGE('',*,*,#369,.T.);
#483=ORIENTED_EDGE('',*,*,#372,.F.);
#484=ORIENTED_EDGE('',*,*,#367,.T.);
#485=ORIENTED_EDGE('',*,*,#361,.T.);
#486=ORIENTED_EDGE('',*,*,#371,.T.);
#487=ORIENTED_EDGE('',*,*,#373,.F.);
#488=ORIENTED_EDGE('',*,*,#374,.F.);
#489=ORIENTED_EDGE('',*,*,#365,.T.);
#490=ORIENTED_EDGE('',*,*,#375,.F.);
#491=ORIENTED_EDGE('',*,*,#376,.F.);
#492=ORIENTED_EDGE('',*,*,#377,.F.);
#493=ORIENTED_EDGE('',*,*,#378,.F.);
#494=ORIENTED_EDGE('',*,*,#379,.F.);
#495=ORIENTED_EDGE('',*,*,#368,.T.);
#496=ORIENTED_EDGE('',*,*,#374,.T.);
#497=ORIENTED_EDGE('',*,*,#380,.F.);
#498=ORIENTED_EDGE('',*,*,#381,.F.);
#499=ORIENTED_EDGE('',*,*,#370,.T.);
#500=ORIENTED_EDGE('',*,*,#379,.T.);
#501=ORIENTED_EDGE('',*,*,#382,.F.);
#502=ORIENTED_EDGE('',*,*,#383,.F.);
#503=ORIENTED_EDGE('',*,*,#384,.F.);
#504=ORIENTED_EDGE('',*,*,#375,.T.);
#505=ORIENTED_EDGE('',*,*,#372,.T.);
#506=ORIENTED_EDGE('',*,*,#381,.T.);
#507=ORIENTED_EDGE('',*,*,#385,.F.);
#508=ORIENTED_EDGE('',*,*,#386,.F.);
#509=ORIENTED_EDGE('',*,*,#387,.F.);
#510=ORIENTED_EDGE('',*,*,#388,.F.);
#511=ORIENTED_EDGE('',*,*,#389,.F.);
#512=ORIENTED_EDGE('',*,*,#390,.F.);
#513=ORIENTED_EDGE('',*,*,#391,.F.);
#514=ORIENTED_EDGE('',*,*,#392,.F.);
#515=ORIENTED_EDGE('',*,*,#393,.F.);
#516=ORIENTED_EDGE('',*,*,#385,.T.);
#517=ORIENTED_EDGE('',*,*,#394,.F.);
#518=ORIENTED_EDGE('',*,*,#389,.T.);
#519=ORIENTED_EDGE('',*,*,#378,.T.);
#520=ORIENTED_EDGE('',*,*,#391,.T.);
#521=ORIENTED_EDGE('',*,*,#382,.T.);
#522=ORIENTED_EDGE('',*,*,#380,.T.);
#523=ORIENTED_EDGE('',*,*,#376,.T.);
#524=ORIENTED_EDGE('',*,*,#373,.T.);
#525=ORIENTED_EDGE('',*,*,#384,.T.);
#526=ORIENTED_EDGE('',*,*,#387,.T.);
#527=ORIENTED_EDGE('',*,*,#394,.T.);
#528=ORIENTED_EDGE('',*,*,#388,.T.);
#529=ORIENTED_EDGE('',*,*,#383,.T.);
#530=ORIENTED_EDGE('',*,*,#390,.T.);
#531=ORIENTED_EDGE('',*,*,#393,.T.);
#532=ORIENTED_EDGE('',*,*,#392,.T.);
#533=ORIENTED_EDGE('',*,*,#377,.T.);
#534=ORIENTED_EDGE('',*,*,#386,.T.);
#535=ORIENTED_EDGE('',*,*,#395,.F.);
#536=ORIENTED_EDGE('',*,*,#396,.F.);
#537=ORIENTED_EDGE('',*,*,#397,.F.);
#538=ORIENTED_EDGE('',*,*,#398,.F.);
#539=ORIENTED_EDGE('',*,*,#399,.F.);
#540=ORIENTED_EDGE('',*,*,#400,.F.);
#541=ORIENTED_EDGE('',*,*,#401,.F.);
#542=ORIENTED_EDGE('',*,*,#402,.F.);
#543=ORIENTED_EDGE('',*,*,#403,.F.);
#544=ORIENTED_EDGE('',*,*,#404,.F.);
#545=ORIENTED_EDGE('',*,*,#398,.T.);
#546=ORIENTED_EDGE('',*,*,#405,.F.);
#547=ORIENTED_EDGE('',*,*,#406,.F.);
#548=ORIENTED_EDGE('',*,*,#407,.F.);
#549=ORIENTED_EDGE('',*,*,#396,.T.);
#550=ORIENTED_EDGE('',*,*,#408,.F.);
#551=ORIENTED_EDGE('',*,*,#409,.F.);
#552=ORIENTED_EDGE('',*,*,#410,.F.);
#553=ORIENTED_EDGE('',*,*,#400,.T.);
#554=ORIENTED_EDGE('',*,*,#411,.F.);
#555=ORIENTED_EDGE('',*,*,#402,.T.);
#556=ORIENTED_EDGE('',*,*,#412,.F.);
#557=ORIENTED_EDGE('',*,*,#413,.F.);
#558=ORIENTED_EDGE('',*,*,#414,.F.);
#559=ORIENTED_EDGE('',*,*,#415,.F.);
#560=ORIENTED_EDGE('',*,*,#406,.T.);
#561=ORIENTED_EDGE('',*,*,#416,.F.);
#562=ORIENTED_EDGE('',*,*,#413,.T.);
#563=ORIENTED_EDGE('',*,*,#417,.F.);
#564=ORIENTED_EDGE('',*,*,#409,.T.);
#565=ORIENTED_EDGE('',*,*,#418,.F.);
#566=ORIENTED_EDGE('',*,*,#403,.T.);
#567=ORIENTED_EDGE('',*,*,#418,.T.);
#568=ORIENTED_EDGE('',*,*,#411,.T.);
#569=ORIENTED_EDGE('',*,*,#399,.T.);
#570=ORIENTED_EDGE('',*,*,#414,.T.);
#571=ORIENTED_EDGE('',*,*,#416,.T.);
#572=ORIENTED_EDGE('',*,*,#408,.T.);
#573=ORIENTED_EDGE('',*,*,#395,.T.);
#574=ORIENTED_EDGE('',*,*,#404,.T.);
#575=ORIENTED_EDGE('',*,*,#417,.T.);
#576=ORIENTED_EDGE('',*,*,#405,.T.);
#577=ORIENTED_EDGE('',*,*,#397,.T.);
#578=ORIENTED_EDGE('',*,*,#407,.T.);
#579=ORIENTED_EDGE('',*,*,#415,.T.);
#580=ORIENTED_EDGE('',*,*,#412,.T.);
#581=ORIENTED_EDGE('',*,*,#401,.T.);
#582=ORIENTED_EDGE('',*,*,#410,.T.);
#583=ORIENTED_EDGE('',*,*,#419,.F.);
#584=ORIENTED_EDGE('',*,*,#420,.F.);
#585=ORIENTED_EDGE('',*,*,#421,.F.);
#586=ORIENTED_EDGE('',*,*,#422,.F.);
#587=ORIENTED_EDGE('',*,*,#423,.F.);
#588=ORIENTED_EDGE('',*,*,#424,.F.);
#589=ORIENTED_EDGE('',*,*,#425,.F.);
#590=ORIENTED_EDGE('',*,*,#426,.F.);
#591=ORIENTED_EDGE('',*,*,#427,.F.);
#592=ORIENTED_EDGE('',*,*,#428,.F.);
#593=ORIENTED_EDGE('',*,*,#422,.T.);
#594=ORIENTED_EDGE('',*,*,#429,.F.);
#595=ORIENTED_EDGE('',*,*,#430,.F.);
#596=ORIENTED_EDGE('',*,*,#431,.F.);
#597=ORIENTED_EDGE('',*,*,#420,.T.);
#598=ORIENTED_EDGE('',*,*,#432,.F.);
#599=ORIENTED_EDGE('',*,*,#433,.F.);
#600=ORIENTED_EDGE('',*,*,#434,.F.);
#601=ORIENTED_EDGE('',*,*,#424,.T.);
#602=ORIENTED_EDGE('',*,*,#435,.F.);
#603=ORIENTED_EDGE('',*,*,#426,.T.);
#604=ORIENTED_EDGE('',*,*,#436,.F.);
#605=ORIENTED_EDGE('',*,*,#437,.F.);
#606=ORIENTED_EDGE('',*,*,#438,.F.);
#607=ORIENTED_EDGE('',*,*,#439,.F.);
#608=ORIENTED_EDGE('',*,*,#430,.T.);
#609=ORIENTED_EDGE('',*,*,#440,.F.);
#610=ORIENTED_EDGE('',*,*,#437,.T.);
#611=ORIENTED_EDGE('',*,*,#441,.F.);
#612=ORIENTED_EDGE('',*,*,#433,.T.);
#613=ORIENTED_EDGE('',*,*,#442,.F.);
#614=ORIENTED_EDGE('',*,*,#427,.T.);
#615=ORIENTED_EDGE('',*,*,#442,.T.);
#616=ORIENTED_EDGE('',*,*,#435,.T.);
#617=ORIENTED_EDGE('',*,*,#423,.T.);
#618=ORIENTED_EDGE('',*,*,#438,.T.);
#619=ORIENTED_EDGE('',*,*,#440,.T.);
#620=ORIENTED_EDGE('',*,*,#432,.T.);
#621=ORIENTED_EDGE('',*,*,#419,.T.);
#622=ORIENTED_EDGE('',*,*,#428,.T.);
#623=ORIENTED_EDGE('',*,*,#441,.T.);
#624=ORIENTED_EDGE('',*,*,#429,.T.);
#625=ORIENTED_EDGE('',*,*,#421,.T.);
#626=ORIENTED_EDGE('',*,*,#431,.T.);
#627=ORIENTED_EDGE('',*,*,#439,.T.);
#628=ORIENTED_EDGE('',*,*,#436,.T.);
#629=ORIENTED_EDGE('',*,*,#425,.T.);
#630=ORIENTED_EDGE('',*,*,#434,.T.);
#631=PLANE('',#778);
#632=PLANE('',#779);
#633=PLANE('',#780);
#634=PLANE('',#781);
#635=PLANE('',#782);
#636=PLANE('',#783);
#637=PLANE('',#784);
#638=PLANE('',#785);
#639=PLANE('',#786);
#640=PLANE('',#787);
#641=PLANE('',#788);
#642=PLANE('',#789);
#643=PLANE('',#790);
#644=PLANE('',#791);
#645=PLANE('',#792);
#646=PLANE('',#793);
#647=PLANE('',#794);
#648=PLANE('',#795);
#649=PLANE('',#796);
#650=PLANE('',#797);
#651=PLANE('',#798);
#652=PLANE('',#799);
#653=PLANE('',#800);
#654=PLANE('',#801);
#655=PLANE('',#802);
#656=PLANE('',#803);
#657=PLANE('',#804);
#658=PLANE('',#805);
#659=PLANE('',#806);
#660=PLANE('',#807);
#661=PLANE('',#808);
#662=PLANE('',#809);
#663=PLANE('',#810);
#664=PLANE('',#811);
#665=PLANE('',#812);
#666=PLANE('',#813);
#667=PLANE('',#814);
#668=PLANE('',#815);
#669=PLANE('',#816);
#670=PLANE('',#817);
#671=PLANE('',#818);
#672=PLANE('',#819);
#673=STYLED_ITEM('',(#1217),#719);
#674=STYLED_ITEM('',(#1217),#720);
#675=STYLED_ITEM('',(#1217),#721);
#676=STYLED_ITEM('',(#1217),#722);
#677=STYLED_ITEM('',(#1217),#723);
#678=STYLED_ITEM('',(#1217),#724);
#679=STYLED_ITEM('',(#1216),#13);
#680=STYLED_ITEM('',(#1218),#725);
#681=STYLED_ITEM('',(#1218),#726);
#682=STYLED_ITEM('',(#1218),#727);
#683=STYLED_ITEM('',(#1218),#728);
#684=STYLED_ITEM('',(#1218),#729);
#685=STYLED_ITEM('',(#1218),#730);
#686=STYLED_ITEM('',(#1218),#731);
#687=STYLED_ITEM('',(#1218),#732);
#688=STYLED_ITEM('',(#1218),#733);
#689=STYLED_ITEM('',(#1218),#734);
#690=STYLED_ITEM('',(#1218),#735);
#691=STYLED_ITEM('',(#1218),#736);
#692=STYLED_ITEM('',(#1218),#737);
#693=STYLED_ITEM('',(#1218),#738);
#694=STYLED_ITEM('',(#1218),#739);
#695=STYLED_ITEM('',(#1218),#740);
#696=STYLED_ITEM('',(#1216),#14);
#697=STYLED_ITEM('',(#1219),#741);
#698=STYLED_ITEM('',(#1219),#742);
#699=STYLED_ITEM('',(#1219),#743);
#700=STYLED_ITEM('',(#1219),#744);
#701=STYLED_ITEM('',(#1219),#745);
#702=STYLED_ITEM('',(#1219),#746);
#703=STYLED_ITEM('',(#1219),#747);
#704=STYLED_ITEM('',(#1219),#748);
#705=STYLED_ITEM('',(#1219),#749);
#706=STYLED_ITEM('',(#1219),#750);
#707=STYLED_ITEM('',(#1216),#15);
#708=STYLED_ITEM('',(#1219),#751);
#709=STYLED_ITEM('',(#1219),#752);
#710=STYLED_ITEM('',(#1219),#753);
#711=STYLED_ITEM('',(#1219),#754);
#712=STYLED_ITEM('',(#1219),#755);
#713=STYLED_ITEM('',(#1219),#756);
#714=STYLED_ITEM('',(#1219),#757);
#715=STYLED_ITEM('',(#1219),#758);
#716=STYLED_ITEM('',(#1219),#759);
#717=STYLED_ITEM('',(#1219),#760);
#718=STYLED_ITEM('',(#1216),#16);
#719=ADVANCED_FACE('',(#17),#631,.T.);
#720=ADVANCED_FACE('',(#18),#632,.T.);
#721=ADVANCED_FACE('',(#19),#633,.T.);
#722=ADVANCED_FACE('',(#20),#634,.T.);
#723=ADVANCED_FACE('',(#21),#635,.T.);
#724=ADVANCED_FACE('',(#22),#636,.T.);
#725=ADVANCED_FACE('',(#23),#637,.T.);
#726=ADVANCED_FACE('',(#24),#638,.T.);
#727=ADVANCED_FACE('',(#25),#639,.T.);
#728=ADVANCED_FACE('',(#26),#640,.T.);
#729=ADVANCED_FACE('',(#27),#641,.T.);
#730=ADVANCED_FACE('',(#28),#642,.T.);
#731=ADVANCED_FACE('',(#29),#643,.T.);
#732=ADVANCED_FACE('',(#30),#644,.T.);
#733=ADVANCED_FACE('',(#31),#645,.T.);
#734=ADVANCED_FACE('',(#32),#646,.T.);
#735=ADVANCED_FACE('',(#33),#647,.T.);
#736=ADVANCED_FACE('',(#34),#648,.T.);
#737=ADVANCED_FACE('',(#35),#649,.T.);
#738=ADVANCED_FACE('',(#36),#650,.T.);
#739=ADVANCED_FACE('',(#37),#651,.T.);
#740=ADVANCED_FACE('',(#38),#652,.T.);
#741=ADVANCED_FACE('',(#39),#653,.T.);
#742=ADVANCED_FACE('',(#40),#654,.T.);
#743=ADVANCED_FACE('',(#41),#655,.T.);
#744=ADVANCED_FACE('',(#42),#656,.T.);
#745=ADVANCED_FACE('',(#43),#657,.T.);
#746=ADVANCED_FACE('',(#44),#658,.T.);
#747=ADVANCED_FACE('',(#45),#659,.T.);
#748=ADVANCED_FACE('',(#46),#660,.T.);
#749=ADVANCED_FACE('',(#47),#661,.T.);
#750=ADVANCED_FACE('',(#48),#662,.T.);
#751=ADVANCED_FACE('',(#49),#663,.T.);
#752=ADVANCED_FACE('',(#50),#664,.T.);
#753=ADVANCED_FACE('',(#51),#665,.T.);
#754=ADVANCED_FACE('',(#52),#666,.T.);
#755=ADVANCED_FACE('',(#53),#667,.T.);
#756=ADVANCED_FACE('',(#54),#668,.T.);
#757=ADVANCED_FACE('',(#55),#669,.T.);
#758=ADVANCED_FACE('',(#56),#670,.T.);
#759=ADVANCED_FACE('',(#57),#671,.T.);
#760=ADVANCED_FACE('',(#58),#672,.T.);
#761=CLOSED_SHELL('',(#719,#720,#721,#722,#723,#724));
#762=CLOSED_SHELL('',(#725,#726,#727,#728,#729,#730,#731,#732,#733,#734,
#735,#736,#737,#738,#739,#740));
#763=CLOSED_SHELL('',(#741,#742,#743,#744,#745,#746,#747,#748,#749,#750));
#764=CLOSED_SHELL('',(#751,#752,#753,#754,#755,#756,#757,#758,#759,#760));
#765=DERIVED_UNIT_ELEMENT(#767,1.);
#766=DERIVED_UNIT_ELEMENT(#1202,-3.);
#767=(
MASS_UNIT()
NAMED_UNIT(*)
SI_UNIT(.KILO.,.GRAM.)
);
#768=DERIVED_UNIT((#765,#766));
#769=MEASURE_REPRESENTATION_ITEM('density measure',
POSITIVE_RATIO_MEASURE(7850.),#768);
#770=PROPERTY_DEFINITION_REPRESENTATION(#775,#772);
#771=PROPERTY_DEFINITION_REPRESENTATION(#776,#773);
#772=REPRESENTATION('material name',(#774),#1199);
#773=REPRESENTATION('density',(#769),#1199);
#774=DESCRIPTIVE_REPRESENTATION_ITEM('Steel','Steel');
#775=PROPERTY_DEFINITION('material property','material name',#1209);
#776=PROPERTY_DEFINITION('material property','density of part',#1209);
#777=AXIS2_PLACEMENT_3D('',#1000,#820,#821);
#778=AXIS2_PLACEMENT_3D('',#1001,#822,#823);
#779=AXIS2_PLACEMENT_3D('',#1010,#828,#829);
#780=AXIS2_PLACEMENT_3D('',#1016,#833,#834);
#781=AXIS2_PLACEMENT_3D('',#1022,#838,#839);
#782=AXIS2_PLACEMENT_3D('',#1025,#842,#843);
#783=AXIS2_PLACEMENT_3D('',#1026,#844,#845);
#784=AXIS2_PLACEMENT_3D('',#1027,#846,#847);
#785=AXIS2_PLACEMENT_3D('',#1036,#852,#853);
#786=AXIS2_PLACEMENT_3D('',#1042,#857,#858);
#787=AXIS2_PLACEMENT_3D('',#1046,#861,#862);
#788=AXIS2_PLACEMENT_3D('',#1050,#865,#866);
#789=AXIS2_PLACEMENT_3D('',#1052,#868,#869);
#790=AXIS2_PLACEMENT_3D('',#1058,#873,#874);
#791=AXIS2_PLACEMENT_3D('',#1066,#879,#880);
#792=AXIS2_PLACEMENT_3D('',#1070,#883,#884);
#793=AXIS2_PLACEMENT_3D('',#1076,#888,#889);
#794=AXIS2_PLACEMENT_3D('',#1083,#894,#895);
#795=AXIS2_PLACEMENT_3D('',#1090,#900,#901);
#796=AXIS2_PLACEMENT_3D('',#1093,#904,#905);
#797=AXIS2_PLACEMENT_3D('',#1094,#906,#907);
#798=AXIS2_PLACEMENT_3D('',#1095,#908,#909);
#799=AXIS2_PLACEMENT_3D('',#1096,#910,#911);
#800=AXIS2_PLACEMENT_3D('',#1097,#912,#913);
#801=AXIS2_PLACEMENT_3D('',#1106,#918,#919);
#802=AXIS2_PLACEMENT_3D('',#1115,#924,#925);
#803=AXIS2_PLACEMENT_3D('',#1121,#929,#930);
#804=AXIS2_PLACEMENT_3D('',#1127,#934,#935);
#805=AXIS2_PLACEMENT_3D('',#1133,#939,#940);
#806=AXIS2_PLACEMENT_3D('',#1139,#944,#945);
#807=AXIS2_PLACEMENT_3D('',#1142,#948,#949);
#808=AXIS2_PLACEMENT_3D('',#1145,#952,#953);
#809=AXIS2_PLACEMENT_3D('',#1146,#954,#955);
#810=AXIS2_PLACEMENT_3D('',#1147,#956,#957);
#811=AXIS2_PLACEMENT_3D('',#1156,#962,#963);
#812=AXIS2_PLACEMENT_3D('',#1165,#968,#969);
#813=AXIS2_PLACEMENT_3D('',#1171,#973,#974);
#814=AXIS2_PLACEMENT_3D('',#1177,#978,#979);
#815=AXIS2_PLACEMENT_3D('',#1183,#983,#984);
#816=AXIS2_PLACEMENT_3D('',#1189,#988,#989);
#817=AXIS2_PLACEMENT_3D('',#1192,#992,#993);
#818=AXIS2_PLACEMENT_3D('',#1195,#996,#997);
#819=AXIS2_PLACEMENT_3D('',#1196,#998,#999);
#820=DIRECTION('axis',(0.,0.,1.));
#821=DIRECTION('refdir',(1.,0.,0.));
#822=DIRECTION('center_axis',(0.,-1.,0.));
#823=DIRECTION('ref_axis',(0.,0.,1.));
#824=DIRECTION('',(-1.,0.,0.));
#825=DIRECTION('',(0.,0.,-1.));
#826=DIRECTION('',(1.,0.,0.));
#827=DIRECTION('',(0.,0.,1.));
#828=DIRECTION('center_axis',(1.,0.,0.));
#829=DIRECTION('ref_axis',(0.,0.,1.));
#830=DIRECTION('',(0.,-1.,0.));
#831=DIRECTION('',(0.,0.,-1.));
#832=DIRECTION('',(0.,1.,0.));
#833=DIRECTION('center_axis',(0.,1.,0.));
#834=DIRECTION('ref_axis',(0.,0.,1.));
#835=DIRECTION('',(1.,0.,0.));
#836=DIRECTION('',(0.,0.,-1.));
#837=DIRECTION('',(-1.,0.,0.));
#838=DIRECTION('center_axis',(-1.,0.,0.));
#839=DIRECTION('ref_axis',(0.,0.,1.));
#840=DIRECTION('',(0.,1.,0.));
#841=DIRECTION('',(0.,-1.,0.));
#842=DIRECTION('center_axis',(0.,0.,-1.));
#843=DIRECTION('ref_axis',(0.,1.,0.));
#844=DIRECTION('center_axis',(0.,0.,1.));
#845=DIRECTION('ref_axis',(0.,1.,0.));
#846=DIRECTION('center_axis',(0.,0.,1.));
#847=DIRECTION('ref_axis',(0.,1.,0.));
#848=DIRECTION('',(-1.,0.,0.));
#849=DIRECTION('',(0.,-1.,0.));
#850=DIRECTION('',(1.,0.,0.));
#851=DIRECTION('',(0.,1.,0.));
#852=DIRECTION('center_axis',(1.,0.,0.));
#853=DIRECTION('ref_axis',(0.,0.,1.));
#854=DIRECTION('',(0.,-1.,0.));
#855=DIRECTION('',(0.,0.,-1.));
#856=DIRECTION('',(0.,0.,1.));
#857=DIRECTION('center_axis',(0.,1.,0.));
#858=DIRECTION('ref_axis',(0.,0.,1.));
#859=DIRECTION('',(1.,0.,0.));
#860=DIRECTION('',(0.,0.,-1.));
#861=DIRECTION('center_axis',(-1.,0.,0.));
#862=DIRECTION('ref_axis',(0.,0.,1.));
#863=DIRECTION('',(0.,1.,0.));
#864=DIRECTION('',(0.,0.,-1.));
#865=DIRECTION('center_axis',(0.,-1.,0.));
#866=DIRECTION('ref_axis',(0.,0.,1.));
#867=DIRECTION('',(-1.,0.,0.));
#868=DIRECTION('center_axis',(0.98791652458036,0.,-0.154986904159874));
#869=DIRECTION('ref_axis',(0.154986904159874,0.,0.98791652458036));
#870=DIRECTION('',(0.,-1.,0.));
#871=DIRECTION('',(-0.153158316690637,-0.153158316690637,-0.976260754131283));
#872=DIRECTION('',(0.153158316690637,-0.153158316690637,0.976260754131283));
#873=DIRECTION('center_axis',(0.,0.98791652458036,-0.154986904159874));
#874=DIRECTION('ref_axis',(0.,0.154986904159874,0.98791652458036));
#875=DIRECTION('',(1.,0.,0.));
#876=DIRECTION('',(1.,0.,0.));
#877=DIRECTION('',(1.,0.,0.));
#878=DIRECTION('',(0.153158316690637,-0.153158316690637,-0.976260754131283));
#879=DIRECTION('center_axis',(-0.98791652458036,0.,-0.154986904159874));
#880=DIRECTION('ref_axis',(-0.154986904159874,0.,0.98791652458036));
#881=DIRECTION('',(0.,1.,0.));
#882=DIRECTION('',(0.153158316690637,0.153158316690637,-0.976260754131283));
#883=DIRECTION('center_axis',(0.,-0.98791652458036,-0.154986904159874));
#884=DIRECTION('ref_axis',(0.,-0.154986904159874,0.98791652458036));
#885=DIRECTION('',(-1.,0.,0.));
#886=DIRECTION('',(-1.,0.,0.));
#887=DIRECTION('',(-1.,0.,0.));
#888=DIRECTION('center_axis',(1.,0.,0.));
#889=DIRECTION('ref_axis',(0.,0.,1.));
#890=DIRECTION('',(0.,-1.,0.));
#891=DIRECTION('',(0.,0.,-1.));
#892=DIRECTION('',(0.,1.,0.));
#893=DIRECTION('',(0.,0.,1.));
#894=DIRECTION('center_axis',(-1.,0.,0.));
#895=DIRECTION('ref_axis',(0.,0.,1.));
#896=DIRECTION('',(0.,1.,0.));
#897=DIRECTION('',(0.,0.,-1.));
#898=DIRECTION('',(0.,-1.,0.));
#899=DIRECTION('',(0.,0.,1.));
#900=DIRECTION('center_axis',(0.,0.,-1.));
#901=DIRECTION('ref_axis',(0.,1.,0.));
#902=DIRECTION('',(-1.,0.,0.));
#903=DIRECTION('',(1.,0.,0.));
#904=DIRECTION('center_axis',(0.,0.,-1.));
#905=DIRECTION('ref_axis',(0.,1.,0.));
#906=DIRECTION('center_axis',(0.,0.,-1.));
#907=DIRECTION('ref_axis',(0.,1.,0.));
#908=DIRECTION('center_axis',(0.,-1.,0.));
#909=DIRECTION('ref_axis',(0.,0.,1.));
#910=DIRECTION('center_axis',(0.,1.,0.));
#911=DIRECTION('ref_axis',(0.,0.,1.));
#912=DIRECTION('center_axis',(0.,0.,1.));
#913=DIRECTION('ref_axis',(0.,1.,0.));
#914=DIRECTION('',(1.,0.,0.));
#915=DIRECTION('',(0.,1.,0.));
#916=DIRECTION('',(-1.,0.,0.));
#917=DIRECTION('',(0.,-1.,0.));
#918=DIRECTION('center_axis',(0.,0.,1.));
#919=DIRECTION('ref_axis',(0.,1.,0.));
#920=DIRECTION('',(1.,0.,0.));
#921=DIRECTION('',(0.,1.,0.));
#922=DIRECTION('',(-1.,0.,0.));
#923=DIRECTION('',(0.,-1.,0.));
#924=DIRECTION('center_axis',(1.,0.,0.));
#925=DIRECTION('ref_axis',(0.,0.,1.));
#926=DIRECTION('',(0.,-1.,0.));
#927=DIRECTION('',(0.,0.,-1.));
#928=DIRECTION('',(0.,0.,1.));
#929=DIRECTION('center_axis',(-1.,0.,0.));
#930=DIRECTION('ref_axis',(0.,0.,1.));
#931=DIRECTION('',(0.,1.,0.));
#932=DIRECTION('',(0.,0.,-1.));
#933=DIRECTION('',(0.,0.,1.));
#934=DIRECTION('center_axis',(-1.,0.,0.));
#935=DIRECTION('ref_axis',(0.,0.,1.));
#936=DIRECTION('',(0.,1.,0.));
#937=DIRECTION('',(0.,0.,-1.));
#938=DIRECTION('',(0.,0.,1.));
#939=DIRECTION('center_axis',(-1.,0.,0.));
#940=DIRECTION('ref_axis',(0.,0.,1.));
#941=DIRECTION('',(0.,0.,-1.));
#942=DIRECTION('',(0.,-1.,0.));
#943=DIRECTION('',(0.,0.,1.));
#944=DIRECTION('center_axis',(0.,0.,-1.));
#945=DIRECTION('ref_axis',(0.,1.,0.));
#946=DIRECTION('',(1.,0.,0.));
#947=DIRECTION('',(-1.,0.,0.));
#948=DIRECTION('center_axis',(0.,0.,-1.));
#949=DIRECTION('ref_axis',(0.,1.,0.));
#950=DIRECTION('',(1.,0.,0.));
#951=DIRECTION('',(-1.,0.,0.));
#952=DIRECTION('center_axis',(0.,1.,0.));
#953=DIRECTION('ref_axis',(0.,0.,1.));
#954=DIRECTION('center_axis',(0.,-1.,0.));
#955=DIRECTION('ref_axis',(0.,0.,1.));
#956=DIRECTION('center_axis',(0.,0.,1.));
#957=DIRECTION('ref_axis',(0.,1.,0.));
#958=DIRECTION('',(-1.,0.,0.));
#959=DIRECTION('',(0.,-1.,0.));
#960=DIRECTION('',(1.,0.,0.));
#961=DIRECTION('',(0.,1.,0.));
#962=DIRECTION('center_axis',(0.,0.,1.));
#963=DIRECTION('ref_axis',(0.,1.,0.));
#964=DIRECTION('',(-1.,0.,0.));
#965=DIRECTION('',(0.,-1.,0.));
#966=DIRECTION('',(1.,0.,0.));
#967=DIRECTION('',(0.,1.,0.));
#968=DIRECTION('center_axis',(-1.,0.,0.));
#969=DIRECTION('ref_axis',(0.,0.,1.));
#970=DIRECTION('',(0.,1.,0.));
#971=DIRECTION('',(0.,0.,-1.));
#972=DIRECTION('',(0.,0.,1.));
#973=DIRECTION('center_axis',(1.,0.,0.));
#974=DIRECTION('ref_axis',(0.,0.,1.));
#975=DIRECTION('',(0.,-1.,0.));
#976=DIRECTION('',(0.,0.,-1.));
#977=DIRECTION('',(0.,0.,1.));
#978=DIRECTION('center_axis',(1.,0.,0.));
#979=DIRECTION('ref_axis',(0.,0.,1.));
#980=DIRECTION('',(0.,-1.,0.));
#981=DIRECTION('',(0.,0.,-1.));
#982=DIRECTION('',(0.,0.,1.));
#983=DIRECTION('center_axis',(1.,0.,0.));
#984=DIRECTION('ref_axis',(0.,0.,1.));
#985=DIRECTION('',(0.,0.,-1.));
#986=DIRECTION('',(0.,1.,0.));
#987=DIRECTION('',(0.,0.,1.));
#988=DIRECTION('center_axis',(0.,0.,-1.));
#989=DIRECTION('ref_axis',(0.,1.,0.));
#990=DIRECTION('',(-1.,0.,0.));
#991=DIRECTION('',(1.,0.,0.));
#992=DIRECTION('center_axis',(0.,0.,-1.));
#993=DIRECTION('ref_axis',(0.,1.,0.));
#994=DIRECTION('',(-1.,0.,0.));
#995=DIRECTION('',(1.,0.,0.));
#996=DIRECTION('center_axis',(0.,-1.,0.));
#997=DIRECTION('ref_axis',(0.,0.,1.));
#998=DIRECTION('center_axis',(0.,1.,0.));
#999=DIRECTION('ref_axis',(0.,0.,1.));
#1000=CARTESIAN_POINT('',(0.,0.,0.));
#1001=CARTESIAN_POINT('Origin',(-2.042,-1.82,2.413));
#1002=CARTESIAN_POINT('',(-1.191,-1.82,2.413));
#1003=CARTESIAN_POINT('',(-2.042,-1.82,2.413));
#1004=CARTESIAN_POINT('',(-1.191,-1.82,2.413));
#1005=CARTESIAN_POINT('',(-1.191,-1.82,2.464));
#1006=CARTESIAN_POINT('',(-1.191,-1.82,2.464));
#1007=CARTESIAN_POINT('',(-2.042,-1.82,2.464));
#1008=CARTESIAN_POINT('',(-2.042,-1.82,2.464));
#1009=CARTESIAN_POINT('',(-2.042,-1.82,2.413));
#1010=CARTESIAN_POINT('Origin',(-1.191,-1.82,2.413));
#1011=CARTESIAN_POINT('',(-1.191,1.82,2.413));
#1012=CARTESIAN_POINT('',(-1.191,1.82,2.413));
#1013=CARTESIAN_POINT('',(-1.191,1.82,2.464));
#1014=CARTESIAN_POINT('',(-1.191,1.82,2.464));
#1015=CARTESIAN_POINT('',(-1.191,-1.82,2.464));
#1016=CARTESIAN_POINT('Origin',(-1.191,1.82,2.413));
#1017=CARTESIAN_POINT('',(-2.042,1.82,2.413));
#1018=CARTESIAN_POINT('',(-2.042,1.82,2.413));
#1019=CARTESIAN_POINT('',(-2.042,1.82,2.464));
#1020=CARTESIAN_POINT('',(-2.042,1.82,2.464));
#1021=CARTESIAN_POINT('',(-1.191,1.82,2.464));
#1022=CARTESIAN_POINT('Origin',(-2.042,1.82,2.413));
#1023=CARTESIAN_POINT('',(-2.042,-1.82,2.413));
#1024=CARTESIAN_POINT('',(-2.042,1.82,2.464));
#1025=CARTESIAN_POINT('Origin',(-2.042,1.82,2.413));
#1026=CARTESIAN_POINT('Origin',(-2.042,-1.82,2.464));
#1027=CARTESIAN_POINT('Origin',(-2.127,-1.905,2.413));
#1028=CARTESIAN_POINT('',(2.127,-1.905,2.413));
#1029=CARTESIAN_POINT('',(-2.127,-1.905,2.413));
#1030=CARTESIAN_POINT('',(2.127,-1.905,2.413));
#1031=CARTESIAN_POINT('',(2.127,1.905,2.413));
#1032=CARTESIAN_POINT('',(2.127,1.905,2.413));
#1033=CARTESIAN_POINT('',(-2.127,1.905,2.413));
#1034=CARTESIAN_POINT('',(-2.127,1.905,2.413));
#1035=CARTESIAN_POINT('',(-2.127,-1.905,2.413));
#1036=CARTESIAN_POINT('Origin',(2.127,-1.905,1.067));
#1037=CARTESIAN_POINT('',(2.12706461935396,1.90506461935396,1.06695372497279));
#1038=CARTESIAN_POINT('',(2.12706461935396,-1.90506461935396,1.06695372497279));
#1039=CARTESIAN_POINT('',(2.127,1.905,1.067));
#1040=CARTESIAN_POINT('',(2.127,1.905,2.413));
#1041=CARTESIAN_POINT('',(2.127,-1.905,1.067));
#1042=CARTESIAN_POINT('Origin',(2.127,1.905,1.067));
#1043=CARTESIAN_POINT('',(-2.12706461935396,1.90506461935396,1.06695372497279));
#1044=CARTESIAN_POINT('',(-2.127,1.905,1.067));
#1045=CARTESIAN_POINT('',(-2.127,1.905,2.413));
#1046=CARTESIAN_POINT('Origin',(-2.127,1.905,1.067));
#1047=CARTESIAN_POINT('',(-2.12706461935396,-1.90506461935396,1.06695372497279));
#1048=CARTESIAN_POINT('',(-2.127,-1.905,1.067));
#1049=CARTESIAN_POINT('',(-2.127,-1.905,2.413));
#1050=CARTESIAN_POINT('Origin',(-2.127,-1.905,1.067));
#1051=CARTESIAN_POINT('',(2.127,-1.905,1.067));
#1052=CARTESIAN_POINT('Origin',(1.988,-1.766,0.178));
#1053=CARTESIAN_POINT('',(1.988,1.766,0.178));
#1054=CARTESIAN_POINT('',(1.988,-1.766,0.178));
#1055=CARTESIAN_POINT('',(1.988,1.766,0.178));
#1056=CARTESIAN_POINT('',(1.94657410803031,1.72457410803031,-0.0860566533293497));
#1057=CARTESIAN_POINT('',(1.94136654969664,-1.71936654969664,-0.119250638062711));
#1058=CARTESIAN_POINT('Origin',(1.988,1.766,0.178));
#1059=CARTESIAN_POINT('',(0.114,1.766,0.178));
#1060=CARTESIAN_POINT('',(0.114,1.766,0.178));
#1061=CARTESIAN_POINT('',(-0.114,1.766,0.178));
#1062=CARTESIAN_POINT('',(-0.114,1.766,0.178));
#1063=CARTESIAN_POINT('',(-1.988,1.766,0.178));
#1064=CARTESIAN_POINT('',(-1.988,1.766,0.178));
#1065=CARTESIAN_POINT('',(-1.94136654969664,1.71936654969664,-0.119250638062711));
#1066=CARTESIAN_POINT('Origin',(-1.988,1.766,0.178));
#1067=CARTESIAN_POINT('',(-1.988,-1.766,0.178));
#1068=CARTESIAN_POINT('',(-1.988,-1.766,0.178));
#1069=CARTESIAN_POINT('',(-1.94657410803031,-1.72457410803031,-0.0860566533293497));
#1070=CARTESIAN_POINT('Origin',(-1.988,-1.766,0.178));
#1071=CARTESIAN_POINT('',(-0.114,-1.766,0.178));
#1072=CARTESIAN_POINT('',(-0.114,-1.766,0.178));
#1073=CARTESIAN_POINT('',(0.114,-1.766,0.178));
#1074=CARTESIAN_POINT('',(0.114,-1.766,0.178));
#1075=CARTESIAN_POINT('',(1.988,-1.766,0.178));
#1076=CARTESIAN_POINT('Origin',(0.114,-1.766,0.));
#1077=CARTESIAN_POINT('',(0.114,1.766,0.));
#1078=CARTESIAN_POINT('',(0.114,-1.766,0.));
#1079=CARTESIAN_POINT('',(0.114,1.766,0.));
#1080=CARTESIAN_POINT('',(0.114,1.766,0.178));
#1081=CARTESIAN_POINT('',(0.114,-1.766,0.178));
#1082=CARTESIAN_POINT('',(0.114,-1.766,0.));
#1083=CARTESIAN_POINT('Origin',(-0.114,1.766,0.));
#1084=CARTESIAN_POINT('',(-0.114,-1.766,0.));
#1085=CARTESIAN_POINT('',(-0.114,1.766,0.));
#1086=CARTESIAN_POINT('',(-0.114,-1.766,0.));
#1087=CARTESIAN_POINT('',(-0.114,-1.766,0.178));
#1088=CARTESIAN_POINT('',(-0.114,1.766,0.178));
#1089=CARTESIAN_POINT('',(-0.114,1.766,0.));
#1090=CARTESIAN_POINT('Origin',(-0.114,1.766,0.));
#1091=CARTESIAN_POINT('',(0.114,1.766,0.));
#1092=CARTESIAN_POINT('',(-0.114,-1.766,0.));
#1093=CARTESIAN_POINT('Origin',(-1.988,1.766,0.178));
#1094=CARTESIAN_POINT('Origin',(0.114,1.766,0.178));
#1095=CARTESIAN_POINT('Origin',(-0.114,-1.766,0.));
#1096=CARTESIAN_POINT('Origin',(0.114,1.766,0.));
#1097=CARTESIAN_POINT('Origin',(2.286,1.372,1.206));
#1098=CARTESIAN_POINT('',(2.127,1.372,1.206));
#1099=CARTESIAN_POINT('',(2.286,1.372,1.206));
#1100=CARTESIAN_POINT('',(2.127,1.372,1.206));
#1101=CARTESIAN_POINT('',(2.127,-1.372,1.206));
#1102=CARTESIAN_POINT('',(2.127,-1.372,1.206));
#1103=CARTESIAN_POINT('',(2.286,-1.372,1.206));
#1104=CARTESIAN_POINT('',(2.286,-1.372,1.206));
#1105=CARTESIAN_POINT('',(2.286,1.372,1.206));
#1106=CARTESIAN_POINT('Origin',(2.159,1.372,0.127));
#1107=CARTESIAN_POINT('',(0.127,1.372,0.127));
#1108=CARTESIAN_POINT('',(2.159,1.372,0.127));
#1109=CARTESIAN_POINT('',(0.127,1.372,0.127));
#1110=CARTESIAN_POINT('',(0.127,-1.372,0.127));
#1111=CARTESIAN_POINT('',(0.127,-1.372,0.127));
#1112=CARTESIAN_POINT('',(2.159,-1.372,0.127));
#1113=CARTESIAN_POINT('',(2.159,-1.372,0.127));
#1114=CARTESIAN_POINT('',(2.159,1.372,0.127));
#1115=CARTESIAN_POINT('Origin',(2.286,-1.372,0.));
#1116=CARTESIAN_POINT('',(2.286,1.372,0.));
#1117=CARTESIAN_POINT('',(2.286,-1.372,0.));
#1118=CARTESIAN_POINT('',(2.286,1.372,0.));
#1119=CARTESIAN_POINT('',(2.286,1.372,1.206));
#1120=CARTESIAN_POINT('',(2.286,-1.372,0.));
#1121=CARTESIAN_POINT('Origin',(2.127,1.372,1.08));
#1122=CARTESIAN_POINT('',(2.127,-1.372,1.08));
#1123=CARTESIAN_POINT('',(2.127,1.372,1.08));
#1124=CARTESIAN_POINT('',(2.127,-1.372,1.08));
#1125=CARTESIAN_POINT('',(2.127,-1.372,1.206));
#1126=CARTESIAN_POINT('',(2.127,1.372,1.08));
#1127=CARTESIAN_POINT('Origin',(0.127,1.372,0.));
#1128=CARTESIAN_POINT('',(0.127,-1.372,0.));
#1129=CARTESIAN_POINT('',(0.127,1.372,0.));
#1130=CARTESIAN_POINT('',(0.127,-1.372,0.));
#1131=CARTESIAN_POINT('',(0.127,-1.372,0.127));
#1132=CARTESIAN_POINT('',(0.127,1.372,0.));
#1133=CARTESIAN_POINT('Origin',(2.159,1.372,0.127));
#1134=CARTESIAN_POINT('',(2.159,-1.372,1.08));
#1135=CARTESIAN_POINT('',(2.159,-1.372,1.08));
#1136=CARTESIAN_POINT('',(2.159,1.372,1.08));
#1137=CARTESIAN_POINT('',(2.159,1.372,1.08));
#1138=CARTESIAN_POINT('',(2.159,1.372,0.127));
#1139=CARTESIAN_POINT('Origin',(2.159,-1.372,1.08));
#1140=CARTESIAN_POINT('',(2.127,-1.372,1.08));
#1141=CARTESIAN_POINT('',(2.159,1.372,1.08));
#1142=CARTESIAN_POINT('Origin',(2.286,-1.372,0.));
#1143=CARTESIAN_POINT('',(0.127,-1.372,0.));
#1144=CARTESIAN_POINT('',(2.286,1.372,0.));
#1145=CARTESIAN_POINT('Origin',(2.286,1.372,0.));
#1146=CARTESIAN_POINT('Origin',(0.127,-1.372,0.));
#1147=CARTESIAN_POINT('Origin',(-2.286,-1.372,1.206));
#1148=CARTESIAN_POINT('',(-2.127,-1.372,1.206));
#1149=CARTESIAN_POINT('',(-2.286,-1.372,1.206));
#1150=CARTESIAN_POINT('',(-2.127,-1.372,1.206));
#1151=CARTESIAN_POINT('',(-2.127,1.372,1.206));
#1152=CARTESIAN_POINT('',(-2.127,1.372,1.206));
#1153=CARTESIAN_POINT('',(-2.286,1.372,1.206));
#1154=CARTESIAN_POINT('',(-2.286,1.372,1.206));
#1155=CARTESIAN_POINT('',(-2.286,-1.372,1.206));
#1156=CARTESIAN_POINT('Origin',(-2.159,-1.372,0.127));
#1157=CARTESIAN_POINT('',(-0.127,-1.372,0.127));
#1158=CARTESIAN_POINT('',(-2.159,-1.372,0.127));
#1159=CARTESIAN_POINT('',(-0.127,-1.372,0.127));
#1160=CARTESIAN_POINT('',(-0.127,1.372,0.127));
#1161=CARTESIAN_POINT('',(-0.127,1.372,0.127));
#1162=CARTESIAN_POINT('',(-2.159,1.372,0.127));
#1163=CARTESIAN_POINT('',(-2.159,1.372,0.127));
#1164=CARTESIAN_POINT('',(-2.159,-1.372,0.127));
#1165=CARTESIAN_POINT('Origin',(-2.286,1.372,0.));
#1166=CARTESIAN_POINT('',(-2.286,-1.372,0.));
#1167=CARTESIAN_POINT('',(-2.286,1.372,0.));
#1168=CARTESIAN_POINT('',(-2.286,-1.372,0.));
#1169=CARTESIAN_POINT('',(-2.286,-1.372,1.206));
#1170=CARTESIAN_POINT('',(-2.286,1.372,0.));
#1171=CARTESIAN_POINT('Origin',(-2.127,-1.372,1.08));
#1172=CARTESIAN_POINT('',(-2.127,1.372,1.08));
#1173=CARTESIAN_POINT('',(-2.127,-1.372,1.08));
#1174=CARTESIAN_POINT('',(-2.127,1.372,1.08));
#1175=CARTESIAN_POINT('',(-2.127,1.372,1.206));
#1176=CARTESIAN_POINT('',(-2.127,-1.372,1.08));
#1177=CARTESIAN_POINT('Origin',(-0.127,-1.372,0.));
#1178=CARTESIAN_POINT('',(-0.127,1.372,0.));
#1179=CARTESIAN_POINT('',(-0.127,-1.372,0.));
#1180=CARTESIAN_POINT('',(-0.127,1.372,0.));
#1181=CARTESIAN_POINT('',(-0.127,1.372,0.127));
#1182=CARTESIAN_POINT('',(-0.127,-1.372,0.));
#1183=CARTESIAN_POINT('Origin',(-2.159,-1.372,0.127));
#1184=CARTESIAN_POINT('',(-2.159,1.372,1.08));
#1185=CARTESIAN_POINT('',(-2.159,1.372,1.08));
#1186=CARTESIAN_POINT('',(-2.159,-1.372,1.08));
#1187=CARTESIAN_POINT('',(-2.159,-1.372,1.08));
#1188=CARTESIAN_POINT('',(-2.159,-1.372,0.127));
#1189=CARTESIAN_POINT('Origin',(-2.159,1.372,1.08));
#1190=CARTESIAN_POINT('',(-2.127,1.372,1.08));
#1191=CARTESIAN_POINT('',(-2.159,-1.372,1.08));
#1192=CARTESIAN_POINT('Origin',(-2.286,1.372,0.));
#1193=CARTESIAN_POINT('',(-0.127,1.372,0.));
#1194=CARTESIAN_POINT('',(-2.286,-1.372,0.));
#1195=CARTESIAN_POINT('Origin',(-2.286,-1.372,0.));
#1196=CARTESIAN_POINT('Origin',(-0.127,1.372,0.));
#1197=UNCERTAINTY_MEASURE_WITH_UNIT(LENGTH_MEASURE(0.01),#1201,
'DISTANCE_ACCURACY_VALUE',
'Maximum model space distance between geometric entities at asserted c
onnectivities');
#1198=UNCERTAINTY_MEASURE_WITH_UNIT(LENGTH_MEASURE(0.01),#1201,
'DISTANCE_ACCURACY_VALUE',
'Maximum model space distance between geometric entities at asserted c
onnectivities');
#1199=(
GEOMETRIC_REPRESENTATION_CONTEXT(3)
GLOBAL_UNCERTAINTY_ASSIGNED_CONTEXT((#1197))
GLOBAL_UNIT_ASSIGNED_CONTEXT((#1201,#1203,#1204))
REPRESENTATION_CONTEXT('','3D')
);
#1200=(
GEOMETRIC_REPRESENTATION_CONTEXT(3)
GLOBAL_UNCERTAINTY_ASSIGNED_CONTEXT((#1198))
GLOBAL_UNIT_ASSIGNED_CONTEXT((#1201,#1203,#1204))
REPRESENTATION_CONTEXT('','3D')
);
#1201=(
LENGTH_UNIT()
NAMED_UNIT(*)
SI_UNIT(.MILLI.,.METRE.)
);
#1202=(
LENGTH_UNIT()
NAMED_UNIT(*)
SI_UNIT($,.METRE.)
);
#1203=(
NAMED_UNIT(*)
PLANE_ANGLE_UNIT()
SI_UNIT($,.RADIAN.)
);
#1204=(
NAMED_UNIT(*)
SI_UNIT($,.STERADIAN.)
SOLID_ANGLE_UNIT()
);
#1205=SHAPE_DEFINITION_REPRESENTATION(#1206,#1207);
#1206=PRODUCT_DEFINITION_SHAPE('',$,#1209);
#1207=SHAPE_REPRESENTATION('',(#777),#1199);
#1208=PRODUCT_DEFINITION_CONTEXT('part definition',#1213,'design');
#1209=PRODUCT_DEFINITION('product','SMB_ONS v1',#1210,#1208);
#1210=PRODUCT_DEFINITION_FORMATION('',$,#1215);
#1211=PRODUCT_RELATED_PRODUCT_CATEGORY('SMB_ONS v1','SMB_ONS v1',(#1215));
#1212=APPLICATION_PROTOCOL_DEFINITION('international standard',
'automotive_design',2009,#1213);
#1213=APPLICATION_CONTEXT(
'Core Data for Automotive Mechanical Design Process');
#1214=PRODUCT_CONTEXT('part definition',#1213,'mechanical');
#1215=PRODUCT('product','SMB_ONS v1','STEP AP214',(#1214));
#1216=PRESENTATION_STYLE_ASSIGNMENT((#1220));
#1217=PRESENTATION_STYLE_ASSIGNMENT((#1221));
#1218=PRESENTATION_STYLE_ASSIGNMENT((#1222));
#1219=PRESENTATION_STYLE_ASSIGNMENT((#1223));
#1220=SURFACE_STYLE_USAGE(.BOTH.,#1224);
#1221=SURFACE_STYLE_USAGE(.BOTH.,#1225);
#1222=SURFACE_STYLE_USAGE(.BOTH.,#1226);
#1223=SURFACE_STYLE_USAGE(.BOTH.,#1227);
#1224=SURFACE_SIDE_STYLE('',(#1228));
#1225=SURFACE_SIDE_STYLE('',(#1229));
#1226=SURFACE_SIDE_STYLE('',(#1230));
#1227=SURFACE_SIDE_STYLE('',(#1231));
#1228=SURFACE_STYLE_FILL_AREA(#1232);
#1229=SURFACE_STYLE_FILL_AREA(#1233);
#1230=SURFACE_STYLE_FILL_AREA(#1234);
#1231=SURFACE_STYLE_FILL_AREA(#1235);
#1232=FILL_AREA_STYLE('Steel - Satin',(#1236));
#1233=FILL_AREA_STYLE('Opaque(117,88,45)',(#1237));
#1234=FILL_AREA_STYLE('Opaque(200,175,130)',(#1238));
#1235=FILL_AREA_STYLE('Opaque(185,185,185)',(#1239));
#1236=FILL_AREA_STYLE_COLOUR('Steel - Satin',#1240);
#1237=FILL_AREA_STYLE_COLOUR('Opaque(117,88,45)',#1241);
#1238=FILL_AREA_STYLE_COLOUR('Opaque(200,175,130)',#1242);
#1239=FILL_AREA_STYLE_COLOUR('Opaque(185,185,185)',#1243);
#1240=COLOUR_RGB('Steel - Satin',0.627450980392157,0.627450980392157,0.627450980392157);
#1241=COLOUR_RGB('Opaque(117,88,45)',0.458823529411765,0.345098039215686,
0.176470588235294);
#1242=COLOUR_RGB('Opaque(200,175,130)',0.784313725490196,0.686274509803922,
0.509803921568627);
#1243=COLOUR_RGB('Opaque(185,185,185)',0.725490196078431,0.725490196078431,
0.725490196078431);
ENDSEC;
END-ISO-10303-21;
