ISO-10303-21;
HEADER;
/* Generated by software containing ST-Developer
 * from STEP Tools, Inc. (www.steptools.com) 
 */

FILE_DESCRIPTION(
/* description */ (''),
/* implementation_level */ '2;1');

FILE_NAME(
/* name */ '0de86c62-1740-4eff-8efe-3cba1e28209d.stp',
/* time_stamp */ '2026-06-09T12:26:00Z',
/* author */ (''),
/* organization */ (''),
/* preprocessor_version */ 'ST-DEVELOPER v20.1',
/* originating_system */ 'Autodesk Translation Framework v15.8.0.0',
/* authorisation */ '');

FILE_SCHEMA (('AUTOMOTIVE_DESIGN { 1 0 10303 214 3 1 1 }'));
ENDSEC;

DATA;
#10=MECHANICAL_DESIGN_GEOMETRIC_PRESENTATION_REPRESENTATION('',(#17,#18,
#19,#20),#1703);
#11=ITEM_DEFINED_TRANSFORMATION($,$,#1035,#1120);
#12=(
REPRESENTATION_RELATIONSHIP($,$,#1714,#1713)
REPRESENTATION_RELATIONSHIP_WITH_TRANSFORMATION(#11)
SHAPE_REPRESENTATION_RELATIONSHIP()
);
#13=CONTEXT_DEPENDENT_SHAPE_REPRESENTATION(#12,#1712);
#14=NEXT_ASSEMBLY_USAGE_OCCURRENCE('Model:1','Model:1','Model:1',#1716,
#1717,'Model:1');
#15=SHAPE_REPRESENTATION_RELATIONSHIP('SRR','None',#1714,#16);
#16=ADVANCED_BREP_SHAPE_REPRESENTATION('',(#21,#22,#23,#24),#1702);
#17=STYLED_ITEM('',(#1728),#21);
#18=STYLED_ITEM('',(#1729),#22);
#19=STYLED_ITEM('',(#1729),#23);
#20=STYLED_ITEM('',(#1729),#24);
#21=MANIFOLD_SOLID_BREP('Body1',#1018);
#22=MANIFOLD_SOLID_BREP('Body2',#1019);
#23=MANIFOLD_SOLID_BREP('Body3',#1020);
#24=MANIFOLD_SOLID_BREP('Body4',#1021);
#25=FACE_BOUND('',#138,.T.);
#26=PLANE('',#1039);
#27=PLANE('',#1040);
#28=PLANE('',#1041);
#29=PLANE('',#1042);
#30=PLANE('',#1043);
#31=PLANE('',#1044);
#32=PLANE('',#1045);
#33=PLANE('',#1046);
#34=PLANE('',#1047);
#35=PLANE('',#1048);
#36=PLANE('',#1049);
#37=PLANE('',#1050);
#38=PLANE('',#1051);
#39=PLANE('',#1052);
#40=PLANE('',#1053);
#41=PLANE('',#1054);
#42=PLANE('',#1059);
#43=PLANE('',#1060);
#44=PLANE('',#1061);
#45=PLANE('',#1064);
#46=PLANE('',#1067);
#47=PLANE('',#1068);
#48=PLANE('',#1069);
#49=PLANE('',#1072);
#50=PLANE('',#1075);
#51=PLANE('',#1076);
#52=PLANE('',#1081);
#53=PLANE('',#1082);
#54=PLANE('',#1083);
#55=PLANE('',#1086);
#56=PLANE('',#1089);
#57=PLANE('',#1090);
#58=PLANE('',#1091);
#59=PLANE('',#1094);
#60=PLANE('',#1097);
#61=PLANE('',#1098);
#62=PLANE('',#1103);
#63=PLANE('',#1104);
#64=PLANE('',#1105);
#65=PLANE('',#1108);
#66=PLANE('',#1111);
#67=PLANE('',#1112);
#68=PLANE('',#1113);
#69=PLANE('',#1116);
#70=PLANE('',#1119);
#71=FACE_OUTER_BOUND('',#129,.T.);
#72=FACE_OUTER_BOUND('',#130,.T.);
#73=FACE_OUTER_BOUND('',#131,.T.);
#74=FACE_OUTER_BOUND('',#132,.T.);
#75=FACE_OUTER_BOUND('',#133,.T.);
#76=FACE_OUTER_BOUND('',#134,.T.);
#77=FACE_OUTER_BOUND('',#135,.T.);
#78=FACE_OUTER_BOUND('',#136,.T.);
#79=FACE_OUTER_BOUND('',#137,.T.);
#80=FACE_OUTER_BOUND('',#139,.T.);
#81=FACE_OUTER_BOUND('',#140,.T.);
#82=FACE_OUTER_BOUND('',#141,.T.);
#83=FACE_OUTER_BOUND('',#142,.T.);
#84=FACE_OUTER_BOUND('',#143,.T.);
#85=FACE_OUTER_BOUND('',#144,.T.);
#86=FACE_OUTER_BOUND('',#145,.T.);
#87=FACE_OUTER_BOUND('',#146,.T.);
#88=FACE_OUTER_BOUND('',#147,.T.);
#89=FACE_OUTER_BOUND('',#148,.T.);
#90=FACE_OUTER_BOUND('',#149,.T.);
#91=FACE_OUTER_BOUND('',#150,.T.);
#92=FACE_OUTER_BOUND('',#151,.T.);
#93=FACE_OUTER_BOUND('',#152,.T.);
#94=FACE_OUTER_BOUND('',#153,.T.);
#95=FACE_OUTER_BOUND('',#154,.T.);
#96=FACE_OUTER_BOUND('',#155,.T.);
#97=FACE_OUTER_BOUND('',#156,.T.);
#98=FACE_OUTER_BOUND('',#157,.T.);
#99=FACE_OUTER_BOUND('',#158,.T.);
#100=FACE_OUTER_BOUND('',#159,.T.);
#101=FACE_OUTER_BOUND('',#160,.T.);
#102=FACE_OUTER_BOUND('',#161,.T.);
#103=FACE_OUTER_BOUND('',#162,.T.);
#104=FACE_OUTER_BOUND('',#163,.T.);
#105=FACE_OUTER_BOUND('',#164,.T.);
#106=FACE_OUTER_BOUND('',#165,.T.);
#107=FACE_OUTER_BOUND('',#166,.T.);
#108=FACE_OUTER_BOUND('',#167,.T.);
#109=FACE_OUTER_BOUND('',#168,.T.);
#110=FACE_OUTER_BOUND('',#169,.T.);
#111=FACE_OUTER_BOUND('',#170,.T.);
#112=FACE_OUTER_BOUND('',#171,.T.);
#113=FACE_OUTER_BOUND('',#172,.T.);
#114=FACE_OUTER_BOUND('',#173,.T.);
#115=FACE_OUTER_BOUND('',#174,.T.);
#116=FACE_OUTER_BOUND('',#175,.T.);
#117=FACE_OUTER_BOUND('',#176,.T.);
#118=FACE_OUTER_BOUND('',#177,.T.);
#119=FACE_OUTER_BOUND('',#178,.T.);
#120=FACE_OUTER_BOUND('',#179,.T.);
#121=FACE_OUTER_BOUND('',#180,.T.);
#122=FACE_OUTER_BOUND('',#181,.T.);
#123=FACE_OUTER_BOUND('',#182,.T.);
#124=FACE_OUTER_BOUND('',#183,.T.);
#125=FACE_OUTER_BOUND('',#184,.T.);
#126=FACE_OUTER_BOUND('',#185,.T.);
#127=FACE_OUTER_BOUND('',#186,.T.);
#128=FACE_OUTER_BOUND('',#187,.T.);
#129=EDGE_LOOP('',(#669,#670,#671,#672));
#130=EDGE_LOOP('',(#673));
#131=EDGE_LOOP('',(#674,#675,#676,#677));
#132=EDGE_LOOP('',(#678,#679,#680,#681));
#133=EDGE_LOOP('',(#682,#683,#684,#685));
#134=EDGE_LOOP('',(#686,#687,#688,#689));
#135=EDGE_LOOP('',(#690,#691,#692,#693));
#136=EDGE_LOOP('',(#694,#695,#696,#697));
#137=EDGE_LOOP('',(#698,#699,#700,#701));
#138=EDGE_LOOP('',(#702));
#139=EDGE_LOOP('',(#703,#704,#705,#706));
#140=EDGE_LOOP('',(#707,#708,#709,#710));
#141=EDGE_LOOP('',(#711,#712,#713,#714));
#142=EDGE_LOOP('',(#715,#716,#717,#718));
#143=EDGE_LOOP('',(#719,#720,#721,#722));
#144=EDGE_LOOP('',(#723,#724,#725,#726));
#145=EDGE_LOOP('',(#727,#728,#729,#730));
#146=EDGE_LOOP('',(#731,#732,#733,#734,#735,#736,#737,#738,#739,#740,#741,
#742));
#147=EDGE_LOOP('',(#743,#744,#745,#746));
#148=EDGE_LOOP('',(#747,#748,#749,#750));
#149=EDGE_LOOP('',(#751,#752,#753,#754));
#150=EDGE_LOOP('',(#755,#756,#757,#758));
#151=EDGE_LOOP('',(#759,#760,#761,#762));
#152=EDGE_LOOP('',(#763,#764,#765,#766));
#153=EDGE_LOOP('',(#767,#768,#769,#770));
#154=EDGE_LOOP('',(#771,#772,#773,#774));
#155=EDGE_LOOP('',(#775,#776,#777,#778));
#156=EDGE_LOOP('',(#779,#780,#781,#782));
#157=EDGE_LOOP('',(#783,#784,#785,#786));
#158=EDGE_LOOP('',(#787,#788,#789,#790));
#159=EDGE_LOOP('',(#791,#792,#793,#794,#795,#796,#797,#798,#799,#800,#801,
#802));
#160=EDGE_LOOP('',(#803,#804,#805,#806,#807,#808,#809,#810,#811,#812,#813,
#814));
#161=EDGE_LOOP('',(#815,#816,#817,#818));
#162=EDGE_LOOP('',(#819,#820,#821,#822));
#163=EDGE_LOOP('',(#823,#824,#825,#826));
#164=EDGE_LOOP('',(#827,#828,#829,#830));
#165=EDGE_LOOP('',(#831,#832,#833,#834));
#166=EDGE_LOOP('',(#835,#836,#837,#838));
#167=EDGE_LOOP('',(#839,#840,#841,#842));
#168=EDGE_LOOP('',(#843,#844,#845,#846));
#169=EDGE_LOOP('',(#847,#848,#849,#850));
#170=EDGE_LOOP('',(#851,#852,#853,#854));
#171=EDGE_LOOP('',(#855,#856,#857,#858));
#172=EDGE_LOOP('',(#859,#860,#861,#862));
#173=EDGE_LOOP('',(#863,#864,#865,#866,#867,#868,#869,#870,#871,#872,#873,
#874));
#174=EDGE_LOOP('',(#875,#876,#877,#878,#879,#880,#881,#882,#883,#884,#885,
#886));
#175=EDGE_LOOP('',(#887,#888,#889,#890));
#176=EDGE_LOOP('',(#891,#892,#893,#894));
#177=EDGE_LOOP('',(#895,#896,#897,#898));
#178=EDGE_LOOP('',(#899,#900,#901,#902));
#179=EDGE_LOOP('',(#903,#904,#905,#906));
#180=EDGE_LOOP('',(#907,#908,#909,#910));
#181=EDGE_LOOP('',(#911,#912,#913,#914));
#182=EDGE_LOOP('',(#915,#916,#917,#918));
#183=EDGE_LOOP('',(#919,#920,#921,#922));
#184=EDGE_LOOP('',(#923,#924,#925,#926));
#185=EDGE_LOOP('',(#927,#928,#929,#930));
#186=EDGE_LOOP('',(#931,#932,#933,#934));
#187=EDGE_LOOP('',(#935,#936,#937,#938,#939,#940,#941,#942,#943,#944,#945,
#946));
#188=LINE('',#1414,#301);
#189=LINE('',#1420,#302);
#190=LINE('',#1422,#303);
#191=LINE('',#1424,#304);
#192=LINE('',#1425,#305);
#193=LINE('',#1428,#306);
#194=LINE('',#1430,#307);
#195=LINE('',#1431,#308);
#196=LINE('',#1434,#309);
#197=LINE('',#1436,#310);
#198=LINE('',#1437,#311);
#199=LINE('',#1439,#312);
#200=LINE('',#1440,#313);
#201=LINE('',#1443,#314);
#202=LINE('',#1445,#315);
#203=LINE('',#1446,#316);
#204=LINE('',#1449,#317);
#205=LINE('',#1450,#318);
#206=LINE('',#1454,#319);
#207=LINE('',#1456,#320);
#208=LINE('',#1458,#321);
#209=LINE('',#1459,#322);
#210=LINE('',#1462,#323);
#211=LINE('',#1463,#324);
#212=LINE('',#1465,#325);
#213=LINE('',#1467,#326);
#214=LINE('',#1468,#327);
#215=LINE('',#1470,#328);
#216=LINE('',#1472,#329);
#217=LINE('',#1480,#330);
#218=LINE('',#1482,#331);
#219=LINE('',#1484,#332);
#220=LINE('',#1488,#333);
#221=LINE('',#1492,#334);
#222=LINE('',#1494,#335);
#223=LINE('',#1496,#336);
#224=LINE('',#1499,#337);
#225=LINE('',#1502,#338);
#226=LINE('',#1504,#339);
#227=LINE('',#1505,#340);
#228=LINE('',#1508,#341);
#229=LINE('',#1509,#342);
#230=LINE('',#1512,#343);
#231=LINE('',#1513,#344);
#232=LINE('',#1517,#345);
#233=LINE('',#1520,#346);
#234=LINE('',#1521,#347);
#235=LINE('',#1525,#348);
#236=LINE('',#1528,#349);
#237=LINE('',#1529,#350);
#238=LINE('',#1532,#351);
#239=LINE('',#1533,#352);
#240=LINE('',#1536,#353);
#241=LINE('',#1537,#354);
#242=LINE('',#1541,#355);
#243=LINE('',#1544,#356);
#244=LINE('',#1545,#357);
#245=LINE('',#1554,#358);
#246=LINE('',#1556,#359);
#247=LINE('',#1558,#360);
#248=LINE('',#1562,#361);
#249=LINE('',#1566,#362);
#250=LINE('',#1568,#363);
#251=LINE('',#1570,#364);
#252=LINE('',#1573,#365);
#253=LINE('',#1576,#366);
#254=LINE('',#1578,#367);
#255=LINE('',#1579,#368);
#256=LINE('',#1582,#369);
#257=LINE('',#1583,#370);
#258=LINE('',#1586,#371);
#259=LINE('',#1587,#372);
#260=LINE('',#1591,#373);
#261=LINE('',#1594,#374);
#262=LINE('',#1595,#375);
#263=LINE('',#1599,#376);
#264=LINE('',#1602,#377);
#265=LINE('',#1603,#378);
#266=LINE('',#1606,#379);
#267=LINE('',#1607,#380);
#268=LINE('',#1610,#381);
#269=LINE('',#1611,#382);
#270=LINE('',#1615,#383);
#271=LINE('',#1618,#384);
#272=LINE('',#1619,#385);
#273=LINE('',#1628,#386);
#274=LINE('',#1630,#387);
#275=LINE('',#1632,#388);
#276=LINE('',#1636,#389);
#277=LINE('',#1640,#390);
#278=LINE('',#1642,#391);
#279=LINE('',#1644,#392);
#280=LINE('',#1647,#393);
#281=LINE('',#1650,#394);
#282=LINE('',#1652,#395);
#283=LINE('',#1653,#396);
#284=LINE('',#1656,#397);
#285=LINE('',#1657,#398);
#286=LINE('',#1660,#399);
#287=LINE('',#1661,#400);
#288=LINE('',#1665,#401);
#289=LINE('',#1668,#402);
#290=LINE('',#1669,#403);
#291=LINE('',#1673,#404);
#292=LINE('',#1676,#405);
#293=LINE('',#1677,#406);
#294=LINE('',#1680,#407);
#295=LINE('',#1681,#408);
#296=LINE('',#1684,#409);
#297=LINE('',#1685,#410);
#298=LINE('',#1689,#411);
#299=LINE('',#1692,#412);
#300=LINE('',#1693,#413);
#301=VECTOR('',#1129,0.07);
#302=VECTOR('',#1136,10.);
#303=VECTOR('',#1137,10.);
#304=VECTOR('',#1138,10.);
#305=VECTOR('',#1139,10.);
#306=VECTOR('',#1142,10.);
#307=VECTOR('',#1143,10.);
#308=VECTOR('',#1144,10.);
#309=VECTOR('',#1147,10.);
#310=VECTOR('',#1148,10.);
#311=VECTOR('',#1149,10.);
#312=VECTOR('',#1152,10.);
#313=VECTOR('',#1153,10.);
#314=VECTOR('',#1156,10.);
#315=VECTOR('',#1157,10.);
#316=VECTOR('',#1158,10.);
#317=VECTOR('',#1161,10.);
#318=VECTOR('',#1162,10.);
#319=VECTOR('',#1167,10.);
#320=VECTOR('',#1168,10.);
#321=VECTOR('',#1169,10.);
#322=VECTOR('',#1170,10.);
#323=VECTOR('',#1173,10.);
#324=VECTOR('',#1174,10.);
#325=VECTOR('',#1177,10.);
#326=VECTOR('',#1178,10.);
#327=VECTOR('',#1179,10.);
#328=VECTOR('',#1182,10.);
#329=VECTOR('',#1185,10.);
#330=VECTOR('',#1194,10.);
#331=VECTOR('',#1195,10.);
#332=VECTOR('',#1196,10.);
#333=VECTOR('',#1199,10.);
#334=VECTOR('',#1202,10.);
#335=VECTOR('',#1203,10.);
#336=VECTOR('',#1204,10.);
#337=VECTOR('',#1207,10.);
#338=VECTOR('',#1210,10.);
#339=VECTOR('',#1211,10.);
#340=VECTOR('',#1212,10.);
#341=VECTOR('',#1215,10.);
#342=VECTOR('',#1216,10.);
#343=VECTOR('',#1219,10.);
#344=VECTOR('',#1220,10.);
#345=VECTOR('',#1225,10.);
#346=VECTOR('',#1228,10.);
#347=VECTOR('',#1229,10.);
#348=VECTOR('',#1234,10.);
#349=VECTOR('',#1237,10.);
#350=VECTOR('',#1238,10.);
#351=VECTOR('',#1241,10.);
#352=VECTOR('',#1242,10.);
#353=VECTOR('',#1245,10.);
#354=VECTOR('',#1246,10.);
#355=VECTOR('',#1251,10.);
#356=VECTOR('',#1254,10.);
#357=VECTOR('',#1255,10.);
#358=VECTOR('',#1266,10.);
#359=VECTOR('',#1267,10.);
#360=VECTOR('',#1268,10.);
#361=VECTOR('',#1271,10.);
#362=VECTOR('',#1274,10.);
#363=VECTOR('',#1275,10.);
#364=VECTOR('',#1276,10.);
#365=VECTOR('',#1279,10.);
#366=VECTOR('',#1282,10.);
#367=VECTOR('',#1283,10.);
#368=VECTOR('',#1284,10.);
#369=VECTOR('',#1287,10.);
#370=VECTOR('',#1288,10.);
#371=VECTOR('',#1291,10.);
#372=VECTOR('',#1292,10.);
#373=VECTOR('',#1297,10.);
#374=VECTOR('',#1300,10.);
#375=VECTOR('',#1301,10.);
#376=VECTOR('',#1306,10.);
#377=VECTOR('',#1309,10.);
#378=VECTOR('',#1310,10.);
#379=VECTOR('',#1313,10.);
#380=VECTOR('',#1314,10.);
#381=VECTOR('',#1317,10.);
#382=VECTOR('',#1318,10.);
#383=VECTOR('',#1323,10.);
#384=VECTOR('',#1326,10.);
#385=VECTOR('',#1327,10.);
#386=VECTOR('',#1338,10.);
#387=VECTOR('',#1339,10.);
#388=VECTOR('',#1340,10.);
#389=VECTOR('',#1343,10.);
#390=VECTOR('',#1346,10.);
#391=VECTOR('',#1347,10.);
#392=VECTOR('',#1348,10.);
#393=VECTOR('',#1351,10.);
#394=VECTOR('',#1354,10.);
#395=VECTOR('',#1355,10.);
#396=VECTOR('',#1356,10.);
#397=VECTOR('',#1359,10.);
#398=VECTOR('',#1360,10.);
#399=VECTOR('',#1363,10.);
#400=VECTOR('',#1364,10.);
#401=VECTOR('',#1369,10.);
#402=VECTOR('',#1372,10.);
#403=VECTOR('',#1373,10.);
#404=VECTOR('',#1378,10.);
#405=VECTOR('',#1381,10.);
#406=VECTOR('',#1382,10.);
#407=VECTOR('',#1385,10.);
#408=VECTOR('',#1386,10.);
#409=VECTOR('',#1389,10.);
#410=VECTOR('',#1390,10.);
#411=VECTOR('',#1395,10.);
#412=VECTOR('',#1398,10.);
#413=VECTOR('',#1399,10.);
#414=CIRCLE('',#1037,0.07);
#415=CIRCLE('',#1038,0.07);
#416=CIRCLE('',#1055,0.13);
#417=CIRCLE('',#1056,0.0325);
#418=CIRCLE('',#1057,0.13);
#419=CIRCLE('',#1058,0.0325);
#420=CIRCLE('',#1063,0.0325);
#421=CIRCLE('',#1066,0.13);
#422=CIRCLE('',#1071,0.0325);
#423=CIRCLE('',#1074,0.13);
#424=CIRCLE('',#1077,0.13);
#425=CIRCLE('',#1078,0.0325);
#426=CIRCLE('',#1079,0.13);
#427=CIRCLE('',#1080,0.0325);
#428=CIRCLE('',#1085,0.0325);
#429=CIRCLE('',#1088,0.13);
#430=CIRCLE('',#1093,0.0325);
#431=CIRCLE('',#1096,0.13);
#432=CIRCLE('',#1099,0.13);
#433=CIRCLE('',#1100,0.0325);
#434=CIRCLE('',#1101,0.13);
#435=CIRCLE('',#1102,0.0325);
#436=CIRCLE('',#1107,0.0325);
#437=CIRCLE('',#1110,0.13);
#438=CIRCLE('',#1115,0.0325);
#439=CIRCLE('',#1118,0.13);
#440=VERTEX_POINT('',#1411);
#441=VERTEX_POINT('',#1413);
#442=VERTEX_POINT('',#1418);
#443=VERTEX_POINT('',#1419);
#444=VERTEX_POINT('',#1421);
#445=VERTEX_POINT('',#1423);
#446=VERTEX_POINT('',#1427);
#447=VERTEX_POINT('',#1429);
#448=VERTEX_POINT('',#1433);
#449=VERTEX_POINT('',#1435);
#450=VERTEX_POINT('',#1442);
#451=VERTEX_POINT('',#1444);
#452=VERTEX_POINT('',#1448);
#453=VERTEX_POINT('',#1453);
#454=VERTEX_POINT('',#1455);
#455=VERTEX_POINT('',#1457);
#456=VERTEX_POINT('',#1461);
#457=VERTEX_POINT('',#1466);
#458=VERTEX_POINT('',#1476);
#459=VERTEX_POINT('',#1477);
#460=VERTEX_POINT('',#1479);
#461=VERTEX_POINT('',#1481);
#462=VERTEX_POINT('',#1483);
#463=VERTEX_POINT('',#1485);
#464=VERTEX_POINT('',#1487);
#465=VERTEX_POINT('',#1489);
#466=VERTEX_POINT('',#1491);
#467=VERTEX_POINT('',#1493);
#468=VERTEX_POINT('',#1495);
#469=VERTEX_POINT('',#1497);
#470=VERTEX_POINT('',#1501);
#471=VERTEX_POINT('',#1503);
#472=VERTEX_POINT('',#1507);
#473=VERTEX_POINT('',#1511);
#474=VERTEX_POINT('',#1515);
#475=VERTEX_POINT('',#1519);
#476=VERTEX_POINT('',#1523);
#477=VERTEX_POINT('',#1527);
#478=VERTEX_POINT('',#1531);
#479=VERTEX_POINT('',#1535);
#480=VERTEX_POINT('',#1539);
#481=VERTEX_POINT('',#1543);
#482=VERTEX_POINT('',#1550);
#483=VERTEX_POINT('',#1551);
#484=VERTEX_POINT('',#1553);
#485=VERTEX_POINT('',#1555);
#486=VERTEX_POINT('',#1557);
#487=VERTEX_POINT('',#1559);
#488=VERTEX_POINT('',#1561);
#489=VERTEX_POINT('',#1563);
#490=VERTEX_POINT('',#1565);
#491=VERTEX_POINT('',#1567);
#492=VERTEX_POINT('',#1569);
#493=VERTEX_POINT('',#1571);
#494=VERTEX_POINT('',#1575);
#495=VERTEX_POINT('',#1577);
#496=VERTEX_POINT('',#1581);
#497=VERTEX_POINT('',#1585);
#498=VERTEX_POINT('',#1589);
#499=VERTEX_POINT('',#1593);
#500=VERTEX_POINT('',#1597);
#501=VERTEX_POINT('',#1601);
#502=VERTEX_POINT('',#1605);
#503=VERTEX_POINT('',#1609);
#504=VERTEX_POINT('',#1613);
#505=VERTEX_POINT('',#1617);
#506=VERTEX_POINT('',#1624);
#507=VERTEX_POINT('',#1625);
#508=VERTEX_POINT('',#1627);
#509=VERTEX_POINT('',#1629);
#510=VERTEX_POINT('',#1631);
#511=VERTEX_POINT('',#1633);
#512=VERTEX_POINT('',#1635);
#513=VERTEX_POINT('',#1637);
#514=VERTEX_POINT('',#1639);
#515=VERTEX_POINT('',#1641);
#516=VERTEX_POINT('',#1643);
#517=VERTEX_POINT('',#1645);
#518=VERTEX_POINT('',#1649);
#519=VERTEX_POINT('',#1651);
#520=VERTEX_POINT('',#1655);
#521=VERTEX_POINT('',#1659);
#522=VERTEX_POINT('',#1663);
#523=VERTEX_POINT('',#1667);
#524=VERTEX_POINT('',#1671);
#525=VERTEX_POINT('',#1675);
#526=VERTEX_POINT('',#1679);
#527=VERTEX_POINT('',#1683);
#528=VERTEX_POINT('',#1687);
#529=VERTEX_POINT('',#1691);
#530=EDGE_CURVE('',#440,#440,#414,.T.);
#531=EDGE_CURVE('',#440,#441,#188,.T.);
#532=EDGE_CURVE('',#441,#441,#415,.T.);
#533=EDGE_CURVE('',#442,#443,#189,.T.);
#534=EDGE_CURVE('',#443,#444,#190,.T.);
#535=EDGE_CURVE('',#444,#445,#191,.T.);
#536=EDGE_CURVE('',#442,#445,#192,.T.);
#537=EDGE_CURVE('',#443,#446,#193,.T.);
#538=EDGE_CURVE('',#446,#447,#194,.T.);
#539=EDGE_CURVE('',#447,#444,#195,.T.);
#540=EDGE_CURVE('',#446,#448,#196,.T.);
#541=EDGE_CURVE('',#448,#449,#197,.T.);
#542=EDGE_CURVE('',#449,#447,#198,.T.);
#543=EDGE_CURVE('',#445,#449,#199,.T.);
#544=EDGE_CURVE('',#448,#442,#200,.T.);
#545=EDGE_CURVE('',#450,#445,#201,.T.);
#546=EDGE_CURVE('',#451,#450,#202,.T.);
#547=EDGE_CURVE('',#451,#449,#203,.T.);
#548=EDGE_CURVE('',#452,#444,#204,.T.);
#549=EDGE_CURVE('',#450,#452,#205,.T.);
#550=EDGE_CURVE('',#453,#451,#206,.T.);
#551=EDGE_CURVE('',#451,#454,#207,.T.);
#552=EDGE_CURVE('',#454,#455,#208,.T.);
#553=EDGE_CURVE('',#455,#453,#209,.T.);
#554=EDGE_CURVE('',#456,#454,#210,.T.);
#555=EDGE_CURVE('',#456,#450,#211,.T.);
#556=EDGE_CURVE('',#452,#453,#212,.T.);
#557=EDGE_CURVE('',#455,#457,#213,.T.);
#558=EDGE_CURVE('',#457,#452,#214,.T.);
#559=EDGE_CURVE('',#457,#456,#215,.T.);
#560=EDGE_CURVE('',#453,#447,#216,.T.);
#561=EDGE_CURVE('',#458,#459,#416,.T.);
#562=EDGE_CURVE('',#459,#460,#217,.T.);
#563=EDGE_CURVE('',#460,#461,#218,.T.);
#564=EDGE_CURVE('',#461,#462,#219,.T.);
#565=EDGE_CURVE('',#462,#463,#417,.T.);
#566=EDGE_CURVE('',#463,#464,#220,.T.);
#567=EDGE_CURVE('',#464,#465,#418,.T.);
#568=EDGE_CURVE('',#465,#466,#221,.T.);
#569=EDGE_CURVE('',#466,#467,#222,.T.);
#570=EDGE_CURVE('',#467,#468,#223,.T.);
#571=EDGE_CURVE('',#468,#469,#419,.T.);
#572=EDGE_CURVE('',#469,#458,#224,.T.);
#573=EDGE_CURVE('',#470,#459,#225,.T.);
#574=EDGE_CURVE('',#471,#470,#226,.T.);
#575=EDGE_CURVE('',#471,#460,#227,.T.);
#576=EDGE_CURVE('',#472,#471,#228,.T.);
#577=EDGE_CURVE('',#472,#461,#229,.T.);
#578=EDGE_CURVE('',#473,#472,#230,.T.);
#579=EDGE_CURVE('',#473,#462,#231,.T.);
#580=EDGE_CURVE('',#474,#473,#420,.T.);
#581=EDGE_CURVE('',#474,#463,#232,.T.);
#582=EDGE_CURVE('',#475,#474,#233,.T.);
#583=EDGE_CURVE('',#475,#464,#234,.T.);
#584=EDGE_CURVE('',#476,#475,#421,.T.);
#585=EDGE_CURVE('',#476,#465,#235,.T.);
#586=EDGE_CURVE('',#477,#476,#236,.T.);
#587=EDGE_CURVE('',#477,#466,#237,.T.);
#588=EDGE_CURVE('',#478,#477,#238,.T.);
#589=EDGE_CURVE('',#478,#467,#239,.T.);
#590=EDGE_CURVE('',#479,#478,#240,.T.);
#591=EDGE_CURVE('',#479,#468,#241,.T.);
#592=EDGE_CURVE('',#480,#479,#422,.T.);
#593=EDGE_CURVE('',#480,#469,#242,.T.);
#594=EDGE_CURVE('',#481,#480,#243,.T.);
#595=EDGE_CURVE('',#458,#481,#244,.T.);
#596=EDGE_CURVE('',#470,#481,#423,.T.);
#597=EDGE_CURVE('',#482,#483,#424,.T.);
#598=EDGE_CURVE('',#483,#484,#245,.T.);
#599=EDGE_CURVE('',#484,#485,#246,.T.);
#600=EDGE_CURVE('',#485,#486,#247,.T.);
#601=EDGE_CURVE('',#486,#487,#425,.T.);
#602=EDGE_CURVE('',#487,#488,#248,.T.);
#603=EDGE_CURVE('',#488,#489,#426,.T.);
#604=EDGE_CURVE('',#489,#490,#249,.T.);
#605=EDGE_CURVE('',#490,#491,#250,.T.);
#606=EDGE_CURVE('',#491,#492,#251,.T.);
#607=EDGE_CURVE('',#492,#493,#427,.T.);
#608=EDGE_CURVE('',#493,#482,#252,.T.);
#609=EDGE_CURVE('',#494,#483,#253,.T.);
#610=EDGE_CURVE('',#495,#494,#254,.T.);
#611=EDGE_CURVE('',#495,#484,#255,.T.);
#612=EDGE_CURVE('',#496,#495,#256,.T.);
#613=EDGE_CURVE('',#496,#485,#257,.T.);
#614=EDGE_CURVE('',#497,#496,#258,.T.);
#615=EDGE_CURVE('',#497,#486,#259,.T.);
#616=EDGE_CURVE('',#498,#497,#428,.T.);
#617=EDGE_CURVE('',#498,#487,#260,.T.);
#618=EDGE_CURVE('',#499,#498,#261,.T.);
#619=EDGE_CURVE('',#499,#488,#262,.T.);
#620=EDGE_CURVE('',#500,#499,#429,.T.);
#621=EDGE_CURVE('',#500,#489,#263,.T.);
#622=EDGE_CURVE('',#501,#500,#264,.T.);
#623=EDGE_CURVE('',#501,#490,#265,.T.);
#624=EDGE_CURVE('',#502,#501,#266,.T.);
#625=EDGE_CURVE('',#502,#491,#267,.T.);
#626=EDGE_CURVE('',#503,#502,#268,.T.);
#627=EDGE_CURVE('',#503,#492,#269,.T.);
#628=EDGE_CURVE('',#504,#503,#430,.T.);
#629=EDGE_CURVE('',#504,#493,#270,.T.);
#630=EDGE_CURVE('',#505,#504,#271,.T.);
#631=EDGE_CURVE('',#482,#505,#272,.T.);
#632=EDGE_CURVE('',#494,#505,#431,.T.);
#633=EDGE_CURVE('',#506,#507,#432,.T.);
#634=EDGE_CURVE('',#507,#508,#273,.T.);
#635=EDGE_CURVE('',#508,#509,#274,.T.);
#636=EDGE_CURVE('',#509,#510,#275,.T.);
#637=EDGE_CURVE('',#510,#511,#433,.T.);
#638=EDGE_CURVE('',#511,#512,#276,.T.);
#639=EDGE_CURVE('',#512,#513,#434,.T.);
#640=EDGE_CURVE('',#513,#514,#277,.T.);
#641=EDGE_CURVE('',#514,#515,#278,.T.);
#642=EDGE_CURVE('',#515,#516,#279,.T.);
#643=EDGE_CURVE('',#516,#517,#435,.T.);
#644=EDGE_CURVE('',#517,#506,#280,.T.);
#645=EDGE_CURVE('',#518,#507,#281,.T.);
#646=EDGE_CURVE('',#519,#518,#282,.T.);
#647=EDGE_CURVE('',#519,#508,#283,.T.);
#648=EDGE_CURVE('',#520,#519,#284,.T.);
#649=EDGE_CURVE('',#520,#509,#285,.T.);
#650=EDGE_CURVE('',#521,#520,#286,.T.);
#651=EDGE_CURVE('',#521,#510,#287,.T.);
#652=EDGE_CURVE('',#522,#521,#436,.T.);
#653=EDGE_CURVE('',#522,#511,#288,.T.);
#654=EDGE_CURVE('',#523,#522,#289,.T.);
#655=EDGE_CURVE('',#523,#512,#290,.T.);
#656=EDGE_CURVE('',#524,#523,#437,.T.);
#657=EDGE_CURVE('',#524,#513,#291,.T.);
#658=EDGE_CURVE('',#525,#524,#292,.T.);
#659=EDGE_CURVE('',#525,#514,#293,.T.);
#660=EDGE_CURVE('',#526,#525,#294,.T.);
#661=EDGE_CURVE('',#526,#515,#295,.T.);
#662=EDGE_CURVE('',#527,#526,#296,.T.);
#663=EDGE_CURVE('',#527,#516,#297,.T.);
#664=EDGE_CURVE('',#528,#527,#438,.T.);
#665=EDGE_CURVE('',#528,#517,#298,.T.);
#666=EDGE_CURVE('',#529,#528,#299,.T.);
#667=EDGE_CURVE('',#506,#529,#300,.T.);
#668=EDGE_CURVE('',#518,#529,#439,.T.);
#669=ORIENTED_EDGE('',*,*,#530,.F.);
#670=ORIENTED_EDGE('',*,*,#531,.T.);
#671=ORIENTED_EDGE('',*,*,#532,.T.);
#672=ORIENTED_EDGE('',*,*,#531,.F.);
#673=ORIENTED_EDGE('',*,*,#532,.F.);
#674=ORIENTED_EDGE('',*,*,#533,.T.);
#675=ORIENTED_EDGE('',*,*,#534,.T.);
#676=ORIENTED_EDGE('',*,*,#535,.T.);
#677=ORIENTED_EDGE('',*,*,#536,.F.);
#678=ORIENTED_EDGE('',*,*,#537,.T.);
#679=ORIENTED_EDGE('',*,*,#538,.T.);
#680=ORIENTED_EDGE('',*,*,#539,.T.);
#681=ORIENTED_EDGE('',*,*,#534,.F.);
#682=ORIENTED_EDGE('',*,*,#540,.T.);
#683=ORIENTED_EDGE('',*,*,#541,.T.);
#684=ORIENTED_EDGE('',*,*,#542,.T.);
#685=ORIENTED_EDGE('',*,*,#538,.F.);
#686=ORIENTED_EDGE('',*,*,#543,.T.);
#687=ORIENTED_EDGE('',*,*,#541,.F.);
#688=ORIENTED_EDGE('',*,*,#544,.T.);
#689=ORIENTED_EDGE('',*,*,#536,.T.);
#690=ORIENTED_EDGE('',*,*,#543,.F.);
#691=ORIENTED_EDGE('',*,*,#545,.F.);
#692=ORIENTED_EDGE('',*,*,#546,.F.);
#693=ORIENTED_EDGE('',*,*,#547,.T.);
#694=ORIENTED_EDGE('',*,*,#535,.F.);
#695=ORIENTED_EDGE('',*,*,#548,.F.);
#696=ORIENTED_EDGE('',*,*,#549,.F.);
#697=ORIENTED_EDGE('',*,*,#545,.T.);
#698=ORIENTED_EDGE('',*,*,#533,.F.);
#699=ORIENTED_EDGE('',*,*,#544,.F.);
#700=ORIENTED_EDGE('',*,*,#540,.F.);
#701=ORIENTED_EDGE('',*,*,#537,.F.);
#702=ORIENTED_EDGE('',*,*,#530,.T.);
#703=ORIENTED_EDGE('',*,*,#550,.T.);
#704=ORIENTED_EDGE('',*,*,#551,.T.);
#705=ORIENTED_EDGE('',*,*,#552,.T.);
#706=ORIENTED_EDGE('',*,*,#553,.T.);
#707=ORIENTED_EDGE('',*,*,#554,.T.);
#708=ORIENTED_EDGE('',*,*,#551,.F.);
#709=ORIENTED_EDGE('',*,*,#546,.T.);
#710=ORIENTED_EDGE('',*,*,#555,.F.);
#711=ORIENTED_EDGE('',*,*,#556,.T.);
#712=ORIENTED_EDGE('',*,*,#553,.F.);
#713=ORIENTED_EDGE('',*,*,#557,.T.);
#714=ORIENTED_EDGE('',*,*,#558,.T.);
#715=ORIENTED_EDGE('',*,*,#549,.T.);
#716=ORIENTED_EDGE('',*,*,#558,.F.);
#717=ORIENTED_EDGE('',*,*,#559,.T.);
#718=ORIENTED_EDGE('',*,*,#555,.T.);
#719=ORIENTED_EDGE('',*,*,#542,.F.);
#720=ORIENTED_EDGE('',*,*,#547,.F.);
#721=ORIENTED_EDGE('',*,*,#550,.F.);
#722=ORIENTED_EDGE('',*,*,#560,.T.);
#723=ORIENTED_EDGE('',*,*,#552,.F.);
#724=ORIENTED_EDGE('',*,*,#554,.F.);
#725=ORIENTED_EDGE('',*,*,#559,.F.);
#726=ORIENTED_EDGE('',*,*,#557,.F.);
#727=ORIENTED_EDGE('',*,*,#539,.F.);
#728=ORIENTED_EDGE('',*,*,#560,.F.);
#729=ORIENTED_EDGE('',*,*,#556,.F.);
#730=ORIENTED_EDGE('',*,*,#548,.T.);
#731=ORIENTED_EDGE('',*,*,#561,.T.);
#732=ORIENTED_EDGE('',*,*,#562,.T.);
#733=ORIENTED_EDGE('',*,*,#563,.T.);
#734=ORIENTED_EDGE('',*,*,#564,.T.);
#735=ORIENTED_EDGE('',*,*,#565,.T.);
#736=ORIENTED_EDGE('',*,*,#566,.T.);
#737=ORIENTED_EDGE('',*,*,#567,.T.);
#738=ORIENTED_EDGE('',*,*,#568,.T.);
#739=ORIENTED_EDGE('',*,*,#569,.T.);
#740=ORIENTED_EDGE('',*,*,#570,.T.);
#741=ORIENTED_EDGE('',*,*,#571,.T.);
#742=ORIENTED_EDGE('',*,*,#572,.T.);
#743=ORIENTED_EDGE('',*,*,#573,.F.);
#744=ORIENTED_EDGE('',*,*,#574,.F.);
#745=ORIENTED_EDGE('',*,*,#575,.T.);
#746=ORIENTED_EDGE('',*,*,#562,.F.);
#747=ORIENTED_EDGE('',*,*,#575,.F.);
#748=ORIENTED_EDGE('',*,*,#576,.F.);
#749=ORIENTED_EDGE('',*,*,#577,.T.);
#750=ORIENTED_EDGE('',*,*,#563,.F.);
#751=ORIENTED_EDGE('',*,*,#577,.F.);
#752=ORIENTED_EDGE('',*,*,#578,.F.);
#753=ORIENTED_EDGE('',*,*,#579,.T.);
#754=ORIENTED_EDGE('',*,*,#564,.F.);
#755=ORIENTED_EDGE('',*,*,#579,.F.);
#756=ORIENTED_EDGE('',*,*,#580,.F.);
#757=ORIENTED_EDGE('',*,*,#581,.T.);
#758=ORIENTED_EDGE('',*,*,#565,.F.);
#759=ORIENTED_EDGE('',*,*,#581,.F.);
#760=ORIENTED_EDGE('',*,*,#582,.F.);
#761=ORIENTED_EDGE('',*,*,#583,.T.);
#762=ORIENTED_EDGE('',*,*,#566,.F.);
#763=ORIENTED_EDGE('',*,*,#583,.F.);
#764=ORIENTED_EDGE('',*,*,#584,.F.);
#765=ORIENTED_EDGE('',*,*,#585,.T.);
#766=ORIENTED_EDGE('',*,*,#567,.F.);
#767=ORIENTED_EDGE('',*,*,#585,.F.);
#768=ORIENTED_EDGE('',*,*,#586,.F.);
#769=ORIENTED_EDGE('',*,*,#587,.T.);
#770=ORIENTED_EDGE('',*,*,#568,.F.);
#771=ORIENTED_EDGE('',*,*,#587,.F.);
#772=ORIENTED_EDGE('',*,*,#588,.F.);
#773=ORIENTED_EDGE('',*,*,#589,.T.);
#774=ORIENTED_EDGE('',*,*,#569,.F.);
#775=ORIENTED_EDGE('',*,*,#589,.F.);
#776=ORIENTED_EDGE('',*,*,#590,.F.);
#777=ORIENTED_EDGE('',*,*,#591,.T.);
#778=ORIENTED_EDGE('',*,*,#570,.F.);
#779=ORIENTED_EDGE('',*,*,#591,.F.);
#780=ORIENTED_EDGE('',*,*,#592,.F.);
#781=ORIENTED_EDGE('',*,*,#593,.T.);
#782=ORIENTED_EDGE('',*,*,#571,.F.);
#783=ORIENTED_EDGE('',*,*,#593,.F.);
#784=ORIENTED_EDGE('',*,*,#594,.F.);
#785=ORIENTED_EDGE('',*,*,#595,.F.);
#786=ORIENTED_EDGE('',*,*,#572,.F.);
#787=ORIENTED_EDGE('',*,*,#595,.T.);
#788=ORIENTED_EDGE('',*,*,#596,.F.);
#789=ORIENTED_EDGE('',*,*,#573,.T.);
#790=ORIENTED_EDGE('',*,*,#561,.F.);
#791=ORIENTED_EDGE('',*,*,#596,.T.);
#792=ORIENTED_EDGE('',*,*,#594,.T.);
#793=ORIENTED_EDGE('',*,*,#592,.T.);
#794=ORIENTED_EDGE('',*,*,#590,.T.);
#795=ORIENTED_EDGE('',*,*,#588,.T.);
#796=ORIENTED_EDGE('',*,*,#586,.T.);
#797=ORIENTED_EDGE('',*,*,#584,.T.);
#798=ORIENTED_EDGE('',*,*,#582,.T.);
#799=ORIENTED_EDGE('',*,*,#580,.T.);
#800=ORIENTED_EDGE('',*,*,#578,.T.);
#801=ORIENTED_EDGE('',*,*,#576,.T.);
#802=ORIENTED_EDGE('',*,*,#574,.T.);
#803=ORIENTED_EDGE('',*,*,#597,.T.);
#804=ORIENTED_EDGE('',*,*,#598,.T.);
#805=ORIENTED_EDGE('',*,*,#599,.T.);
#806=ORIENTED_EDGE('',*,*,#600,.T.);
#807=ORIENTED_EDGE('',*,*,#601,.T.);
#808=ORIENTED_EDGE('',*,*,#602,.T.);
#809=ORIENTED_EDGE('',*,*,#603,.T.);
#810=ORIENTED_EDGE('',*,*,#604,.T.);
#811=ORIENTED_EDGE('',*,*,#605,.T.);
#812=ORIENTED_EDGE('',*,*,#606,.T.);
#813=ORIENTED_EDGE('',*,*,#607,.T.);
#814=ORIENTED_EDGE('',*,*,#608,.T.);
#815=ORIENTED_EDGE('',*,*,#609,.F.);
#816=ORIENTED_EDGE('',*,*,#610,.F.);
#817=ORIENTED_EDGE('',*,*,#611,.T.);
#818=ORIENTED_EDGE('',*,*,#598,.F.);
#819=ORIENTED_EDGE('',*,*,#611,.F.);
#820=ORIENTED_EDGE('',*,*,#612,.F.);
#821=ORIENTED_EDGE('',*,*,#613,.T.);
#822=ORIENTED_EDGE('',*,*,#599,.F.);
#823=ORIENTED_EDGE('',*,*,#613,.F.);
#824=ORIENTED_EDGE('',*,*,#614,.F.);
#825=ORIENTED_EDGE('',*,*,#615,.T.);
#826=ORIENTED_EDGE('',*,*,#600,.F.);
#827=ORIENTED_EDGE('',*,*,#615,.F.);
#828=ORIENTED_EDGE('',*,*,#616,.F.);
#829=ORIENTED_EDGE('',*,*,#617,.T.);
#830=ORIENTED_EDGE('',*,*,#601,.F.);
#831=ORIENTED_EDGE('',*,*,#617,.F.);
#832=ORIENTED_EDGE('',*,*,#618,.F.);
#833=ORIENTED_EDGE('',*,*,#619,.T.);
#834=ORIENTED_EDGE('',*,*,#602,.F.);
#835=ORIENTED_EDGE('',*,*,#619,.F.);
#836=ORIENTED_EDGE('',*,*,#620,.F.);
#837=ORIENTED_EDGE('',*,*,#621,.T.);
#838=ORIENTED_EDGE('',*,*,#603,.F.);
#839=ORIENTED_EDGE('',*,*,#621,.F.);
#840=ORIENTED_EDGE('',*,*,#622,.F.);
#841=ORIENTED_EDGE('',*,*,#623,.T.);
#842=ORIENTED_EDGE('',*,*,#604,.F.);
#843=ORIENTED_EDGE('',*,*,#623,.F.);
#844=ORIENTED_EDGE('',*,*,#624,.F.);
#845=ORIENTED_EDGE('',*,*,#625,.T.);
#846=ORIENTED_EDGE('',*,*,#605,.F.);
#847=ORIENTED_EDGE('',*,*,#625,.F.);
#848=ORIENTED_EDGE('',*,*,#626,.F.);
#849=ORIENTED_EDGE('',*,*,#627,.T.);
#850=ORIENTED_EDGE('',*,*,#606,.F.);
#851=ORIENTED_EDGE('',*,*,#627,.F.);
#852=ORIENTED_EDGE('',*,*,#628,.F.);
#853=ORIENTED_EDGE('',*,*,#629,.T.);
#854=ORIENTED_EDGE('',*,*,#607,.F.);
#855=ORIENTED_EDGE('',*,*,#629,.F.);
#856=ORIENTED_EDGE('',*,*,#630,.F.);
#857=ORIENTED_EDGE('',*,*,#631,.F.);
#858=ORIENTED_EDGE('',*,*,#608,.F.);
#859=ORIENTED_EDGE('',*,*,#631,.T.);
#860=ORIENTED_EDGE('',*,*,#632,.F.);
#861=ORIENTED_EDGE('',*,*,#609,.T.);
#862=ORIENTED_EDGE('',*,*,#597,.F.);
#863=ORIENTED_EDGE('',*,*,#632,.T.);
#864=ORIENTED_EDGE('',*,*,#630,.T.);
#865=ORIENTED_EDGE('',*,*,#628,.T.);
#866=ORIENTED_EDGE('',*,*,#626,.T.);
#867=ORIENTED_EDGE('',*,*,#624,.T.);
#868=ORIENTED_EDGE('',*,*,#622,.T.);
#869=ORIENTED_EDGE('',*,*,#620,.T.);
#870=ORIENTED_EDGE('',*,*,#618,.T.);
#871=ORIENTED_EDGE('',*,*,#616,.T.);
#872=ORIENTED_EDGE('',*,*,#614,.T.);
#873=ORIENTED_EDGE('',*,*,#612,.T.);
#874=ORIENTED_EDGE('',*,*,#610,.T.);
#875=ORIENTED_EDGE('',*,*,#633,.T.);
#876=ORIENTED_EDGE('',*,*,#634,.T.);
#877=ORIENTED_EDGE('',*,*,#635,.T.);
#878=ORIENTED_EDGE('',*,*,#636,.T.);
#879=ORIENTED_EDGE('',*,*,#637,.T.);
#880=ORIENTED_EDGE('',*,*,#638,.T.);
#881=ORIENTED_EDGE('',*,*,#639,.T.);
#882=ORIENTED_EDGE('',*,*,#640,.T.);
#883=ORIENTED_EDGE('',*,*,#641,.T.);
#884=ORIENTED_EDGE('',*,*,#642,.T.);
#885=ORIENTED_EDGE('',*,*,#643,.T.);
#886=ORIENTED_EDGE('',*,*,#644,.T.);
#887=ORIENTED_EDGE('',*,*,#645,.F.);
#888=ORIENTED_EDGE('',*,*,#646,.F.);
#889=ORIENTED_EDGE('',*,*,#647,.T.);
#890=ORIENTED_EDGE('',*,*,#634,.F.);
#891=ORIENTED_EDGE('',*,*,#647,.F.);
#892=ORIENTED_EDGE('',*,*,#648,.F.);
#893=ORIENTED_EDGE('',*,*,#649,.T.);
#894=ORIENTED_EDGE('',*,*,#635,.F.);
#895=ORIENTED_EDGE('',*,*,#649,.F.);
#896=ORIENTED_EDGE('',*,*,#650,.F.);
#897=ORIENTED_EDGE('',*,*,#651,.T.);
#898=ORIENTED_EDGE('',*,*,#636,.F.);
#899=ORIENTED_EDGE('',*,*,#651,.F.);
#900=ORIENTED_EDGE('',*,*,#652,.F.);
#901=ORIENTED_EDGE('',*,*,#653,.T.);
#902=ORIENTED_EDGE('',*,*,#637,.F.);
#903=ORIENTED_EDGE('',*,*,#653,.F.);
#904=ORIENTED_EDGE('',*,*,#654,.F.);
#905=ORIENTED_EDGE('',*,*,#655,.T.);
#906=ORIENTED_EDGE('',*,*,#638,.F.);
#907=ORIENTED_EDGE('',*,*,#655,.F.);
#908=ORIENTED_EDGE('',*,*,#656,.F.);
#909=ORIENTED_EDGE('',*,*,#657,.T.);
#910=ORIENTED_EDGE('',*,*,#639,.F.);
#911=ORIENTED_EDGE('',*,*,#657,.F.);
#912=ORIENTED_EDGE('',*,*,#658,.F.);
#913=ORIENTED_EDGE('',*,*,#659,.T.);
#914=ORIENTED_EDGE('',*,*,#640,.F.);
#915=ORIENTED_EDGE('',*,*,#659,.F.);
#916=ORIENTED_EDGE('',*,*,#660,.F.);
#917=ORIENTED_EDGE('',*,*,#661,.T.);
#918=ORIENTED_EDGE('',*,*,#641,.F.);
#919=ORIENTED_EDGE('',*,*,#661,.F.);
#920=ORIENTED_EDGE('',*,*,#662,.F.);
#921=ORIENTED_EDGE('',*,*,#663,.T.);
#922=ORIENTED_EDGE('',*,*,#642,.F.);
#923=ORIENTED_EDGE('',*,*,#663,.F.);
#924=ORIENTED_EDGE('',*,*,#664,.F.);
#925=ORIENTED_EDGE('',*,*,#665,.T.);
#926=ORIENTED_EDGE('',*,*,#643,.F.);
#927=ORIENTED_EDGE('',*,*,#665,.F.);
#928=ORIENTED_EDGE('',*,*,#666,.F.);
#929=ORIENTED_EDGE('',*,*,#667,.F.);
#930=ORIENTED_EDGE('',*,*,#644,.F.);
#931=ORIENTED_EDGE('',*,*,#667,.T.);
#932=ORIENTED_EDGE('',*,*,#668,.F.);
#933=ORIENTED_EDGE('',*,*,#645,.T.);
#934=ORIENTED_EDGE('',*,*,#633,.F.);
#935=ORIENTED_EDGE('',*,*,#668,.T.);
#936=ORIENTED_EDGE('',*,*,#666,.T.);
#937=ORIENTED_EDGE('',*,*,#664,.T.);
#938=ORIENTED_EDGE('',*,*,#662,.T.);
#939=ORIENTED_EDGE('',*,*,#660,.T.);
#940=ORIENTED_EDGE('',*,*,#658,.T.);
#941=ORIENTED_EDGE('',*,*,#656,.T.);
#942=ORIENTED_EDGE('',*,*,#654,.T.);
#943=ORIENTED_EDGE('',*,*,#652,.T.);
#944=ORIENTED_EDGE('',*,*,#650,.T.);
#945=ORIENTED_EDGE('',*,*,#648,.T.);
#946=ORIENTED_EDGE('',*,*,#646,.T.);
#947=CYLINDRICAL_SURFACE('',#1036,0.07);
#948=CYLINDRICAL_SURFACE('',#1062,0.0325);
#949=CYLINDRICAL_SURFACE('',#1065,0.13);
#950=CYLINDRICAL_SURFACE('',#1070,0.0325);
#951=CYLINDRICAL_SURFACE('',#1073,0.13);
#952=CYLINDRICAL_SURFACE('',#1084,0.0325);
#953=CYLINDRICAL_SURFACE('',#1087,0.13);
#954=CYLINDRICAL_SURFACE('',#1092,0.0325);
#955=CYLINDRICAL_SURFACE('',#1095,0.13);
#956=CYLINDRICAL_SURFACE('',#1106,0.0325);
#957=CYLINDRICAL_SURFACE('',#1109,0.13);
#958=CYLINDRICAL_SURFACE('',#1114,0.0325);
#959=CYLINDRICAL_SURFACE('',#1117,0.13);
#960=ADVANCED_FACE('',(#71),#947,.F.);
#961=ADVANCED_FACE('',(#72),#26,.T.);
#962=ADVANCED_FACE('',(#73),#27,.T.);
#963=ADVANCED_FACE('',(#74),#28,.T.);
#964=ADVANCED_FACE('',(#75),#29,.T.);
#965=ADVANCED_FACE('',(#76),#30,.T.);
#966=ADVANCED_FACE('',(#77),#31,.T.);
#967=ADVANCED_FACE('',(#78),#32,.T.);
#968=ADVANCED_FACE('',(#79,#25),#33,.T.);
#969=ADVANCED_FACE('',(#80),#34,.T.);
#970=ADVANCED_FACE('',(#81),#35,.T.);
#971=ADVANCED_FACE('',(#82),#36,.T.);
#972=ADVANCED_FACE('',(#83),#37,.T.);
#973=ADVANCED_FACE('',(#84),#38,.T.);
#974=ADVANCED_FACE('',(#85),#39,.F.);
#975=ADVANCED_FACE('',(#86),#40,.T.);
#976=ADVANCED_FACE('',(#87),#41,.T.);
#977=ADVANCED_FACE('',(#88),#42,.T.);
#978=ADVANCED_FACE('',(#89),#43,.T.);
#979=ADVANCED_FACE('',(#90),#44,.T.);
#980=ADVANCED_FACE('',(#91),#948,.F.);
#981=ADVANCED_FACE('',(#92),#45,.T.);
#982=ADVANCED_FACE('',(#93),#949,.T.);
#983=ADVANCED_FACE('',(#94),#46,.T.);
#984=ADVANCED_FACE('',(#95),#47,.T.);
#985=ADVANCED_FACE('',(#96),#48,.T.);
#986=ADVANCED_FACE('',(#97),#950,.F.);
#987=ADVANCED_FACE('',(#98),#49,.T.);
#988=ADVANCED_FACE('',(#99),#951,.T.);
#989=ADVANCED_FACE('',(#100),#50,.F.);
#990=ADVANCED_FACE('',(#101),#51,.T.);
#991=ADVANCED_FACE('',(#102),#52,.T.);
#992=ADVANCED_FACE('',(#103),#53,.T.);
#993=ADVANCED_FACE('',(#104),#54,.T.);
#994=ADVANCED_FACE('',(#105),#952,.F.);
#995=ADVANCED_FACE('',(#106),#55,.T.);
#996=ADVANCED_FACE('',(#107),#953,.T.);
#997=ADVANCED_FACE('',(#108),#56,.T.);
#998=ADVANCED_FACE('',(#109),#57,.T.);
#999=ADVANCED_FACE('',(#110),#58,.T.);
#1000=ADVANCED_FACE('',(#111),#954,.F.);
#1001=ADVANCED_FACE('',(#112),#59,.T.);
#1002=ADVANCED_FACE('',(#113),#955,.T.);
#1003=ADVANCED_FACE('',(#114),#60,.F.);
#1004=ADVANCED_FACE('',(#115),#61,.T.);
#1005=ADVANCED_FACE('',(#116),#62,.T.);
#1006=ADVANCED_FACE('',(#117),#63,.T.);
#1007=ADVANCED_FACE('',(#118),#64,.T.);
#1008=ADVANCED_FACE('',(#119),#956,.F.);
#1009=ADVANCED_FACE('',(#120),#65,.T.);
#1010=ADVANCED_FACE('',(#121),#957,.T.);
#1011=ADVANCED_FACE('',(#122),#66,.T.);
#1012=ADVANCED_FACE('',(#123),#67,.T.);
#1013=ADVANCED_FACE('',(#124),#68,.T.);
#1014=ADVANCED_FACE('',(#125),#958,.F.);
#1015=ADVANCED_FACE('',(#126),#69,.T.);
#1016=ADVANCED_FACE('',(#127),#959,.T.);
#1017=ADVANCED_FACE('',(#128),#70,.F.);
#1018=CLOSED_SHELL('',(#960,#961,#962,#963,#964,#965,#966,#967,#968,#969,
#970,#971,#972,#973,#974,#975));
#1019=CLOSED_SHELL('',(#976,#977,#978,#979,#980,#981,#982,#983,#984,#985,
#986,#987,#988,#989));
#1020=CLOSED_SHELL('',(#990,#991,#992,#993,#994,#995,#996,#997,#998,#999,
#1000,#1001,#1002,#1003));
#1021=CLOSED_SHELL('',(#1004,#1005,#1006,#1007,#1008,#1009,#1010,#1011,
#1012,#1013,#1014,#1015,#1016,#1017));
#1022=DERIVED_UNIT_ELEMENT(#1024,1.);
#1023=DERIVED_UNIT_ELEMENT(#1705,-3.);
#1024=(
MASS_UNIT()
NAMED_UNIT(*)
SI_UNIT(.KILO.,.GRAM.)
);
#1025=DERIVED_UNIT((#1022,#1023));
#1026=MEASURE_REPRESENTATION_ITEM('density measure',
POSITIVE_RATIO_MEASURE(7850.),#1025);
#1027=PROPERTY_DEFINITION_REPRESENTATION(#1032,#1029);
#1028=PROPERTY_DEFINITION_REPRESENTATION(#1033,#1030);
#1029=REPRESENTATION('material name',(#1031),#1702);
#1030=REPRESENTATION('density',(#1026),#1702);
#1031=DESCRIPTIVE_REPRESENTATION_ITEM('Steel','Steel');
#1032=PROPERTY_DEFINITION('material property','material name',#1717);
#1033=PROPERTY_DEFINITION('material property','density of part',#1717);
#1034=AXIS2_PLACEMENT_3D('',#1408,#1121,#1122);
#1035=AXIS2_PLACEMENT_3D('',#1409,#1123,#1124);
#1036=AXIS2_PLACEMENT_3D('',#1410,#1125,#1126);
#1037=AXIS2_PLACEMENT_3D('',#1412,#1127,#1128);
#1038=AXIS2_PLACEMENT_3D('',#1415,#1130,#1131);
#1039=AXIS2_PLACEMENT_3D('',#1416,#1132,#1133);
#1040=AXIS2_PLACEMENT_3D('',#1417,#1134,#1135);
#1041=AXIS2_PLACEMENT_3D('',#1426,#1140,#1141);
#1042=AXIS2_PLACEMENT_3D('',#1432,#1145,#1146);
#1043=AXIS2_PLACEMENT_3D('',#1438,#1150,#1151);
#1044=AXIS2_PLACEMENT_3D('',#1441,#1154,#1155);
#1045=AXIS2_PLACEMENT_3D('',#1447,#1159,#1160);
#1046=AXIS2_PLACEMENT_3D('',#1451,#1163,#1164);
#1047=AXIS2_PLACEMENT_3D('',#1452,#1165,#1166);
#1048=AXIS2_PLACEMENT_3D('',#1460,#1171,#1172);
#1049=AXIS2_PLACEMENT_3D('',#1464,#1175,#1176);
#1050=AXIS2_PLACEMENT_3D('',#1469,#1180,#1181);
#1051=AXIS2_PLACEMENT_3D('',#1471,#1183,#1184);
#1052=AXIS2_PLACEMENT_3D('',#1473,#1186,#1187);
#1053=AXIS2_PLACEMENT_3D('',#1474,#1188,#1189);
#1054=AXIS2_PLACEMENT_3D('',#1475,#1190,#1191);
#1055=AXIS2_PLACEMENT_3D('',#1478,#1192,#1193);
#1056=AXIS2_PLACEMENT_3D('',#1486,#1197,#1198);
#1057=AXIS2_PLACEMENT_3D('',#1490,#1200,#1201);
#1058=AXIS2_PLACEMENT_3D('',#1498,#1205,#1206);
#1059=AXIS2_PLACEMENT_3D('',#1500,#1208,#1209);
#1060=AXIS2_PLACEMENT_3D('',#1506,#1213,#1214);
#1061=AXIS2_PLACEMENT_3D('',#1510,#1217,#1218);
#1062=AXIS2_PLACEMENT_3D('',#1514,#1221,#1222);
#1063=AXIS2_PLACEMENT_3D('',#1516,#1223,#1224);
#1064=AXIS2_PLACEMENT_3D('',#1518,#1226,#1227);
#1065=AXIS2_PLACEMENT_3D('',#1522,#1230,#1231);
#1066=AXIS2_PLACEMENT_3D('',#1524,#1232,#1233);
#1067=AXIS2_PLACEMENT_3D('',#1526,#1235,#1236);
#1068=AXIS2_PLACEMENT_3D('',#1530,#1239,#1240);
#1069=AXIS2_PLACEMENT_3D('',#1534,#1243,#1244);
#1070=AXIS2_PLACEMENT_3D('',#1538,#1247,#1248);
#1071=AXIS2_PLACEMENT_3D('',#1540,#1249,#1250);
#1072=AXIS2_PLACEMENT_3D('',#1542,#1252,#1253);
#1073=AXIS2_PLACEMENT_3D('',#1546,#1256,#1257);
#1074=AXIS2_PLACEMENT_3D('',#1547,#1258,#1259);
#1075=AXIS2_PLACEMENT_3D('',#1548,#1260,#1261);
#1076=AXIS2_PLACEMENT_3D('',#1549,#1262,#1263);
#1077=AXIS2_PLACEMENT_3D('',#1552,#1264,#1265);
#1078=AXIS2_PLACEMENT_3D('',#1560,#1269,#1270);
#1079=AXIS2_PLACEMENT_3D('',#1564,#1272,#1273);
#1080=AXIS2_PLACEMENT_3D('',#1572,#1277,#1278);
#1081=AXIS2_PLACEMENT_3D('',#1574,#1280,#1281);
#1082=AXIS2_PLACEMENT_3D('',#1580,#1285,#1286);
#1083=AXIS2_PLACEMENT_3D('',#1584,#1289,#1290);
#1084=AXIS2_PLACEMENT_3D('',#1588,#1293,#1294);
#1085=AXIS2_PLACEMENT_3D('',#1590,#1295,#1296);
#1086=AXIS2_PLACEMENT_3D('',#1592,#1298,#1299);
#1087=AXIS2_PLACEMENT_3D('',#1596,#1302,#1303);
#1088=AXIS2_PLACEMENT_3D('',#1598,#1304,#1305);
#1089=AXIS2_PLACEMENT_3D('',#1600,#1307,#1308);
#1090=AXIS2_PLACEMENT_3D('',#1604,#1311,#1312);
#1091=AXIS2_PLACEMENT_3D('',#1608,#1315,#1316);
#1092=AXIS2_PLACEMENT_3D('',#1612,#1319,#1320);
#1093=AXIS2_PLACEMENT_3D('',#1614,#1321,#1322);
#1094=AXIS2_PLACEMENT_3D('',#1616,#1324,#1325);
#1095=AXIS2_PLACEMENT_3D('',#1620,#1328,#1329);
#1096=AXIS2_PLACEMENT_3D('',#1621,#1330,#1331);
#1097=AXIS2_PLACEMENT_3D('',#1622,#1332,#1333);
#1098=AXIS2_PLACEMENT_3D('',#1623,#1334,#1335);
#1099=AXIS2_PLACEMENT_3D('',#1626,#1336,#1337);
#1100=AXIS2_PLACEMENT_3D('',#1634,#1341,#1342);
#1101=AXIS2_PLACEMENT_3D('',#1638,#1344,#1345);
#1102=AXIS2_PLACEMENT_3D('',#1646,#1349,#1350);
#1103=AXIS2_PLACEMENT_3D('',#1648,#1352,#1353);
#1104=AXIS2_PLACEMENT_3D('',#1654,#1357,#1358);
#1105=AXIS2_PLACEMENT_3D('',#1658,#1361,#1362);
#1106=AXIS2_PLACEMENT_3D('',#1662,#1365,#1366);
#1107=AXIS2_PLACEMENT_3D('',#1664,#1367,#1368);
#1108=AXIS2_PLACEMENT_3D('',#1666,#1370,#1371);
#1109=AXIS2_PLACEMENT_3D('',#1670,#1374,#1375);
#1110=AXIS2_PLACEMENT_3D('',#1672,#1376,#1377);
#1111=AXIS2_PLACEMENT_3D('',#1674,#1379,#1380);
#1112=AXIS2_PLACEMENT_3D('',#1678,#1383,#1384);
#1113=AXIS2_PLACEMENT_3D('',#1682,#1387,#1388);
#1114=AXIS2_PLACEMENT_3D('',#1686,#1391,#1392);
#1115=AXIS2_PLACEMENT_3D('',#1688,#1393,#1394);
#1116=AXIS2_PLACEMENT_3D('',#1690,#1396,#1397);
#1117=AXIS2_PLACEMENT_3D('',#1694,#1400,#1401);
#1118=AXIS2_PLACEMENT_3D('',#1695,#1402,#1403);
#1119=AXIS2_PLACEMENT_3D('',#1696,#1404,#1405);
#1120=AXIS2_PLACEMENT_3D('',#1697,#1406,#1407);
#1121=DIRECTION('axis',(0.,0.,1.));
#1122=DIRECTION('refdir',(1.,0.,0.));
#1123=DIRECTION('axis',(0.,0.,1.));
#1124=DIRECTION('refdir',(1.,0.,0.));
#1125=DIRECTION('center_axis',(0.,0.,-1.));
#1126=DIRECTION('ref_axis',(1.,0.,0.));
#1127=DIRECTION('center_axis',(0.,0.,-1.));
#1128=DIRECTION('ref_axis',(1.,0.,0.));
#1129=DIRECTION('',(0.,0.,-1.));
#1130=DIRECTION('center_axis',(0.,0.,-1.));
#1131=DIRECTION('ref_axis',(1.,0.,0.));
#1132=DIRECTION('center_axis',(0.,0.,1.));
#1133=DIRECTION('ref_axis',(1.,0.,0.));
#1134=DIRECTION('center_axis',(-0.969483457617158,0.,0.245156736408936));
#1135=DIRECTION('ref_axis',(0.245156736408936,0.,0.969483457617158));
#1136=DIRECTION('',(0.,1.,0.));
#1137=DIRECTION('',(-0.238105835984066,0.238105835984066,-0.941600351391533));
#1138=DIRECTION('',(0.,-1.,0.));
#1139=DIRECTION('',(-0.238105835984066,-0.238105835984067,-0.941600351391533));
#1140=DIRECTION('center_axis',(0.,0.969483457617158,0.245156736408937));
#1141=DIRECTION('ref_axis',(0.,-0.245156736408937,0.969483457617158));
#1142=DIRECTION('',(1.,0.,0.));
#1143=DIRECTION('',(0.238105835984066,0.238105835984067,-0.941600351391533));
#1144=DIRECTION('',(-1.,0.,0.));
#1145=DIRECTION('center_axis',(0.969483457617158,0.,0.245156736408936));
#1146=DIRECTION('ref_axis',(0.245156736408936,0.,-0.969483457617158));
#1147=DIRECTION('',(0.,-1.,0.));
#1148=DIRECTION('',(0.238105835984066,-0.238105835984066,-0.941600351391533));
#1149=DIRECTION('',(0.,1.,0.));
#1150=DIRECTION('center_axis',(0.,-0.969483457617158,0.245156736408937));
#1151=DIRECTION('ref_axis',(0.,-0.245156736408937,-0.969483457617158));
#1152=DIRECTION('',(1.,0.,0.));
#1153=DIRECTION('',(-1.,0.,0.));
#1154=DIRECTION('center_axis',(0.,-1.,0.));
#1155=DIRECTION('ref_axis',(1.,0.,0.));
#1156=DIRECTION('',(0.,0.,1.));
#1157=DIRECTION('',(-1.,0.,0.));
#1158=DIRECTION('',(0.,0.,1.));
#1159=DIRECTION('center_axis',(-1.,0.,0.));
#1160=DIRECTION('ref_axis',(0.,-1.,0.));
#1161=DIRECTION('',(0.,0.,1.));
#1162=DIRECTION('',(0.,1.,0.));
#1163=DIRECTION('center_axis',(0.,0.,1.));
#1164=DIRECTION('ref_axis',(1.,0.,0.));
#1165=DIRECTION('center_axis',(0.969483457617158,0.,-0.245156736408936));
#1166=DIRECTION('ref_axis',(-0.245156736408937,0.,-0.969483457617158));
#1167=DIRECTION('',(0.,-1.,0.));
#1168=DIRECTION('',(-0.238105835984066,0.238105835984066,-0.941600351391533));
#1169=DIRECTION('',(0.,1.,0.));
#1170=DIRECTION('',(0.238105835984066,0.238105835984066,0.941600351391533));
#1171=DIRECTION('center_axis',(0.,-0.969483457617158,-0.245156736408937));
#1172=DIRECTION('ref_axis',(0.,0.245156736408937,-0.969483457617158));
#1173=DIRECTION('',(1.,0.,0.));
#1174=DIRECTION('',(-0.238105835984066,-0.238105835984066,0.941600351391533));
#1175=DIRECTION('center_axis',(0.,0.969483457617158,-0.245156736408937));
#1176=DIRECTION('ref_axis',(0.,0.245156736408937,0.969483457617158));
#1177=DIRECTION('',(1.,0.,0.));
#1178=DIRECTION('',(-1.,0.,0.));
#1179=DIRECTION('',(-0.238105835984066,0.238105835984066,0.941600351391533));
#1180=DIRECTION('center_axis',(-0.969483457617158,0.,-0.245156736408936));
#1181=DIRECTION('ref_axis',(-0.245156736408937,0.,0.969483457617158));
#1182=DIRECTION('',(0.,-1.,0.));
#1183=DIRECTION('center_axis',(1.,0.,0.));
#1184=DIRECTION('ref_axis',(0.,1.,0.));
#1185=DIRECTION('',(0.,0.,1.));
#1186=DIRECTION('center_axis',(0.,0.,1.));
#1187=DIRECTION('ref_axis',(1.,0.,0.));
#1188=DIRECTION('center_axis',(0.,1.,0.));
#1189=DIRECTION('ref_axis',(-1.,0.,0.));
#1190=DIRECTION('center_axis',(-1.22464679914735E-16,-1.,0.));
#1191=DIRECTION('ref_axis',(-1.,1.22464679914735E-16,0.));
#1192=DIRECTION('center_axis',(-1.22464679914735E-16,-1.,0.));
#1193=DIRECTION('ref_axis',(-1.,1.22464679914735E-16,0.));
#1194=DIRECTION('',(1.,-1.22464679914735E-16,-4.33680868994202E-17));
#1195=DIRECTION('',(0.,0.,1.));
#1196=DIRECTION('',(-1.,1.22464679914735E-16,4.72033598905254E-17));
#1197=DIRECTION('center_axis',(1.22464679914735E-16,1.,0.));
#1198=DIRECTION('ref_axis',(-1.,1.22464679914735E-16,-3.20256641718795E-15));
#1199=DIRECTION('',(0.,0.,1.));
#1200=DIRECTION('center_axis',(-1.22464679914735E-16,-1.,0.));
#1201=DIRECTION('ref_axis',(1.,-1.22464679914735E-16,1.06752213906265E-15));
#1202=DIRECTION('',(-1.,1.22464679914735E-16,0.));
#1203=DIRECTION('',(0.,0.,-1.));
#1204=DIRECTION('',(-1.,1.22464679914735E-16,0.));
#1205=DIRECTION('center_axis',(1.22464679914735E-16,1.,0.));
#1206=DIRECTION('ref_axis',(1.,-1.22464679914735E-16,2.1350442781253E-15));
#1207=DIRECTION('',(0.,0.,-1.));
#1208=DIRECTION('center_axis',(-4.33680868994202E-17,5.31105888065192E-33,
-1.));
#1209=DIRECTION('ref_axis',(-1.,1.22464679914735E-16,4.33680868994202E-17));
#1210=DIRECTION('',(-1.22464679914735E-16,-1.,0.));
#1211=DIRECTION('',(-1.,1.22464679914735E-16,4.33680868994202E-17));
#1212=DIRECTION('',(-1.22464679914735E-16,-1.,0.));
#1213=DIRECTION('center_axis',(1.,-1.22464679914735E-16,0.));
#1214=DIRECTION('ref_axis',(0.,0.,-1.));
#1215=DIRECTION('',(0.,0.,-1.));
#1216=DIRECTION('',(-1.22464679914735E-16,-1.,0.));
#1217=DIRECTION('center_axis',(4.72033598905254E-17,-5.78074435989325E-33,
1.));
#1218=DIRECTION('ref_axis',(1.,-1.22464679914735E-16,-4.72033598905254E-17));
#1219=DIRECTION('',(1.,-1.22464679914735E-16,-4.72033598905254E-17));
#1220=DIRECTION('',(-1.22464679914735E-16,-1.,0.));
#1221=DIRECTION('center_axis',(1.22464679914735E-16,1.,0.));
#1222=DIRECTION('ref_axis',(-1.,1.22464679914735E-16,-3.20256641718795E-15));
#1223=DIRECTION('center_axis',(-1.22464679914735E-16,-1.,0.));
#1224=DIRECTION('ref_axis',(-1.,1.22464679914735E-16,-3.20256641718795E-15));
#1225=DIRECTION('',(-1.22464679914735E-16,-1.,0.));
#1226=DIRECTION('center_axis',(1.,-1.22464679914735E-16,0.));
#1227=DIRECTION('ref_axis',(0.,0.,-1.));
#1228=DIRECTION('',(0.,0.,-1.));
#1229=DIRECTION('',(-1.22464679914735E-16,-1.,0.));
#1230=DIRECTION('center_axis',(1.22464679914735E-16,1.,0.));
#1231=DIRECTION('ref_axis',(1.,-1.22464679914735E-16,1.06752213906265E-15));
#1232=DIRECTION('center_axis',(1.22464679914735E-16,1.,0.));
#1233=DIRECTION('ref_axis',(1.,-1.22464679914735E-16,1.06752213906265E-15));
#1234=DIRECTION('',(-1.22464679914735E-16,-1.,0.));
#1235=DIRECTION('center_axis',(0.,0.,1.));
#1236=DIRECTION('ref_axis',(1.,-1.22464679914735E-16,0.));
#1237=DIRECTION('',(1.,-1.22464679914735E-16,0.));
#1238=DIRECTION('',(-1.22464679914735E-16,-1.,0.));
#1239=DIRECTION('center_axis',(-1.,1.22464679914735E-16,0.));
#1240=DIRECTION('ref_axis',(0.,0.,1.));
#1241=DIRECTION('',(0.,0.,1.));
#1242=DIRECTION('',(-1.22464679914735E-16,-1.,0.));
#1243=DIRECTION('center_axis',(0.,0.,1.));
#1244=DIRECTION('ref_axis',(1.,-1.22464679914735E-16,0.));
#1245=DIRECTION('',(1.,-1.22464679914735E-16,0.));
#1246=DIRECTION('',(-1.22464679914735E-16,-1.,0.));
#1247=DIRECTION('center_axis',(1.22464679914735E-16,1.,0.));
#1248=DIRECTION('ref_axis',(1.,-1.22464679914735E-16,2.1350442781253E-15));
#1249=DIRECTION('center_axis',(-1.22464679914735E-16,-1.,0.));
#1250=DIRECTION('ref_axis',(1.,-1.22464679914735E-16,2.1350442781253E-15));
#1251=DIRECTION('',(-1.22464679914735E-16,-1.,0.));
#1252=DIRECTION('center_axis',(-1.,1.22464679914735E-16,0.));
#1253=DIRECTION('ref_axis',(0.,0.,1.));
#1254=DIRECTION('',(0.,0.,1.));
#1255=DIRECTION('',(1.22464679914735E-16,1.,0.));
#1256=DIRECTION('center_axis',(1.22464679914735E-16,1.,0.));
#1257=DIRECTION('ref_axis',(-1.,1.22464679914735E-16,0.));
#1258=DIRECTION('center_axis',(1.22464679914735E-16,1.,0.));
#1259=DIRECTION('ref_axis',(-1.,1.22464679914735E-16,0.));
#1260=DIRECTION('center_axis',(-1.22464679914735E-16,-1.,0.));
#1261=DIRECTION('ref_axis',(-1.,1.22464679914735E-16,0.));
#1262=DIRECTION('center_axis',(0.,1.,0.));
#1263=DIRECTION('ref_axis',(1.,0.,0.));
#1264=DIRECTION('center_axis',(0.,1.,0.));
#1265=DIRECTION('ref_axis',(1.,0.,0.));
#1266=DIRECTION('',(-1.,0.,-4.33680868994202E-17));
#1267=DIRECTION('',(0.,0.,1.));
#1268=DIRECTION('',(1.,0.,4.72033598905254E-17));
#1269=DIRECTION('center_axis',(0.,-1.,0.));
#1270=DIRECTION('ref_axis',(1.,0.,-3.20256641718795E-15));
#1271=DIRECTION('',(0.,0.,1.));
#1272=DIRECTION('center_axis',(0.,1.,0.));
#1273=DIRECTION('ref_axis',(-1.,0.,1.06752213906265E-15));
#1274=DIRECTION('',(1.,0.,0.));
#1275=DIRECTION('',(0.,0.,-1.));
#1276=DIRECTION('',(1.,0.,0.));
#1277=DIRECTION('center_axis',(0.,-1.,0.));
#1278=DIRECTION('ref_axis',(-1.,0.,2.1350442781253E-15));
#1279=DIRECTION('',(0.,0.,-1.));
#1280=DIRECTION('center_axis',(4.33680868994202E-17,0.,-1.));
#1281=DIRECTION('ref_axis',(1.,0.,4.33680868994202E-17));
#1282=DIRECTION('',(0.,1.,0.));
#1283=DIRECTION('',(1.,0.,4.33680868994202E-17));
#1284=DIRECTION('',(0.,1.,0.));
#1285=DIRECTION('center_axis',(-1.,0.,0.));
#1286=DIRECTION('ref_axis',(0.,0.,-1.));
#1287=DIRECTION('',(0.,0.,-1.));
#1288=DIRECTION('',(0.,1.,0.));
#1289=DIRECTION('center_axis',(-4.72033598905254E-17,0.,1.));
#1290=DIRECTION('ref_axis',(-1.,0.,-4.72033598905254E-17));
#1291=DIRECTION('',(-1.,0.,-4.72033598905254E-17));
#1292=DIRECTION('',(0.,1.,0.));
#1293=DIRECTION('center_axis',(0.,-1.,0.));
#1294=DIRECTION('ref_axis',(1.,0.,-3.20256641718795E-15));
#1295=DIRECTION('center_axis',(0.,1.,0.));
#1296=DIRECTION('ref_axis',(1.,0.,-3.20256641718795E-15));
#1297=DIRECTION('',(0.,1.,0.));
#1298=DIRECTION('center_axis',(-1.,0.,0.));
#1299=DIRECTION('ref_axis',(0.,0.,-1.));
#1300=DIRECTION('',(0.,0.,-1.));
#1301=DIRECTION('',(0.,1.,0.));
#1302=DIRECTION('center_axis',(0.,-1.,0.));
#1303=DIRECTION('ref_axis',(-1.,0.,1.06752213906265E-15));
#1304=DIRECTION('center_axis',(0.,-1.,0.));
#1305=DIRECTION('ref_axis',(-1.,0.,1.06752213906265E-15));
#1306=DIRECTION('',(0.,1.,0.));
#1307=DIRECTION('center_axis',(0.,0.,1.));
#1308=DIRECTION('ref_axis',(-1.,0.,0.));
#1309=DIRECTION('',(-1.,0.,0.));
#1310=DIRECTION('',(0.,1.,0.));
#1311=DIRECTION('center_axis',(1.,0.,0.));
#1312=DIRECTION('ref_axis',(0.,0.,1.));
#1313=DIRECTION('',(0.,0.,1.));
#1314=DIRECTION('',(0.,1.,0.));
#1315=DIRECTION('center_axis',(0.,0.,1.));
#1316=DIRECTION('ref_axis',(-1.,0.,0.));
#1317=DIRECTION('',(-1.,0.,0.));
#1318=DIRECTION('',(0.,1.,0.));
#1319=DIRECTION('center_axis',(0.,-1.,0.));
#1320=DIRECTION('ref_axis',(-1.,0.,2.1350442781253E-15));
#1321=DIRECTION('center_axis',(0.,1.,0.));
#1322=DIRECTION('ref_axis',(-1.,0.,2.1350442781253E-15));
#1323=DIRECTION('',(0.,1.,0.));
#1324=DIRECTION('center_axis',(1.,0.,0.));
#1325=DIRECTION('ref_axis',(0.,0.,1.));
#1326=DIRECTION('',(0.,0.,1.));
#1327=DIRECTION('',(0.,-1.,0.));
#1328=DIRECTION('center_axis',(0.,-1.,0.));
#1329=DIRECTION('ref_axis',(1.,0.,0.));
#1330=DIRECTION('center_axis',(0.,-1.,0.));
#1331=DIRECTION('ref_axis',(1.,0.,0.));
#1332=DIRECTION('center_axis',(0.,1.,0.));
#1333=DIRECTION('ref_axis',(1.,0.,0.));
#1334=DIRECTION('center_axis',(0.,1.,0.));
#1335=DIRECTION('ref_axis',(1.,0.,0.));
#1336=DIRECTION('center_axis',(0.,1.,0.));
#1337=DIRECTION('ref_axis',(1.,0.,0.));
#1338=DIRECTION('',(-1.,0.,-4.33680868994202E-17));
#1339=DIRECTION('',(0.,0.,1.));
#1340=DIRECTION('',(1.,0.,4.72033598905254E-17));
#1341=DIRECTION('center_axis',(0.,-1.,0.));
#1342=DIRECTION('ref_axis',(1.,0.,-3.20256641718795E-15));
#1343=DIRECTION('',(0.,0.,1.));
#1344=DIRECTION('center_axis',(0.,1.,0.));
#1345=DIRECTION('ref_axis',(-1.,0.,1.06752213906265E-15));
#1346=DIRECTION('',(1.,0.,0.));
#1347=DIRECTION('',(0.,0.,-1.));
#1348=DIRECTION('',(1.,0.,0.));
#1349=DIRECTION('center_axis',(0.,-1.,0.));
#1350=DIRECTION('ref_axis',(-1.,0.,2.1350442781253E-15));
#1351=DIRECTION('',(0.,0.,-1.));
#1352=DIRECTION('center_axis',(4.33680868994202E-17,0.,-1.));
#1353=DIRECTION('ref_axis',(1.,0.,4.33680868994202E-17));
#1354=DIRECTION('',(0.,1.,0.));
#1355=DIRECTION('',(1.,0.,4.33680868994202E-17));
#1356=DIRECTION('',(0.,1.,0.));
#1357=DIRECTION('center_axis',(-1.,0.,0.));
#1358=DIRECTION('ref_axis',(0.,0.,-1.));
#1359=DIRECTION('',(0.,0.,-1.));
#1360=DIRECTION('',(0.,1.,0.));
#1361=DIRECTION('center_axis',(-4.72033598905254E-17,0.,1.));
#1362=DIRECTION('ref_axis',(-1.,0.,-4.72033598905254E-17));
#1363=DIRECTION('',(-1.,0.,-4.72033598905254E-17));
#1364=DIRECTION('',(0.,1.,0.));
#1365=DIRECTION('center_axis',(0.,-1.,0.));
#1366=DIRECTION('ref_axis',(1.,0.,-3.20256641718795E-15));
#1367=DIRECTION('center_axis',(0.,1.,0.));
#1368=DIRECTION('ref_axis',(1.,0.,-3.20256641718795E-15));
#1369=DIRECTION('',(0.,1.,0.));
#1370=DIRECTION('center_axis',(-1.,0.,0.));
#1371=DIRECTION('ref_axis',(0.,0.,-1.));
#1372=DIRECTION('',(0.,0.,-1.));
#1373=DIRECTION('',(0.,1.,0.));
#1374=DIRECTION('center_axis',(0.,-1.,0.));
#1375=DIRECTION('ref_axis',(-1.,0.,1.06752213906265E-15));
#1376=DIRECTION('center_axis',(0.,-1.,0.));
#1377=DIRECTION('ref_axis',(-1.,0.,1.06752213906265E-15));
#1378=DIRECTION('',(0.,1.,0.));
#1379=DIRECTION('center_axis',(0.,0.,1.));
#1380=DIRECTION('ref_axis',(-1.,0.,0.));
#1381=DIRECTION('',(-1.,0.,0.));
#1382=DIRECTION('',(0.,1.,0.));
#1383=DIRECTION('center_axis',(1.,0.,0.));
#1384=DIRECTION('ref_axis',(0.,0.,1.));
#1385=DIRECTION('',(0.,0.,1.));
#1386=DIRECTION('',(0.,1.,0.));
#1387=DIRECTION('center_axis',(0.,0.,1.));
#1388=DIRECTION('ref_axis',(-1.,0.,0.));
#1389=DIRECTION('',(-1.,0.,0.));
#1390=DIRECTION('',(0.,1.,0.));
#1391=DIRECTION('center_axis',(0.,-1.,0.));
#1392=DIRECTION('ref_axis',(-1.,0.,2.1350442781253E-15));
#1393=DIRECTION('center_axis',(0.,1.,0.));
#1394=DIRECTION('ref_axis',(-1.,0.,2.1350442781253E-15));
#1395=DIRECTION('',(0.,1.,0.));
#1396=DIRECTION('center_axis',(1.,0.,0.));
#1397=DIRECTION('ref_axis',(0.,0.,1.));
#1398=DIRECTION('',(0.,0.,1.));
#1399=DIRECTION('',(0.,-1.,0.));
#1400=DIRECTION('center_axis',(0.,-1.,0.));
#1401=DIRECTION('ref_axis',(1.,0.,0.));
#1402=DIRECTION('center_axis',(0.,-1.,0.));
#1403=DIRECTION('ref_axis',(1.,0.,0.));
#1404=DIRECTION('center_axis',(0.,1.,0.));
#1405=DIRECTION('ref_axis',(1.,0.,0.));
#1406=DIRECTION('',(0.,0.,1.));
#1407=DIRECTION('',(1.,0.,0.));
#1408=CARTESIAN_POINT('',(0.,0.,0.));
#1409=CARTESIAN_POINT('',(0.,0.,0.));
#1410=CARTESIAN_POINT('Origin',(-0.45,1.25,1.1));
#1411=CARTESIAN_POINT('',(-0.52,1.25,1.1));
#1412=CARTESIAN_POINT('Origin',(-0.45,1.25,1.1));
#1413=CARTESIAN_POINT('',(-0.52,1.25,0.99));
#1414=CARTESIAN_POINT('',(-0.52,1.25,1.1));
#1415=CARTESIAN_POINT('Origin',(-0.45,1.25,0.99));
#1416=CARTESIAN_POINT('Origin',(-0.45,1.25,0.99));
#1417=CARTESIAN_POINT('Origin',(-0.645,0.75,0.8825));
#1418=CARTESIAN_POINT('',(-0.59,-1.39,1.1));
#1419=CARTESIAN_POINT('',(-0.59,1.39,1.1));
#1420=CARTESIAN_POINT('',(-0.59,0.75,1.1));
#1421=CARTESIAN_POINT('',(-0.7,1.5,0.665));
#1422=CARTESIAN_POINT('',(-0.59,1.39,1.1));
#1423=CARTESIAN_POINT('',(-0.7,-1.5,0.665));
#1424=CARTESIAN_POINT('',(-0.7,0.75,0.665));
#1425=CARTESIAN_POINT('',(-0.59,-1.39,1.1));
#1426=CARTESIAN_POINT('Origin',(0.35,1.445,0.8825));
#1427=CARTESIAN_POINT('',(0.59,1.39,1.1));
#1428=CARTESIAN_POINT('',(0.35,1.39,1.1));
#1429=CARTESIAN_POINT('',(0.7,1.5,0.665));
#1430=CARTESIAN_POINT('',(0.59,1.39,1.1));
#1431=CARTESIAN_POINT('',(0.35,1.5,0.665));
#1432=CARTESIAN_POINT('Origin',(0.645,-0.75,0.8825));
#1433=CARTESIAN_POINT('',(0.59,-1.39,1.1));
#1434=CARTESIAN_POINT('',(0.59,-0.75,1.1));
#1435=CARTESIAN_POINT('',(0.7,-1.5,0.665));
#1436=CARTESIAN_POINT('',(0.59,-1.39,1.1));
#1437=CARTESIAN_POINT('',(0.7,-0.75,0.665));
#1438=CARTESIAN_POINT('Origin',(-0.35,-1.445,0.8825));
#1439=CARTESIAN_POINT('',(-0.35,-1.5,0.665));
#1440=CARTESIAN_POINT('',(-0.35,-1.39,1.1));
#1441=CARTESIAN_POINT('Origin',(-0.7,-1.5,0.1));
#1442=CARTESIAN_POINT('',(-0.7,-1.5,0.535));
#1443=CARTESIAN_POINT('',(-0.7,-1.5,0.1));
#1444=CARTESIAN_POINT('',(0.7,-1.5,0.535));
#1445=CARTESIAN_POINT('',(-0.35,-1.5,0.535));
#1446=CARTESIAN_POINT('',(0.7,-1.5,0.1));
#1447=CARTESIAN_POINT('Origin',(-0.7,1.5,0.1));
#1448=CARTESIAN_POINT('',(-0.7,1.5,0.535));
#1449=CARTESIAN_POINT('',(-0.7,1.5,0.1));
#1450=CARTESIAN_POINT('',(-0.7,0.75,0.535));
#1451=CARTESIAN_POINT('Origin',(0.,0.,1.1));
#1452=CARTESIAN_POINT('Origin',(0.645,-0.75,0.3175));
#1453=CARTESIAN_POINT('',(0.7,1.5,0.535));
#1454=CARTESIAN_POINT('',(0.7,-0.75,0.535));
#1455=CARTESIAN_POINT('',(0.59,-1.39,0.1));
#1456=CARTESIAN_POINT('',(0.7,-1.5,0.535));
#1457=CARTESIAN_POINT('',(0.59,1.39,0.1));
#1458=CARTESIAN_POINT('',(0.59,-0.75,0.1));
#1459=CARTESIAN_POINT('',(0.59,1.39,0.1));
#1460=CARTESIAN_POINT('Origin',(-0.35,-1.445,0.3175));
#1461=CARTESIAN_POINT('',(-0.59,-1.39,0.1));
#1462=CARTESIAN_POINT('',(-0.35,-1.39,0.1));
#1463=CARTESIAN_POINT('',(-0.59,-1.39,0.1));
#1464=CARTESIAN_POINT('Origin',(0.35,1.445,0.3175));
#1465=CARTESIAN_POINT('',(0.35,1.5,0.535));
#1466=CARTESIAN_POINT('',(-0.59,1.39,0.1));
#1467=CARTESIAN_POINT('',(0.35,1.39,0.1));
#1468=CARTESIAN_POINT('',(-0.59,1.39,0.1));
#1469=CARTESIAN_POINT('Origin',(-0.645,0.75,0.3175));
#1470=CARTESIAN_POINT('',(-0.59,0.75,0.1));
#1471=CARTESIAN_POINT('Origin',(0.7,-1.5,0.1));
#1472=CARTESIAN_POINT('',(0.7,1.5,0.1));
#1473=CARTESIAN_POINT('Origin',(0.,0.,0.1));
#1474=CARTESIAN_POINT('Origin',(0.7,1.5,0.1));
#1475=CARTESIAN_POINT('Origin',(0.96875,-0.255,0.3325));
#1476=CARTESIAN_POINT('',(0.72,-0.255,0.13));
#1477=CARTESIAN_POINT('',(0.85,-0.255,1.73472347597681E-17));
#1478=CARTESIAN_POINT('Origin',(0.85,-0.255,0.13));
#1479=CARTESIAN_POINT('',(1.25,-0.255,0.));
#1480=CARTESIAN_POINT('',(1.25,-0.255,0.));
#1481=CARTESIAN_POINT('',(1.25,-0.255,0.13));
#1482=CARTESIAN_POINT('',(1.25,-0.255,0.13));
#1483=CARTESIAN_POINT('',(0.8825,-0.255,0.13));
#1484=CARTESIAN_POINT('',(0.8825,-0.255,0.13));
#1485=CARTESIAN_POINT('',(0.85,-0.255,0.1625));
#1486=CARTESIAN_POINT('Origin',(0.8825,-0.255,0.1625));
#1487=CARTESIAN_POINT('',(0.85,-0.255,0.535));
#1488=CARTESIAN_POINT('',(0.85,-0.255,0.535));
#1489=CARTESIAN_POINT('',(0.72,-0.255,0.665));
#1490=CARTESIAN_POINT('Origin',(0.72,-0.255,0.535));
#1491=CARTESIAN_POINT('',(0.7,-0.255,0.665));
#1492=CARTESIAN_POINT('',(0.7,-0.255,0.665));
#1493=CARTESIAN_POINT('',(0.7,-0.255,0.535));
#1494=CARTESIAN_POINT('',(0.7,-0.255,0.535));
#1495=CARTESIAN_POINT('',(0.6875,-0.255,0.535));
#1496=CARTESIAN_POINT('',(0.6875,-0.255,0.535));
#1497=CARTESIAN_POINT('',(0.72,-0.255,0.5025));
#1498=CARTESIAN_POINT('Origin',(0.6875,-0.255,0.5025));
#1499=CARTESIAN_POINT('',(0.72,-0.255,0.13));
#1500=CARTESIAN_POINT('Origin',(1.25,-1.53080849893419E-16,0.));
#1501=CARTESIAN_POINT('',(0.85,0.255,1.73472347597681E-17));
#1502=CARTESIAN_POINT('',(0.85,-1.04094977927525E-16,1.73472347597681E-17));
#1503=CARTESIAN_POINT('',(1.25,0.255,0.));
#1504=CARTESIAN_POINT('',(1.25,0.255,0.));
#1505=CARTESIAN_POINT('',(1.25,-1.53080849893419E-16,0.));
#1506=CARTESIAN_POINT('Origin',(1.25,-1.53080849893419E-16,0.13));
#1507=CARTESIAN_POINT('',(1.25,0.255,0.13));
#1508=CARTESIAN_POINT('',(1.25,0.255,0.13));
#1509=CARTESIAN_POINT('',(1.25,-1.53080849893419E-16,0.13));
#1510=CARTESIAN_POINT('Origin',(0.8825,-1.08075080024754E-16,0.13));
#1511=CARTESIAN_POINT('',(0.8825,0.255,0.13));
#1512=CARTESIAN_POINT('',(0.8825,0.255,0.13));
#1513=CARTESIAN_POINT('',(0.8825,-1.08075080024754E-16,0.13));
#1514=CARTESIAN_POINT('Origin',(0.8825,-1.08075080024754E-16,0.1625));
#1515=CARTESIAN_POINT('',(0.85,0.255,0.1625));
#1516=CARTESIAN_POINT('Origin',(0.8825,0.255,0.1625));
#1517=CARTESIAN_POINT('',(0.85,-1.04094977927525E-16,0.1625));
#1518=CARTESIAN_POINT('Origin',(0.85,-1.04094977927525E-16,0.535));
#1519=CARTESIAN_POINT('',(0.85,0.255,0.535));
#1520=CARTESIAN_POINT('',(0.85,0.255,0.535));
#1521=CARTESIAN_POINT('',(0.85,-1.04094977927525E-16,0.535));
#1522=CARTESIAN_POINT('Origin',(0.72,-8.81745695386094E-17,0.535));
#1523=CARTESIAN_POINT('',(0.72,0.255,0.665));
#1524=CARTESIAN_POINT('Origin',(0.72,0.255,0.535));
#1525=CARTESIAN_POINT('',(0.72,-8.81745695386094E-17,0.665));
#1526=CARTESIAN_POINT('Origin',(0.7,-8.57252759403147E-17,0.665));
#1527=CARTESIAN_POINT('',(0.7,0.255,0.665));
#1528=CARTESIAN_POINT('',(0.7,0.255,0.665));
#1529=CARTESIAN_POINT('',(0.7,-8.57252759403147E-17,0.665));
#1530=CARTESIAN_POINT('Origin',(0.7,-8.57252759403147E-17,0.535));
#1531=CARTESIAN_POINT('',(0.7,0.255,0.535));
#1532=CARTESIAN_POINT('',(0.7,0.255,0.535));
#1533=CARTESIAN_POINT('',(0.7,-8.57252759403147E-17,0.535));
#1534=CARTESIAN_POINT('Origin',(0.6875,-8.41944674413806E-17,0.535));
#1535=CARTESIAN_POINT('',(0.6875,0.255,0.535));
#1536=CARTESIAN_POINT('',(0.6875,0.255,0.535));
#1537=CARTESIAN_POINT('',(0.6875,-8.41944674413806E-17,0.535));
#1538=CARTESIAN_POINT('Origin',(0.6875,-8.41944674413805E-17,0.5025));
#1539=CARTESIAN_POINT('',(0.72,0.255,0.5025));
#1540=CARTESIAN_POINT('Origin',(0.6875,0.255,0.5025));
#1541=CARTESIAN_POINT('',(0.72,-8.81745695386094E-17,0.5025));
#1542=CARTESIAN_POINT('Origin',(0.72,-8.81745695386094E-17,0.13));
#1543=CARTESIAN_POINT('',(0.72,0.255,0.13));
#1544=CARTESIAN_POINT('',(0.72,0.255,0.13));
#1545=CARTESIAN_POINT('',(0.72,-8.81745695386094E-17,0.13));
#1546=CARTESIAN_POINT('Origin',(0.85,-1.04094977927525E-16,0.13));
#1547=CARTESIAN_POINT('Origin',(0.85,0.255,0.13));
#1548=CARTESIAN_POINT('Origin',(0.96875,0.255,0.3325));
#1549=CARTESIAN_POINT('Origin',(-0.96875,1.205,0.3325));
#1550=CARTESIAN_POINT('',(-0.72,1.205,0.13));
#1551=CARTESIAN_POINT('',(-0.85,1.205,1.73472347597681E-17));
#1552=CARTESIAN_POINT('Origin',(-0.85,1.205,0.13));
#1553=CARTESIAN_POINT('',(-1.25,1.205,0.));
#1554=CARTESIAN_POINT('',(-1.25,1.205,0.));
#1555=CARTESIAN_POINT('',(-1.25,1.205,0.13));
#1556=CARTESIAN_POINT('',(-1.25,1.205,0.13));
#1557=CARTESIAN_POINT('',(-0.8825,1.205,0.13));
#1558=CARTESIAN_POINT('',(-0.8825,1.205,0.13));
#1559=CARTESIAN_POINT('',(-0.85,1.205,0.1625));
#1560=CARTESIAN_POINT('Origin',(-0.8825,1.205,0.1625));
#1561=CARTESIAN_POINT('',(-0.85,1.205,0.535));
#1562=CARTESIAN_POINT('',(-0.85,1.205,0.535));
#1563=CARTESIAN_POINT('',(-0.72,1.205,0.665));
#1564=CARTESIAN_POINT('Origin',(-0.72,1.205,0.535));
#1565=CARTESIAN_POINT('',(-0.7,1.205,0.665));
#1566=CARTESIAN_POINT('',(-0.7,1.205,0.665));
#1567=CARTESIAN_POINT('',(-0.7,1.205,0.535));
#1568=CARTESIAN_POINT('',(-0.7,1.205,0.535));
#1569=CARTESIAN_POINT('',(-0.6875,1.205,0.535));
#1570=CARTESIAN_POINT('',(-0.6875,1.205,0.535));
#1571=CARTESIAN_POINT('',(-0.72,1.205,0.5025));
#1572=CARTESIAN_POINT('Origin',(-0.6875,1.205,0.5025));
#1573=CARTESIAN_POINT('',(-0.72,1.205,0.13));
#1574=CARTESIAN_POINT('Origin',(-1.25,0.95,0.));
#1575=CARTESIAN_POINT('',(-0.85,0.695,1.73472347597681E-17));
#1576=CARTESIAN_POINT('',(-0.85,0.95,1.73472347597681E-17));
#1577=CARTESIAN_POINT('',(-1.25,0.695,0.));
#1578=CARTESIAN_POINT('',(-1.25,0.695,0.));
#1579=CARTESIAN_POINT('',(-1.25,0.95,0.));
#1580=CARTESIAN_POINT('Origin',(-1.25,0.95,0.13));
#1581=CARTESIAN_POINT('',(-1.25,0.695,0.13));
#1582=CARTESIAN_POINT('',(-1.25,0.695,0.13));
#1583=CARTESIAN_POINT('',(-1.25,0.95,0.13));
#1584=CARTESIAN_POINT('Origin',(-0.8825,0.95,0.13));
#1585=CARTESIAN_POINT('',(-0.8825,0.695,0.13));
#1586=CARTESIAN_POINT('',(-0.8825,0.695,0.13));
#1587=CARTESIAN_POINT('',(-0.8825,0.95,0.13));
#1588=CARTESIAN_POINT('Origin',(-0.8825,0.95,0.1625));
#1589=CARTESIAN_POINT('',(-0.85,0.695,0.1625));
#1590=CARTESIAN_POINT('Origin',(-0.8825,0.695,0.1625));
#1591=CARTESIAN_POINT('',(-0.85,0.95,0.1625));
#1592=CARTESIAN_POINT('Origin',(-0.85,0.95,0.535));
#1593=CARTESIAN_POINT('',(-0.85,0.695,0.535));
#1594=CARTESIAN_POINT('',(-0.85,0.695,0.535));
#1595=CARTESIAN_POINT('',(-0.85,0.95,0.535));
#1596=CARTESIAN_POINT('Origin',(-0.72,0.95,0.535));
#1597=CARTESIAN_POINT('',(-0.72,0.695,0.665));
#1598=CARTESIAN_POINT('Origin',(-0.72,0.695,0.535));
#1599=CARTESIAN_POINT('',(-0.72,0.95,0.665));
#1600=CARTESIAN_POINT('Origin',(-0.7,0.95,0.665));
#1601=CARTESIAN_POINT('',(-0.7,0.695,0.665));
#1602=CARTESIAN_POINT('',(-0.7,0.695,0.665));
#1603=CARTESIAN_POINT('',(-0.7,0.95,0.665));
#1604=CARTESIAN_POINT('Origin',(-0.7,0.95,0.535));
#1605=CARTESIAN_POINT('',(-0.7,0.695,0.535));
#1606=CARTESIAN_POINT('',(-0.7,0.695,0.535));
#1607=CARTESIAN_POINT('',(-0.7,0.95,0.535));
#1608=CARTESIAN_POINT('Origin',(-0.6875,0.95,0.535));
#1609=CARTESIAN_POINT('',(-0.6875,0.695,0.535));
#1610=CARTESIAN_POINT('',(-0.6875,0.695,0.535));
#1611=CARTESIAN_POINT('',(-0.6875,0.95,0.535));
#1612=CARTESIAN_POINT('Origin',(-0.6875,0.95,0.5025));
#1613=CARTESIAN_POINT('',(-0.72,0.695,0.5025));
#1614=CARTESIAN_POINT('Origin',(-0.6875,0.695,0.5025));
#1615=CARTESIAN_POINT('',(-0.72,0.95,0.5025));
#1616=CARTESIAN_POINT('Origin',(-0.72,0.95,0.13));
#1617=CARTESIAN_POINT('',(-0.72,0.695,0.13));
#1618=CARTESIAN_POINT('',(-0.72,0.695,0.13));
#1619=CARTESIAN_POINT('',(-0.72,0.95,0.13));
#1620=CARTESIAN_POINT('Origin',(-0.85,0.95,0.13));
#1621=CARTESIAN_POINT('Origin',(-0.85,0.695,0.13));
#1622=CARTESIAN_POINT('Origin',(-0.96875,0.695,0.3325));
#1623=CARTESIAN_POINT('Origin',(-0.96875,-0.695,0.3325));
#1624=CARTESIAN_POINT('',(-0.72,-0.695,0.13));
#1625=CARTESIAN_POINT('',(-0.85,-0.695,1.73472347597681E-17));
#1626=CARTESIAN_POINT('Origin',(-0.85,-0.695,0.13));
#1627=CARTESIAN_POINT('',(-1.25,-0.695,0.));
#1628=CARTESIAN_POINT('',(-1.25,-0.695,0.));
#1629=CARTESIAN_POINT('',(-1.25,-0.695,0.13));
#1630=CARTESIAN_POINT('',(-1.25,-0.695,0.13));
#1631=CARTESIAN_POINT('',(-0.8825,-0.695,0.13));
#1632=CARTESIAN_POINT('',(-0.8825,-0.695,0.13));
#1633=CARTESIAN_POINT('',(-0.85,-0.695,0.1625));
#1634=CARTESIAN_POINT('Origin',(-0.8825,-0.695,0.1625));
#1635=CARTESIAN_POINT('',(-0.85,-0.695,0.535));
#1636=CARTESIAN_POINT('',(-0.85,-0.695,0.535));
#1637=CARTESIAN_POINT('',(-0.72,-0.695,0.665));
#1638=CARTESIAN_POINT('Origin',(-0.72,-0.695,0.535));
#1639=CARTESIAN_POINT('',(-0.7,-0.695,0.665));
#1640=CARTESIAN_POINT('',(-0.7,-0.695,0.665));
#1641=CARTESIAN_POINT('',(-0.7,-0.695,0.535));
#1642=CARTESIAN_POINT('',(-0.7,-0.695,0.535));
#1643=CARTESIAN_POINT('',(-0.6875,-0.695,0.535));
#1644=CARTESIAN_POINT('',(-0.6875,-0.695,0.535));
#1645=CARTESIAN_POINT('',(-0.72,-0.695,0.5025));
#1646=CARTESIAN_POINT('Origin',(-0.6875,-0.695,0.5025));
#1647=CARTESIAN_POINT('',(-0.72,-0.695,0.13));
#1648=CARTESIAN_POINT('Origin',(-1.25,-0.95,0.));
#1649=CARTESIAN_POINT('',(-0.85,-1.205,1.73472347597681E-17));
#1650=CARTESIAN_POINT('',(-0.85,-0.95,1.73472347597681E-17));
#1651=CARTESIAN_POINT('',(-1.25,-1.205,0.));
#1652=CARTESIAN_POINT('',(-1.25,-1.205,0.));
#1653=CARTESIAN_POINT('',(-1.25,-0.95,0.));
#1654=CARTESIAN_POINT('Origin',(-1.25,-0.95,0.13));
#1655=CARTESIAN_POINT('',(-1.25,-1.205,0.13));
#1656=CARTESIAN_POINT('',(-1.25,-1.205,0.13));
#1657=CARTESIAN_POINT('',(-1.25,-0.95,0.13));
#1658=CARTESIAN_POINT('Origin',(-0.8825,-0.95,0.13));
#1659=CARTESIAN_POINT('',(-0.8825,-1.205,0.13));
#1660=CARTESIAN_POINT('',(-0.8825,-1.205,0.13));
#1661=CARTESIAN_POINT('',(-0.8825,-0.95,0.13));
#1662=CARTESIAN_POINT('Origin',(-0.8825,-0.95,0.1625));
#1663=CARTESIAN_POINT('',(-0.85,-1.205,0.1625));
#1664=CARTESIAN_POINT('Origin',(-0.8825,-1.205,0.1625));
#1665=CARTESIAN_POINT('',(-0.85,-0.95,0.1625));
#1666=CARTESIAN_POINT('Origin',(-0.85,-0.95,0.535));
#1667=CARTESIAN_POINT('',(-0.85,-1.205,0.535));
#1668=CARTESIAN_POINT('',(-0.85,-1.205,0.535));
#1669=CARTESIAN_POINT('',(-0.85,-0.95,0.535));
#1670=CARTESIAN_POINT('Origin',(-0.72,-0.95,0.535));
#1671=CARTESIAN_POINT('',(-0.72,-1.205,0.665));
#1672=CARTESIAN_POINT('Origin',(-0.72,-1.205,0.535));
#1673=CARTESIAN_POINT('',(-0.72,-0.95,0.665));
#1674=CARTESIAN_POINT('Origin',(-0.7,-0.95,0.665));
#1675=CARTESIAN_POINT('',(-0.7,-1.205,0.665));
#1676=CARTESIAN_POINT('',(-0.7,-1.205,0.665));
#1677=CARTESIAN_POINT('',(-0.7,-0.95,0.665));
#1678=CARTESIAN_POINT('Origin',(-0.7,-0.95,0.535));
#1679=CARTESIAN_POINT('',(-0.7,-1.205,0.535));
#1680=CARTESIAN_POINT('',(-0.7,-1.205,0.535));
#1681=CARTESIAN_POINT('',(-0.7,-0.95,0.535));
#1682=CARTESIAN_POINT('Origin',(-0.6875,-0.95,0.535));
#1683=CARTESIAN_POINT('',(-0.6875,-1.205,0.535));
#1684=CARTESIAN_POINT('',(-0.6875,-1.205,0.535));
#1685=CARTESIAN_POINT('',(-0.6875,-0.95,0.535));
#1686=CARTESIAN_POINT('Origin',(-0.6875,-0.95,0.5025));
#1687=CARTESIAN_POINT('',(-0.72,-1.205,0.5025));
#1688=CARTESIAN_POINT('Origin',(-0.6875,-1.205,0.5025));
#1689=CARTESIAN_POINT('',(-0.72,-0.95,0.5025));
#1690=CARTESIAN_POINT('Origin',(-0.72,-0.95,0.13));
#1691=CARTESIAN_POINT('',(-0.72,-1.205,0.13));
#1692=CARTESIAN_POINT('',(-0.72,-1.205,0.13));
#1693=CARTESIAN_POINT('',(-0.72,-0.95,0.13));
#1694=CARTESIAN_POINT('Origin',(-0.85,-0.95,0.13));
#1695=CARTESIAN_POINT('Origin',(-0.85,-1.205,0.13));
#1696=CARTESIAN_POINT('Origin',(-0.96875,-1.205,0.3325));
#1697=CARTESIAN_POINT('',(0.,0.,0.));
#1698=UNCERTAINTY_MEASURE_WITH_UNIT(LENGTH_MEASURE(0.01),#1704,
'DISTANCE_ACCURACY_VALUE',
'Maximum model space distance between geometric entities at asserted c
onnectivities');
#1699=UNCERTAINTY_MEASURE_WITH_UNIT(LENGTH_MEASURE(0.01),#1704,
'DISTANCE_ACCURACY_VALUE',
'Maximum model space distance between geometric entities at asserted c
onnectivities');
#1700=UNCERTAINTY_MEASURE_WITH_UNIT(LENGTH_MEASURE(0.01),#1704,
'DISTANCE_ACCURACY_VALUE',
'Maximum model space distance between geometric entities at asserted c
onnectivities');
#1701=(
GEOMETRIC_REPRESENTATION_CONTEXT(3)
GLOBAL_UNCERTAINTY_ASSIGNED_CONTEXT((#1698))
GLOBAL_UNIT_ASSIGNED_CONTEXT((#1704,#1706,#1707))
REPRESENTATION_CONTEXT('','3D')
);
#1702=(
GEOMETRIC_REPRESENTATION_CONTEXT(3)
GLOBAL_UNCERTAINTY_ASSIGNED_CONTEXT((#1699))
GLOBAL_UNIT_ASSIGNED_CONTEXT((#1704,#1706,#1707))
REPRESENTATION_CONTEXT('','3D')
);
#1703=(
GEOMETRIC_REPRESENTATION_CONTEXT(3)
GLOBAL_UNCERTAINTY_ASSIGNED_CONTEXT((#1700))
GLOBAL_UNIT_ASSIGNED_CONTEXT((#1704,#1706,#1707))
REPRESENTATION_CONTEXT('','3D')
);
#1704=(
LENGTH_UNIT()
NAMED_UNIT(*)
SI_UNIT(.MILLI.,.METRE.)
);
#1705=(
LENGTH_UNIT()
NAMED_UNIT(*)
SI_UNIT($,.METRE.)
);
#1706=(
NAMED_UNIT(*)
PLANE_ANGLE_UNIT()
SI_UNIT($,.RADIAN.)
);
#1707=(
NAMED_UNIT(*)
SI_UNIT($,.STERADIAN.)
SOLID_ANGLE_UNIT()
);
#1708=SHAPE_DEFINITION_REPRESENTATION(#1710,#1713);
#1709=SHAPE_DEFINITION_REPRESENTATION(#1711,#1714);
#1710=PRODUCT_DEFINITION_SHAPE('',$,#1716);
#1711=PRODUCT_DEFINITION_SHAPE('',$,#1717);
#1712=PRODUCT_DEFINITION_SHAPE($,$,#14);
#1713=SHAPE_REPRESENTATION('',(#1034,#1120),#1701);
#1714=SHAPE_REPRESENTATION('',(#1035),#1702);
#1715=PRODUCT_DEFINITION_CONTEXT('part definition',#1723,'design');
#1716=PRODUCT_DEFINITION('SOT95P240X110-3N','SOT95P240X110-3N v1',#1718,
#1715);
#1717=PRODUCT_DEFINITION('Model','Model',#1719,#1715);
#1718=PRODUCT_DEFINITION_FORMATION('',$,#1725);
#1719=PRODUCT_DEFINITION_FORMATION('',$,#1726);
#1720=PRODUCT_RELATED_PRODUCT_CATEGORY('SOT95P240X110-3N v1',
'SOT95P240X110-3N v1',(#1725));
#1721=PRODUCT_RELATED_PRODUCT_CATEGORY('Model','Model',(#1726));
#1722=APPLICATION_PROTOCOL_DEFINITION('international standard',
'automotive_design',2009,#1723);
#1723=APPLICATION_CONTEXT(
'Core Data for Automotive Mechanical Design Process');
#1724=PRODUCT_CONTEXT('part definition',#1723,'mechanical');
#1725=PRODUCT('SOT95P240X110-3N','SOT95P240X110-3N v1',$,(#1724));
#1726=PRODUCT('Model','Model',$,(#1724));
#1727=PRESENTATION_STYLE_ASSIGNMENT((#1730));
#1728=PRESENTATION_STYLE_ASSIGNMENT((#1731));
#1729=PRESENTATION_STYLE_ASSIGNMENT((#1732));
#1730=SURFACE_STYLE_USAGE(.BOTH.,#1733);
#1731=SURFACE_STYLE_USAGE(.BOTH.,#1734);
#1732=SURFACE_STYLE_USAGE(.BOTH.,#1735);
#1733=SURFACE_SIDE_STYLE('',(#1736));
#1734=SURFACE_SIDE_STYLE('',(#1737));
#1735=SURFACE_SIDE_STYLE('',(#1738));
#1736=SURFACE_STYLE_FILL_AREA(#1739);
#1737=SURFACE_STYLE_FILL_AREA(#1740);
#1738=SURFACE_STYLE_FILL_AREA(#1741);
#1739=FILL_AREA_STYLE('Steel - Satin',(#1742));
#1740=FILL_AREA_STYLE('Plastic - Matte (Black)',(#1743));
#1741=FILL_AREA_STYLE('Silver - Polished',(#1744));
#1742=FILL_AREA_STYLE_COLOUR('Steel - Satin',#1745);
#1743=FILL_AREA_STYLE_COLOUR('Plastic - Matte (Black)',#1746);
#1744=FILL_AREA_STYLE_COLOUR('Silver - Polished',#1747);
#1745=COLOUR_RGB('Steel - Satin',0.627450980392157,0.627450980392157,0.627450980392157);
#1746=COLOUR_RGB('Plastic - Matte (Black)',0.0980392156862745,0.0980392156862745,
0.0980392156862745);
#1747=COLOUR_RGB('Silver - Polished',0.984313725490196,0.980392156862745,
0.96078431372549);
ENDSEC;
END-ISO-10303-21;
