ISO-10303-21;
HEADER;
/* Generated by software containing ST-Developer
 * from STEP Tools, Inc. (www.steptools.com) 
 */

FILE_DESCRIPTION(
/* description */ ('STEP AP214'),
/* implementation_level */ '2;1');

FILE_NAME(
/* name */ '0061eb9e-f4ca-4d56-ba68-84d4250d05d1.stp',
/* time_stamp */ '2026-06-09T12:25:50Z',
/* author */ (''),
/* organization */ (''),
/* preprocessor_version */ 'ST-DEVELOPER v20.1',
/* originating_system */ 'Autodesk Translation Framework v15.8.0.0',
/* authorisation */ '');

FILE_SCHEMA (('AUTOMOTIVE_DESIGN { 1 0 10303 214 3 1 1 }'));
ENDSEC;

DATA;
#10=MECHANICAL_DESIGN_GEOMETRIC_PRESENTATION_REPRESENTATION('',(#37,#38,
#39),#1257);
#11=SHAPE_REPRESENTATION_RELATIONSHIP('SRR','None',#1264,#12);
#12=ADVANCED_BREP_SHAPE_REPRESENTATION('',(#40,#41,#42),#1256);
#13=CIRCLE('',#792,0.15);
#14=CIRCLE('',#793,0.15);
#15=CIRCLE('',#796,0.15);
#16=CIRCLE('',#797,0.15);
#17=CIRCLE('',#802,0.43);
#18=CIRCLE('',#803,0.43);
#19=CIRCLE('',#806,0.43);
#20=CIRCLE('',#807,0.43);
#21=CIRCLE('',#815,0.43);
#22=CIRCLE('',#816,0.43);
#23=CIRCLE('',#819,0.43);
#24=CIRCLE('',#820,0.43);
#25=CIRCLE('',#825,0.15);
#26=CIRCLE('',#826,0.15);
#27=CIRCLE('',#829,0.15);
#28=CIRCLE('',#830,0.15);
#29=CYLINDRICAL_SURFACE('',#791,0.15);
#30=CYLINDRICAL_SURFACE('',#795,0.15);
#31=CYLINDRICAL_SURFACE('',#801,0.43);
#32=CYLINDRICAL_SURFACE('',#805,0.43);
#33=CYLINDRICAL_SURFACE('',#814,0.429999999999999);
#34=CYLINDRICAL_SURFACE('',#818,0.43);
#35=CYLINDRICAL_SURFACE('',#824,0.15);
#36=CYLINDRICAL_SURFACE('',#828,0.15);
#37=STYLED_ITEM('',(#1274),#40);
#38=STYLED_ITEM('',(#1275),#41);
#39=STYLED_ITEM('',(#1275),#42);
#40=MANIFOLD_SOLID_BREP('Body1',#759);
#41=MANIFOLD_SOLID_BREP('Body2',#760);
#42=MANIFOLD_SOLID_BREP('Body3',#761);
#43=FACE_OUTER_BOUND('',#85,.T.);
#44=FACE_OUTER_BOUND('',#86,.T.);
#45=FACE_OUTER_BOUND('',#87,.T.);
#46=FACE_OUTER_BOUND('',#88,.T.);
#47=FACE_OUTER_BOUND('',#89,.T.);
#48=FACE_OUTER_BOUND('',#90,.T.);
#49=FACE_OUTER_BOUND('',#91,.T.);
#50=FACE_OUTER_BOUND('',#92,.T.);
#51=FACE_OUTER_BOUND('',#93,.T.);
#52=FACE_OUTER_BOUND('',#94,.T.);
#53=FACE_OUTER_BOUND('',#95,.T.);
#54=FACE_OUTER_BOUND('',#96,.T.);
#55=FACE_OUTER_BOUND('',#97,.T.);
#56=FACE_OUTER_BOUND('',#98,.T.);
#57=FACE_OUTER_BOUND('',#99,.T.);
#58=FACE_OUTER_BOUND('',#100,.T.);
#59=FACE_OUTER_BOUND('',#101,.T.);
#60=FACE_OUTER_BOUND('',#102,.T.);
#61=FACE_OUTER_BOUND('',#103,.T.);
#62=FACE_OUTER_BOUND('',#104,.T.);
#63=FACE_OUTER_BOUND('',#105,.T.);
#64=FACE_OUTER_BOUND('',#106,.T.);
#65=FACE_OUTER_BOUND('',#107,.T.);
#66=FACE_OUTER_BOUND('',#108,.T.);
#67=FACE_OUTER_BOUND('',#109,.T.);
#68=FACE_OUTER_BOUND('',#110,.T.);
#69=FACE_OUTER_BOUND('',#111,.T.);
#70=FACE_OUTER_BOUND('',#112,.T.);
#71=FACE_OUTER_BOUND('',#113,.T.);
#72=FACE_OUTER_BOUND('',#114,.T.);
#73=FACE_OUTER_BOUND('',#115,.T.);
#74=FACE_OUTER_BOUND('',#116,.T.);
#75=FACE_OUTER_BOUND('',#117,.T.);
#76=FACE_OUTER_BOUND('',#118,.T.);
#77=FACE_OUTER_BOUND('',#119,.T.);
#78=FACE_OUTER_BOUND('',#120,.T.);
#79=FACE_OUTER_BOUND('',#121,.T.);
#80=FACE_OUTER_BOUND('',#122,.T.);
#81=FACE_OUTER_BOUND('',#123,.T.);
#82=FACE_OUTER_BOUND('',#124,.T.);
#83=FACE_OUTER_BOUND('',#125,.T.);
#84=FACE_OUTER_BOUND('',#126,.T.);
#85=EDGE_LOOP('',(#475,#476,#477,#478));
#86=EDGE_LOOP('',(#479,#480,#481,#482));
#87=EDGE_LOOP('',(#483,#484,#485,#486));
#88=EDGE_LOOP('',(#487,#488,#489,#490));
#89=EDGE_LOOP('',(#491,#492,#493,#494));
#90=EDGE_LOOP('',(#495,#496,#497,#498));
#91=EDGE_LOOP('',(#499,#500,#501,#502,#503,#504,#505,#506));
#92=EDGE_LOOP('',(#507,#508,#509,#510));
#93=EDGE_LOOP('',(#511,#512,#513,#514,#515,#516,#517,#518));
#94=EDGE_LOOP('',(#519,#520,#521,#522));
#95=EDGE_LOOP('',(#523,#524,#525,#526));
#96=EDGE_LOOP('',(#527,#528,#529,#530));
#97=EDGE_LOOP('',(#531,#532,#533,#534));
#98=EDGE_LOOP('',(#535,#536,#537,#538));
#99=EDGE_LOOP('',(#539,#540,#541,#542));
#100=EDGE_LOOP('',(#543,#544,#545,#546));
#101=EDGE_LOOP('',(#547,#548,#549,#550));
#102=EDGE_LOOP('',(#551,#552,#553,#554));
#103=EDGE_LOOP('',(#555,#556,#557,#558));
#104=EDGE_LOOP('',(#559,#560,#561,#562));
#105=EDGE_LOOP('',(#563,#564,#565,#566));
#106=EDGE_LOOP('',(#567,#568,#569,#570));
#107=EDGE_LOOP('',(#571,#572,#573,#574));
#108=EDGE_LOOP('',(#575,#576,#577,#578));
#109=EDGE_LOOP('',(#579,#580,#581,#582));
#110=EDGE_LOOP('',(#583,#584,#585,#586));
#111=EDGE_LOOP('',(#587,#588,#589,#590,#591,#592,#593,#594,#595,#596,#597,
#598));
#112=EDGE_LOOP('',(#599,#600,#601,#602,#603,#604,#605,#606,#607,#608,#609,
#610));
#113=EDGE_LOOP('',(#611,#612,#613,#614));
#114=EDGE_LOOP('',(#615,#616,#617,#618));
#115=EDGE_LOOP('',(#619,#620,#621,#622));
#116=EDGE_LOOP('',(#623,#624,#625,#626));
#117=EDGE_LOOP('',(#627,#628,#629,#630));
#118=EDGE_LOOP('',(#631,#632,#633,#634));
#119=EDGE_LOOP('',(#635,#636,#637,#638));
#120=EDGE_LOOP('',(#639,#640,#641,#642));
#121=EDGE_LOOP('',(#643,#644,#645,#646));
#122=EDGE_LOOP('',(#647,#648,#649,#650));
#123=EDGE_LOOP('',(#651,#652,#653,#654));
#124=EDGE_LOOP('',(#655,#656,#657,#658));
#125=EDGE_LOOP('',(#659,#660,#661,#662,#663,#664,#665,#666,#667,#668,#669,
#670));
#126=EDGE_LOOP('',(#671,#672,#673,#674,#675,#676,#677,#678,#679,#680,#681,
#682));
#127=LINE('',#1043,#215);
#128=LINE('',#1045,#216);
#129=LINE('',#1047,#217);
#130=LINE('',#1048,#218);
#131=LINE('',#1052,#219);
#132=LINE('',#1054,#220);
#133=LINE('',#1056,#221);
#134=LINE('',#1057,#222);
#135=LINE('',#1061,#223);
#136=LINE('',#1063,#224);
#137=LINE('',#1065,#225);
#138=LINE('',#1066,#226);
#139=LINE('',#1068,#227);
#140=LINE('',#1069,#228);
#141=LINE('',#1073,#229);
#142=LINE('',#1075,#230);
#143=LINE('',#1077,#231);
#144=LINE('',#1078,#232);
#145=LINE('',#1080,#233);
#146=LINE('',#1081,#234);
#147=LINE('',#1084,#235);
#148=LINE('',#1085,#236);
#149=LINE('',#1086,#237);
#150=LINE('',#1088,#238);
#151=LINE('',#1089,#239);
#152=LINE('',#1093,#240);
#153=LINE('',#1094,#241);
#154=LINE('',#1096,#242);
#155=LINE('',#1097,#243);
#156=LINE('',#1098,#244);
#157=LINE('',#1101,#245);
#158=LINE('',#1104,#246);
#159=LINE('',#1109,#247);
#160=LINE('',#1111,#248);
#161=LINE('',#1113,#249);
#162=LINE('',#1114,#250);
#163=LINE('',#1117,#251);
#164=LINE('',#1119,#252);
#165=LINE('',#1120,#253);
#166=LINE('',#1125,#254);
#167=LINE('',#1129,#255);
#168=LINE('',#1131,#256);
#169=LINE('',#1132,#257);
#170=LINE('',#1137,#258);
#171=LINE('',#1141,#259);
#172=LINE('',#1143,#260);
#173=LINE('',#1144,#261);
#174=LINE('',#1147,#262);
#175=LINE('',#1149,#263);
#176=LINE('',#1150,#264);
#177=LINE('',#1153,#265);
#178=LINE('',#1155,#266);
#179=LINE('',#1156,#267);
#180=LINE('',#1161,#268);
#181=LINE('',#1165,#269);
#182=LINE('',#1167,#270);
#183=LINE('',#1168,#271);
#184=LINE('',#1173,#272);
#185=LINE('',#1176,#273);
#186=LINE('',#1177,#274);
#187=LINE('',#1183,#275);
#188=LINE('',#1185,#276);
#189=LINE('',#1187,#277);
#190=LINE('',#1188,#278);
#191=LINE('',#1191,#279);
#192=LINE('',#1193,#280);
#193=LINE('',#1194,#281);
#194=LINE('',#1197,#282);
#195=LINE('',#1199,#283);
#196=LINE('',#1200,#284);
#197=LINE('',#1205,#285);
#198=LINE('',#1209,#286);
#199=LINE('',#1211,#287);
#200=LINE('',#1212,#288);
#201=LINE('',#1217,#289);
#202=LINE('',#1221,#290);
#203=LINE('',#1223,#291);
#204=LINE('',#1224,#292);
#205=LINE('',#1227,#293);
#206=LINE('',#1229,#294);
#207=LINE('',#1230,#295);
#208=LINE('',#1233,#296);
#209=LINE('',#1235,#297);
#210=LINE('',#1236,#298);
#211=LINE('',#1241,#299);
#212=LINE('',#1245,#300);
#213=LINE('',#1247,#301);
#214=LINE('',#1248,#302);
#215=VECTOR('',#837,1000.);
#216=VECTOR('',#838,1000.);
#217=VECTOR('',#839,1000.);
#218=VECTOR('',#840,1000.);
#219=VECTOR('',#843,1000.);
#220=VECTOR('',#844,1000.);
#221=VECTOR('',#845,1000.);
#222=VECTOR('',#846,1000.);
#223=VECTOR('',#849,1000.);
#224=VECTOR('',#850,10.);
#225=VECTOR('',#851,1000.);
#226=VECTOR('',#852,1000.);
#227=VECTOR('',#855,1000.);
#228=VECTOR('',#856,1000.);
#229=VECTOR('',#859,1000.);
#230=VECTOR('',#860,10.);
#231=VECTOR('',#861,1000.);
#232=VECTOR('',#862,1000.);
#233=VECTOR('',#865,1000.);
#234=VECTOR('',#866,1000.);
#235=VECTOR('',#869,1000.);
#236=VECTOR('',#870,1000.);
#237=VECTOR('',#871,1000.);
#238=VECTOR('',#872,1000.);
#239=VECTOR('',#873,1000.);
#240=VECTOR('',#878,1000.);
#241=VECTOR('',#879,1000.);
#242=VECTOR('',#880,1000.);
#243=VECTOR('',#881,1000.);
#244=VECTOR('',#882,1000.);
#245=VECTOR('',#887,1000.);
#246=VECTOR('',#892,1000.);
#247=VECTOR('',#897,1000.);
#248=VECTOR('',#898,1000.);
#249=VECTOR('',#899,1000.);
#250=VECTOR('',#900,1000.);
#251=VECTOR('',#903,1000.);
#252=VECTOR('',#904,1000.);
#253=VECTOR('',#905,1000.);
#254=VECTOR('',#910,1000.);
#255=VECTOR('',#915,1000.);
#256=VECTOR('',#916,1000.);
#257=VECTOR('',#917,1000.);
#258=VECTOR('',#922,1000.);
#259=VECTOR('',#927,1000.);
#260=VECTOR('',#928,1000.);
#261=VECTOR('',#929,1000.);
#262=VECTOR('',#932,1000.);
#263=VECTOR('',#933,1000.);
#264=VECTOR('',#934,1000.);
#265=VECTOR('',#937,1000.);
#266=VECTOR('',#938,1000.);
#267=VECTOR('',#939,1000.);
#268=VECTOR('',#944,1000.);
#269=VECTOR('',#949,1000.);
#270=VECTOR('',#950,1000.);
#271=VECTOR('',#951,1000.);
#272=VECTOR('',#956,1000.);
#273=VECTOR('',#961,1000.);
#274=VECTOR('',#962,1000.);
#275=VECTOR('',#969,1000.);
#276=VECTOR('',#970,1000.);
#277=VECTOR('',#971,1000.);
#278=VECTOR('',#972,1000.);
#279=VECTOR('',#975,1000.);
#280=VECTOR('',#976,1000.);
#281=VECTOR('',#977,1000.);
#282=VECTOR('',#980,1000.);
#283=VECTOR('',#981,1000.);
#284=VECTOR('',#982,1000.);
#285=VECTOR('',#987,1000.);
#286=VECTOR('',#992,1000.);
#287=VECTOR('',#993,1000.);
#288=VECTOR('',#994,1000.);
#289=VECTOR('',#999,1000.);
#290=VECTOR('',#1004,1000.);
#291=VECTOR('',#1005,1000.);
#292=VECTOR('',#1006,1000.);
#293=VECTOR('',#1009,1000.);
#294=VECTOR('',#1010,1000.);
#295=VECTOR('',#1011,1000.);
#296=VECTOR('',#1014,1000.);
#297=VECTOR('',#1015,1000.);
#298=VECTOR('',#1016,1000.);
#299=VECTOR('',#1021,1000.);
#300=VECTOR('',#1026,1000.);
#301=VECTOR('',#1027,1000.);
#302=VECTOR('',#1028,1000.);
#303=VERTEX_POINT('',#1041);
#304=VERTEX_POINT('',#1042);
#305=VERTEX_POINT('',#1044);
#306=VERTEX_POINT('',#1046);
#307=VERTEX_POINT('',#1050);
#308=VERTEX_POINT('',#1051);
#309=VERTEX_POINT('',#1053);
#310=VERTEX_POINT('',#1055);
#311=VERTEX_POINT('',#1059);
#312=VERTEX_POINT('',#1060);
#313=VERTEX_POINT('',#1062);
#314=VERTEX_POINT('',#1064);
#315=VERTEX_POINT('',#1071);
#316=VERTEX_POINT('',#1072);
#317=VERTEX_POINT('',#1074);
#318=VERTEX_POINT('',#1076);
#319=VERTEX_POINT('',#1083);
#320=VERTEX_POINT('',#1087);
#321=VERTEX_POINT('',#1092);
#322=VERTEX_POINT('',#1095);
#323=VERTEX_POINT('',#1107);
#324=VERTEX_POINT('',#1108);
#325=VERTEX_POINT('',#1110);
#326=VERTEX_POINT('',#1112);
#327=VERTEX_POINT('',#1116);
#328=VERTEX_POINT('',#1118);
#329=VERTEX_POINT('',#1122);
#330=VERTEX_POINT('',#1124);
#331=VERTEX_POINT('',#1128);
#332=VERTEX_POINT('',#1130);
#333=VERTEX_POINT('',#1134);
#334=VERTEX_POINT('',#1136);
#335=VERTEX_POINT('',#1140);
#336=VERTEX_POINT('',#1142);
#337=VERTEX_POINT('',#1146);
#338=VERTEX_POINT('',#1148);
#339=VERTEX_POINT('',#1152);
#340=VERTEX_POINT('',#1154);
#341=VERTEX_POINT('',#1158);
#342=VERTEX_POINT('',#1160);
#343=VERTEX_POINT('',#1164);
#344=VERTEX_POINT('',#1166);
#345=VERTEX_POINT('',#1170);
#346=VERTEX_POINT('',#1172);
#347=VERTEX_POINT('',#1181);
#348=VERTEX_POINT('',#1182);
#349=VERTEX_POINT('',#1184);
#350=VERTEX_POINT('',#1186);
#351=VERTEX_POINT('',#1190);
#352=VERTEX_POINT('',#1192);
#353=VERTEX_POINT('',#1196);
#354=VERTEX_POINT('',#1198);
#355=VERTEX_POINT('',#1202);
#356=VERTEX_POINT('',#1204);
#357=VERTEX_POINT('',#1208);
#358=VERTEX_POINT('',#1210);
#359=VERTEX_POINT('',#1214);
#360=VERTEX_POINT('',#1216);
#361=VERTEX_POINT('',#1220);
#362=VERTEX_POINT('',#1222);
#363=VERTEX_POINT('',#1226);
#364=VERTEX_POINT('',#1228);
#365=VERTEX_POINT('',#1232);
#366=VERTEX_POINT('',#1234);
#367=VERTEX_POINT('',#1238);
#368=VERTEX_POINT('',#1240);
#369=VERTEX_POINT('',#1244);
#370=VERTEX_POINT('',#1246);
#371=EDGE_CURVE('',#303,#304,#127,.T.);
#372=EDGE_CURVE('',#303,#305,#128,.T.);
#373=EDGE_CURVE('',#305,#306,#129,.T.);
#374=EDGE_CURVE('',#304,#306,#130,.T.);
#375=EDGE_CURVE('',#307,#308,#131,.T.);
#376=EDGE_CURVE('',#309,#308,#132,.T.);
#377=EDGE_CURVE('',#310,#309,#133,.T.);
#378=EDGE_CURVE('',#310,#307,#134,.T.);
#379=EDGE_CURVE('',#311,#312,#135,.T.);
#380=EDGE_CURVE('',#313,#312,#136,.T.);
#381=EDGE_CURVE('',#313,#314,#137,.T.);
#382=EDGE_CURVE('',#314,#311,#138,.T.);
#383=EDGE_CURVE('',#308,#311,#139,.T.);
#384=EDGE_CURVE('',#314,#309,#140,.T.);
#385=EDGE_CURVE('',#315,#316,#141,.T.);
#386=EDGE_CURVE('',#316,#317,#142,.T.);
#387=EDGE_CURVE('',#317,#318,#143,.T.);
#388=EDGE_CURVE('',#315,#318,#144,.T.);
#389=EDGE_CURVE('',#318,#307,#145,.T.);
#390=EDGE_CURVE('',#310,#315,#146,.T.);
#391=EDGE_CURVE('',#303,#319,#147,.T.);
#392=EDGE_CURVE('',#319,#316,#148,.T.);
#393=EDGE_CURVE('',#315,#314,#149,.T.);
#394=EDGE_CURVE('',#313,#320,#150,.T.);
#395=EDGE_CURVE('',#320,#305,#151,.T.);
#396=EDGE_CURVE('',#317,#321,#152,.T.);
#397=EDGE_CURVE('',#321,#304,#153,.T.);
#398=EDGE_CURVE('',#306,#322,#154,.T.);
#399=EDGE_CURVE('',#322,#312,#155,.T.);
#400=EDGE_CURVE('',#318,#311,#156,.T.);
#401=EDGE_CURVE('',#320,#322,#157,.T.);
#402=EDGE_CURVE('',#319,#321,#158,.T.);
#403=EDGE_CURVE('',#323,#324,#159,.T.);
#404=EDGE_CURVE('',#325,#324,#160,.T.);
#405=EDGE_CURVE('',#326,#325,#161,.T.);
#406=EDGE_CURVE('',#326,#323,#162,.T.);
#407=EDGE_CURVE('',#324,#327,#163,.T.);
#408=EDGE_CURVE('',#328,#327,#164,.T.);
#409=EDGE_CURVE('',#325,#328,#165,.T.);
#410=EDGE_CURVE('',#327,#329,#13,.T.);
#411=EDGE_CURVE('',#330,#329,#166,.T.);
#412=EDGE_CURVE('',#328,#330,#14,.T.);
#413=EDGE_CURVE('',#329,#331,#167,.T.);
#414=EDGE_CURVE('',#332,#331,#168,.T.);
#415=EDGE_CURVE('',#330,#332,#169,.T.);
#416=EDGE_CURVE('',#331,#333,#15,.T.);
#417=EDGE_CURVE('',#334,#333,#170,.T.);
#418=EDGE_CURVE('',#332,#334,#16,.T.);
#419=EDGE_CURVE('',#333,#335,#171,.T.);
#420=EDGE_CURVE('',#336,#335,#172,.T.);
#421=EDGE_CURVE('',#334,#336,#173,.T.);
#422=EDGE_CURVE('',#335,#337,#174,.T.);
#423=EDGE_CURVE('',#338,#337,#175,.T.);
#424=EDGE_CURVE('',#336,#338,#176,.T.);
#425=EDGE_CURVE('',#337,#339,#177,.T.);
#426=EDGE_CURVE('',#340,#339,#178,.T.);
#427=EDGE_CURVE('',#338,#340,#179,.T.);
#428=EDGE_CURVE('',#339,#341,#17,.T.);
#429=EDGE_CURVE('',#342,#341,#180,.T.);
#430=EDGE_CURVE('',#340,#342,#18,.T.);
#431=EDGE_CURVE('',#341,#343,#181,.T.);
#432=EDGE_CURVE('',#344,#343,#182,.T.);
#433=EDGE_CURVE('',#342,#344,#183,.T.);
#434=EDGE_CURVE('',#343,#345,#19,.T.);
#435=EDGE_CURVE('',#346,#345,#184,.T.);
#436=EDGE_CURVE('',#344,#346,#20,.T.);
#437=EDGE_CURVE('',#345,#323,#185,.T.);
#438=EDGE_CURVE('',#346,#326,#186,.T.);
#439=EDGE_CURVE('',#347,#348,#187,.T.);
#440=EDGE_CURVE('',#349,#348,#188,.T.);
#441=EDGE_CURVE('',#350,#349,#189,.T.);
#442=EDGE_CURVE('',#350,#347,#190,.T.);
#443=EDGE_CURVE('',#348,#351,#191,.T.);
#444=EDGE_CURVE('',#352,#351,#192,.T.);
#445=EDGE_CURVE('',#349,#352,#193,.T.);
#446=EDGE_CURVE('',#351,#353,#194,.T.);
#447=EDGE_CURVE('',#354,#353,#195,.T.);
#448=EDGE_CURVE('',#352,#354,#196,.T.);
#449=EDGE_CURVE('',#353,#355,#21,.T.);
#450=EDGE_CURVE('',#356,#355,#197,.T.);
#451=EDGE_CURVE('',#354,#356,#22,.T.);
#452=EDGE_CURVE('',#355,#357,#198,.T.);
#453=EDGE_CURVE('',#358,#357,#199,.T.);
#454=EDGE_CURVE('',#356,#358,#200,.T.);
#455=EDGE_CURVE('',#357,#359,#23,.T.);
#456=EDGE_CURVE('',#360,#359,#201,.T.);
#457=EDGE_CURVE('',#358,#360,#24,.T.);
#458=EDGE_CURVE('',#359,#361,#202,.T.);
#459=EDGE_CURVE('',#362,#361,#203,.T.);
#460=EDGE_CURVE('',#360,#362,#204,.T.);
#461=EDGE_CURVE('',#361,#363,#205,.T.);
#462=EDGE_CURVE('',#364,#363,#206,.T.);
#463=EDGE_CURVE('',#362,#364,#207,.T.);
#464=EDGE_CURVE('',#363,#365,#208,.T.);
#465=EDGE_CURVE('',#366,#365,#209,.T.);
#466=EDGE_CURVE('',#364,#366,#210,.T.);
#467=EDGE_CURVE('',#365,#367,#25,.T.);
#468=EDGE_CURVE('',#368,#367,#211,.T.);
#469=EDGE_CURVE('',#366,#368,#26,.T.);
#470=EDGE_CURVE('',#367,#369,#212,.T.);
#471=EDGE_CURVE('',#370,#369,#213,.T.);
#472=EDGE_CURVE('',#368,#370,#214,.T.);
#473=EDGE_CURVE('',#369,#347,#27,.T.);
#474=EDGE_CURVE('',#370,#350,#28,.T.);
#475=ORIENTED_EDGE('',*,*,#371,.F.);
#476=ORIENTED_EDGE('',*,*,#372,.T.);
#477=ORIENTED_EDGE('',*,*,#373,.T.);
#478=ORIENTED_EDGE('',*,*,#374,.F.);
#479=ORIENTED_EDGE('',*,*,#375,.T.);
#480=ORIENTED_EDGE('',*,*,#376,.F.);
#481=ORIENTED_EDGE('',*,*,#377,.F.);
#482=ORIENTED_EDGE('',*,*,#378,.T.);
#483=ORIENTED_EDGE('',*,*,#379,.T.);
#484=ORIENTED_EDGE('',*,*,#380,.F.);
#485=ORIENTED_EDGE('',*,*,#381,.T.);
#486=ORIENTED_EDGE('',*,*,#382,.T.);
#487=ORIENTED_EDGE('',*,*,#376,.T.);
#488=ORIENTED_EDGE('',*,*,#383,.T.);
#489=ORIENTED_EDGE('',*,*,#382,.F.);
#490=ORIENTED_EDGE('',*,*,#384,.T.);
#491=ORIENTED_EDGE('',*,*,#385,.T.);
#492=ORIENTED_EDGE('',*,*,#386,.T.);
#493=ORIENTED_EDGE('',*,*,#387,.T.);
#494=ORIENTED_EDGE('',*,*,#388,.F.);
#495=ORIENTED_EDGE('',*,*,#388,.T.);
#496=ORIENTED_EDGE('',*,*,#389,.T.);
#497=ORIENTED_EDGE('',*,*,#378,.F.);
#498=ORIENTED_EDGE('',*,*,#390,.T.);
#499=ORIENTED_EDGE('',*,*,#391,.T.);
#500=ORIENTED_EDGE('',*,*,#392,.T.);
#501=ORIENTED_EDGE('',*,*,#385,.F.);
#502=ORIENTED_EDGE('',*,*,#393,.T.);
#503=ORIENTED_EDGE('',*,*,#381,.F.);
#504=ORIENTED_EDGE('',*,*,#394,.T.);
#505=ORIENTED_EDGE('',*,*,#395,.T.);
#506=ORIENTED_EDGE('',*,*,#372,.F.);
#507=ORIENTED_EDGE('',*,*,#393,.F.);
#508=ORIENTED_EDGE('',*,*,#390,.F.);
#509=ORIENTED_EDGE('',*,*,#377,.T.);
#510=ORIENTED_EDGE('',*,*,#384,.F.);
#511=ORIENTED_EDGE('',*,*,#387,.F.);
#512=ORIENTED_EDGE('',*,*,#396,.T.);
#513=ORIENTED_EDGE('',*,*,#397,.T.);
#514=ORIENTED_EDGE('',*,*,#374,.T.);
#515=ORIENTED_EDGE('',*,*,#398,.T.);
#516=ORIENTED_EDGE('',*,*,#399,.T.);
#517=ORIENTED_EDGE('',*,*,#379,.F.);
#518=ORIENTED_EDGE('',*,*,#400,.F.);
#519=ORIENTED_EDGE('',*,*,#375,.F.);
#520=ORIENTED_EDGE('',*,*,#389,.F.);
#521=ORIENTED_EDGE('',*,*,#400,.T.);
#522=ORIENTED_EDGE('',*,*,#383,.F.);
#523=ORIENTED_EDGE('',*,*,#401,.T.);
#524=ORIENTED_EDGE('',*,*,#398,.F.);
#525=ORIENTED_EDGE('',*,*,#373,.F.);
#526=ORIENTED_EDGE('',*,*,#395,.F.);
#527=ORIENTED_EDGE('',*,*,#380,.T.);
#528=ORIENTED_EDGE('',*,*,#399,.F.);
#529=ORIENTED_EDGE('',*,*,#401,.F.);
#530=ORIENTED_EDGE('',*,*,#394,.F.);
#531=ORIENTED_EDGE('',*,*,#402,.T.);
#532=ORIENTED_EDGE('',*,*,#396,.F.);
#533=ORIENTED_EDGE('',*,*,#386,.F.);
#534=ORIENTED_EDGE('',*,*,#392,.F.);
#535=ORIENTED_EDGE('',*,*,#371,.T.);
#536=ORIENTED_EDGE('',*,*,#397,.F.);
#537=ORIENTED_EDGE('',*,*,#402,.F.);
#538=ORIENTED_EDGE('',*,*,#391,.F.);
#539=ORIENTED_EDGE('',*,*,#403,.T.);
#540=ORIENTED_EDGE('',*,*,#404,.F.);
#541=ORIENTED_EDGE('',*,*,#405,.F.);
#542=ORIENTED_EDGE('',*,*,#406,.T.);
#543=ORIENTED_EDGE('',*,*,#407,.T.);
#544=ORIENTED_EDGE('',*,*,#408,.F.);
#545=ORIENTED_EDGE('',*,*,#409,.F.);
#546=ORIENTED_EDGE('',*,*,#404,.T.);
#547=ORIENTED_EDGE('',*,*,#410,.T.);
#548=ORIENTED_EDGE('',*,*,#411,.F.);
#549=ORIENTED_EDGE('',*,*,#412,.F.);
#550=ORIENTED_EDGE('',*,*,#408,.T.);
#551=ORIENTED_EDGE('',*,*,#413,.T.);
#552=ORIENTED_EDGE('',*,*,#414,.F.);
#553=ORIENTED_EDGE('',*,*,#415,.F.);
#554=ORIENTED_EDGE('',*,*,#411,.T.);
#555=ORIENTED_EDGE('',*,*,#416,.T.);
#556=ORIENTED_EDGE('',*,*,#417,.F.);
#557=ORIENTED_EDGE('',*,*,#418,.F.);
#558=ORIENTED_EDGE('',*,*,#414,.T.);
#559=ORIENTED_EDGE('',*,*,#419,.T.);
#560=ORIENTED_EDGE('',*,*,#420,.F.);
#561=ORIENTED_EDGE('',*,*,#421,.F.);
#562=ORIENTED_EDGE('',*,*,#417,.T.);
#563=ORIENTED_EDGE('',*,*,#422,.T.);
#564=ORIENTED_EDGE('',*,*,#423,.F.);
#565=ORIENTED_EDGE('',*,*,#424,.F.);
#566=ORIENTED_EDGE('',*,*,#420,.T.);
#567=ORIENTED_EDGE('',*,*,#425,.T.);
#568=ORIENTED_EDGE('',*,*,#426,.F.);
#569=ORIENTED_EDGE('',*,*,#427,.F.);
#570=ORIENTED_EDGE('',*,*,#423,.T.);
#571=ORIENTED_EDGE('',*,*,#428,.T.);
#572=ORIENTED_EDGE('',*,*,#429,.F.);
#573=ORIENTED_EDGE('',*,*,#430,.F.);
#574=ORIENTED_EDGE('',*,*,#426,.T.);
#575=ORIENTED_EDGE('',*,*,#431,.T.);
#576=ORIENTED_EDGE('',*,*,#432,.F.);
#577=ORIENTED_EDGE('',*,*,#433,.F.);
#578=ORIENTED_EDGE('',*,*,#429,.T.);
#579=ORIENTED_EDGE('',*,*,#434,.T.);
#580=ORIENTED_EDGE('',*,*,#435,.F.);
#581=ORIENTED_EDGE('',*,*,#436,.F.);
#582=ORIENTED_EDGE('',*,*,#432,.T.);
#583=ORIENTED_EDGE('',*,*,#437,.T.);
#584=ORIENTED_EDGE('',*,*,#406,.F.);
#585=ORIENTED_EDGE('',*,*,#438,.F.);
#586=ORIENTED_EDGE('',*,*,#435,.T.);
#587=ORIENTED_EDGE('',*,*,#405,.T.);
#588=ORIENTED_EDGE('',*,*,#409,.T.);
#589=ORIENTED_EDGE('',*,*,#412,.T.);
#590=ORIENTED_EDGE('',*,*,#415,.T.);
#591=ORIENTED_EDGE('',*,*,#418,.T.);
#592=ORIENTED_EDGE('',*,*,#421,.T.);
#593=ORIENTED_EDGE('',*,*,#424,.T.);
#594=ORIENTED_EDGE('',*,*,#427,.T.);
#595=ORIENTED_EDGE('',*,*,#430,.T.);
#596=ORIENTED_EDGE('',*,*,#433,.T.);
#597=ORIENTED_EDGE('',*,*,#436,.T.);
#598=ORIENTED_EDGE('',*,*,#438,.T.);
#599=ORIENTED_EDGE('',*,*,#403,.F.);
#600=ORIENTED_EDGE('',*,*,#437,.F.);
#601=ORIENTED_EDGE('',*,*,#434,.F.);
#602=ORIENTED_EDGE('',*,*,#431,.F.);
#603=ORIENTED_EDGE('',*,*,#428,.F.);
#604=ORIENTED_EDGE('',*,*,#425,.F.);
#605=ORIENTED_EDGE('',*,*,#422,.F.);
#606=ORIENTED_EDGE('',*,*,#419,.F.);
#607=ORIENTED_EDGE('',*,*,#416,.F.);
#608=ORIENTED_EDGE('',*,*,#413,.F.);
#609=ORIENTED_EDGE('',*,*,#410,.F.);
#610=ORIENTED_EDGE('',*,*,#407,.F.);
#611=ORIENTED_EDGE('',*,*,#439,.T.);
#612=ORIENTED_EDGE('',*,*,#440,.F.);
#613=ORIENTED_EDGE('',*,*,#441,.F.);
#614=ORIENTED_EDGE('',*,*,#442,.T.);
#615=ORIENTED_EDGE('',*,*,#443,.T.);
#616=ORIENTED_EDGE('',*,*,#444,.F.);
#617=ORIENTED_EDGE('',*,*,#445,.F.);
#618=ORIENTED_EDGE('',*,*,#440,.T.);
#619=ORIENTED_EDGE('',*,*,#446,.T.);
#620=ORIENTED_EDGE('',*,*,#447,.F.);
#621=ORIENTED_EDGE('',*,*,#448,.F.);
#622=ORIENTED_EDGE('',*,*,#444,.T.);
#623=ORIENTED_EDGE('',*,*,#449,.T.);
#624=ORIENTED_EDGE('',*,*,#450,.F.);
#625=ORIENTED_EDGE('',*,*,#451,.F.);
#626=ORIENTED_EDGE('',*,*,#447,.T.);
#627=ORIENTED_EDGE('',*,*,#452,.T.);
#628=ORIENTED_EDGE('',*,*,#453,.F.);
#629=ORIENTED_EDGE('',*,*,#454,.F.);
#630=ORIENTED_EDGE('',*,*,#450,.T.);
#631=ORIENTED_EDGE('',*,*,#455,.T.);
#632=ORIENTED_EDGE('',*,*,#456,.F.);
#633=ORIENTED_EDGE('',*,*,#457,.F.);
#634=ORIENTED_EDGE('',*,*,#453,.T.);
#635=ORIENTED_EDGE('',*,*,#458,.T.);
#636=ORIENTED_EDGE('',*,*,#459,.F.);
#637=ORIENTED_EDGE('',*,*,#460,.F.);
#638=ORIENTED_EDGE('',*,*,#456,.T.);
#639=ORIENTED_EDGE('',*,*,#461,.T.);
#640=ORIENTED_EDGE('',*,*,#462,.F.);
#641=ORIENTED_EDGE('',*,*,#463,.F.);
#642=ORIENTED_EDGE('',*,*,#459,.T.);
#643=ORIENTED_EDGE('',*,*,#464,.T.);
#644=ORIENTED_EDGE('',*,*,#465,.F.);
#645=ORIENTED_EDGE('',*,*,#466,.F.);
#646=ORIENTED_EDGE('',*,*,#462,.T.);
#647=ORIENTED_EDGE('',*,*,#467,.T.);
#648=ORIENTED_EDGE('',*,*,#468,.F.);
#649=ORIENTED_EDGE('',*,*,#469,.F.);
#650=ORIENTED_EDGE('',*,*,#465,.T.);
#651=ORIENTED_EDGE('',*,*,#470,.T.);
#652=ORIENTED_EDGE('',*,*,#471,.F.);
#653=ORIENTED_EDGE('',*,*,#472,.F.);
#654=ORIENTED_EDGE('',*,*,#468,.T.);
#655=ORIENTED_EDGE('',*,*,#473,.T.);
#656=ORIENTED_EDGE('',*,*,#442,.F.);
#657=ORIENTED_EDGE('',*,*,#474,.F.);
#658=ORIENTED_EDGE('',*,*,#471,.T.);
#659=ORIENTED_EDGE('',*,*,#441,.T.);
#660=ORIENTED_EDGE('',*,*,#445,.T.);
#661=ORIENTED_EDGE('',*,*,#448,.T.);
#662=ORIENTED_EDGE('',*,*,#451,.T.);
#663=ORIENTED_EDGE('',*,*,#454,.T.);
#664=ORIENTED_EDGE('',*,*,#457,.T.);
#665=ORIENTED_EDGE('',*,*,#460,.T.);
#666=ORIENTED_EDGE('',*,*,#463,.T.);
#667=ORIENTED_EDGE('',*,*,#466,.T.);
#668=ORIENTED_EDGE('',*,*,#469,.T.);
#669=ORIENTED_EDGE('',*,*,#472,.T.);
#670=ORIENTED_EDGE('',*,*,#474,.T.);
#671=ORIENTED_EDGE('',*,*,#439,.F.);
#672=ORIENTED_EDGE('',*,*,#473,.F.);
#673=ORIENTED_EDGE('',*,*,#470,.F.);
#674=ORIENTED_EDGE('',*,*,#467,.F.);
#675=ORIENTED_EDGE('',*,*,#464,.F.);
#676=ORIENTED_EDGE('',*,*,#461,.F.);
#677=ORIENTED_EDGE('',*,*,#458,.F.);
#678=ORIENTED_EDGE('',*,*,#455,.F.);
#679=ORIENTED_EDGE('',*,*,#452,.F.);
#680=ORIENTED_EDGE('',*,*,#449,.F.);
#681=ORIENTED_EDGE('',*,*,#446,.F.);
#682=ORIENTED_EDGE('',*,*,#443,.F.);
#683=PLANE('',#775);
#684=PLANE('',#776);
#685=PLANE('',#777);
#686=PLANE('',#778);
#687=PLANE('',#779);
#688=PLANE('',#780);
#689=PLANE('',#781);
#690=PLANE('',#782);
#691=PLANE('',#783);
#692=PLANE('',#784);
#693=PLANE('',#785);
#694=PLANE('',#786);
#695=PLANE('',#787);
#696=PLANE('',#788);
#697=PLANE('',#789);
#698=PLANE('',#790);
#699=PLANE('',#794);
#700=PLANE('',#798);
#701=PLANE('',#799);
#702=PLANE('',#800);
#703=PLANE('',#804);
#704=PLANE('',#808);
#705=PLANE('',#809);
#706=PLANE('',#810);
#707=PLANE('',#811);
#708=PLANE('',#812);
#709=PLANE('',#813);
#710=PLANE('',#817);
#711=PLANE('',#821);
#712=PLANE('',#822);
#713=PLANE('',#823);
#714=PLANE('',#827);
#715=PLANE('',#831);
#716=PLANE('',#832);
#717=ADVANCED_FACE('',(#43),#683,.T.);
#718=ADVANCED_FACE('',(#44),#684,.T.);
#719=ADVANCED_FACE('',(#45),#685,.F.);
#720=ADVANCED_FACE('',(#46),#686,.F.);
#721=ADVANCED_FACE('',(#47),#687,.F.);
#722=ADVANCED_FACE('',(#48),#688,.F.);
#723=ADVANCED_FACE('',(#49),#689,.F.);
#724=ADVANCED_FACE('',(#50),#690,.F.);
#725=ADVANCED_FACE('',(#51),#691,.F.);
#726=ADVANCED_FACE('',(#52),#692,.F.);
#727=ADVANCED_FACE('',(#53),#693,.F.);
#728=ADVANCED_FACE('',(#54),#694,.F.);
#729=ADVANCED_FACE('',(#55),#695,.F.);
#730=ADVANCED_FACE('',(#56),#696,.F.);
#731=ADVANCED_FACE('',(#57),#697,.F.);
#732=ADVANCED_FACE('',(#58),#698,.F.);
#733=ADVANCED_FACE('',(#59),#29,.F.);
#734=ADVANCED_FACE('',(#60),#699,.F.);
#735=ADVANCED_FACE('',(#61),#30,.F.);
#736=ADVANCED_FACE('',(#62),#700,.F.);
#737=ADVANCED_FACE('',(#63),#701,.F.);
#738=ADVANCED_FACE('',(#64),#702,.F.);
#739=ADVANCED_FACE('',(#65),#31,.T.);
#740=ADVANCED_FACE('',(#66),#703,.F.);
#741=ADVANCED_FACE('',(#67),#32,.T.);
#742=ADVANCED_FACE('',(#68),#704,.F.);
#743=ADVANCED_FACE('',(#69),#705,.F.);
#744=ADVANCED_FACE('',(#70),#706,.T.);
#745=ADVANCED_FACE('',(#71),#707,.F.);
#746=ADVANCED_FACE('',(#72),#708,.F.);
#747=ADVANCED_FACE('',(#73),#709,.F.);
#748=ADVANCED_FACE('',(#74),#33,.T.);
#749=ADVANCED_FACE('',(#75),#710,.F.);
#750=ADVANCED_FACE('',(#76),#34,.T.);
#751=ADVANCED_FACE('',(#77),#711,.F.);
#752=ADVANCED_FACE('',(#78),#712,.F.);
#753=ADVANCED_FACE('',(#79),#713,.F.);
#754=ADVANCED_FACE('',(#80),#35,.F.);
#755=ADVANCED_FACE('',(#81),#714,.F.);
#756=ADVANCED_FACE('',(#82),#36,.F.);
#757=ADVANCED_FACE('',(#83),#715,.T.);
#758=ADVANCED_FACE('',(#84),#716,.F.);
#759=CLOSED_SHELL('',(#717,#718,#719,#720,#721,#722,#723,#724,#725,#726,
#727,#728,#729,#730));
#760=CLOSED_SHELL('',(#731,#732,#733,#734,#735,#736,#737,#738,#739,#740,
#741,#742,#743,#744));
#761=CLOSED_SHELL('',(#745,#746,#747,#748,#749,#750,#751,#752,#753,#754,
#755,#756,#757,#758));
#762=DERIVED_UNIT_ELEMENT(#764,1.);
#763=DERIVED_UNIT_ELEMENT(#1259,-3.);
#764=(
MASS_UNIT()
NAMED_UNIT(*)
SI_UNIT(.KILO.,.GRAM.)
);
#765=DERIVED_UNIT((#762,#763));
#766=MEASURE_REPRESENTATION_ITEM('density measure',
POSITIVE_RATIO_MEASURE(7850.),#765);
#767=PROPERTY_DEFINITION_REPRESENTATION(#772,#769);
#768=PROPERTY_DEFINITION_REPRESENTATION(#773,#770);
#769=REPRESENTATION('material name',(#771),#1256);
#770=REPRESENTATION('density',(#766),#1256);
#771=DESCRIPTIVE_REPRESENTATION_ITEM('Steel','Steel');
#772=PROPERTY_DEFINITION('material property','material name',#1266);
#773=PROPERTY_DEFINITION('material property','density of part',#1266);
#774=AXIS2_PLACEMENT_3D('',#1039,#833,#834);
#775=AXIS2_PLACEMENT_3D('',#1040,#835,#836);
#776=AXIS2_PLACEMENT_3D('',#1049,#841,#842);
#777=AXIS2_PLACEMENT_3D('',#1058,#847,#848);
#778=AXIS2_PLACEMENT_3D('',#1067,#853,#854);
#779=AXIS2_PLACEMENT_3D('',#1070,#857,#858);
#780=AXIS2_PLACEMENT_3D('',#1079,#863,#864);
#781=AXIS2_PLACEMENT_3D('',#1082,#867,#868);
#782=AXIS2_PLACEMENT_3D('',#1090,#874,#875);
#783=AXIS2_PLACEMENT_3D('',#1091,#876,#877);
#784=AXIS2_PLACEMENT_3D('',#1099,#883,#884);
#785=AXIS2_PLACEMENT_3D('',#1100,#885,#886);
#786=AXIS2_PLACEMENT_3D('',#1102,#888,#889);
#787=AXIS2_PLACEMENT_3D('',#1103,#890,#891);
#788=AXIS2_PLACEMENT_3D('',#1105,#893,#894);
#789=AXIS2_PLACEMENT_3D('',#1106,#895,#896);
#790=AXIS2_PLACEMENT_3D('',#1115,#901,#902);
#791=AXIS2_PLACEMENT_3D('',#1121,#906,#907);
#792=AXIS2_PLACEMENT_3D('',#1123,#908,#909);
#793=AXIS2_PLACEMENT_3D('',#1126,#911,#912);
#794=AXIS2_PLACEMENT_3D('',#1127,#913,#914);
#795=AXIS2_PLACEMENT_3D('',#1133,#918,#919);
#796=AXIS2_PLACEMENT_3D('',#1135,#920,#921);
#797=AXIS2_PLACEMENT_3D('',#1138,#923,#924);
#798=AXIS2_PLACEMENT_3D('',#1139,#925,#926);
#799=AXIS2_PLACEMENT_3D('',#1145,#930,#931);
#800=AXIS2_PLACEMENT_3D('',#1151,#935,#936);
#801=AXIS2_PLACEMENT_3D('',#1157,#940,#941);
#802=AXIS2_PLACEMENT_3D('',#1159,#942,#943);
#803=AXIS2_PLACEMENT_3D('',#1162,#945,#946);
#804=AXIS2_PLACEMENT_3D('',#1163,#947,#948);
#805=AXIS2_PLACEMENT_3D('',#1169,#952,#953);
#806=AXIS2_PLACEMENT_3D('',#1171,#954,#955);
#807=AXIS2_PLACEMENT_3D('',#1174,#957,#958);
#808=AXIS2_PLACEMENT_3D('',#1175,#959,#960);
#809=AXIS2_PLACEMENT_3D('',#1178,#963,#964);
#810=AXIS2_PLACEMENT_3D('',#1179,#965,#966);
#811=AXIS2_PLACEMENT_3D('',#1180,#967,#968);
#812=AXIS2_PLACEMENT_3D('',#1189,#973,#974);
#813=AXIS2_PLACEMENT_3D('',#1195,#978,#979);
#814=AXIS2_PLACEMENT_3D('',#1201,#983,#984);
#815=AXIS2_PLACEMENT_3D('',#1203,#985,#986);
#816=AXIS2_PLACEMENT_3D('',#1206,#988,#989);
#817=AXIS2_PLACEMENT_3D('',#1207,#990,#991);
#818=AXIS2_PLACEMENT_3D('',#1213,#995,#996);
#819=AXIS2_PLACEMENT_3D('',#1215,#997,#998);
#820=AXIS2_PLACEMENT_3D('',#1218,#1000,#1001);
#821=AXIS2_PLACEMENT_3D('',#1219,#1002,#1003);
#822=AXIS2_PLACEMENT_3D('',#1225,#1007,#1008);
#823=AXIS2_PLACEMENT_3D('',#1231,#1012,#1013);
#824=AXIS2_PLACEMENT_3D('',#1237,#1017,#1018);
#825=AXIS2_PLACEMENT_3D('',#1239,#1019,#1020);
#826=AXIS2_PLACEMENT_3D('',#1242,#1022,#1023);
#827=AXIS2_PLACEMENT_3D('',#1243,#1024,#1025);
#828=AXIS2_PLACEMENT_3D('',#1249,#1029,#1030);
#829=AXIS2_PLACEMENT_3D('',#1250,#1031,#1032);
#830=AXIS2_PLACEMENT_3D('',#1251,#1033,#1034);
#831=AXIS2_PLACEMENT_3D('',#1252,#1035,#1036);
#832=AXIS2_PLACEMENT_3D('',#1253,#1037,#1038);
#833=DIRECTION('axis',(0.,0.,1.));
#834=DIRECTION('refdir',(1.,0.,0.));
#835=DIRECTION('center_axis',(0.,-2.22044604925031E-16,-1.));
#836=DIRECTION('ref_axis',(0.,1.,-2.22044604925031E-16));
#837=DIRECTION('',(0.,-1.,2.22044604925031E-16));
#838=DIRECTION('',(1.,0.,0.));
#839=DIRECTION('',(0.,-1.,2.22044604925031E-16));
#840=DIRECTION('',(1.,0.,0.));
#841=DIRECTION('center_axis',(0.,2.22044604925031E-16,1.));
#842=DIRECTION('ref_axis',(0.,-1.,2.22044604925031E-16));
#843=DIRECTION('',(1.,0.,0.));
#844=DIRECTION('',(0.,-1.,2.22044604925031E-16));
#845=DIRECTION('',(1.,0.,0.));
#846=DIRECTION('',(0.,-1.,2.22044604925031E-16));
#847=DIRECTION('center_axis',(-0.990268068741571,3.09026362188677E-17,0.139173100960058));
#848=DIRECTION('ref_axis',(-0.139173100960058,-2.19883682093596E-16,-0.990268068741571));
#849=DIRECTION('',(-0.137844537491622,0.137844537491629,-0.98081484846399));
#850=DIRECTION('',(0.,-1.,2.22044604925031E-16));
#851=DIRECTION('',(0.137844537491622,0.13784453749163,0.98081484846399));
#852=DIRECTION('',(0.,-1.,2.22044604925031E-16));
#853=DIRECTION('center_axis',(-0.990268068741571,-3.09026362188677E-17,
-0.139173100960058));
#854=DIRECTION('ref_axis',(0.139173100960058,-2.19883682093596E-16,-0.990268068741571));
#855=DIRECTION('',(0.137844537491622,-0.13784453749163,-0.98081484846399));
#856=DIRECTION('',(-0.137844537491622,-0.13784453749163,0.98081484846399));
#857=DIRECTION('center_axis',(0.990268068741571,3.09026362188676E-17,0.139173100960058));
#858=DIRECTION('ref_axis',(-0.139173100960058,2.19883682093596E-16,0.990268068741571));
#859=DIRECTION('',(0.137844537491621,-0.13784453749163,-0.98081484846399));
#860=DIRECTION('',(0.,-1.,2.22044604925031E-16));
#861=DIRECTION('',(-0.137844537491621,-0.137844537491629,0.98081484846399));
#862=DIRECTION('',(0.,-1.,2.22044604925031E-16));
#863=DIRECTION('center_axis',(0.990268068741571,-3.09026362188676E-17,-0.139173100960058));
#864=DIRECTION('ref_axis',(0.139173100960058,2.19883682093596E-16,0.990268068741571));
#865=DIRECTION('',(0.137844537491621,0.13784453749163,0.98081484846399));
#866=DIRECTION('',(-0.137844537491621,0.13784453749163,-0.98081484846399));
#867=DIRECTION('center_axis',(0.,-0.99026806874157,0.139173100960066));
#868=DIRECTION('ref_axis',(0.,-0.139173100960066,-0.99026806874157));
#869=DIRECTION('',(0.,0.139173100960066,0.99026806874157));
#870=DIRECTION('',(-1.,-1.50132357924746E-17,-1.06824723392788E-16));
#871=DIRECTION('',(1.,0.,0.));
#872=DIRECTION('',(-1.,-3.00264715849492E-17,-2.13649446785576E-16));
#873=DIRECTION('',(0.,-0.139173100960066,-0.99026806874157));
#874=DIRECTION('center_axis',(0.,-0.99026806874157,-0.139173100960066));
#875=DIRECTION('ref_axis',(0.,0.139173100960066,-0.99026806874157));
#876=DIRECTION('center_axis',(0.,0.99026806874157,0.139173100960066));
#877=DIRECTION('ref_axis',(0.,-0.139173100960066,0.99026806874157));
#878=DIRECTION('',(1.,-1.50132357924745E-17,1.06824723392788E-16));
#879=DIRECTION('',(0.,0.139173100960066,-0.99026806874157));
#880=DIRECTION('',(0.,-0.139173100960066,0.99026806874157));
#881=DIRECTION('',(1.,-3.00264715849491E-17,2.13649446785576E-16));
#882=DIRECTION('',(1.,0.,0.));
#883=DIRECTION('center_axis',(0.,0.99026806874157,-0.139173100960067));
#884=DIRECTION('ref_axis',(0.,0.139173100960067,0.99026806874157));
#885=DIRECTION('center_axis',(-1.,0.,0.));
#886=DIRECTION('ref_axis',(0.,-1.,2.22044604925031E-16));
#887=DIRECTION('',(0.,-1.,2.22044604925031E-16));
#888=DIRECTION('center_axis',(-2.13649446785576E-16,2.22044604925031E-16,
1.));
#889=DIRECTION('ref_axis',(-1.,-4.74397070039547E-32,-2.13649446785576E-16));
#890=DIRECTION('center_axis',(-1.06824723392788E-16,2.22044604925031E-16,
1.));
#891=DIRECTION('ref_axis',(-1.,-2.37198535019773E-32,-1.06824723392788E-16));
#892=DIRECTION('',(0.,-1.,2.22044604925031E-16));
#893=DIRECTION('center_axis',(1.,0.,0.));
#894=DIRECTION('ref_axis',(0.,1.,-2.22044604925031E-16));
#895=DIRECTION('center_axis',(-1.,0.,0.));
#896=DIRECTION('ref_axis',(0.,-1.,2.22044604925031E-16));
#897=DIRECTION('',(0.,2.22044604925031E-16,1.));
#898=DIRECTION('',(0.,1.,-2.22044604925031E-16));
#899=DIRECTION('',(0.,2.22044604925031E-16,1.));
#900=DIRECTION('',(0.,1.,-2.22044604925031E-16));
#901=DIRECTION('center_axis',(1.45530492951074E-16,-2.22044604925031E-16,
-1.));
#902=DIRECTION('ref_axis',(1.,3.23142608118664E-32,1.45530492951074E-16));
#903=DIRECTION('',(-1.,-3.23142608118664E-32,-1.45530492951074E-16));
#904=DIRECTION('',(0.,1.,-2.22044604925031E-16));
#905=DIRECTION('',(-1.,-3.23142608118664E-32,-1.45530492951074E-16));
#906=DIRECTION('center_axis',(0.,1.,-2.22044604925031E-16));
#907=DIRECTION('ref_axis',(-1.,0.,0.));
#908=DIRECTION('center_axis',(0.,1.,-2.22044604925031E-16));
#909=DIRECTION('ref_axis',(-1.,0.,0.));
#910=DIRECTION('',(0.,1.,-2.22044604925031E-16));
#911=DIRECTION('center_axis',(0.,1.,-2.22044604925031E-16));
#912=DIRECTION('ref_axis',(-1.,0.,0.));
#913=DIRECTION('center_axis',(-1.,0.,0.));
#914=DIRECTION('ref_axis',(0.,-1.,2.22044604925031E-16));
#915=DIRECTION('',(0.,2.22044604925031E-16,1.));
#916=DIRECTION('',(0.,1.,-2.22044604925031E-16));
#917=DIRECTION('',(0.,2.22044604925031E-16,1.));
#918=DIRECTION('center_axis',(0.,1.,-2.22044604925031E-16));
#919=DIRECTION('ref_axis',(-1.,0.,0.));
#920=DIRECTION('center_axis',(0.,1.,-2.22044604925031E-16));
#921=DIRECTION('ref_axis',(-1.,0.,0.));
#922=DIRECTION('',(0.,1.,-2.22044604925031E-16));
#923=DIRECTION('center_axis',(0.,1.,-2.22044604925031E-16));
#924=DIRECTION('ref_axis',(-1.,0.,0.));
#925=DIRECTION('center_axis',(0.,2.22044604925031E-16,1.));
#926=DIRECTION('ref_axis',(0.,-1.,2.22044604925031E-16));
#927=DIRECTION('',(1.,0.,0.));
#928=DIRECTION('',(0.,1.,-2.22044604925031E-16));
#929=DIRECTION('',(1.,0.,0.));
#930=DIRECTION('center_axis',(-0.990265339009921,3.09069486954689E-17,0.139192522628073));
#931=DIRECTION('ref_axis',(-0.139192522628073,-2.1988307597141E-16,-0.990265339009921));
#932=DIRECTION('',(0.139192522628073,2.1988307597141E-16,0.990265339009921));
#933=DIRECTION('',(0.,1.,-2.22044604925031E-16));
#934=DIRECTION('',(0.139192522628073,2.1988307597141E-16,0.990265339009921));
#935=DIRECTION('center_axis',(-1.47678739178827E-15,-2.22044604925031E-16,
-1.));
#936=DIRECTION('ref_axis',(1.,-3.27912672967894E-31,-1.47678739178827E-15));
#937=DIRECTION('',(-1.,3.27912672967894E-31,1.47678739178827E-15));
#938=DIRECTION('',(0.,1.,-2.22044604925031E-16));
#939=DIRECTION('',(-1.,3.27912672967894E-31,1.47678739178827E-15));
#940=DIRECTION('center_axis',(0.,1.,-2.22044604925031E-16));
#941=DIRECTION('ref_axis',(-1.,0.,0.));
#942=DIRECTION('center_axis',(0.,-1.,2.22044604925031E-16));
#943=DIRECTION('ref_axis',(-1.,0.,0.));
#944=DIRECTION('',(0.,1.,-2.22044604925031E-16));
#945=DIRECTION('center_axis',(0.,-1.,2.22044604925031E-16));
#946=DIRECTION('ref_axis',(-1.,0.,0.));
#947=DIRECTION('center_axis',(1.,0.,0.));
#948=DIRECTION('ref_axis',(0.,1.,-2.22044604925031E-16));
#949=DIRECTION('',(0.,-2.22044604925031E-16,-1.));
#950=DIRECTION('',(0.,1.,-2.22044604925031E-16));
#951=DIRECTION('',(0.,-2.22044604925031E-16,-1.));
#952=DIRECTION('center_axis',(0.,1.,-2.22044604925031E-16));
#953=DIRECTION('ref_axis',(-1.,0.,0.));
#954=DIRECTION('center_axis',(0.,-1.,2.22044604925031E-16));
#955=DIRECTION('ref_axis',(-1.,0.,0.));
#956=DIRECTION('',(0.,1.,-2.22044604925031E-16));
#957=DIRECTION('center_axis',(0.,-1.,2.22044604925031E-16));
#958=DIRECTION('ref_axis',(-1.,0.,0.));
#959=DIRECTION('center_axis',(-1.45530492951074E-16,2.22044604925031E-16,
1.));
#960=DIRECTION('ref_axis',(-1.,-3.23142608118664E-32,-1.45530492951074E-16));
#961=DIRECTION('',(1.,3.23142608118664E-32,1.45530492951074E-16));
#962=DIRECTION('',(1.,3.23142608118664E-32,1.45530492951074E-16));
#963=DIRECTION('center_axis',(0.,1.,-2.22044604925031E-16));
#964=DIRECTION('ref_axis',(-1.,0.,0.));
#965=DIRECTION('center_axis',(0.,1.,-2.22044604925031E-16));
#966=DIRECTION('ref_axis',(-1.,0.,0.));
#967=DIRECTION('center_axis',(-1.45530492951074E-16,-2.22044604925031E-16,
-1.));
#968=DIRECTION('ref_axis',(1.,-3.23142608118664E-32,-1.45530492951074E-16));
#969=DIRECTION('',(-1.,3.23142608118664E-32,1.45530492951074E-16));
#970=DIRECTION('',(0.,1.,-2.22044604925031E-16));
#971=DIRECTION('',(-1.,3.23142608118664E-32,1.45530492951074E-16));
#972=DIRECTION('',(0.,1.,-2.22044604925031E-16));
#973=DIRECTION('center_axis',(1.,0.,0.));
#974=DIRECTION('ref_axis',(0.,1.,-2.22044604925031E-16));
#975=DIRECTION('',(0.,-2.22044604925031E-16,-1.));
#976=DIRECTION('',(0.,1.,-2.22044604925031E-16));
#977=DIRECTION('',(0.,-2.22044604925031E-16,-1.));
#978=DIRECTION('center_axis',(1.45530492951074E-16,2.22044604925031E-16,
1.));
#979=DIRECTION('ref_axis',(-1.,3.23142608118664E-32,1.45530492951074E-16));
#980=DIRECTION('',(1.,-3.23142608118664E-32,-1.45530492951074E-16));
#981=DIRECTION('',(0.,1.,-2.22044604925031E-16));
#982=DIRECTION('',(1.,-3.23142608118664E-32,-1.45530492951074E-16));
#983=DIRECTION('center_axis',(0.,1.,-2.22044604925031E-16));
#984=DIRECTION('ref_axis',(-1.,0.,0.));
#985=DIRECTION('center_axis',(0.,-1.,2.22044604925031E-16));
#986=DIRECTION('ref_axis',(1.,0.,0.));
#987=DIRECTION('',(0.,1.,-2.22044604925031E-16));
#988=DIRECTION('center_axis',(0.,-1.,2.22044604925031E-16));
#989=DIRECTION('ref_axis',(1.,0.,0.));
#990=DIRECTION('center_axis',(-1.,0.,0.));
#991=DIRECTION('ref_axis',(0.,-1.,2.22044604925031E-16));
#992=DIRECTION('',(0.,2.22044604925031E-16,1.));
#993=DIRECTION('',(0.,1.,-2.22044604925031E-16));
#994=DIRECTION('',(0.,2.22044604925031E-16,1.));
#995=DIRECTION('center_axis',(0.,1.,-2.22044604925031E-16));
#996=DIRECTION('ref_axis',(-1.,0.,0.));
#997=DIRECTION('center_axis',(0.,-1.,2.22044604925031E-16));
#998=DIRECTION('ref_axis',(1.,0.,0.));
#999=DIRECTION('',(0.,1.,-2.22044604925031E-16));
#1000=DIRECTION('center_axis',(0.,-1.,2.22044604925031E-16));
#1001=DIRECTION('ref_axis',(1.,0.,0.));
#1002=DIRECTION('center_axis',(1.47678739178827E-15,-2.22044604925031E-16,
-1.));
#1003=DIRECTION('ref_axis',(1.,3.27912672967894E-31,1.47678739178827E-15));
#1004=DIRECTION('',(-1.,-3.27912672967894E-31,-1.47678739178827E-15));
#1005=DIRECTION('',(0.,1.,-2.22044604925031E-16));
#1006=DIRECTION('',(-1.,-3.27912672967894E-31,-1.47678739178827E-15));
#1007=DIRECTION('center_axis',(0.990265339009921,3.09069486954689E-17,0.139192522628073));
#1008=DIRECTION('ref_axis',(-0.139192522628073,2.1988307597141E-16,0.990265339009921));
#1009=DIRECTION('',(0.139192522628073,-2.1988307597141E-16,-0.990265339009921));
#1010=DIRECTION('',(0.,1.,-2.22044604925031E-16));
#1011=DIRECTION('',(0.139192522628073,-2.1988307597141E-16,-0.990265339009921));
#1012=DIRECTION('center_axis',(0.,2.22044604925031E-16,1.));
#1013=DIRECTION('ref_axis',(0.,-1.,2.22044604925031E-16));
#1014=DIRECTION('',(1.,0.,0.));
#1015=DIRECTION('',(0.,1.,-2.22044604925031E-16));
#1016=DIRECTION('',(1.,0.,0.));
#1017=DIRECTION('center_axis',(0.,1.,-2.22044604925031E-16));
#1018=DIRECTION('ref_axis',(-1.,0.,0.));
#1019=DIRECTION('center_axis',(0.,1.,-2.22044604925031E-16));
#1020=DIRECTION('ref_axis',(1.,0.,0.));
#1021=DIRECTION('',(0.,1.,-2.22044604925031E-16));
#1022=DIRECTION('center_axis',(0.,1.,-2.22044604925031E-16));
#1023=DIRECTION('ref_axis',(1.,0.,0.));
#1024=DIRECTION('center_axis',(1.,0.,0.));
#1025=DIRECTION('ref_axis',(0.,1.,-2.22044604925031E-16));
#1026=DIRECTION('',(0.,-2.22044604925031E-16,-1.));
#1027=DIRECTION('',(0.,1.,-2.22044604925031E-16));
#1028=DIRECTION('',(0.,-2.22044604925031E-16,-1.));
#1029=DIRECTION('center_axis',(0.,1.,-2.22044604925031E-16));
#1030=DIRECTION('ref_axis',(-1.,0.,0.));
#1031=DIRECTION('center_axis',(0.,1.,-2.22044604925031E-16));
#1032=DIRECTION('ref_axis',(1.,0.,0.));
#1033=DIRECTION('center_axis',(0.,1.,-2.22044604925031E-16));
#1034=DIRECTION('ref_axis',(1.,0.,0.));
#1035=DIRECTION('center_axis',(0.,-1.,2.22044604925031E-16));
#1036=DIRECTION('ref_axis',(1.,0.,0.));
#1037=DIRECTION('center_axis',(0.,-1.,2.22044604925031E-16));
#1038=DIRECTION('ref_axis',(1.,0.,0.));
#1039=CARTESIAN_POINT('',(0.,0.,0.));
#1040=CARTESIAN_POINT('Origin',(0.,0.0201022765211639,0.205812652917671));
#1041=CARTESIAN_POINT('',(-2.275,2.79793975401073,0.20581265291767));
#1042=CARTESIAN_POINT('',(-2.275,-2.75773520096841,0.205812652917672));
#1043=CARTESIAN_POINT('',(-2.275,2.97038977652117,0.20581265291767));
#1044=CARTESIAN_POINT('',(2.275,2.79793975401073,0.205812652917671));
#1045=CARTESIAN_POINT('',(-3.437555,2.79793975401073,0.20581265291767));
#1046=CARTESIAN_POINT('',(2.275,-2.75773520096841,0.205812652917672));
#1047=CARTESIAN_POINT('',(2.275,2.97038977652117,0.205812652917671));
#1048=CARTESIAN_POINT('',(-3.437555,-2.75773520096841,0.205812652917672));
#1049=CARTESIAN_POINT('Origin',(0.,0.0201022765211645,2.65581265291767));
#1050=CARTESIAN_POINT('',(-3.26533747748958,-2.75773520096841,2.65581265291767));
#1051=CARTESIAN_POINT('',(3.26533747748958,-2.7577352009684,2.65581265291767));
#1052=CARTESIAN_POINT('',(-3.437555,-2.75773520096841,2.65581265291767));
#1053=CARTESIAN_POINT('',(3.26533747748958,2.79793975401073,2.65581265291767));
#1054=CARTESIAN_POINT('',(3.26533747748958,2.97010227652116,2.65581265291767));
#1055=CARTESIAN_POINT('',(-3.26533747748958,2.79793975401073,2.65581265291767));
#1056=CARTESIAN_POINT('',(-3.437555,2.79793975401073,2.65581265291767));
#1057=CARTESIAN_POINT('',(-3.26533747748958,2.97010227652116,2.65581265291767));
#1058=CARTESIAN_POINT('Origin',(3.26533747748958,2.97010227652116,0.20581265291767));
#1059=CARTESIAN_POINT('',(3.43750000099699,-2.92989772347884,1.43081265291767));
#1060=CARTESIAN_POINT('',(3.2899321235625,-2.78232984704132,0.380812652917673));
#1061=CARTESIAN_POINT('',(3.15650217019348,-2.6488998936723,-0.568590797343387));
#1062=CARTESIAN_POINT('',(3.28993212392568,2.82253440030502,0.380812653259434));
#1063=CARTESIAN_POINT('',(3.2899321235625,2.97024602652117,0.380812652917671));
#1064=CARTESIAN_POINT('',(3.43750000076835,2.97010227652117,1.43081265291767));
#1065=CARTESIAN_POINT('',(3.26860875763954,2.80121103416069,0.229089020650114));
#1066=CARTESIAN_POINT('',(3.4375,2.97010227652117,1.43081265291767));
#1067=CARTESIAN_POINT('Origin',(3.4375,2.97010227652117,1.43081265291767));
#1068=CARTESIAN_POINT('',(3.32539341255395,-2.81779113603277,2.22849247091118));
#1069=CARTESIAN_POINT('',(3.4375,2.97010227652117,1.43081265291767));
#1070=CARTESIAN_POINT('Origin',(-3.26533747748958,2.97010227652116,0.20581265291767));
#1071=CARTESIAN_POINT('',(-3.43750000076835,2.97010227652117,1.43081265291767));
#1072=CARTESIAN_POINT('',(-3.28993212392568,2.82253440030502,0.380812653259432));
#1073=CARTESIAN_POINT('',(-3.26860875763954,2.80121103416069,0.229089020650114));
#1074=CARTESIAN_POINT('',(-3.28993212392568,-2.7823298472627,0.380812653259434));
#1075=CARTESIAN_POINT('',(-3.2899321235625,2.97024602652117,0.38081265291767));
#1076=CARTESIAN_POINT('',(-3.43750000099698,-2.92989772347884,1.43081265291767));
#1077=CARTESIAN_POINT('',(-3.15650217019348,-2.6488998936723,-0.568590797343387));
#1078=CARTESIAN_POINT('',(-3.4375,2.97010227652117,1.43081265291767));
#1079=CARTESIAN_POINT('Origin',(-3.4375,2.97010227652117,1.43081265291767));
#1080=CARTESIAN_POINT('',(-3.32539341255395,-2.81779113603278,2.22849247091118));
#1081=CARTESIAN_POINT('',(-3.4375,2.97010227652117,1.43081265291767));
#1082=CARTESIAN_POINT('Origin',(-3.437555,2.79793975401073,0.20581265291767));
#1083=CARTESIAN_POINT('',(-2.275,2.82253440008365,0.38081265291767));
#1084=CARTESIAN_POINT('',(-2.275,2.79793975401073,0.20581265291767));
#1085=CARTESIAN_POINT('',(-3.437555,2.82253440008365,0.38081265291767));
#1086=CARTESIAN_POINT('',(-3.437555,2.97010227652117,1.43081265291767));
#1087=CARTESIAN_POINT('',(2.275,2.82253440008365,0.380812652917671));
#1088=CARTESIAN_POINT('',(-3.437555,2.82253440008365,0.38081265291767));
#1089=CARTESIAN_POINT('',(2.275,2.79793975401073,0.20581265291767));
#1090=CARTESIAN_POINT('Origin',(-3.437555,2.97010227652117,1.43081265291767));
#1091=CARTESIAN_POINT('Origin',(-3.437555,-2.75773520096841,0.205812652917672));
#1092=CARTESIAN_POINT('',(-2.275,-2.78232984704132,0.380812652917672));
#1093=CARTESIAN_POINT('',(-3.437555,-2.78232984704132,0.380812652917671));
#1094=CARTESIAN_POINT('',(-2.275,-2.75773520096841,0.205812652917672));
#1095=CARTESIAN_POINT('',(2.275,-2.78232984704132,0.380812652917672));
#1096=CARTESIAN_POINT('',(2.275,-2.75773520096841,0.205812652917672));
#1097=CARTESIAN_POINT('',(-3.437555,-2.78232984704132,0.380812652917671));
#1098=CARTESIAN_POINT('',(-3.437555,-2.92989772347884,1.43081265291767));
#1099=CARTESIAN_POINT('Origin',(-3.437555,-2.92989772347884,1.43081265291767));
#1100=CARTESIAN_POINT('Origin',(2.275,2.97038977652117,0.205812652917671));
#1101=CARTESIAN_POINT('',(2.275,2.97038977652117,0.380812652917671));
#1102=CARTESIAN_POINT('Origin',(2.275,2.97038977652117,0.380812652917671));
#1103=CARTESIAN_POINT('Origin',(-2.275,2.97038977652117,0.38081265291767));
#1104=CARTESIAN_POINT('',(-2.275,2.97038977652117,0.38081265291767));
#1105=CARTESIAN_POINT('Origin',(-2.275,2.97038977652117,0.20581265291767));
#1106=CARTESIAN_POINT('Origin',(-2.8,-1.48489772347884,0.282812652917671));
#1107=CARTESIAN_POINT('',(-2.8,1.52510227652116,0.00281265291767052));
#1108=CARTESIAN_POINT('',(-2.8,1.52510227652116,0.282812652917671));
#1109=CARTESIAN_POINT('',(-2.8,1.52510227652116,0.282812652917671));
#1110=CARTESIAN_POINT('',(-2.8,-1.48489772347884,0.282812652917671));
#1111=CARTESIAN_POINT('',(-2.8,-1.48489772347884,0.282812652917671));
#1112=CARTESIAN_POINT('',(-2.8,-1.48489772347884,0.00281265291767119));
#1113=CARTESIAN_POINT('',(-2.8,-1.48489772347884,0.282812652917671));
#1114=CARTESIAN_POINT('',(-2.8,-1.48489772347884,0.00281265291767119));
#1115=CARTESIAN_POINT('Origin',(-2.8,-1.48489772347884,0.282812652917671));
#1116=CARTESIAN_POINT('',(-3.545,1.52510227652116,0.282812652917671));
#1117=CARTESIAN_POINT('',(-2.8,1.52510227652116,0.282812652917671));
#1118=CARTESIAN_POINT('',(-3.545,-1.48489772347884,0.282812652917671));
#1119=CARTESIAN_POINT('',(-3.545,-1.48489772347884,0.282812652917671));
#1120=CARTESIAN_POINT('',(-2.8,-1.48489772347884,0.282812652917671));
#1121=CARTESIAN_POINT('Origin',(-3.545,-1.48489772347884,0.432812652917671));
#1122=CARTESIAN_POINT('',(-3.695,1.52510227652116,0.432812652917671));
#1123=CARTESIAN_POINT('Origin',(-3.545,1.52510227652116,0.432812652917671));
#1124=CARTESIAN_POINT('',(-3.695,-1.48489772347884,0.432812652917671));
#1125=CARTESIAN_POINT('',(-3.695,-1.48489772347884,0.432812652917671));
#1126=CARTESIAN_POINT('Origin',(-3.545,-1.48489772347884,0.432812652917671));
#1127=CARTESIAN_POINT('Origin',(-3.695,-1.48489772347884,0.432812652917671));
#1128=CARTESIAN_POINT('',(-3.695,1.52510227652116,1.28081265291767));
#1129=CARTESIAN_POINT('',(-3.695,1.52510227652116,0.432812652917671));
#1130=CARTESIAN_POINT('',(-3.695,-1.48489772347884,1.28081265291767));
#1131=CARTESIAN_POINT('',(-3.695,-1.48489772347884,1.28081265291767));
#1132=CARTESIAN_POINT('',(-3.695,-1.48489772347884,0.432812652917671));
#1133=CARTESIAN_POINT('Origin',(-3.545,-1.48489772347884,1.28081265291767));
#1134=CARTESIAN_POINT('',(-3.545,1.52510227652116,1.43081265291767));
#1135=CARTESIAN_POINT('Origin',(-3.545,1.52510227652116,1.28081265291767));
#1136=CARTESIAN_POINT('',(-3.545,-1.48489772347884,1.43081265291767));
#1137=CARTESIAN_POINT('',(-3.545,-1.48489772347884,1.43081265291767));
#1138=CARTESIAN_POINT('Origin',(-3.545,-1.48489772347884,1.28081265291767));
#1139=CARTESIAN_POINT('Origin',(-3.545,-1.48489772347884,1.43081265291767));
#1140=CARTESIAN_POINT('',(-3.4375245,1.52510227652116,1.43081265291767));
#1141=CARTESIAN_POINT('',(-3.545,1.52510227652116,1.43081265291767));
#1142=CARTESIAN_POINT('',(-3.4375245,-1.48489772347884,1.43081265291767));
#1143=CARTESIAN_POINT('',(-3.4375245,-1.48489772347884,1.43081265291767));
#1144=CARTESIAN_POINT('',(-3.545,-1.48489772347884,1.43081265291767));
#1145=CARTESIAN_POINT('Origin',(-3.4375245,-1.48489772347884,1.43081265291767));
#1146=CARTESIAN_POINT('',(-3.39816746628333,1.52510227652116,1.71081265291767));
#1147=CARTESIAN_POINT('',(-3.4375245,1.52510227652116,1.43081265291767));
#1148=CARTESIAN_POINT('',(-3.39816746628333,-1.48489772347884,1.71081265291767));
#1149=CARTESIAN_POINT('',(-3.39816746628333,-1.48489772347884,1.71081265291767));
#1150=CARTESIAN_POINT('',(-3.4375245,-1.48489772347884,1.43081265291767));
#1151=CARTESIAN_POINT('Origin',(-3.545,-1.48489772347884,1.71081265291767));
#1152=CARTESIAN_POINT('',(-3.545,1.52510227652116,1.71081265291767));
#1153=CARTESIAN_POINT('',(-3.545,1.52510227652116,1.71081265291767));
#1154=CARTESIAN_POINT('',(-3.545,-1.48489772347884,1.71081265291767));
#1155=CARTESIAN_POINT('',(-3.545,-1.48489772347884,1.71081265291767));
#1156=CARTESIAN_POINT('',(-3.545,-1.48489772347884,1.71081265291767));
#1157=CARTESIAN_POINT('Origin',(-3.545,-1.48489772347884,1.28081265291767));
#1158=CARTESIAN_POINT('',(-3.975,1.52510227652116,1.28081265291767));
#1159=CARTESIAN_POINT('Origin',(-3.545,1.52510227652116,1.28081265291767));
#1160=CARTESIAN_POINT('',(-3.975,-1.48489772347884,1.28081265291767));
#1161=CARTESIAN_POINT('',(-3.975,-1.48489772347884,1.28081265291767));
#1162=CARTESIAN_POINT('Origin',(-3.545,-1.48489772347884,1.28081265291767));
#1163=CARTESIAN_POINT('Origin',(-3.975,-1.48489772347884,0.432812652917671));
#1164=CARTESIAN_POINT('',(-3.975,1.52510227652116,0.432812652917671));
#1165=CARTESIAN_POINT('',(-3.975,1.52510227652116,0.432812652917671));
#1166=CARTESIAN_POINT('',(-3.975,-1.48489772347884,0.432812652917671));
#1167=CARTESIAN_POINT('',(-3.975,-1.48489772347884,0.432812652917671));
#1168=CARTESIAN_POINT('',(-3.975,-1.48489772347884,0.432812652917671));
#1169=CARTESIAN_POINT('Origin',(-3.545,-1.48489772347884,0.432812652917671));
#1170=CARTESIAN_POINT('',(-3.545,1.52510227652116,0.00281265291767052));
#1171=CARTESIAN_POINT('Origin',(-3.545,1.52510227652116,0.432812652917671));
#1172=CARTESIAN_POINT('',(-3.545,-1.48489772347884,0.00281265291767063));
#1173=CARTESIAN_POINT('',(-3.545,-1.48489772347884,0.00281265291767063));
#1174=CARTESIAN_POINT('Origin',(-3.545,-1.48489772347884,0.432812652917671));
#1175=CARTESIAN_POINT('Origin',(-2.8,-1.48489772347884,0.00281265291767119));
#1176=CARTESIAN_POINT('',(-2.8,1.52510227652116,0.00281265291767052));
#1177=CARTESIAN_POINT('',(-2.8,-1.48489772347884,0.00281265291767119));
#1178=CARTESIAN_POINT('Origin',(-3.545,-1.48489772347884,0.432812652917671));
#1179=CARTESIAN_POINT('Origin',(-3.545,1.52510227652116,0.432812652917671));
#1180=CARTESIAN_POINT('Origin',(2.8,-1.48489772347884,0.282812652917671));
#1181=CARTESIAN_POINT('',(3.545,1.52510227652116,0.282812652917671));
#1182=CARTESIAN_POINT('',(2.8,1.52510227652116,0.282812652917671));
#1183=CARTESIAN_POINT('',(2.8,1.52510227652116,0.282812652917671));
#1184=CARTESIAN_POINT('',(2.8,-1.48489772347884,0.282812652917671));
#1185=CARTESIAN_POINT('',(2.8,-1.48489772347884,0.282812652917671));
#1186=CARTESIAN_POINT('',(3.545,-1.48489772347884,0.282812652917671));
#1187=CARTESIAN_POINT('',(2.8,-1.48489772347884,0.282812652917671));
#1188=CARTESIAN_POINT('',(3.545,-1.48489772347884,0.282812652917671));
#1189=CARTESIAN_POINT('Origin',(2.8,-1.48489772347884,0.282812652917671));
#1190=CARTESIAN_POINT('',(2.8,1.52510227652116,0.00281265291767052));
#1191=CARTESIAN_POINT('',(2.8,1.52510227652116,0.282812652917671));
#1192=CARTESIAN_POINT('',(2.8,-1.48489772347884,0.00281265291767119));
#1193=CARTESIAN_POINT('',(2.8,-1.48489772347884,0.00281265291767119));
#1194=CARTESIAN_POINT('',(2.8,-1.48489772347884,0.282812652917671));
#1195=CARTESIAN_POINT('Origin',(2.8,-1.48489772347884,0.00281265291767119));
#1196=CARTESIAN_POINT('',(3.545,1.52510227652116,0.00281265291767052));
#1197=CARTESIAN_POINT('',(2.8,1.52510227652116,0.00281265291767052));
#1198=CARTESIAN_POINT('',(3.545,-1.48489772347884,0.00281265291767063));
#1199=CARTESIAN_POINT('',(3.545,-1.48489772347884,0.00281265291767063));
#1200=CARTESIAN_POINT('',(2.8,-1.48489772347884,0.00281265291767119));
#1201=CARTESIAN_POINT('Origin',(3.545,-1.48489772347884,0.432812652917671));
#1202=CARTESIAN_POINT('',(3.975,1.52510227652116,0.432812652917671));
#1203=CARTESIAN_POINT('Origin',(3.545,1.52510227652116,0.432812652917671));
#1204=CARTESIAN_POINT('',(3.975,-1.48489772347884,0.432812652917671));
#1205=CARTESIAN_POINT('',(3.975,-1.48489772347884,0.432812652917671));
#1206=CARTESIAN_POINT('Origin',(3.545,-1.48489772347884,0.432812652917671));
#1207=CARTESIAN_POINT('Origin',(3.975,-1.48489772347884,0.432812652917671));
#1208=CARTESIAN_POINT('',(3.975,1.52510227652116,1.28081265291767));
#1209=CARTESIAN_POINT('',(3.975,1.52510227652116,0.432812652917671));
#1210=CARTESIAN_POINT('',(3.975,-1.48489772347884,1.28081265291767));
#1211=CARTESIAN_POINT('',(3.975,-1.48489772347884,1.28081265291767));
#1212=CARTESIAN_POINT('',(3.975,-1.48489772347884,0.432812652917671));
#1213=CARTESIAN_POINT('Origin',(3.545,-1.48489772347884,1.28081265291767));
#1214=CARTESIAN_POINT('',(3.545,1.52510227652116,1.71081265291767));
#1215=CARTESIAN_POINT('Origin',(3.545,1.52510227652116,1.28081265291767));
#1216=CARTESIAN_POINT('',(3.545,-1.48489772347884,1.71081265291767));
#1217=CARTESIAN_POINT('',(3.545,-1.48489772347884,1.71081265291767));
#1218=CARTESIAN_POINT('Origin',(3.545,-1.48489772347884,1.28081265291767));
#1219=CARTESIAN_POINT('Origin',(3.545,-1.48489772347884,1.71081265291767));
#1220=CARTESIAN_POINT('',(3.39816746628333,1.52510227652116,1.71081265291767));
#1221=CARTESIAN_POINT('',(3.545,1.52510227652116,1.71081265291767));
#1222=CARTESIAN_POINT('',(3.39816746628333,-1.48489772347884,1.71081265291767));
#1223=CARTESIAN_POINT('',(3.39816746628333,-1.48489772347884,1.71081265291767));
#1224=CARTESIAN_POINT('',(3.545,-1.48489772347884,1.71081265291767));
#1225=CARTESIAN_POINT('Origin',(3.4375245,-1.48489772347884,1.43081265291767));
#1226=CARTESIAN_POINT('',(3.4375245,1.52510227652116,1.43081265291767));
#1227=CARTESIAN_POINT('',(3.4375245,1.52510227652116,1.43081265291767));
#1228=CARTESIAN_POINT('',(3.4375245,-1.48489772347884,1.43081265291767));
#1229=CARTESIAN_POINT('',(3.4375245,-1.48489772347884,1.43081265291767));
#1230=CARTESIAN_POINT('',(3.4375245,-1.48489772347884,1.43081265291767));
#1231=CARTESIAN_POINT('Origin',(3.545,-1.48489772347884,1.43081265291767));
#1232=CARTESIAN_POINT('',(3.545,1.52510227652116,1.43081265291767));
#1233=CARTESIAN_POINT('',(3.545,1.52510227652116,1.43081265291767));
#1234=CARTESIAN_POINT('',(3.545,-1.48489772347884,1.43081265291767));
#1235=CARTESIAN_POINT('',(3.545,-1.48489772347884,1.43081265291767));
#1236=CARTESIAN_POINT('',(3.545,-1.48489772347884,1.43081265291767));
#1237=CARTESIAN_POINT('Origin',(3.545,-1.48489772347884,1.28081265291767));
#1238=CARTESIAN_POINT('',(3.695,1.52510227652116,1.28081265291767));
#1239=CARTESIAN_POINT('Origin',(3.545,1.52510227652116,1.28081265291767));
#1240=CARTESIAN_POINT('',(3.695,-1.48489772347884,1.28081265291767));
#1241=CARTESIAN_POINT('',(3.695,-1.48489772347884,1.28081265291767));
#1242=CARTESIAN_POINT('Origin',(3.545,-1.48489772347884,1.28081265291767));
#1243=CARTESIAN_POINT('Origin',(3.695,-1.48489772347884,0.432812652917671));
#1244=CARTESIAN_POINT('',(3.695,1.52510227652116,0.432812652917671));
#1245=CARTESIAN_POINT('',(3.695,1.52510227652116,0.432812652917671));
#1246=CARTESIAN_POINT('',(3.695,-1.48489772347884,0.432812652917671));
#1247=CARTESIAN_POINT('',(3.695,-1.48489772347884,0.432812652917671));
#1248=CARTESIAN_POINT('',(3.695,-1.48489772347884,0.432812652917671));
#1249=CARTESIAN_POINT('Origin',(3.545,-1.48489772347884,0.432812652917671));
#1250=CARTESIAN_POINT('Origin',(3.545,1.52510227652116,0.432812652917671));
#1251=CARTESIAN_POINT('Origin',(3.545,-1.48489772347884,0.432812652917671));
#1252=CARTESIAN_POINT('Origin',(3.545,-1.48489772347884,0.432812652917671));
#1253=CARTESIAN_POINT('Origin',(3.545,1.52510227652116,0.432812652917671));
#1254=UNCERTAINTY_MEASURE_WITH_UNIT(LENGTH_MEASURE(0.01),#1258,
'DISTANCE_ACCURACY_VALUE',
'Maximum model space distance between geometric entities at asserted c
onnectivities');
#1255=UNCERTAINTY_MEASURE_WITH_UNIT(LENGTH_MEASURE(0.01),#1258,
'DISTANCE_ACCURACY_VALUE',
'Maximum model space distance between geometric entities at asserted c
onnectivities');
#1256=(
GEOMETRIC_REPRESENTATION_CONTEXT(3)
GLOBAL_UNCERTAINTY_ASSIGNED_CONTEXT((#1254))
GLOBAL_UNIT_ASSIGNED_CONTEXT((#1258,#1260,#1261))
REPRESENTATION_CONTEXT('','3D')
);
#1257=(
GEOMETRIC_REPRESENTATION_CONTEXT(3)
GLOBAL_UNCERTAINTY_ASSIGNED_CONTEXT((#1255))
GLOBAL_UNIT_ASSIGNED_CONTEXT((#1258,#1260,#1261))
REPRESENTATION_CONTEXT('','3D')
);
#1258=(
LENGTH_UNIT()
NAMED_UNIT(*)
SI_UNIT(.MILLI.,.METRE.)
);
#1259=(
LENGTH_UNIT()
NAMED_UNIT(*)
SI_UNIT($,.METRE.)
);
#1260=(
NAMED_UNIT(*)
PLANE_ANGLE_UNIT()
SI_UNIT($,.RADIAN.)
);
#1261=(
NAMED_UNIT(*)
SI_UNIT($,.STERADIAN.)
SOLID_ANGLE_UNIT()
);
#1262=SHAPE_DEFINITION_REPRESENTATION(#1263,#1264);
#1263=PRODUCT_DEFINITION_SHAPE('',$,#1266);
#1264=SHAPE_REPRESENTATION('',(#774),#1256);
#1265=PRODUCT_DEFINITION_CONTEXT('part definition',#1270,'design');
#1266=PRODUCT_DEFINITION('SS34','SS34 v2',#1267,#1265);
#1267=PRODUCT_DEFINITION_FORMATION('',$,#1272);
#1268=PRODUCT_RELATED_PRODUCT_CATEGORY('SS34 v2','SS34 v2',(#1272));
#1269=APPLICATION_PROTOCOL_DEFINITION('international standard',
'automotive_design',2009,#1270);
#1270=APPLICATION_CONTEXT(
'Core Data for Automotive Mechanical Design Process');
#1271=PRODUCT_CONTEXT('part definition',#1270,'mechanical');
#1272=PRODUCT('SS34','SS34 v2','STEP AP214',(#1271));
#1273=PRESENTATION_STYLE_ASSIGNMENT((#1276));
#1274=PRESENTATION_STYLE_ASSIGNMENT((#1277));
#1275=PRESENTATION_STYLE_ASSIGNMENT((#1278));
#1276=SURFACE_STYLE_USAGE(.BOTH.,#1279);
#1277=SURFACE_STYLE_USAGE(.BOTH.,#1280);
#1278=SURFACE_STYLE_USAGE(.BOTH.,#1281);
#1279=SURFACE_SIDE_STYLE('',(#1282));
#1280=SURFACE_SIDE_STYLE('',(#1283));
#1281=SURFACE_SIDE_STYLE('',(#1284));
#1282=SURFACE_STYLE_FILL_AREA(#1285);
#1283=SURFACE_STYLE_FILL_AREA(#1286);
#1284=SURFACE_STYLE_FILL_AREA(#1287);
#1285=FILL_AREA_STYLE('Steel - Satin',(#1288));
#1286=FILL_AREA_STYLE('Opaque(64,64,64)',(#1289));
#1287=FILL_AREA_STYLE('Opaque(202,209,238)',(#1290));
#1288=FILL_AREA_STYLE_COLOUR('Steel - Satin',#1291);
#1289=FILL_AREA_STYLE_COLOUR('Opaque(64,64,64)',#1292);
#1290=FILL_AREA_STYLE_COLOUR('Opaque(202,209,238)',#1293);
#1291=COLOUR_RGB('Steel - Satin',0.627450980392157,0.627450980392157,0.627450980392157);
#1292=COLOUR_RGB('Opaque(64,64,64)',0.250980392156863,0.250980392156863,
0.250980392156863);
#1293=COLOUR_RGB('Opaque(202,209,238)',0.792156862745098,0.819607843137255,
0.933333333333333);
ENDSEC;
END-ISO-10303-21;
